<?xml version="1.0" encoding="utf-8"?>
<!-- Generator: Adobe Illustrator 24.2.0, SVG Export Plug-In . SVG Version: 6.00 Build 0)  -->
<svg version="1.1" id="Ebene_1" xmlns="http://www.w3.org/2000/svg" xmlns:xlink="http://www.w3.org/1999/xlink" x="0px" y="0px"
	 viewBox="0 0 97 45" style="enable-background:new 0 0 97 45;" xml:space="preserve">
<style type="text/css">
	.st0{enable-background:new    ;}
</style>
<g class="st0">
	<path d="M34,13.8c-0.5,0.1-1,0.2-1.6,0.3c-0.2,0-0.4,0.2-0.3,0.4l1.1,8.1c0.1,0.4,0.1,0.8,0.2,1.2c0.1,1-0.1,1.5-1.2,1.6
		c-1.5,0.2-1.5-0.8-1.7-2c-0.1-0.9-0.1-0.8-0.2-1.7l-1-7.2c0-0.2-0.2-0.3-0.4-0.3c-0.5,0.1-0.3,0.1-0.8,0.2
		c-0.6,0.1-2.4,0.3-2.5-0.6c-0.1-0.8,0.6-1.1,1.3-1.2c1.4-0.2,2.2-0.3,3.6-0.5c0.9-0.1,4.7-0.9,4.9,0.6C35.4,13.3,34.6,13.7,34,13.8
		z"/>
	<path d="M42.1,12.9C41.7,13,41.2,13,40.8,13c-0.2,0-0.4,0.2-0.3,0.4c0,0.3,0.1,0.7,0.1,1c0,0.4,0.1,0.8,0.1,1.2
		c0,0.1,0.1,0.3,0.2,0.2c0.2,0,0.9-0.7,1.5-0.7c0.6-0.1,1.3,0.1,1.4,0.8c0.1,1-1.9,1.7-2.6,2.1C41,18.1,41,18.3,41,18.4
		c0.1,1,0.4,1.9,0.6,2.9c0,0.2,0,0.4,0.3,0.4c0.4-0.1,0.7-0.2,1.1-0.3c0.6-0.1,1.4,0.1,1.5,0.8c0.1,1-1.6,1.3-2.3,1.4
		s-2.1,0.3-2.7-0.2c-0.3-0.3-0.3-0.8-0.4-1.2c-0.3-1.2-0.6-2.5-0.8-3.7c-0.2-1.8-0.4-3.5-0.6-5.3c-0.1-0.8-0.2-1.5,0.7-1.7
		c1-0.2,1.3-0.2,2.7-0.4c0.5-0.1,0.9-0.1,1.4,0c0.4,0.1,0.7,0.3,0.8,0.7C43.4,12.4,42.6,12.8,42.1,12.9z"/>
	<path d="M55.1,17.5c0.2,0.3,0.5,0.6,0.5,0.9c0.1,0.6-0.7,1.1-1.2,1.1c-0.6,0.1-1.2-0.1-1.5-0.7c-0.2-0.2-0.3-0.5-0.4-0.7
		c-0.1-0.2-0.3-0.3-0.5-0.2c-0.5,0.1-1,0.2-1.7,0.3c-0.2,0-0.4,0-0.4,0.3l-0.2,1.2c-0.1,1-0.1,1.9-1.4,2.1c-0.5,0.1-1.4-0.1-1.5-0.7
		c0-0.3,0.3-2.7,0.4-3.1c0.3-2.5,1.3-5.3,2.2-7c0.6-0.9,1.4-0.7,1.7-0.7C52.9,10.9,54.2,15.9,55.1,17.5z M51.6,16.1
		c0.1,0,0.1-0.1,0.1-0.2c0-0.2-0.1-0.3-0.1-0.4c-0.1-0.5-0.3-1-0.5-1.5L51,13.8c-0.1,0-0.1,0.1-0.1,0.2c-0.1,0.3-0.5,1.9-0.5,2.1
		c0,0.2,0.2,0.2,0.3,0.2C50.9,16.2,51.3,16.2,51.6,16.1z"/>
	<path d="M68.9,8.1c0.3,2,0.5,3.9,0.9,5.9c0.1,0.5,0.1,1,0.3,1.4c0.1,0.3,0.4,0.5,0.4,0.8c0.1,0.7-0.7,1.2-1.3,1.3
		c-1.7,0.2-1.8-1.7-2-2.9c-0.2-0.8-0.3-1.7-0.4-2.5c0,0,0-0.2-0.1-0.2c-0.2,0-0.9,2.5-2.5,2.7c-1.3,0.2-3.2-2.2-3.6-2.1
		c-0.2,0-0.2,0.9-0.2,1.1c0.1,1.8,0.2,3.5,0.4,5.3c0.1,0.9-0.2,1.4-1.2,1.6c-0.9,0.1-1.4-0.3-1.6-1.2c-0.2-1.4-0.7-8.3,0-9.1
		c0.2-0.3,0.5-0.4,0.9-0.5c1.2-0.2,3,0.9,3.9,1.6c0.2,0.2,0.5,0.6,0.9,0.5c0.7-0.1,1.9-4.5,3.8-4.8C68.3,6.9,68.8,7.3,68.9,8.1z"/>
</g>
<g class="st0">
	<path d="M40,38c-3.1,0.4-5-1.6-5.4-4.5c-0.1-0.9-0.1-1.9,0-2.8c0.2-2.7,0.9-5.7,4.1-6.1c3.3-0.5,5,2.7,5.4,5.5
		C44.5,33.2,43.8,37.5,40,38z M40.8,30.6C40.7,30,40,27,39.2,27.1c-0.1,0-0.7,0.3-0.7,0.4c-0.8,1.2-0.9,4.3-0.7,5.7
		c0.1,0.9,0.6,2.8,1.8,2.6C41,35.5,41,31.7,40.8,30.6z"/>
	<path d="M52.9,36.2c-3.1,0.4-5-1.6-5.4-4.5c-0.1-0.9-0.1-1.9,0-2.8c0.2-2.7,0.9-5.7,4.1-6.1c3.3-0.5,5,2.7,5.4,5.5
		C57.4,31.4,56.7,35.7,52.9,36.2z M53.7,28.8c-0.1-0.6-0.8-3.6-1.6-3.5c-0.1,0-0.7,0.3-0.7,0.4c-0.8,1.2-0.9,4.3-0.7,5.7
		c0.1,0.9,0.6,2.8,1.8,2.6C53.9,33.7,53.9,29.9,53.7,28.8z"/>
	<path d="M61.2,24.2c-0.7,0.1-1.6-0.1-1.7-0.9c-0.1-0.5,0.3-0.9,0.7-1.1c0.8-0.4,4.2-0.8,5.4-1c0.7-0.1,1.8,0,1.9,0.9
		c0,0.2,0,0.3,0,0.5c-0.4,3-0.4,6.1-0.7,9.1c-0.1,0.7-0.1,1.6-0.5,2.1c-0.3,0.3-0.8,0.5-1.2,0.6c-0.6,0.1-1.6-0.1-1.7-0.8
		c0-0.3,0.4-2.9,0.5-3.5c0.1-1.9,0.3-3.8,0.4-5.7v-0.1c0-0.2-0.2-0.3-0.4-0.2C63,24.1,62.1,24.1,61.2,24.2z"/>
</g>
</svg>
