<?xml version="1.0" encoding="utf-8"?>
<!-- Generator: Adobe Illustrator 24.2.0, SVG Export Plug-In . SVG Version: 6.00 Build 0)  -->
<svg version="1.1" id="Ebene_1" xmlns="http://www.w3.org/2000/svg" xmlns:xlink="http://www.w3.org/1999/xlink" x="0px" y="0px"
	 viewBox="0 0 97 45" style="enable-background:new 0 0 97 45;" xml:space="preserve">
<style type="text/css">
	.st0{enable-background:new    ;}
</style>
<g class="st0">
	<path d="M10.7,20.4c-0.1-0.6-0.1-1.2-0.2-1.9c-0.1-1.4-0.3-3.4,1.6-3.7c0.7-0.1,1.6,0,1.8,0.9c0.1,0.5-0.2,1.1-0.2,1.6
		c0,0.8,0.1,1.7,0.2,2.5c0.1,0.6,0.7,3.9,1.6,3.8c0.1,0,0.2-0.1,0.3-0.2c1.4-1.4,1.9-5.8,1.7-7.7c0-0.6-0.2-1.1,0.2-1.6
		c0.3-0.3,0.7-0.5,1.2-0.6c0.9-0.1,1.7,0.2,1.8,1.2c0.2,1.1,0,2.6-0.1,3.8c-0.3,2.8-1.3,7-4.7,7.5C12.3,26.5,11.1,23.3,10.7,20.4z"
		/>
	<path d="M36,12.2c0.2,3,0.6,6.1-0.3,9c-0.2,0.6-0.6,0.9-1.2,1c-0.6,0.1-1.3-0.1-1.8-0.5c-1.4-1.1-2.7-2.4-4.1-3.5
		C28.5,18,28.5,18,28.4,18c-0.2,0.1-0.2,0.3-0.2,0.4c-0.1,1.2-0.1,2.7,0,3.9c0,1.1,0.4,2.4-0.9,2.9c-0.1,0-0.3,0.1-0.4,0.1
		c-0.6,0.1-1.5,0-1.7-0.7c0-0.1-0.1-0.2-0.1-0.4c-0.1-0.6,0-1.2,0-1.7c0-2.1,0-4.4,0.3-6.6c0.1-0.7,0.6-1.2,1.4-1.3
		c1.9-0.3,4.7,2.3,6.1,3.4c0.1,0.1,0.1,0.1,0.2,0.1c0.1,0,0.1-0.1,0.2-0.2c0.2-1.7-0.1-4.4-0.3-6.1c-0.1-0.9-0.2-1.7,0.8-2.1
		c0.2-0.1,0.4-0.1,0.6-0.2c0.9-0.1,1.7,0.2,1.8,1.2C36,11.3,36,11.7,36,12.2z"/>
	<path d="M45,9.2c0.4-0.1,0.7-0.1,1.1-0.1c0.6,0,1.2,0.4,1.3,1c0.1,0.8-0.7,1.2-1.4,1.3c-0.5,0.1-1.1,0.1-1.6,0.3
		c-0.7,0.4-0.7,1-0.6,1.8c0.4,2.6,2.9,3.2,3.2,5.4c0.3,2-1.5,3.3-3.3,3.6c-0.9,0.1-3.1,0-3.2-1.2c-0.1-0.7,0.2-1.5,0.8-1.6
		c0.8-0.1,1.4,0.7,2.1,0.6c0.4-0.1,0.5-0.6,0.5-0.9c-0.1-0.8-1.9-2.3-2.4-3.1c-0.4-0.7-0.7-1.5-0.8-2.3C40.2,11,42.4,9.6,45,9.2z"/>
	<path d="M59.2,19.6c-0.5,1.4-3,1.8-4.2,2L54,21.7c-2,0.3-2.2-2.3-2.5-3.7c-0.2-0.8-0.3-1.6-0.4-2.4c-0.3-2.1-0.4-4.2-0.4-6.2
		c0-0.7,0.3-1.3,1-1.6c0.4-0.2,0.7-0.2,1.1-0.3c0.3-0.1,0.7-0.1,1.1-0.2c0.8-0.1,1.6-0.2,2.5-0.3C57,6.9,57.9,7.1,58,7.8
		c0.2,1.4-2.8,1.6-3.7,1.8c-0.3,0.1-0.4,0.2-0.4,0.5c0,0.5,0.1,2,0.1,2.5c0,0.2,0.2,0.4,0.5,0.4s0.7-0.1,1-0.1
		c0.4-0.1,0.8-0.2,1.2-0.2c0.7-0.1,1.5,0.1,1.6,0.9c0.2,1.1-1.3,1.4-2.1,1.5c-0.3,0-0.5,0.1-0.7,0.1c-0.4,0.1-1.2,0-1.2,0.6
		c0.1,1,0.4,1.9,0.6,2.9v0.1c0,0.3,0,0.6,0.4,0.6c0.8-0.1,1.4-0.9,2.2-1c0.6-0.1,1.6,0.1,1.7,0.9C59.3,19.3,59.3,19.4,59.2,19.6z"/>
	<path d="M68.2,14c0.8,0.6,1.4,1.4,2.1,2.1c0.5,0.4,1.1,0.3,1.4,0.9c0.5,0.8-0.7,1.5-1.4,1.6c-2.1,0.3-4.2-2.9-4.6-2.9
		c-0.1,0-0.1,0.2-0.1,0.2c0.1,0.9,0.3,1.7,0.3,2.6c0.1,0.5,0.1,1-0.4,1.4c-0.3,0.3-0.7,0.4-1.1,0.5c-1,0.1-1.6-0.3-1.7-1.3
		c-0.2-1.1-0.3-2.7-0.5-3.9c-0.4-2.6-0.9-4.8-1.2-7.4c0-0.2,0-0.4,0-0.6c0.4-1,2.5-1.7,3.4-1.9c2.5-0.3,4.8,0.9,5.2,3.6
		c0.2,1.7-0.4,3.3-1.5,4.5C68,13.5,68,13.6,68,13.7C68.1,13.9,68.1,14,68.2,14z M64.8,7.7c-0.3,0-0.6,0.1-0.6,0.5l0.2,1.4
		c0.1,0.9,0.3,1.8,0.5,2.7c0,0.2,0.1,0.3,0.3,0.3c0.1,0,0.1,0,0.2-0.1c0.8-0.6,1.3-1.8,1.1-2.8C66.5,8.8,65.8,7.5,64.8,7.7z"/>
	<path d="M82.2,16.3c-0.5,1.4-3,1.8-4.2,2l-0.9,0.1c-2,0.3-2.2-2.3-2.5-3.7c-0.2-0.8-0.3-1.6-0.4-2.4c-0.3-2.1-0.4-4.2-0.5-6.2
		c0-0.7,0.3-1.3,1-1.6c0.4-0.2,0.7-0.2,1.1-0.3c0.4-0.1,0.7-0.1,1.1-0.1c0.8-0.1,1.6-0.2,2.5-0.3c0.6-0.1,1.4,0.1,1.5,0.8
		C81,6,78.2,6.1,77.3,6.3c-0.3,0.1-0.4,0.2-0.4,0.5c0,0.5,0.1,2,0.1,2.5c0,0.2,0.2,0.4,0.5,0.4s0.7-0.1,1-0.1
		c0.5-0.1,0.9-0.2,1.3-0.2c0.7-0.1,1.5,0.1,1.6,0.9c0.2,1.1-1.3,1.4-2.1,1.5c-0.3,0-0.5,0.1-0.7,0.1c-0.4,0.1-1.2,0-1.2,0.6
		c0.1,1,0.4,1.9,0.6,2.9v0.1c0,0.3,0,0.6,0.4,0.6c0.8-0.1,1.4-0.9,2.2-1c0.6-0.1,1.6,0.1,1.7,0.9C82.3,16,82.3,16.2,82.2,16.3z"/>
</g>
<g class="st0">
	<path d="M10.1,42.2c-0.6,0.4-1.3,0.7-2.1,0.8c-3.2,0.4-4.8-2.5-5.2-5.3c-0.4-2.9,0.3-7.1,3.9-7.6c0.9-0.1,1.8,0.1,2.7,0.4
		c0.3,0.1,0.8,0.4,0.8,0.8c0.1,0.6-0.6,1-1.2,1.1c-0.9,0.1-1.4-0.5-2.1-0.4c-0.5,0.1-0.9,0.9-1,1.3c-0.5,1.3-0.5,2.7-0.3,4.1
		c0.1,1,0.5,3,1.6,3.6C7.4,41,7.6,41,7.8,41c0.8-0.1,1.4-1.1,2.2-1.2c0.5-0.1,1.3,0.1,1.4,0.8C11.5,41.3,10.7,41.8,10.1,42.2z"/>
	<path d="M16.7,39.3c-0.2,0.6-0.7,0.9-1.3,1c-0.8,0.1-1.4-0.2-1.5-1c0-0.3,0-0.5-0.1-0.8l-0.7-5c-0.1-0.7-0.2-1.3-0.3-2
		c0-0.3-0.1-0.7-0.1-1c0-0.7,0.6-1,1.2-1.1c0.9-0.1,1.5,0.2,1.6,1.1c0,0.3,0,0.6,0.1,0.9l0.4,2.7c0,0.2,0.2,0.3,0.4,0.3
		c0.6-0.1,1.3-0.2,2-0.4c0.2-0.1,0.3-0.2,0.3-0.4c-0.1-1-0.3-2-0.6-2.9c-0.1-0.3-0.2-0.6-0.3-1c-0.1-0.7,0.6-1.1,1.2-1.1
		c0.5-0.1,1,0.1,1.3,0.5c0.4,0.6,0.5,1.4,0.6,2.1c0.2,0.7,0.3,1.5,0.4,2.2c0.3,1.7,0.5,3.4,0.8,5.1c0.1,1-0.1,1.5-1.2,1.7
		c-0.9,0.1-1.4-0.2-1.5-1.2c0-0.3,0-0.7-0.1-1.1L19,36.2c0-0.2-0.2-0.3-0.4-0.3c-0.2,0-0.4,0.1-0.5,0.1c-0.4,0.1-0.8,0.2-1.2,0.2
		h-0.3c-0.1,0-0.3,0.1-0.3,0.2l0.2,1.1c0,0.3,0.3,0.5,0.3,1C16.7,38.9,16.8,39.2,16.7,39.3z"/>
	<path d="M28.6,28.6c2.1,1.5,3.2,4.8,4.3,7.1c0.1,0.2,0.2,0.4,0.2,0.6c0.1,0.8-0.5,1.2-1.2,1.3c-1.4,0.2-1.5-0.9-1.9-1.9
		c-0.1-0.3-0.2-0.5-0.3-0.8c-0.1-0.1-0.1-0.2-0.2-0.2c-0.7,0.1-1.4,0.2-2.1,0.3c-0.1,0-0.2,0-0.3,0c-0.1,0-0.2,0.1-0.2,0.2
		c0,0.3-0.1,0.6-0.1,0.9c-0.1,1,0.4,2.2-1.2,2.4c-0.6,0.1-1.3-0.1-1.4-0.8c-0.2-1.6,0.1-3.3,0.3-4.9c0.1-0.9,0.3-1.8,0.4-2.7
		c0.1-0.6,0-1.5,0.5-1.9c0.3-0.2,0.6-0.4,0.9-0.4C27.1,28,28,28.3,28.6,28.6z M27.5,31.4c0,0.2-0.2,1.6-0.2,1.6
		c0,0.2,0.2,0.3,0.3,0.2l0.9-0.1c0.2,0,0.3-0.1,0.2-0.3c0-0.2-0.7-1.3-0.9-1.5c0,0-0.1-0.1-0.2-0.1C27.5,31.1,27.5,31.3,27.5,31.4z"
		/>
	<path d="M40.3,32.8c0.7,0.5,1.1,1.2,1.8,1.8c0.4,0.3,0.9,0.3,1.2,0.8c0.4,0.7-0.6,1.3-1.2,1.4c-1.8,0.3-3.6-2.5-3.9-2.4
		c-0.1,0-0.1,0.1-0.1,0.2c0.1,0.7,0.2,1.5,0.3,2.2c0,0.4,0.1,0.8-0.3,1.2c-0.3,0.2-0.6,0.4-0.9,0.4c-0.8,0.1-1.4-0.3-1.5-1.1
		c-0.1-0.9-0.3-2.3-0.5-3.3c-0.4-2.2-0.7-4.1-1-6.2c0-0.2,0-0.3,0-0.5c0.3-0.9,2.1-1.5,2.9-1.6c2.1-0.3,4.1,0.8,4.4,3
		c0.2,1.4-0.3,2.8-1.3,3.8c0,0,0,0,0,0.1C40.2,32.7,40.3,32.8,40.3,32.8z M37.5,27.4c-0.2,0-0.5,0.1-0.5,0.4l0.2,1.2
		c0.1,0.8,0.3,1.5,0.4,2.3c0,0.1,0.1,0.2,0.3,0.2c0.1,0,0.1,0,0.1-0.1c0.7-0.5,1.1-1.5,1-2.4C38.9,28.4,38.4,27.3,37.5,27.4z"/>
	<path d="M50,25.6c2.1,1.5,3.2,4.8,4.3,7.1c0.1,0.2,0.2,0.4,0.2,0.6c0.1,0.8-0.5,1.2-1.2,1.3c-1.4,0.2-1.5-0.9-1.9-1.9
		c-0.1-0.3-0.2-0.5-0.3-0.8c-0.1-0.1-0.1-0.2-0.2-0.2c-0.7,0.1-1.4,0.2-2.1,0.3c-0.1,0-0.2,0-0.3,0s-0.2,0.1-0.2,0.2
		c0,0.3-0.1,0.6-0.1,0.9c-0.1,1,0.4,2.2-1.2,2.4c-0.6,0.1-1.3-0.1-1.4-0.8c-0.2-1.6,0.1-3.3,0.3-4.9c0.1-0.9,0.3-1.8,0.4-2.7
		c0.1-0.6,0-1.5,0.5-1.9c0.3-0.2,0.6-0.4,0.9-0.4C48.5,25,49.4,25.3,50,25.6z M48.9,28.4c0,0.2-0.2,1.6-0.2,1.6
		c0,0.2,0.2,0.3,0.3,0.2l0.9-0.1c0.2,0,0.3-0.1,0.2-0.3c0-0.2-0.7-1.3-0.9-1.5c0,0-0.1-0.1-0.2-0.1C48.9,28.1,48.9,28.3,48.9,28.4z"
		/>
	<path d="M58.9,34.7c-0.6,0.1-1.2-0.1-1.4-0.7c-0.8-2.8-1.1-5.7-1.7-8.6c0-0.1,0-0.2-0.1-0.3c-0.1-0.8,0.5-1.2,1.2-1.3
		c1.3-0.2,1.5,0.9,1.7,1.9c0,0.1,0,0.4,0.1,0.3c0.1,0,0.1-0.1,0.1-0.1c0.1-0.2,0.3-0.5,0.4-0.7c0.4-0.7,0.8-1.4,1.3-2
		c0.3-0.3,0.7-0.6,1.1-0.6c0.5-0.1,1.3,0.2,1.4,0.8c0,0.4-0.3,0.7-0.4,1c-0.7,1.1-1.3,2.2-2,3.4c-0.1,0.1-0.1,0.2-0.1,0.3
		c0,0.1,0.1,0.2,0.2,0.3c0.8,0.6,1.6,1.3,2.5,1.8c0.3,0.1,1,0.4,1.2,0.5c0.1,0.1,0.2,0.3,0.3,0.5c0.1,0.6-0.6,1.1-1.1,1.2
		c-1.6,0.2-3.9-1.9-4.1-1.9c-0.1,0-0.1,0.1-0.1,0.2c0.1,0.7,0.3,1.4,0.4,2.1c0.1,0.3,0.2,0.6,0.2,0.9C60.2,34.3,59.5,34.6,58.9,34.7
		z"/>
	<path d="M67.2,23.6c-0.6,0.1-1.4-0.1-1.5-0.8c-0.1-0.6,0.6-1,1.1-1.1c1.7-0.4,3.4-0.6,5-0.9c0.4-0.1,0.7-0.2,1.1-0.2
		c0.6-0.1,1.5,0,1.6,0.8c0,0.2,0,0.3-0.1,0.4c-0.3,0.5-1,0.6-1.5,0.7l-1.2,0.2c-0.2,0-0.4-0.1-0.4,0.3l1.2,8.6
		c0.1,0.4,0.1,0.8-0.2,1.1c-0.2,0.2-0.6,0.4-0.9,0.4c-0.9,0.1-1.4-0.3-1.5-1.1c0-0.3,0-0.6-0.1-0.9l-1-7.5c0-0.2-0.2-0.3-0.4-0.3
		C68,23.5,67.6,23.6,67.2,23.6z"/>
	<path d="M84.2,30.3c-0.4,1.1-2.5,1.6-3.6,1.7l-0.8,0.1c-1.7,0.2-1.9-2-2.1-3.1c-0.1-0.7-0.3-1.3-0.4-2c-0.2-1.7-0.4-3.5-0.4-5.3
		c0-0.6,0.3-1.1,0.8-1.4c0.3-0.1,0.6-0.2,1-0.3c0.3,0,0.6-0.1,0.9-0.1c0.7-0.1,1.4-0.2,2.1-0.3c0.5-0.1,1.2,0.1,1.3,0.7
		c0.2,1.1-2.3,1.3-3.1,1.5c-0.2,0-0.4,0.2-0.4,0.4c0,0.4,0.1,1.7,0.1,2.1c0,0.2,0.2,0.4,0.4,0.3c0.3,0,0.6-0.1,0.9-0.1
		s0.7-0.1,1-0.2c0.6-0.1,1.3,0.1,1.4,0.8c0.1,0.9-1.1,1.2-1.8,1.3c-0.2,0-0.4,0.1-0.6,0.1c-0.3,0-1,0-1,0.5c0.1,0.8,0.3,1.6,0.5,2.4
		v0.1c0,0.2,0,0.5,0.3,0.5c0.7-0.1,1.1-0.7,1.8-0.8c0.5-0.1,1.4,0.1,1.4,0.7C84.3,30,84.3,30.1,84.2,30.3z"/>
	<path d="M91.8,25.6c0.7,0.5,1.1,1.2,1.8,1.8c0.4,0.3,0.9,0.3,1.2,0.8c0.4,0.7-0.6,1.3-1.2,1.4c-1.8,0.3-3.6-2.5-3.9-2.4
		c-0.1,0-0.1,0.1-0.1,0.2c0.1,0.7,0.2,1.5,0.3,2.2c0,0.4,0.1,0.8-0.3,1.2c-0.3,0.2-0.6,0.4-0.9,0.4c-0.8,0.1-1.4-0.3-1.5-1.1
		c-0.1-0.9-0.3-2.3-0.5-3.3c-0.4-2.2-0.7-4.1-1-6.2c0-0.2,0-0.3,0-0.5c0.3-0.9,2.1-1.5,2.9-1.6c2.1-0.3,4.1,0.8,4.4,3
		c0.2,1.4-0.3,2.8-1.3,3.8c-0.1,0.1-0.1,0.1-0.1,0.2C91.7,25.5,91.8,25.5,91.8,25.6z M89,20.1c-0.2,0-0.5,0.1-0.5,0.4l0.2,1.2
		c0.1,0.8,0.3,1.5,0.4,2.3c0,0.1,0.1,0.2,0.3,0.2c0.1,0,0.1,0,0.1-0.1c0.7-0.5,1.1-1.5,1-2.4C90.3,21.1,89.8,20.1,89,20.1z"/>
</g>
</svg>
