<?xml version="1.0" encoding="utf-8"?>
<!-- Generator: Adobe Illustrator 24.2.0, SVG Export Plug-In . SVG Version: 6.00 Build 0)  -->
<svg version="1.1" xmlns="http://www.w3.org/2000/svg" xmlns:xlink="http://www.w3.org/1999/xlink" x="0px" y="0px"
	 viewBox="0 0 192.9 109" style="enable-background:new 0 0 192.9 109;" xml:space="preserve">
<style type="text/css">
	.st0{fill:#FFFFFF;}
</style>
<g id="feuer">
</g>
<g id="kopf">
</g>
<g id="Ebene_4">
</g>
<g id="körper">
</g>
<g id="füße">
	<g>
		<g>
			<path class="st0" d="M102.7,30.9c-0.2,0-0.3-0.1-0.4-0.3c-0.1-0.2,0-0.4,0.2-0.5c4.4-1.7,3.6-7.7,3.6-7.8c0-0.1,0-0.2,0.1-0.3
				c4.3-6,3.2-11.8,1.7-15.3c0.9,7.1-6,10.4-6.1,10.4c-0.1,0-0.2,0-0.3,0c-0.1,0-5.3-2-10,0c-0.1,0-0.2,0-0.3,0
				c-0.1,0-7-3.3-6.1-10.4c-1.4,3.5-2.6,9.4,1.7,15.3c0.1,0.1,0.1,0.2,0.1,0.3c0,0.1-0.9,6,3.5,7.7c0.2,0.1,0.3,0.3,0.2,0.5
				c-0.1,0.2-0.3,0.3-0.5,0.2c-4.6-1.7-4.1-7.4-4-8.4c-7-9.9,0.1-19.4,0.2-19.5c0.1-0.2,0.4-0.2,0.5-0.1c0.2,0.1,0.2,0.3,0.2,0.5
				c-3.8,8.4,3.2,12.4,4.4,13c4.5-1.9,9.3-0.3,10.2,0c1.2-0.6,8.2-4.6,4.4-13.1c-0.1-0.2,0-0.4,0.2-0.5c0.2-0.1,0.4-0.1,0.5,0.1
				c0.1,0.1,7.1,9.6,0.2,19.5c0.1,1,0.4,6.8-4.1,8.5C102.8,30.9,102.8,30.9,102.7,30.9z"/>
		</g>
		<g>
			<path class="st0" d="M101.2,27.3c-1.4,0.4-2.7,0.1-2.7,0.1s0.5-2.2,1.9-3.9c0.3-0.3,0.6-0.5,0.9-0.7
				C101.2,22.7,103,25,101.2,27.3z"/>
			<path class="st0" d="M99.7,27.7c-0.7,0-1.3-0.1-1.3-0.1c-0.1,0-0.2-0.1-0.1-0.2c0-0.1,0.5-2.3,1.9-4c0.3-0.3,0.6-0.6,0.9-0.8
				c0.1,0,0.2,0,0.2,0.1c0,0,1.9,2.4,0,4.8c0,0-0.1,0.1-0.1,0.1C100.7,27.6,100.1,27.7,99.7,27.7z M101.2,27.3L101.2,27.3
				L101.2,27.3z M98.7,27.2c0.4,0.1,1.4,0.2,2.4-0.1c1.4-1.9,0.4-3.6,0.1-4.1c-0.3,0.2-0.5,0.3-0.7,0.6
				C99.4,24.9,98.8,26.6,98.7,27.2z"/>
		</g>
		<g>
			<path class="st0" d="M101.2,27.5c-0.1,0-0.1,0-0.2-0.1c0-0.1,0-0.2,0-0.2c1.7-2.2,0.1-4.2,0-4.3c0,0-0.1-0.1,0-0.2
				c0-0.1,0.1-0.1,0.1-0.1c1.5-0.7,3.4-0.2,3.5-0.2c0.1,0,0.1,0.1,0.1,0.2c0,0.1,0.4,2.4-1.6,4C102.5,27,101.9,27.3,101.2,27.5
				C101.2,27.5,101.2,27.5,101.2,27.5z M101.5,22.8c0.4,0.6,1.3,2.3,0.2,4.1c0.4-0.2,0.8-0.4,1.1-0.7l0,0c1.6-1.3,1.5-3,1.5-3.5
				C103.9,22.7,102.6,22.4,101.5,22.8z"/>
		</g>
		<g>
			<path class="st0" d="M94.9,27.3c0,0-1.8,0.4-3.5-0.3c-0.6-2.8,1.3-3.8,1.4-3.9c0,0,0,0,0,0c0.1,0.1,0.2,0.2,0.3,0.3
				C94.4,25.1,94.9,27.3,94.9,27.3z"/>
			<path class="st0" d="M93.6,27.7c-0.7,0-1.5-0.1-2.3-0.5c-0.1,0-0.1-0.1-0.1-0.1c-0.6-2.8,1.1-3.9,1.5-4.1c0.1,0,0.2,0,0.2,0
				c0.1,0.1,0.2,0.2,0.3,0.3c1.4,1.7,1.9,3.9,1.9,4c0,0.1,0,0.2-0.1,0.2C94.9,27.6,94.4,27.7,93.6,27.7z M91.5,26.9
				c1.3,0.5,2.6,0.4,3.1,0.3c-0.2-0.6-0.7-2.3-1.8-3.6c0-0.1-0.1-0.1-0.1-0.2C92.2,23.7,91.1,24.7,91.5,26.9z"/>
		</g>
		<g>
			<path class="st0" d="M91.4,27.2C91.3,27.2,91.3,27.2,91.4,27.2c-0.4-0.2-0.8-0.4-1.1-0.6c-2-1.6-1.6-3.9-1.6-4
				c0-0.1,0.1-0.1,0.1-0.2c0.1,0,2.6-0.7,4.1,0.6c0,0,0.1,0.1,0.1,0.2c0,0.1,0,0.1-0.1,0.2c-0.3,0.2-1.8,1.1-1.3,3.6
				c0,0.1,0,0.2-0.1,0.2C91.4,27.2,91.4,27.2,91.4,27.2z M89,22.7c0,0.5-0.1,2.3,1.5,3.5c0.2,0.1,0.4,0.3,0.6,0.4
				c-0.3-2.1,0.7-3.1,1.3-3.5C91.2,22.3,89.5,22.6,89,22.7z"/>
		</g>
		<g>
			<path class="st0" d="M91.4,27.2c-0.1,0-0.2-0.1-0.2-0.2v0c0-0.1,0.1-0.2,0.2-0.2s0.2,0.1,0.2,0.2S91.5,27.2,91.4,27.2z"/>
		</g>
		<g>
			<line class="st0" x1="90.1" y1="20" x2="95.6" y2="26.2"/>
			<path class="st0" d="M95.6,26.6c-0.1,0-0.2,0-0.3-0.1l-5.5-6.2c-0.1-0.2-0.1-0.4,0-0.6c0.2-0.1,0.4-0.1,0.6,0l5.5,6.2
				c0.1,0.2,0.1,0.4,0,0.6C95.8,26.6,95.7,26.6,95.6,26.6z"/>
		</g>
		<g>
			<line class="st0" x1="103.1" y1="20" x2="97.6" y2="26.2"/>
			<path class="st0" d="M97.6,26.6c-0.1,0-0.2,0-0.3-0.1c-0.2-0.1-0.2-0.4,0-0.6l5.5-6.2c0.1-0.2,0.4-0.2,0.6,0
				c0.2,0.1,0.2,0.4,0,0.6l-5.5,6.2C97.8,26.6,97.7,26.6,97.6,26.6z"/>
		</g>
		<g>
			<path class="st0" d="M99.1,31.9h-5.1c-1,0-1.9-0.8-1.9-1.9v-0.9c0-1,0.8-1.9,1.9-1.9h5.1c1,0,1.9,0.8,1.9,1.9V30
				C101,31.1,100.2,31.9,99.1,31.9z M94.1,27.7c-0.8,0-1.5,0.7-1.5,1.5V30c0,0.8,0.7,1.5,1.5,1.5h5.1c0.8,0,1.5-0.7,1.5-1.5v-0.9
				c0-0.8-0.7-1.5-1.5-1.5H94.1z"/>
		</g>
		<g>
			<path class="st0" d="M95.6,28.7c0,0,0.2,0.7-0.6,1c-0.8,0.3-1-0.2-1-0.2s0.1-0.5,0.6-0.7C95.2,28.7,95.6,28.7,95.6,28.7z"/>
			<path class="st0" d="M94.6,30c-0.5,0-0.7-0.3-0.8-0.4c0,0,0-0.1,0-0.1c0,0,0.1-0.7,0.8-0.8c0.6-0.1,1-0.1,1-0.1
				c0.1,0,0.2,0.1,0.2,0.2c0.1,0.3,0.1,1-0.7,1.2C95,29.9,94.8,30,94.6,30z M94.3,29.4c0.1,0.1,0.3,0.2,0.7,0
				c0.4-0.1,0.4-0.4,0.4-0.5c-0.2,0-0.4,0-0.7,0.1C94.4,29.1,94.3,29.3,94.3,29.4z"/>
		</g>
		<g>
			<path class="st0" d="M97.3,28.7c0,0-0.2,0.7,0.6,1c0.8,0.3,1-0.2,1-0.2s-0.1-0.5-0.6-0.7C97.8,28.7,97.3,28.7,97.3,28.7z"/>
			<path class="st0" d="M98.3,30c-0.2,0-0.3,0-0.5-0.1c-0.8-0.3-0.8-0.9-0.7-1.2c0-0.1,0.1-0.2,0.2-0.2c0,0,0.5,0,1,0.1
				c0.7,0.2,0.8,0.8,0.8,0.8c0,0,0,0.1,0,0.1C99.1,29.6,98.8,30,98.3,30z M97.5,28.9c0,0.2,0.1,0.4,0.4,0.5c0.4,0.1,0.6,0,0.7,0
				c0-0.1-0.1-0.3-0.4-0.4C97.9,29,97.7,28.9,97.5,28.9z"/>
		</g>
		<g>
			<path class="st0" d="M96.6,35.7c-2.5,0-4.6-1.6-4.6-1.6c-0.1-0.1-0.1-0.2,0-0.3c0.1-0.1,0.2-0.1,0.3,0c0.2,0.1,4.4,3.3,8,0
				c0.1-0.1,0.2-0.1,0.3,0s0.1,0.2,0,0.3C99.2,35.3,97.8,35.7,96.6,35.7z"/>
		</g>
		<g>
			<path class="st0" d="M94.9,34.1C94.8,34.1,94.8,34,94.9,34.1l-0.7-2l-0.6,1.8c0,0-0.1,0.1-0.1,0.1c0,0-0.1,0-0.1-0.1l-0.4-2.4
				c0-0.1,0-0.1,0.1-0.1c0.1,0,0.1,0,0.1,0.1l0.3,2l0.6-1.7c0,0,0.1-0.1,0.1-0.1c0,0,0,0,0,0c0,0,0.1,0,0.1,0.1l0.6,2l0.7-2
				c0,0,0.1-0.1,0.1-0.1c0,0,0,0,0,0c0,0,0.1,0,0.1,0.1l0.8,1.9l0.7-1.9c0,0,0-0.1,0.1-0.1c0,0,0.1,0,0.1,0.1l0.5,1.8l0.7-1.8
				c0,0,0.1-0.1,0.1-0.1c0,0,0,0,0,0c0,0,0.1,0,0.1,0.1l0.5,1.6l0.4-1.8c0-0.1,0.1-0.1,0.1-0.1c0.1,0,0.1,0.1,0.1,0.1l-0.5,2.2
				c0,0,0,0.1-0.1,0.1c0,0-0.1,0-0.1-0.1L98.7,32L98,33.8c0,0-0.1,0.1-0.1,0.1c0,0-0.1,0-0.1-0.1L97.3,32l-0.6,1.9
				c0,0-0.1,0.1-0.1,0.1c0,0,0,0,0,0c0,0-0.1,0-0.1-0.1L95.7,32L94.9,34.1C94.9,34,94.9,34.1,94.9,34.1z"/>
		</g>
		<g>
			<path class="st0" d="M93.1,34.7C93.1,34.7,93,34.7,93.1,34.7l-0.3-1.6l-0.5,1c0,0.1-0.1,0.1-0.1,0.1c-0.1,0-0.1-0.1-0.1-0.1
				l0.6-1.4c0,0,0.1-0.1,0.1-0.1c0,0,0.1,0,0.1,0.1l0.3,1.9C93.2,34.7,93.2,34.7,93.1,34.7C93.1,34.7,93.1,34.7,93.1,34.7z"/>
		</g>
		<g>
			<path class="st0" d="M96.6,35.6C96.6,35.6,96.5,35.6,96.6,35.6l-0.9-2.5l-0.9,2.1c0,0-0.1,0.1-0.1,0.1c0,0-0.1,0-0.1-0.1L94,33.4
				l-0.6,1.4c0,0.1-0.1,0.1-0.1,0.1c-0.1,0-0.1-0.1-0.1-0.1L94,33c0,0,0.1-0.1,0.1-0.1c0,0,0.1,0,0.1,0.1l0.5,1.9l0.9-2.1
				c0,0,0.1-0.1,0.1-0.1c0,0,0.1,0,0.1,0.1l0.8,2.3l0.5-2.2c0,0,0-0.1,0.1-0.1c0,0,0,0,0,0c0,0,0.1,0,0.1,0.1l0.7,2l0.5-2
				c0,0,0-0.1,0.1-0.1c0,0,0.1,0,0.1,0.1l0.7,1.4l0.4-1.2c0,0,0.1-0.1,0.1-0.1c0,0,0.1,0,0.1,0.1l0.3,0.9c0,0.1,0,0.1-0.1,0.1
				c-0.1,0-0.1,0-0.1-0.1l-0.2-0.7l-0.4,1.2c0,0,0,0.1-0.1,0.1c0,0,0,0,0,0c0,0-0.1,0-0.1-0.1l-0.7-1.4l-0.6,2.1c0,0,0,0.1-0.1,0.1
				c0,0-0.1,0-0.1-0.1l-0.7-2L96.6,35.6C96.7,35.6,96.7,35.6,96.6,35.6C96.6,35.6,96.6,35.6,96.6,35.6z"/>
		</g>
		<g>
			<path class="st0" d="M96.5,38.1C96.5,38.1,96.5,38.1,96.5,38.1c-2.3,0-4.1-0.7-5.4-2.1c-2.3-2.4-2.1-6-2.1-6.1
				c0-0.2,0.2-0.4,0.4-0.4c0.2,0,0.4,0.2,0.4,0.4c0,0-0.2,3.4,1.8,5.5c1.1,1.2,2.7,1.8,4.7,1.8c2,0,3.6-0.6,4.8-1.8
				c2-2.1,1.8-5.3,1.8-5.4c0-0.2,0.2-0.4,0.4-0.4c0.2,0,0.4,0.2,0.4,0.4c0,0.1,0.2,3.6-2,6C100.6,37.5,98.8,38.1,96.5,38.1z"/>
		</g>
		<g>
			<path class="st0" d="M111.3,72.6c-0.1,0-0.2,0-0.2-0.1c-0.2-0.1-0.3-0.4-0.2-0.6l0.1-0.1c0.1-0.2,0.3-0.5,0.6-0.9
				c0.6-0.9,1.4-1.8,2.3-2.7c0.6-0.6,1.3-1.2,2-1.9c0.3-0.3,0.8,0,0.8,0.3c0,0.2-0.1,0.3-0.2,0.4c-0.7,0.7-1.4,1.3-1.9,1.8
				c-0.8,0.9-1.6,1.7-2.2,2.6c-0.3,0.4-0.4,0.7-0.5,0.8l-0.1,0.1C111.6,72.5,111.5,72.6,111.3,72.6z"/>
		</g>
		<g>
			<path class="st0" d="M134.8,57.5c-0.2,0-0.4-0.1-0.4-0.3c-0.1-0.2,0-0.5,0.3-0.6c0.6-0.2,1.2-0.5,1.7-0.7c0,0,0.1,0,0.1,0
				c1-0.4,1.8-0.8,2.5-1.1c0.6-0.3,1.3-0.6,1.9-1c0.3-0.2,0.7,0.1,0.7,0.4c0,0.2-0.1,0.4-0.3,0.4c-0.6,0.3-1.3,0.7-1.9,0.9
				c-0.7,0.4-1.5,0.7-2.5,1.1c0,0-0.1,0-0.1,0c-0.6,0.2-1.2,0.5-1.8,0.7C134.9,57.5,134.9,57.5,134.8,57.5z"/>
		</g>
		<g>
			<path class="st0" d="M156.1,43.2c-0.1,0-0.2,0-0.3-0.1c-0.2-0.2-0.2-0.4,0-0.6l0.3,0.3l-0.3-0.3l1.3-1.2c0.2-0.2,0.5-0.2,0.7,0
				c0.2,0.2,0.2,0.5,0,0.7l-1.2,1.2C156.4,43.1,156.2,43.2,156.1,43.2z"/>
		</g>
		<g>
			<path class="st0" d="M113.6,86.6c0,0-0.1,0-0.1,0c-0.2-0.1-0.4-0.3-0.3-0.6c0,0,0.1-0.3,0.4-0.8c0.3-0.5,0.9-1.5,2-2.7
				c0,0,0-0.1,0.1-0.1c1.7-1.8,3.9-3.7,6.6-5.7c1.2-0.9,2.6-1.8,4-2.7c0,0,0,0,0,0v0c1.1-0.7,2.3-1.5,3.8-2.3
				c1.5-0.9,2.8-1.6,4.1-2.3c0,0,0.1,0,0.1-0.1c0,0,0,0,0,0c1.2-0.6,2.4-1.3,3.8-2c0.8-0.4,1.6-0.8,2.4-1.2c0.3-0.1,0.5-0.3,0.8-0.4
				l0.5-0.3c0,0,0.1,0,0.1-0.1c0,0,0,0,0,0c1.2-0.6,2.1-1.1,3-1.6c1-0.6,2-1.2,3.2-2c1-0.6,2-1.3,3-2.1c1.1-0.7,2-1.4,2.8-2.1
				c0.9-0.7,1.8-1.4,2.6-2.1c0.1-0.1,0.2-0.1,0.3-0.1c0.2,0,0.5,0.1,0.5,0.4c0,0.2-0.1,0.4-0.2,0.5c-0.8,0.7-1.7,1.4-2.6,2.1
				c-0.8,0.7-1.7,1.3-2.8,2.1c-1.1,0.8-2.1,1.5-3.1,2.1c-1.2,0.8-2.3,1.4-3.3,2c-0.9,0.5-1.9,1-3.1,1.7c0,0,0,0-0.1,0l-0.5,0.3
				c-0.3,0.1-0.5,0.3-0.8,0.4c-0.8,0.4-1.6,0.8-2.4,1.2c-1.4,0.7-2.6,1.4-3.8,2c0,0,0,0-0.1,0c-1.3,0.7-2.6,1.4-4.1,2.3
				c-1.4,0.8-2.6,1.5-3.7,2.2c0,0,0,0-0.1,0c-1.5,0.9-2.8,1.8-4,2.7c-2.7,1.9-4.9,3.8-6.5,5.6c0,0,0,0,0,0c-1.1,1.2-1.7,2-1.9,2.5
				c-0.2,0.4-0.3,0.6-0.3,0.6C114,86.5,113.8,86.6,113.6,86.6z"/>
		</g>
		<g>
			<path class="st0" d="M158.6,55c-0.1,0-0.3-0.1-0.3-0.2c-0.2-0.2-0.2-0.5,0-0.7c0.3-0.3,0.6-0.5,0.9-0.8c0,0,0.1-0.1,0.1-0.1
				c0.7-0.7,1.5-1.5,2.2-2.2c0.8-0.8,1.5-1.7,2.2-2.5c0.6-0.7,1.2-1.4,1.6-1.9l0.3-0.4c0.3-0.5,0.7-0.9,1-1.4
				c0.1-0.2,0.4-0.3,0.6-0.1s0.3,0.4,0.1,0.6c-0.3,0.5-0.7,1-1,1.4l-0.3,0.4c-0.4,0.5-1,1.2-1.6,2c-0.7,0.9-1.5,1.7-2.3,2.6
				c-0.7,0.8-1.5,1.5-2.2,2.3c0,0,0,0,0,0c-0.3,0.3-0.6,0.6-0.9,0.9C158.8,54.9,158.7,55,158.6,55z"/>
		</g>
		<g>
			<path class="st0" d="M124.3,61.8c-0.2,0-0.3-0.1-0.4-0.3c-0.1-0.2,0-0.5,0.2-0.6c1-0.5,2.1-1,3.2-1.5c0.2-0.1,0.6,0,0.7,0.2
				c0.1,0.2,0,0.5-0.2,0.6l-0.1,0c-1.1,0.5-2.1,1-3.1,1.5C124.4,61.8,124.3,61.8,124.3,61.8z"/>
		</g>
		<g>
			<path class="st0" d="M116.3,87.1c0,0-0.1,0-0.1,0l-2.4-1.4c-0.1-0.1-0.1-0.2-0.1-0.3c0.1-0.1,0.2-0.1,0.3-0.1l2,1.2l-0.3-3.6
				c0-0.1,0-0.2,0.1-0.2c0.1,0,0.2,0,0.3,0l2.3,1.9v-4c0-0.1,0-0.1,0.1-0.2c0.1,0,0.1-0.1,0.2,0l3.3,1l0.3-4.2
				c0-0.1,0.1-0.1,0.1-0.2c0.1,0,0.2,0,0.2,0l3,1.6l0.7-4.1c0-0.1,0.1-0.1,0.1-0.2c0.1,0,0.1,0,0.2,0l3.1,1.7l0.3-3.7
				c0-0.1,0.1-0.1,0.1-0.2c0.1,0,0.2,0,0.2,0l3.3,1.9l0.5-4c0-0.1,0.1-0.1,0.1-0.2c0.1,0,0.2,0,0.2,0l2.9,1.8l0.6-3.7
				c0-0.1,0.1-0.1,0.1-0.2c0.1,0,0.2,0,0.2,0l3,1.9l0.4-3.6c0-0.1,0.1-0.2,0.1-0.2c0.1,0,0.2,0,0.2,0l2.7,2v-3.4
				c0-0.1,0-0.2,0.1-0.2c0.1,0,0.2,0,0.2,0l2.9,1.7v-3.4c0-0.1,0-0.2,0.1-0.2c0.1,0,0.2,0,0.2,0l2.7,1.5v-3.3c0-0.1,0-0.2,0.1-0.2
				c0.1,0,0.2,0,0.2,0l2.7,1.3l-0.2-3.2c0-0.1,0-0.2,0.1-0.2c0.1,0,0.2-0.1,0.2,0l2.6,1.3l-0.3-3.1c0-0.1,0-0.2,0.1-0.2
				c0.1,0,0.2-0.1,0.2,0l2.3,0.9v-3.2c0-0.1,0.2-0.3,0.3-0.2l2.3,0.6l-0.3-2.6c0-0.1,0-0.1,0.1-0.2c0.1-0.1,0.1-0.1,0.2-0.1l2.3,0.3
				l-0.3-2.6c0-0.1,0.1-0.3,0.2-0.3l2.5,0.3l-0.9-2.2c0-0.1,0-0.2,0-0.2c0-0.1,0.1-0.1,0.2-0.1l2.5,0.2l-0.4-1
				c-0.1-0.1,0-0.3,0.1-0.3c0.1-0.1,0.3,0,0.3,0.1l0.6,1.4c0,0.1,0,0.2,0,0.2c0,0.1-0.1,0.1-0.2,0.1l-2.5-0.2l0.9,2.3
				c0,0.1,0,0.2,0,0.2s-0.1,0.1-0.2,0.1l-2.6-0.3l0.3,2.6c0,0.1,0,0.1-0.1,0.2c-0.1,0-0.1,0.1-0.2,0.1l-2.3-0.3l0.3,2.6
				c0,0.1,0,0.2-0.1,0.2c-0.1,0.1-0.1,0.1-0.2,0.1l-2.3-0.6v3.3c0,0.1,0,0.2-0.1,0.2c-0.1,0-0.1,0.1-0.2,0l-2.2-0.9l0.3,3.2
				c0,0.1,0,0.2-0.1,0.2c-0.1,0-0.2,0.1-0.2,0l-2.6-1.3l0.2,3.2c0,0.1,0,0.2-0.1,0.2c-0.1,0-0.2,0.1-0.2,0l-2.7-1.3V64
				c0,0.1,0,0.2-0.1,0.2c-0.1,0-0.2,0-0.2,0l-2.7-1.5v3.4c0,0.1,0,0.2-0.1,0.2c-0.1,0-0.2,0-0.2,0l-2.9-1.7v3.5c0,0.1,0,0.2-0.1,0.2
				c-0.1,0-0.2,0-0.2,0l-2.7-2l-0.4,3.6c0,0.1-0.1,0.1-0.1,0.2c-0.1,0-0.2,0-0.2,0l-3.1-1.9l-0.6,3.7c0,0.1-0.1,0.1-0.1,0.2
				c-0.1,0-0.2,0-0.2,0l-2.9-1.8l-0.5,4c0,0.1-0.1,0.1-0.1,0.2c-0.1,0-0.2,0-0.2,0l-3.3-1.9l-0.3,3.7c0,0.1-0.1,0.1-0.1,0.2
				c-0.1,0-0.2,0-0.2,0l-3.1-1.7l-0.7,4.1c0,0.1-0.1,0.1-0.1,0.2c-0.1,0-0.1,0-0.2,0l-2.9-1.5l-0.3,4.2c0,0.1,0,0.1-0.1,0.2
				c-0.1,0-0.1,0.1-0.2,0l-3.3-1v4.1c0,0.1-0.1,0.2-0.1,0.2c-0.1,0-0.2,0-0.2,0l-2.3-1.9l0.3,3.5c0,0.1,0,0.2-0.1,0.2
				C116.4,87.1,116.3,87.1,116.3,87.1z"/>
		</g>
		<g>
			<path class="st0" d="M174.1,25.3c-0.1,0-0.2,0-0.2-0.1c-0.1-0.1,0-0.3,0.1-0.3l1.3-0.8l-1.4-1.8c-0.1-0.1-0.1-0.2,0-0.3l1.4-1.8
				l-1.6-1.2c-0.1,0-0.1-0.1-0.1-0.2c0-0.1,0-0.1,0.1-0.2l1.3-1.5l-1.6-0.9c-0.1-0.1-0.1-0.2-0.1-0.3l1.1-2.3l-1.6-0.4
				c-0.1,0-0.1-0.1-0.2-0.1c0-0.1,0-0.1,0-0.2l1.1-2.1l-1.9-0.5c-0.1,0-0.1-0.1-0.2-0.1c0-0.1,0-0.1,0-0.2l0.8-2l-1.9-0.6
				c-0.1,0-0.1-0.1-0.1-0.1c0-0.1,0-0.1,0-0.2l0.9-2h-2.1c-0.1,0-0.1,0-0.2-0.1c0-0.1-0.1-0.1,0-0.2l0.4-2l-1.5,0.5
				c-0.1,0-0.3,0-0.3-0.1c0-0.1,0-0.3,0.1-0.3l1.8-0.7c0.1,0,0.2,0,0.2,0c0.1,0.1,0.1,0.1,0.1,0.2l-0.4,2.2h2.1c0.1,0,0.2,0,0.2,0.1
				c0,0.1,0.1,0.1,0,0.2l-0.9,2.1l1.9,0.5c0.1,0,0.1,0.1,0.1,0.1c0,0.1,0,0.1,0,0.2l-0.8,2l1.9,0.5c0.1,0,0.1,0.1,0.2,0.1
				c0,0.1,0,0.1,0,0.2l-1.1,2.1l1.6,0.4c0.1,0,0.1,0.1,0.2,0.1s0,0.1,0,0.2l-1.1,2.4l1.7,1c0.1,0,0.1,0.1,0.1,0.2
				c0,0.1,0,0.1-0.1,0.2l-1.3,1.5l1.6,1.2c0,0,0.1,0.1,0.1,0.2c0,0.1,0,0.1,0,0.2l-1.5,1.8l1.5,1.8c0,0.1,0.1,0.1,0,0.2
				c0,0.1-0.1,0.1-0.1,0.2l-1.5,0.9C174.2,25.3,174.2,25.3,174.1,25.3z"/>
		</g>
		<g>
			<path class="st0" d="M114.1,68.8C114.1,68.8,114.1,68.8,114.1,68.8l-0.9-0.4c-0.1-0.1-0.2-0.2-0.1-0.3c0.1-0.1,0.2-0.2,0.3-0.1
				l0.4,0.2l-0.1-1.2c0-0.1,0.1-0.2,0.2-0.2c0.1,0,0.2,0.1,0.2,0.2l0.1,1.6c0,0.1,0,0.2-0.1,0.2C114.2,68.8,114.2,68.8,114.1,68.8z"
				/>
		</g>
		<g>
			<path class="st0" d="M125.3,61c-0.1,0-0.1,0-0.2-0.1l-0.7-0.6c-0.1-0.1-0.1-0.2,0-0.3c0.1-0.1,0.2-0.1,0.3,0l0.3,0.3v-2.6
				c0-0.1,0.1-0.2,0.1-0.2c0.1,0,0.2,0,0.3,0.1l1.8,1.9c0,0,0,0,0,0l0.1,0.1c0,0,0,0,0,0c0.1,0,0.2,0.1,0.2,0.3l0,0.1
				c0,0.1-0.1,0.2-0.2,0.2c-0.1,0-0.2,0-0.2-0.1l-0.3-0.3h0c0,0,0,0,0,0l-1.4-1.5v2.5C125.6,60.9,125.5,61,125.3,61
				C125.4,61,125.4,61,125.3,61z"/>
		</g>
		<g>
			<path class="st0" d="M136.7,56.6c-0.1,0-0.1,0-0.2-0.1l-1.3-1.3c-0.1-0.1-0.1-0.2,0-0.3c0.1-0.1,0.2-0.1,0.3,0l1,0.9l0.2-2.5
				c0-0.1,0.1-0.2,0.1-0.2c0.1,0,0.2,0,0.2,0l1.9,1.5v-1.6c0-0.1,0.1-0.2,0.2-0.2c0.1,0,0.2,0.1,0.2,0.2v2c0,0.1-0.1,0.2-0.1,0.2
				c-0.1,0-0.2,0-0.2,0l-1.9-1.5l-0.2,2.5C136.9,56.4,136.8,56.5,136.7,56.6C136.7,56.5,136.7,56.6,136.7,56.6z"/>
		</g>
		<g>
			<path class="st0" d="M156.1,42.9c0,0-0.1,0-0.1,0c-0.1,0-0.1-0.1-0.1-0.2l-0.4-2c0-0.1,0.1-0.2,0.2-0.3c0.1,0,0.2,0.1,0.3,0.2
				l0.4,2.1c0,0.1,0,0.2-0.1,0.2C156.2,42.9,156.2,42.9,156.1,42.9z"/>
		</g>
		<g>
			<path class="st0" d="M116.1,66.9c-0.1,0-0.1,0-0.1,0l-1.4-1.1c-0.1-0.1-0.1-0.2,0-0.3c0.1-0.1,0.2-0.1,0.3,0l1.3,1
				c0.1,0,0.1,0.1,0.1,0.2v0c0,0.1-0.1,0.2-0.1,0.2C116.2,66.9,116.2,66.9,116.1,66.9z"/>
		</g>
		<g>
			<path class="st0" d="M111.9,71.5c0,0-0.1,0-0.1,0l-0.1,0l-1.1-0.7c-0.1-0.1-0.1-0.2-0.1-0.3c0.1-0.1,0.2-0.1,0.3-0.1l1,0.6
				c0.1-0.1,0.3,0,0.3,0.2l0,0.1c0,0.1,0,0.2-0.1,0.2C112,71.4,111.9,71.5,111.9,71.5z"/>
		</g>
		<g>
			<path class="st0" d="M165.3,16.9c-0.1,0-0.2-0.1-0.2-0.2c0-0.1,0-0.3,0.2-0.3l1.7-0.5l-1.5-1.4c-0.1-0.1-0.1-0.1-0.1-0.2
				c0-0.1,0.1-0.1,0.1-0.2l1.5-0.7l-1.8-1.8c-0.1-0.1-0.1-0.2-0.1-0.2s0.1-0.1,0.2-0.2l1.6-0.3l-2-1.2c-0.1,0-0.1-0.1-0.1-0.2
				c0-0.1,0.1-0.2,0.2-0.2l2-0.5l-1.6-1c-0.1,0-0.1-0.1-0.1-0.2c0-0.1,0.1-0.2,0.2-0.2l2-0.7c0.1,0,0.3,0,0.3,0.1
				c0,0.1,0,0.3-0.1,0.3L166,7.7l1.6,1.1c0.1,0.1,0.1,0.1,0.1,0.2c0,0.1-0.1,0.2-0.2,0.2l-2,0.5l2.1,1.2c0.1,0,0.1,0.1,0.1,0.2
				c0,0.1-0.1,0.2-0.2,0.2l-1.8,0.3l1.7,1.7c0.1,0.1,0.1,0.1,0.1,0.2c0,0.1-0.1,0.1-0.1,0.2l-1.4,0.7l1.6,1.4
				c0.1,0.1,0.1,0.1,0.1,0.2c0,0.1-0.1,0.1-0.2,0.2L165.3,16.9C165.3,16.9,165.3,16.9,165.3,16.9z"/>
		</g>
		<g>
			<path class="st0" d="M167.5,7.2L167.5,7.2c-0.1,0-0.2,0-0.2-0.1l-2-1.5c-0.1-0.1-0.1-0.2-0.1-0.2c0-0.1,0.1-0.2,0.2-0.2l1.3-0.2
				l-1.5-1.6c-0.1-0.1-0.1-0.2,0-0.3c0-0.1,0.1-0.1,0.2-0.1h1.8c0.1,0,0.2,0.1,0.2,0.2c0,0.1-0.1,0.2-0.2,0.2H166l1.4,1.5
				c0.1,0.1,0.1,0.2,0.1,0.2c0,0.1-0.1,0.1-0.2,0.2L166,5.5l1.6,1.2c0,0,0.1,0.1,0.1,0.1c0,0,0,0.1,0,0.1
				C167.7,7.1,167.6,7.2,167.5,7.2z"/>
		</g>
		<g>
			<path class="st0" d="M89.5,106.6H79.2c-0.2,0-0.4-0.2-0.4-0.4V91.3c0.3-18.6,3.6-23.2,6.9-27.8c0.6-0.8,1.1-1.5,1.6-2.3
				c3.4-5.3,3.1-25.8,3.1-26c0-0.2,0.2-0.4,0.4-0.5c0.2,0,0.4,0.2,0.5,0.4c0,0.9,0.4,21-3.2,26.5c-0.5,0.8-1.1,1.6-1.6,2.3
				c-3.2,4.4-6.5,9-6.8,27.3v14.4h9.4l1.4-18.5c0-0.2,0.2-0.4,0.5-0.4c0.2,0,0.4,0.2,0.4,0.5l-1.5,18.9
				C89.9,106.4,89.7,106.6,89.5,106.6z"/>
		</g>
		<g>
			<path class="st0" d="M113.8,107h-9.6c-0.2,0-0.4-0.2-0.4-0.4l-1.5-19.7c0-0.2,0.2-0.5,0.4-0.5c0.2,0,0.5,0.2,0.5,0.4l1.5,19.3
				h8.7V91.6c0-1.9-0.1-3.7-0.2-5.5c-0.3-5.8-1.1-10.3-2.3-13.9c-0.2-0.5-0.4-1-0.6-1.6c-1.1-2.7-2.4-4.6-3.7-6.3
				c-0.5-0.7-1.1-1.5-1.6-2.3c-1.4-2.2-2.3-6.5-2.9-13c-0.5-6.1-0.5-13.5-0.5-13.5c0-0.2,0.2-0.4,0.4-0.4h0c0.2,0,0.4,0.2,0.4,0.4
				c0,0.1,0,7.4,0.5,13.5c0.5,6.2,1.5,10.6,2.8,12.6c0.5,0.8,1,1.5,1.6,2.2c1.3,1.8,2.7,3.7,3.8,6.5c0.3,0.6,0.5,1.1,0.6,1.7
				c1.2,3.6,2,8.2,2.3,14.1c0.1,1.8,0.2,3.6,0.2,5.5v14.9C114.2,106.8,114,107,113.8,107z"/>
		</g>
		<g>
			<path class="st0" d="M97.4,93.4c-3.8,0-6.9-2.5-7-2.5c-0.2-0.2-0.2-0.4-0.1-0.6c0.2-0.2,0.4-0.2,0.6-0.1c0.3,0.2,6.6,5.1,11.7,0
				c0.2-0.2,0.5-0.2,0.6,0c0.2,0.2,0.2,0.5,0,0.6C101.4,92.8,99.3,93.4,97.4,93.4z"/>
		</g>
		<g>
			<path class="st0" d="M96.7,85.5c-6,0-6.8-5.5-7.1-7.3c-0.4-2.4-0.1-4.9,0.7-7.3c2.8-8.2,2.6-33.3,2.6-33.6c0-0.2,0.2-0.4,0.4-0.4
				c0.2,0,0.4,0.2,0.4,0.4c0,1,0.2,25.5-2.6,33.9c-0.8,2.2-1,4.6-0.6,6.9c0.7,4.6,2.6,6.6,6.2,6.6c5.6,0,6.3-5,6.4-7.2
				c0.1-1.9-0.3-4-1.1-6.2c-2.9-8.2-2.8-32.9-2.8-33.9c0-0.2,0.2-0.4,0.4-0.4h0c0.2,0,0.4,0.2,0.4,0.4c0,0.3,0,25.6,2.8,33.7
				c0.8,2.3,1.2,4.5,1.1,6.5C103.8,82.5,101.1,85.5,96.7,85.5z"/>
		</g>
		<g>
			<path class="st0" d="M96.6,42.6c-2,0-3.4-1.3-3.5-1.4c-0.1-0.1-0.1-0.3,0-0.4c0.1-0.1,0.3-0.1,0.4,0c0.1,0.1,2.9,2.6,5.9,0
				c0.1-0.1,0.3-0.1,0.4,0c0.1,0.1,0.1,0.3,0,0.4C98.8,42.2,97.6,42.6,96.6,42.6z"/>
		</g>
		<g>
			<path class="st0" d="M96.6,40.3c-2,0-3.4-1.3-3.5-1.4c-0.1-0.1-0.1-0.3,0-0.4c0.1-0.1,0.3-0.1,0.4,0c0.1,0.1,2.9,2.6,5.9,0
				c0.1-0.1,0.3-0.1,0.4,0c0.1,0.1,0.1,0.3,0,0.4C98.7,40,97.6,40.3,96.6,40.3z"/>
		</g>
		<g>
			<path class="st0" d="M96.6,45.7c-2,0-3.4-1.3-3.5-1.4c-0.1-0.1-0.1-0.3,0-0.4c0.1-0.1,0.3-0.1,0.4,0c0.1,0.1,2.9,2.6,5.9,0
				c0.1-0.1,0.3-0.1,0.4,0c0.1,0.1,0.1,0.3,0,0.4C98.8,45.4,97.6,45.7,96.6,45.7z"/>
		</g>
		<g>
			<path class="st0" d="M96.6,48.9c-2,0-3.4-1.3-3.5-1.4c-0.1-0.1-0.1-0.3,0-0.4c0.1-0.1,0.3-0.1,0.4,0c0.1,0.1,2.9,2.6,5.9,0
				c0.1-0.1,0.3-0.1,0.4,0c0.1,0.1,0.1,0.3,0,0.4C98.7,48.6,97.6,48.9,96.6,48.9z"/>
		</g>
		<g>
			<path class="st0" d="M96.6,52.1c-2,0-3.4-1.3-3.5-1.4c-0.1-0.1-0.1-0.3,0-0.4c0.1-0.1,0.3-0.1,0.4,0c0.1,0.1,2.9,2.6,5.9,0
				c0.1-0.1,0.3-0.1,0.4,0c0.1,0.1,0.1,0.3,0,0.4C98.8,51.8,97.6,52.1,96.6,52.1z"/>
		</g>
		<g>
			<path class="st0" d="M96.7,55.6c-2.2,0-3.9-1.2-3.9-1.2c-0.1-0.1-0.2-0.3-0.1-0.4c0.1-0.1,0.3-0.2,0.4-0.1
				c0.1,0.1,3.7,2.6,6.7-0.1c0.1-0.1,0.3-0.1,0.4,0c0.1,0.1,0.1,0.3,0,0.4C99.1,55.3,97.9,55.6,96.7,55.6z"/>
		</g>
		<g>
			<path class="st0" d="M96.7,60.1c-2.2,0-3.9-1.2-3.9-1.2c-0.1-0.1-0.2-0.3-0.1-0.4c0.1-0.1,0.3-0.2,0.4-0.1
				c0.1,0.1,3.7,2.6,6.7-0.1c0.1-0.1,0.3-0.1,0.4,0c0.1,0.1,0.1,0.3,0,0.4C99.1,59.7,97.9,60.1,96.7,60.1z"/>
		</g>
		<g>
			<path class="st0" d="M97,63.9c-2.4,0-4.6-1.2-4.7-1.3c-0.1-0.1-0.2-0.3-0.1-0.4c0.1-0.1,0.3-0.2,0.4-0.1c0,0,4.7,2.7,7.8,0
				c0.1-0.1,0.3-0.1,0.4,0c0.1,0.1,0.1,0.3,0,0.4C99.6,63.6,98.3,63.9,97,63.9z"/>
		</g>
		<g>
			<path class="st0" d="M97.1,68.3c-2.8,0-5.2-1.5-5.3-1.5c-0.1-0.1-0.2-0.3-0.1-0.4c0.1-0.1,0.3-0.2,0.4-0.1c0.1,0,5.3,3.2,9-0.1
				c0.1-0.1,0.3-0.1,0.4,0c0.1,0.1,0.1,0.3,0,0.4C100.1,67.9,98.6,68.3,97.1,68.3z"/>
		</g>
		<g>
			<path class="st0" d="M97,73.2c-3.5,0-6.2-2.2-6.2-2.2c-0.1-0.1-0.2-0.3,0-0.4c0.1-0.1,0.3-0.2,0.4,0c0.2,0.2,5.6,4.5,10.9,0.1
				c0.1-0.1,0.3-0.1,0.4,0c0.1,0.1,0.1,0.3,0,0.4C100.6,72.7,98.7,73.2,97,73.2z"/>
		</g>
		<g>
			<path class="st0" d="M97,77.8c-4.2,0-7.2-2.5-7.2-2.5c-0.1-0.1-0.1-0.3,0-0.4c0.1-0.1,0.3-0.1,0.4,0c0.2,0.2,6.1,5,13.1,0.3
				c0.1-0.1,0.3-0.1,0.4,0.1c0.1,0.1,0.1,0.3-0.1,0.4C101.2,77.2,99,77.8,97,77.8z"/>
		</g>
		<g>
			<path class="st0" d="M96.9,82c-3.9,0-6.7-2.1-6.8-2.2c-0.1-0.1-0.2-0.3-0.1-0.4c0.1-0.1,0.3-0.2,0.4-0.1c0.2,0.2,6,4.5,12.6,0
				c0.1-0.1,0.3-0.1,0.4,0.1c0.1,0.1,0.1,0.3-0.1,0.4C101.1,81.4,98.9,82,96.9,82z"/>
		</g>
		<g>
			<path class="st0" d="M94.3,104.4h-4.7c-0.2,0-0.4-0.2-0.4-0.4c0-0.2,0.2-0.4,0.4-0.4h4.3l0.3-10.9c0-0.2,0.2-0.4,0.5-0.4
				c0.2,0,0.4,0.2,0.4,0.5l-0.3,11.3C94.8,104.2,94.6,104.4,94.3,104.4z"/>
		</g>
		<g>
			<path class="st0" d="M104,104.4h-4.7c-0.2,0-0.4-0.2-0.4-0.4l-0.2-11.1c0-0.2,0.2-0.4,0.4-0.5c0.3,0,0.4,0.2,0.5,0.4l0.2,10.7
				h4.2c0.2,0,0.4,0.2,0.4,0.4C104.4,104.2,104.2,104.4,104,104.4z"/>
		</g>
		<g>
			<path class="st0" d="M174,25.4c-0.1,0-0.2,0-0.3-0.1l-6.8-6.5c-0.1-0.1-0.2-0.2-0.1-0.4c0.1-0.8,0.2-1.6,0.2-2.3
				c0.2-3,0.3-6,0.1-9.1c-0.1-1.3-0.1-2.6-0.2-3.8c0-0.4-0.1-0.6-0.1-0.6c0-0.2,0.1-0.4,0.2-0.5c0.2-0.1,0.4,0,0.5,0.1
				c3.5,3.8,5.7,8.8,6.6,14.9c0.4,2.6,0.5,5.2,0.3,7.8c0,0.2-0.1,0.3-0.3,0.4C174.1,25.4,174,25.4,174,25.4z M167.6,18.3l6,5.7
				c0.1-2.2,0-4.4-0.3-6.6c-0.8-5.4-2.6-9.9-5.5-13.4c0.1,1,0.1,2,0.2,3c0.1,3.1,0.1,6.2-0.1,9.2C167.8,16.8,167.7,17.6,167.6,18.3z
				"/>
		</g>
		<g>
			<path class="st0" d="M111.3,72.6c-0.1,0-0.1,0-0.2-0.1c-0.2-0.1-0.3-0.4-0.2-0.6l0.5-1c0,0,0,0,0,0l3-5.6
				c0.1-0.1,0.2-0.2,0.3-0.2c0.1,0,0.3,0,0.4,0.1c0.4,0.4,0.8,0.8,1.3,1.1c0,0,0,0,0,0c2.2,1.7,4.3,2,5.1,2l3.4-10.6
				c0.1-0.2,0.2-0.3,0.3-0.3c0.2,0,0.3,0,0.4,0.2c0.5,0.6,1,1.2,1.7,1.6c0,0,0,0,0,0c0.1,0.1,0.1,0.1,0.2,0.2
				c2.4,1.6,4.9,1.6,5.8,1.6l2.5-10.3c0-0.2,0.2-0.3,0.3-0.3c0.2,0,0.3,0,0.4,0.1c0.8,0.8,1.8,1.6,2.8,2.2c0.6,0.4,1.2,0.7,1.8,1
				c0,0,0,0,0.1,0c5.8,2.9,12.3,2.3,15.6,1.7c0.6-0.1,1-0.2,1.3-0.3l-2.5-12.4c0,0,0-0.1,0-0.1l-0.4-2c0-0.2,0-0.3,0.2-0.5
				c0.1-0.1,0.3-0.1,0.5,0c0.6,0.3,1.1,0.6,1.7,0.9c3,1.6,6.2,2.8,9.4,3.5c12.3,2.9,22.2-1.1,24.7-2.3l-18-17.2
				c-0.2-0.2-0.2-0.4,0-0.6c0.2-0.2,0.5-0.2,0.6,0l18.5,17.6c0.1,0.1,0.2,0.2,0.1,0.4c0,0.1-0.1,0.3-0.2,0.3
				c-0.1,0.1-11.5,6-25.8,2.6c-3.3-0.8-6.5-2-9.6-3.6c-0.3-0.1-0.6-0.3-0.8-0.5l0.2,1.1c0,0,0,0.1,0,0.1l2.6,12.8
				c0,0.2-0.1,0.5-0.3,0.5c0,0-0.7,0.2-1.8,0.4c-3.4,0.6-10,1.2-16.1-1.8c0,0,0,0,0,0c-0.7-0.3-1.3-0.7-2-1.1
				c-0.8-0.5-1.6-1.2-2.3-1.8l-2.4,9.8c0,0.2-0.2,0.3-0.4,0.3c-0.1,0-3.5,0.4-6.6-1.6c0,0-0.1,0-0.1,0c-0.1-0.1-0.2-0.2-0.3-0.2v0
				c0,0,0,0,0,0c-0.5-0.3-0.9-0.7-1.3-1.1l-3.3,10.2c-0.1,0.2-0.2,0.3-0.4,0.3c-0.1,0-3,0.1-5.9-2.2c0,0-0.1,0-0.1-0.1
				c-0.3-0.2-0.6-0.5-0.9-0.8l-2.6,5c0,0,0,0.1,0,0.1l-0.1,0.1l-0.5,1C111.6,72.5,111.4,72.6,111.3,72.6z"/>
		</g>
		<g>
			<path class="st0" d="M102.5,49.5c-0.2,0-0.3-0.1-0.4-0.3c-0.1-0.2,0-0.5,0.2-0.6c0.4-0.1,36.3-14.9,45.5-48.2
				c0-0.2,0.2-0.3,0.3-0.3c0.2,0,0.3,0,0.4,0.1l18.9,18c0.2,0.2,0.2,0.4,0,0.6c-0.2,0.2-0.4,0.2-0.6,0L148.5,1.3
				c-9.6,33.3-45.5,48-45.9,48.1C102.6,49.5,102.6,49.5,102.5,49.5z"/>
		</g>
		<g>
			<path class="st0" d="M81.6,72.6c-0.2,0-0.3-0.1-0.4-0.2l-3.2-6.2c-3.3,3.2-6.8,3-6.9,3c-0.2,0-0.3-0.1-0.4-0.3l-3.3-10.2
				c-3.4,3.7-8.1,3.1-8.3,3.1c-0.2,0-0.3-0.2-0.4-0.3l-2.4-9.8C47.4,59.7,34.2,56,34,56c-0.2-0.1-0.4-0.3-0.3-0.5l2.8-14
				C17.5,52,0.4,43,0.2,42.9C0.1,42.8,0,42.7,0,42.6c0-0.1,0-0.3,0.1-0.4L44.3,0.1C44.4,0,44.5,0,44.7,0c0.2,0,0.3,0.2,0.3,0.3
				c9.2,33.4,45.2,48.1,45.6,48.3c0.2,0.1,0.3,0.3,0.2,0.6c-0.1,0.2-0.3,0.3-0.6,0.2C89.9,49.3,54,34.6,44.3,1.3L1.2,42.4
				c3.1,1.4,18.7,7.7,35.7-2.2c0.2-0.1,0.3-0.1,0.5,0c0.1,0.1,0.2,0.3,0.2,0.4l-2.9,14.6c2.3,0.5,13.9,2.8,21.5-4.7
				c0.1-0.1,0.3-0.2,0.4-0.1c0.2,0,0.3,0.2,0.3,0.3l2.5,10.3c1.1,0.1,5,0,7.7-3.4c0.1-0.1,0.3-0.2,0.4-0.2c0.2,0,0.3,0.1,0.3,0.3
				l3.4,10.6c0.9,0,3.8-0.4,6.4-3.2C77.8,65,78,65,78.1,65c0.1,0,0.3,0.1,0.3,0.2l3.5,6.7c0.1,0.2,0,0.5-0.2,0.6
				C81.7,72.6,81.6,72.6,81.6,72.6z"/>
		</g>
		<g>
			<path class="st0" d="M88.3,108.6c-0.3,0-0.6-0.1-0.8-0.3c-0.1-0.1-0.2-0.2-0.3-0.4c0,0.1-0.1,0.1-0.1,0.2c-0.2,0.3-0.6,0.5-1,0.5
				c-0.4,0-0.8-0.1-1.1-0.4c-0.1-0.1-0.2-0.2-0.3-0.4c0,0,0,0.1-0.1,0.1c-0.2,0.4-0.6,0.6-1.2,0.7c-0.5,0.1-1-0.1-1.4-0.4
				c-0.2-0.1-0.3-0.3-0.4-0.5c0,0.1-0.1,0.2-0.2,0.3c-0.2,0.3-0.6,0.5-1,0.5c-0.4,0-0.8-0.1-1-0.4c-0.7-0.7-0.5-2.1-0.5-2.1
				c0-0.1,0.1-0.2,0.2-0.2c0.1,0,0.2,0.1,0.2,0.2c0,0-0.1,1.2,0.4,1.8c0.2,0.2,0.4,0.2,0.7,0.2c0.3,0,0.5-0.1,0.7-0.4
				c0.2-0.3,0.2-0.6,0.2-1c-0.1-0.4-0.1-0.7-0.1-0.7c0-0.1,0.1-0.2,0.2-0.2c0.1,0,0.2,0.1,0.2,0.2c0,0,0.1,0.3,0.1,0.7
				c0.1,0.4,0.2,0.8,0.6,1.1c0.3,0.2,0.6,0.3,1,0.3c0.4,0,0.7-0.2,0.9-0.5c0.1-0.2,0.1-0.3,0.1-0.5c-0.2-0.5-0.2-1-0.2-1
				c0-0.1,0.1-0.2,0.2-0.2c0.1,0,0.2,0,0.3,0.1c0,0,0.2,0.5,0.2,1c0.1,0.3,0.2,0.6,0.5,0.8c0.2,0.2,0.5,0.3,0.8,0.3
				c0.3,0,0.6-0.1,0.7-0.3c0.1-0.2,0.2-0.4,0.2-0.6c-0.1-0.5-0.1-1-0.1-1.1c0-0.1,0.1-0.2,0.2-0.2c0.1,0,0.2,0.1,0.2,0.2
				c0,0,0.2,0.5,0.1,1.1c0.1,0.3,0.2,0.6,0.4,0.8c0.2,0.1,0.3,0.2,0.6,0.2c1.1-0.1,1.1-2,1.1-2c0-0.1,0.1-0.2,0.2-0.2c0,0,0,0,0,0
				c0.1,0,0.2,0.1,0.2,0.2C89.9,106.3,89.9,108.5,88.3,108.6C88.3,108.6,88.3,108.6,88.3,108.6z"/>
		</g>
		<g>
			<path class="st0" d="M93.1,106.3c-0.4,0-0.8-0.1-1.1-0.7c-0.2,0.4-0.6,0.6-1.1,0.7c-0.7,0-1.2-0.3-1.6-0.9c0,0,0-0.1,0-0.1
				c0-0.1,0.1-0.2,0.2-0.2c0.1,0,0.2,0.1,0.2,0.2c0.3,0.5,0.6,0.7,1.1,0.7c0.6,0,0.8-0.3,0.9-1c-0.1-0.4-0.1-0.7-0.1-0.9v-0.1
				c0-0.1,0.1-0.2,0.2-0.2c0.1,0,0.2,0.1,0.2,0.2l0,0.1c0.1,0.2,0.1,0.6,0.1,1c0.3,1,0.8,1,1,1c1.1-0.1,1.1-2,1.1-2
				c0-0.1,0.1-0.2,0.2-0.2c0.1,0,0.2,0.1,0.2,0.2C94.8,103.9,94.8,106.1,93.1,106.3C93.2,106.3,93.2,106.3,93.1,106.3z"/>
		</g>
		<g>
			<path class="st0" d="M103.1,106.4c-0.7,0-1.2-0.3-1.5-0.9c-0.2,0.5-0.6,0.8-1.2,0.9c-0.4,0-0.8-0.1-1-0.4
				c-0.7-0.7-0.5-2.1-0.5-2.1c0-0.1,0.1-0.2,0.2-0.2c0.1,0,0.2,0.1,0.2,0.2c0,0-0.1,1.2,0.4,1.8c0.2,0.2,0.4,0.3,0.7,0.2
				c0.2,0,0.9-0.1,0.9-1.3c-0.1-0.4-0.1-0.7-0.1-0.7c0-0.1,0.1-0.2,0.2-0.2c0.1,0,0.2,0.1,0.2,0.2c0,0,0.1,0.3,0.1,0.7
				c0.2,1,0.7,1.5,1.6,1.4c0.3,0,0.5-0.1,0.7-0.2c0.1-0.1,0.2-0.1,0.3,0c0.1,0.1,0.1,0.2,0,0.3c-0.2,0.2-0.5,0.3-0.9,0.3
				C103.3,106.4,103.2,106.4,103.1,106.4z"/>
		</g>
		<g>
			<path class="st0" d="M112.8,109c-0.3,0-0.6-0.1-0.8-0.3c-0.1-0.1-0.2-0.2-0.3-0.4c0,0.1-0.1,0.1-0.1,0.2c-0.2,0.3-0.6,0.5-1,0.5
				c-0.4,0-0.8-0.1-1.1-0.4c-0.1-0.1-0.2-0.3-0.3-0.4c0,0,0,0.1-0.1,0.1c-0.2,0.4-0.6,0.6-1.2,0.7c-0.5,0.1-0.9-0.1-1.3-0.4
				c-0.2-0.1-0.3-0.3-0.4-0.5c0,0.1-0.1,0.2-0.2,0.3c-0.2,0.3-0.5,0.5-1,0.5c-0.4,0-0.7-0.1-1-0.3c-0.7-0.6-0.6-2-0.6-2
				c0-0.1,0.1-0.2,0.2-0.2c0.1,0,0.2,0.1,0.2,0.2c0,0-0.1,1.2,0.4,1.7c0.2,0.2,0.4,0.2,0.7,0.2c0.3,0,0.5-0.1,0.6-0.3
				c0.2-0.3,0.2-0.7,0.2-1c-0.1-0.4-0.1-0.7-0.1-0.7c0-0.1,0.1-0.2,0.2-0.2c0.1,0,0.2,0.1,0.2,0.2c0,0,0.1,0.3,0.1,0.7
				c0.1,0.4,0.2,0.8,0.5,1.1c0.2,0.2,0.5,0.3,0.9,0.3c0.4,0,0.7-0.2,0.8-0.4c0.1-0.2,0.1-0.4,0.2-0.5c-0.2-0.5-0.2-1-0.2-1
				c0-0.1,0.1-0.2,0.2-0.2c0.1,0,0.2,0,0.3,0.1c0,0,0.2,0.5,0.2,1c0.1,0.3,0.2,0.6,0.5,0.8c0.2,0.2,0.4,0.3,0.7,0.3
				c0.3,0,0.5-0.1,0.6-0.3c0.1-0.2,0.2-0.4,0.2-0.6c-0.1-0.5-0.1-1-0.1-1.1c0-0.1,0.1-0.2,0.2-0.2c0.1,0,0.2,0.1,0.2,0.2
				c0,0,0.1,0.5,0.1,1.1c0.1,0.3,0.2,0.6,0.4,0.8c0.1,0.1,0.3,0.2,0.5,0.2c0.2,0,0.4-0.1,0.5-0.3c0.5-0.5,0.3-1.7,0.3-1.7
				c0-0.1,0.1-0.2,0.2-0.2c0.1,0,0.2,0.1,0.2,0.2c0,0.1,0.2,1.4-0.4,2.1C113.5,108.8,113.3,108.9,112.8,109
				C112.9,109,112.9,109,112.8,109z"/>
		</g>
	</g>
</g>
</svg>
