<?xml version="1.0" encoding="utf-8"?>
<!-- Generator: Adobe Illustrator 24.2.0, SVG Export Plug-In . SVG Version: 6.00 Build 0)  -->
<svg version="1.1" id="Ebene_1" xmlns="http://www.w3.org/2000/svg" xmlns:xlink="http://www.w3.org/1999/xlink" x="0px" y="0px"
	 viewBox="0 0 236.7 205.8" style="enable-background:new 0 0 236.7 205.8;" xml:space="preserve">
<style type="text/css">
	.st0{enable-background:new    ;}
</style>
<g class="st0">
	<path d="M50.8,117c-3.5-1.6-5.8-6.1-7.9-9.2c-3.2-4.6-20.4-31.4-23.5-31.9C19,76,19,76.8,19,77.1c0.5,9.6,2.7,19.9,5,29.3
		c1.8,7,4.6,13.9-5.1,16.3c-5.2,1.3-9.1-0.4-10.5-5.8c-0.5-2-0.7-4-1.1-6C4.2,96.2,1.6,81.5,1.2,66.4C1,62.3,0.7,58.7,4.5,56.2
		c0.9-0.7,2.1-1.2,3.3-1.5c2.4-0.6,5-0.4,7.5,0.2c18.2,4.5,29.2,27.3,31.4,28c0.4-0.2,0.2-0.9,0.2-1.2c-0.9-9.2-2.5-18.4-4.1-27.5
		c-0.6-3.8-2.8-8.9-0.1-12.3c1.4-1.8,3.5-2.9,5.6-3.4c5.1-1.3,9,0,10.4,5.3c0.9,3.7,1.2,7.4,1.8,11.1C62.9,69.8,65,84.5,65,99.5
		c0,4,0.6,9-0.8,12.8c-1,2.8-3.3,4.4-6.2,5.1C55.7,118,53,118,50.8,117z"/>
	<path d="M104,39.8c-2.7,0.7-5.4,1.1-8.1,1.8C94.4,42,93.7,43,94,44.5c0.3,2.1,1,4.2,1.4,6.3c0.5,2.4,0.9,5,1.5,7.4
		c0.2,0.8,0.7,1.6,1.7,1.4c1.3-0.3,5-4.7,9.1-5.8c3.5-0.9,8.5-0.1,9.6,3.9c1.5,6-11,12.4-15.3,14.9c-1,0.6-1.3,1.8-1.1,2.8
		c1.5,6.1,3.6,11.9,5.7,17.8c0.4,1.1,0.3,2.6,2,2.2c2.3-0.6,4.6-1.8,6.9-2.4c3.6-0.9,9.1-0.6,10.2,3.8c1.6,6.4-9.4,9.4-13.8,10.5
		c-4.4,1.1-13.3,3.3-17.1,0.3c-2-1.6-2.7-5-3.6-7.3c-2.9-7.5-5.4-15.1-7.3-23c-2.7-10.9-4.8-21.8-7.5-32.8c-1.2-5.1-2-9.4,3.5-11.1
		c6.4-1.9,8.1-2.3,16.8-4.5c2.9-0.7,5.8-1.6,9-1.1c2.3,0.3,4.7,1.7,5.3,4.1C111.9,36.1,107.3,39,104,39.8z"/>
	<path d="M174,11.9c2.3,3.7,16.8,31.7,17.8,32.2c0.4-0.2,0.2-0.8,0.3-1.1c-0.1-7.2-0.5-14.4-1.1-21.6c-0.2-3.6-1.8-9-0.1-12.3
		c1.2-2.3,3.6-3.9,6.1-4.5c3.7-0.9,9-0.5,10.1,3.9c0.5,2.1,0.3,4.4,0.5,6.4c1.2,16.6,3,37.5,0.5,53.9c-0.7,4.7-2.7,8.9-7.6,10.1
		c-0.8,0.2-1.7,0.4-2.6,0.4c-7.3,0.3-10.6-8.7-13.7-13.8c-2.5-4.2-5-8.4-7.3-12.6c-1.4-2.6-2.8-5.4-4.3-7.9
		c-0.2-0.4-0.5-0.8-0.9-0.9c-0.4,0.2-0.5,0.8-0.5,1.1c-1.1,9.2-1.9,18.3-3.3,27.5c-1.1,6.4-1.3,14.8-9,16.8
		c-8.1,2-11.9-5.7-15.1-11.6c-6.7-12.4-10.8-27-14.4-40.6c-0.7-2.8-1.9-5.7-2.6-8.5c-1.6-6.2-0.1-9.7,6.4-11.3
		c7-1.8,9.3,1.7,10.9,7.7c0.9,3.5,7.7,28.7,9.1,29.5c0.4-0.2,0.3-0.9,0.4-1.1c1.3-11.1,2-22.5,3.7-33.6c0.8-5.1,2.1-9,7.6-10.4
		C167.9,8.8,172.1,9,174,11.9z"/>
</g>
<g class="st0">
	<path d="M43,159.8c-0.1,0.3-0.2,0.5-0.2,0.7c0.1,0.5,0.7,0.6,1.2,0.7c1.4,0.2,2.7,0.1,4.1,0.4c5.6,0.8,10.2,3.6,12.1,8.7
		c0.2,0.3,0.3,0.8,0.4,1.2c2.9,11.5-7.2,23.4-17.4,29.1c-2.1,1.2-4.2,2.4-6.5,3c-1.9,0.5-4,0.5-5.7-0.3c-2.5-1-4-1.4-4.7-4.2
		c-0.2-0.8-0.3-1.7-0.5-2.4L13.5,148c-0.7-3-1.8-5.5,1.5-7.7c4-2.7,8.9-5.4,13.8-6.6c7.5-1.9,15.8-0.6,17.8,7.3
		C48.1,147.2,45.6,153.9,43,159.8z M31,158c2.1-3.9,3.6-9.7,2.6-13.8c-0.4-1.4-1.1-3.1-3-2.7C29,142,26,143,26.5,145l3.2,12.9
		c0.1,0.2,0.3,0.8,0.7,0.7C30.7,158.5,30.9,158.1,31,158z M40.2,192c4.3-3.6,8.9-11.5,7.5-17.1c-1.3-5.4-5.9-6.1-11-4.8
		c-0.9,0.2-1.8,0.5-2.7,0.8c-1,0.3-0.8,1.3-0.6,2.1c0.2,0.8,0.6,1.6,0.8,2.4l4.1,16.2c0.1,0.5,0.7,0.9,1.2,0.7
		C39.7,192.3,40,192.1,40.2,192z"/>
	<path d="M113.4,157.4c1,1.3,2.6,2.8,3,4.4c0.8,3.1-3,5.7-5.6,6.3c-3,0.8-5.9-0.1-7.8-2.6c-0.9-1.1-1.5-2.2-2.3-3.4
		c-0.6-0.8-1.5-1.2-2.5-0.9c-2.6,0.6-5.1,1.7-8.1,2.5c-1.2,0.3-2,0.1-2.1,1.6l-0.1,6.1c-0.1,5.2,0.7,9.6-5.7,11.2
		c-2.6,0.7-6.9,0.3-7.7-2.9c-0.3-1.2,0.2-13.4,0.2-15.8c0.4-12.5,3.4-26.8,7.4-36.2c2-4.7,5.8-4.1,7.2-3.8
		C98.6,125.9,108.1,149.9,113.4,157.4z M94.8,152c0.5-0.2,0.7-0.5,0.5-1.1c-0.2-0.7-0.7-1.3-1-2c-1-2.4-1.9-4.9-3.1-7.2
		c-0.1-0.2-0.4-0.8-0.8-0.7c-0.3,0.1-0.4,0.5-0.5,0.8c-0.4,1.6-1.6,9.7-1.3,10.9c0.2,0.7,0.9,1,1.6,0.8
		C91.7,153.3,93.5,152.7,94.8,152z"/>
	<path d="M135.2,108.7c2.6-0.7,6.7-0.5,7.5,2.8c0.5,2.1-0.7,4-2.4,5.2c-0.8,0.6-1.7,0.7-2.5,1.2c-2.9,1.5-2.5,5.8-1.8,8.4
		c2.4,9.5,9,17.3,11.4,26.8c2.1,8.3-1,13.2-9.4,15.3c-3,0.7-7.9,0.8-8.8-3c-0.9-3.5,2.6-5,5-6.1c0.8-0.4,0.7-1.1,0.5-1.9
		c-2.3-9.2-9.4-17.9-11.8-27.5C120.4,119.8,124.8,111.3,135.2,108.7z"/>
	<path d="M162.5,106.6c-8.6,2.2-13.6-9-2.6-11.8C168.3,92.7,173.3,103.9,162.5,106.6z M163.1,138.6l-4.5-17.9
		c-0.9-3.5,2.5-5.7,5.4-6.4c6.7-1.7,7.9,2.6,9.3,7.9c1.2,4.9,1.5,7.1,2.8,12l5.2,20.9c0.9,3.5-2.5,5.8-5.5,6.5
		c-7.4,1.9-8.2-3.8-9.6-9.3C165.1,147.8,164.3,143.2,163.1,138.6z"/>
	<path d="M228.1,148.8c-2.9,2.4-6.2,4.1-9.9,5c-16.1,4-25.7-9.8-29.1-23.4c-3.6-14.4-2.3-35.6,15.1-40c4.5-1.1,9.1-0.7,13.5,0.6
		c1.8,0.5,4,1.5,4.5,3.6c0.7,3-2.7,5.4-5.1,6c-4.5,1.1-7.3-1.7-10.7-0.8c-2.2,0.6-3.8,4.7-4.3,6.8c-1.7,6.6-1.2,13.9,0.5,20.4
		c1.4,5.6,4.7,15.1,10.5,17.4c1,0.4,1.9,0.5,2.9,0.2c3.8-1,6.5-6.1,10.4-7.1c2.6-0.6,6.7,0,7.4,3C234.6,144,230.5,146.8,228.1,148.8
		z"/>
</g>
</svg>
