<?xml version="1.0" encoding="utf-8"?>
<!-- Generator: Adobe Illustrator 24.2.0, SVG Export Plug-In . SVG Version: 6.00 Build 0)  -->
<svg version="1.1" id="Ebene_1" xmlns="http://www.w3.org/2000/svg" xmlns:xlink="http://www.w3.org/1999/xlink" x="0px" y="0px"
	 viewBox="0 0 160 125.5" style="enable-background:new 0 0 160 125.5;" xml:space="preserve">
<style type="text/css">
	.st0{enable-background:new    ;}
</style>
<g class="st0">
	<path d="M25.8,28.3l5.6-12.2c1.1-2.4,4-2.1,6-1.2c4.5,2.1,3.3,5.1,1.6,8.7c-1.6,3.4-2.4,4.7-3.9,8l-6.6,14.2
		c-1.1,2.4-4,2.1-6.1,1.2c-5-2.3-2.9-5.9-1.2-9.7C22.7,34.4,24.3,31.4,25.8,28.3z M40,10c-5.8-2.7-3.5-11.3,3.9-7.8
		C49.6,4.8,47.3,13.4,40,10z"/>
	<path d="M58,61.5c-1-2-0.4-4.8-0.2-6.9c0.2-3.2,2.2-21.3,1-22.6c-0.2-0.1-0.5,0.3-0.6,0.4c-3.2,4.4-6,9.8-8.3,14.8
		c-1.7,3.8-2.9,7.8-8.1,5.4c-2.8-1.3-3.9-3.4-2.6-6.4c0.5-1.1,1.1-2,1.7-3c3.9-7.7,8-15.1,13.2-22c1.4-1.9,2.5-3.6,5.1-3.3
		c0.7,0,1.4,0.2,2,0.5c1.3,0.6,2.4,1.6,3.3,2.8c6.5,8.5,3.2,22.6,3.9,23.7c0.3,0,0.4-0.3,0.5-0.5c2.9-4.4,5.5-9.1,8-13.7
		c1.1-1.9,1.9-4.9,4.4-5.5c1.3-0.3,2.6,0,3.7,0.5c2.7,1.3,4,3.2,2.7,6.1c-0.9,2-2.1,3.7-3.2,5.6c-4.2,7.5-8.6,14.8-14,21.5
		c-1.4,1.8-3,4.2-4.9,5.4c-1.4,0.9-3.1,0.8-4.6,0.1C59.8,63.7,58.7,62.7,58,61.5z"/>
	<path d="M95.9,36.4c0.5-1.1,0.9-2.2,2-2.8c1.7-0.9,4.8-0.5,6.5,0.2c4.2,1.9,8.6,3,12.8,5c1.8,0.8,3.7,2.1,3.8,4.2
		c0,0.5,0,0.9-0.2,1.4c-0.8,1.8-3.5,1.8-5.1,1.3c-2.4-0.7-4.7-1.7-7-2.6c-0.9-0.4-1.9-0.7-2.8-1.1c-0.6-0.3-1.3-0.7-1.7,0.2
		l-3.8,8.1c-0.3,0.6,0,1.2,0.6,1.5l5.3,2.5c1.8,0.9,4.1,1.9,4.6,4.2c0.1,0.6,0.1,1.2-0.2,1.7c-1.3,2.7-5,1.8-7.1,0.8
		c-1.8-0.8-3.5-1.7-5.3-2.6c-0.3-0.2-0.6-0.3-0.9-0.5c-0.5-0.2-0.7,0.2-0.9,0.6l-6.2,13.4c-0.3,0.6-0.5,1.3-0.8,1.9
		c-1.3,2.8-3.7,3.2-6.3,2c-2.7-1.2-4-3.4-2.7-6.2C85.7,58.4,90.8,47.5,95.9,36.4z"/>
	<path d="M117.6,67.6c4-8.6,13.2-15.6,22.9-13c1.9,0.5,3.8,1.2,5.7,2c9.2,4.3,11.1,12.7,7,21.5c-5,10.8-16,17.2-27.4,11.9
		C116.4,85.7,113.3,76.8,117.6,67.6z M126.7,71.4c-1.9,4.2-3,10.1,2.1,12.4c6,2.8,12.9-4.5,15.3-9.5c1-2.2,3-8.9,0.1-10.3
		c-0.7-0.3-1.4-0.4-2-0.7c-0.8-0.4-1.5-0.9-2.3-1.3C135.1,59.8,128.4,67.6,126.7,71.4z"/>
</g>
<g class="st0">
	<path d="M31.2,57.8c-1.4,3.1-2.9,6.2-4.1,9.3c-0.3,0.8-0.7,1.5-0.8,2.3c-0.1,0.5,0.1,1.1-0.2,1.6c-0.5,1.1-2.2,1.1-3.1,0.7
		c-2.7-1.2-1.1-4.2-0.3-6.1c0.5-1.4,1.2-2.7,1.7-4.1c0-0.1,0.1-0.3,0-0.4c-0.3-0.2-3.7,2.8-6.1,1.7c-2.1-0.9-2.6-6.1-3.4-6.4
		c-0.4-0.2-1.1,1.2-1.2,1.5c-1.5,2.6-3,5.3-4.2,8c-0.7,1.5-1.6,1.9-3.1,1.2c-1.5-0.7-1.8-1.7-1.2-3.2c1-2.2,6.5-12.7,8.3-13.3
		c0.6-0.2,1.2-0.1,1.7,0.1c1.9,0.9,3.6,4,4.2,6c0.2,0.5,0.3,1.4,0.8,1.6c1.2,0.5,6.9-4.9,9.9-3.5C31.5,55.5,31.8,56.5,31.2,57.8z"/>
	<path d="M44,64.7c1.8,4.1,0.2,10-0.2,14.3c0,0.4-0.1,0.8-0.2,1.1c-0.5,1.2-1.8,1.4-2.9,0.9c-2.3-1-1.4-2.6-1.1-4.5
		c0.1-0.5,0.2-0.9,0.2-1.4c0-0.2,0.1-0.4-0.2-0.5c-1.1-0.5-2.3-1-3.4-1.5c-0.2-0.1-0.3-0.2-0.4-0.2c-0.2-0.1-0.3,0-0.5,0.1
		c-0.3,0.4-0.6,0.8-1,1.3c-1.1,1.4-1.4,3.6-3.9,2.5c-0.9-0.4-1.9-1.3-1.4-2.5c1.1-2.5,3.2-4.7,5-6.8c1-1.2,2.1-2.4,3.1-3.6
		c0.7-0.8,1.4-2.2,2.5-2.4c0.6-0.1,1.2,0,1.7,0.3C42.5,62.3,43.5,63.5,44,64.7z M39.9,67.5c-0.2,0.2-1.8,2.1-1.8,2.2
		c-0.1,0.3,0,0.5,0.3,0.6l1.4,0.6c0.2,0.1,0.5,0,0.6-0.2c0.1-0.3,0.1-2.6,0.1-3.1c0-0.1,0-0.3-0.1-0.3C40.1,67.3,40,67.4,39.9,67.5z
		"/>
	<path d="M54.2,69.9c-0.9-0.4-1.9-1.4-1.4-2.4c0.4-1,1.7-0.9,2.6-0.6c2.8,1,5.4,2.3,8.1,3.4c0.6,0.2,1.2,0.4,1.7,0.6
		c0.9,0.4,2.2,1.4,1.7,2.6c-0.1,0.2-0.3,0.4-0.5,0.6c-0.9,0.5-2,0.1-2.9-0.3L61.6,73c-0.4-0.1-0.5-0.5-0.8,0.1l-6.1,13.6
		c-0.3,0.7-0.6,1.3-1.4,1.5c-0.6,0.1-1.2,0-1.8-0.2c-1.4-0.6-1.8-1.7-1.2-3.1c0.2-0.5,0.5-0.9,0.7-1.4l5.3-11.8
		c0.2-0.3,0-0.7-0.3-0.9C55.5,70.4,54.8,70.1,54.2,69.9z"/>
	<path d="M72.9,95.1c-1.7,1.3-5.1,0-6.7-0.8L65,93.8c-2.6-1.2-0.9-4.5-0.2-6.4c0.4-1.1,0.9-2.2,1.3-3.2c1.2-2.7,2.7-5.4,4.3-8
		c0.6-0.9,1.4-1.4,2.5-1.3c0.6,0.1,1.1,0.3,1.6,0.5c0.5,0.2,1,0.5,1.5,0.7c1.1,0.5,2.1,1,3.3,1.5c0.8,0.4,1.7,1.2,1.3,2.2
		c-0.8,1.8-4.6-0.2-5.8-0.7c-0.4-0.1-0.7,0-0.9,0.3c-0.4,0.6-1.4,2.5-1.7,3.2c-0.1,0.3,0,0.7,0.3,0.8c0.5,0.2,0.9,0.4,1.4,0.6
		c0.5,0.2,1.1,0.4,1.6,0.7c0.9,0.4,1.8,1.3,1.3,2.4c-0.7,1.5-2.7,0.7-3.7,0.2c-0.3-0.2-0.7-0.3-1-0.4c-0.5-0.2-1.5-0.9-1.9-0.1
		c-0.6,1.3-1.1,2.6-1.5,4c0,0.1,0,0.1-0.1,0.2c-0.2,0.3-0.4,0.8,0,1c1.1,0.5,2.4,0,3.4,0.5c0.8,0.4,1.9,1.4,1.4,2.4
		C73.2,94.8,73.1,95,72.9,95.1z"/>
	<path d="M88.3,95.3c0.5,1.4,0.6,2.8,1,4.2c0.3,0.8,1.1,1.3,1,2.2c0,1.4-2,1.4-3,0.9c-2.9-1.3-2.9-6.9-3.4-7.1
		c-0.1-0.1-0.2,0.2-0.3,0.2c-0.5,1.1-1,2.3-1.6,3.5c-0.3,0.7-0.7,1.3-1.5,1.4c-0.6,0.1-1.2,0-1.7-0.3c-1.3-0.6-1.7-1.6-1.1-3
		c0.7-1.5,1.7-3.6,2.3-5.2c1.5-3.5,2.7-6.6,4.2-10c0.1-0.3,0.3-0.5,0.5-0.7c1.2-1,4.4-0.2,5.7,0.4c3.3,1.5,5.2,4.9,3.6,8.4
		c-1,2.3-3,3.7-5.4,4.4c-0.1,0-0.3,0.1-0.4,0.2C88.2,95,88.2,95.2,88.3,95.3z M89.1,84.9c-0.4-0.2-0.9-0.3-1.1,0.1l-0.8,2
		c-0.5,1.2-1,2.5-1.5,3.7c-0.1,0.2-0.1,0.4,0.2,0.6c0.1,0,0.1,0,0.2,0c1.5-0.1,2.9-1.2,3.6-2.6C90.2,87.5,90.5,85.5,89.1,84.9z"/>
	<path d="M99.3,93.7c0.5-0.8,1.6-0.6,2.3-0.3c1,0.4,2,1.5,1.5,2.7c-1,2.2-2.1,3.9-3.1,6.1c-0.3,0.6-1,1.7-1,2.6c0,0.2,0,0.4-0.1,0.5
		c-0.1,0.2-0.3,0.4-0.5,0.6c-0.8,0.8-1.7,0.8-2.7,0.4c-1.8-0.8-1.8-2.1-1.1-3.7c0.2-0.4,0.4-0.8,0.6-1.3
		C96.6,98.7,97.7,96,99.3,93.7z M101.5,88.6c0.5-1.1,1.9-1.2,2.9-0.8c1,0.5,1.9,1.5,1.4,2.7c-0.5,1.2-1.9,1.2-2.9,0.8
		C101.8,90.8,100.9,89.7,101.5,88.6z"/>
	<path d="M117.5,97.8c1.8,4.1,0.2,10-0.2,14.3c0,0.4-0.1,0.8-0.2,1.1c-0.5,1.2-1.8,1.4-2.9,0.9c-2.3-1-1.4-2.6-1.1-4.5
		c0.1-0.5,0.2-0.9,0.2-1.4c0-0.2,0.1-0.4-0.2-0.5c-1.1-0.5-2.3-1-3.4-1.5c-0.2-0.1-0.3-0.2-0.4-0.2c-0.2-0.1-0.3,0-0.5,0.1
		c-0.3,0.4-0.6,0.8-1,1.3c-1.1,1.4-1.4,3.6-3.9,2.5c-0.9-0.4-1.9-1.3-1.4-2.5c1.1-2.5,3.2-4.7,5-6.8c1-1.2,2.1-2.4,3.1-3.6
		c0.7-0.8,1.4-2.2,2.5-2.4c0.6-0.1,1.2,0,1.7,0.3C116,95.4,117,96.6,117.5,97.8z M113.4,100.6c-0.2,0.2-1.8,2.1-1.8,2.2
		c-0.1,0.3,0,0.5,0.3,0.6l1.4,0.6c0.2,0.1,0.5,0,0.6-0.2c0.1-0.3,0.1-2.6,0.1-3.1c0-0.1,0-0.3-0.1-0.3
		C113.6,100.4,113.5,100.6,113.4,100.6z"/>
	<path d="M125.9,115.2l-0.2,0.5c-0.1,0.3,0.1,0.6,0.3,0.7l4.4,2c0.8,0.4,1.9,1.5,1.4,2.4c0,0.1-0.1,0.2-0.2,0.3
		c-1,1-2.7,0.1-3.8-0.3c-1-0.4-1.9-0.9-2.8-1.3c-0.6-0.3-1.3-0.5-1.9-0.8c-0.5-0.2-0.9-0.5-1.4-0.8c-1.1-0.8-1-1.5-0.6-2.7
		c0.8-2.9,2-5.8,3.2-8.6c0.6-1.3,1.2-2.5,1.7-3.8c0.1-0.3,0.2-0.6,0.4-0.9c0.6-1.4,1.7-1.6,3-1c1.2,0.5,1.9,1.5,1.3,2.8
		c-0.1,0.3-0.3,0.6-0.5,0.9C128.7,108.1,127.1,111.4,125.9,115.2z"/>
</g>
</svg>
