<?xml version="1.0" encoding="utf-8"?>
<!-- Generator: Adobe Illustrator 24.2.0, SVG Export Plug-In . SVG Version: 6.00 Build 0)  -->
<svg version="1.1" xmlns="http://www.w3.org/2000/svg" xmlns:xlink="http://www.w3.org/1999/xlink" x="0px" y="0px"
	 viewBox="0 0 210 297" style="enable-background:new 0 0 210 297;" xml:space="preserve">
<style type="text/css">
	.st0{display:none;}
	.st1{fill:#FFFFFF;}
</style>
<g id="Ebene_1" class="st0">
	
		<image style="display:inline;overflow:visible;" width="540" height="714" xlink:href="23D4DFAE.png"  transform="matrix(0.3877 0 0 0.3877 -220.7696 -0.1528)">
	</image>
	
		<image style="display:inline;overflow:visible;" width="316" height="326" xlink:href="23D4DFAE.jpg"  transform="matrix(0.6125 0 0 0.6774 10.5564 66.4265)">
	</image>
</g>
<g id="schlangen">
	<g>
		<g>
			<g>
				<path class="st1" d="M26.3,9.2c-3.9,1.8-8.4,6.3-5.9,10.9c1.1,2,3.2,2.9,5.2,3.8c1.4,0.6,3.1,1.2,3.9,2.6c0.3,0.6,0.2,1.2-0.4,2
					c-0.7,1-1.8,1.8-2.8,2.5c-2.6,1.8-5.4,3.3-8.1,5.1c-2,1.3-4.7,3.2-4.9,5.8c-0.3,3.6,3.5,5.7,6.4,6.8c3.2,1.3,6.6,2,9.8,3.3
					c1.7,0.7,4.5,1.7,3.7,4.1c-0.7,2-2.7,3.5-4.2,4.9c-3.1,2.9-7.2,5.5-8.9,9.6c-0.9,2.2-0.5,4.2,1.5,5.6c1.1,0.8,2.1,1.5,2.7,2.8
					c0.6,1.3,0.6,2.8,0.5,4.3c-0.1,1.6,2.4,1.6,2.5,0c0.2-2.5-0.2-5-1.8-7c-0.7-0.8-1.4-1.4-2.3-2c-0.8-0.5-1.3-1-1.1-2
					c0.4-1.9,2.1-3.5,3.4-4.8c1.4-1.4,2.9-2.6,4.3-3.9c2.6-2.4,7.1-5.9,5.7-10c-0.8-2.1-2.9-3.1-4.8-3.9c-1.5-0.6-2.9-1.1-4.5-1.6
					c-3.1-0.9-7.2-1.6-9.6-4.1c-1.9-2-0.2-3.6,1.6-5c2.5-1.9,5.3-3.3,7.9-5c2.1-1.4,4.8-3,5.7-5.5c1.3-3.6-2.6-5.8-5.3-7
					c-2.1-0.9-4.9-2.2-4.3-5c0.5-2.5,3.2-4.3,5.3-5.3C29,10.7,27.7,8.6,26.3,9.2L26.3,9.2z"/>
			</g>
		</g>
	</g>
	<g>
		<g>
			<g>
				<path class="st1" d="M182.5,202.5c-3.3,0-6.5,2.1-8.8,4.2c-2.3,2.1-4.7,5.4-3.8,8.8c1.1,4.3,6.4,5.3,10,6.3
					c1.3,0.4,5.7,1.4,5.2,3.4c-0.2,0.9-1.3,1.7-2,2.2c-0.8,0.7-1.7,1.3-2.6,1.8c-3.2,2.2-7.4,4.4-8.9,8.2c-1.6,4,1.1,7.4,4.7,9
					c1.6,0.7,3.3,1.2,5,1.7c1.6,0.4,3.7,0.9,4.8,2.1c1.3,1.5-0.8,3.7-1.8,4.8c-1.8,2-3.9,3.6-5.9,5.3c-2,1.7-4.4,3.6-5.5,6
					c-1.1,2.5-0.3,5,1.3,7c1.3,1.6,3.1,2.8,4.6,4.2c1.5,1.3,3.2,2.9,3.1,5c-0.1,1.6,2.4,1.6,2.5,0c0.3-3.9-3.5-6.6-6.2-8.8
					c-1.5-1.2-3.2-2.8-3.4-4.8c-0.2-2.2,2.1-4.1,3.5-5.4c3.5-3.1,8-5.8,10.1-10.2c2-4.1-1.8-6.4-5.2-7.4c-1.6-0.5-3.3-0.9-4.9-1.5
					c-1.6-0.6-3.5-1.4-4.3-2.9c-2-3.8,3-7.1,5.6-8.8c1.6-1.1,3.2-2.1,4.8-3.3c1.4-1.1,3.1-2.6,3.1-4.6c0-2.2-2.2-3.7-4.1-4.4
					c-2.1-0.9-4.4-1.3-6.6-2c-1.8-0.6-4.2-1.5-4.7-3.6c-0.4-1.5,0.5-3.1,1.3-4.3c1.9-2.6,5.5-5.5,8.9-5.5
					C184.1,205,184.1,202.5,182.5,202.5L182.5,202.5z"/>
			</g>
		</g>
	</g>
	<g>
		<g>
			<g>
				<path class="st1" d="M185.6,58c-2.9,1.3-5.7,2.6-7.4,5.5c-1.6,2.6-2.2,6.1-1,9c1.3,3.1,4.5,4.7,7.3,6c2.6,1.2,6.5,2.8,6.5,6.2
					c-0.1,3.1-2.5,5.9-4.2,8.2c-2,2.5-4.1,5.2-4.6,8.5c-0.4,3.1,1.1,5.3,3.8,6.6c2.3,1.1,5.2,2,6.1,4.6c0.9,2.6-0.4,5.7-1.5,8
					c-1.3,2.8-2.9,5.5-4.1,8.4c-0.6,1.5,1.8,2.1,2.4,0.7c1.9-4.8,5.5-9.2,5.9-14.5c0.2-2.4-0.7-4.8-2.6-6.5
					c-1.1-0.9-2.3-1.6-3.6-2.1c-1.1-0.5-2.4-1-3.3-1.8c-2.3-2.3,0.2-6.1,1.6-8.2c1.8-2.6,4-4.9,5.4-7.8c1.2-2.7,1.5-5.7-0.4-8.1
					c-2-2.5-5.2-3.6-8-5.1c-1.6-0.8-3.3-1.8-4.3-3.4c-0.9-1.5-0.9-3.4-0.5-5.1c1-3.9,4.1-5.4,7.5-7C188.4,59.5,187.1,57.3,185.6,58
					L185.6,58z"/>
			</g>
		</g>
	</g>
	<g>
		<g>
			<g>
				<path class="st1" d="M57.3,169.3c-1.2,3.1-3.5,5.8-3.9,9.2c-0.3,2.9,0.5,5.7,2.2,8.1c1.7,2.3,4,4.1,6.2,5.9
					c2.2,1.7,4.8,3.4,6.2,5.9c1.4,2.5,0.3,5.2-0.9,7.5c-1.6,3-3.6,5.9-5,9c-1.3,2.8-2.4,6.2-1.9,9.4c0.4,2.2,1.8,3.8,3.4,5.3
					c1.7,1.5,4,3.3,3.8,5.8c-0.1,1.5-1.2,2.9-2.1,4.1c-1,1.4-2.2,2.7-3,4.2c-0.7,1.4,1.4,2.7,2.2,1.3c1.4-2.6,3.8-4.6,4.9-7.4
					c1-2.4,0.4-5-1.2-7c-1.3-1.6-3.1-2.7-4.4-4.3c-1.8-2.2-1.2-5.2-0.4-7.7c1-3.3,2.9-6.2,4.7-9.2c1.5-2.6,3.3-5.5,3.2-8.6
					c-0.2-5.7-6.6-8.9-10.4-12.2c-2.3-2-4.5-4.5-4.9-7.7c-0.4-4,2.4-7.2,3.8-10.7C60.3,168.5,57.9,167.8,57.3,169.3L57.3,169.3z"/>
			</g>
		</g>
	</g>
	<g>
		<g>
			<g>
				<path class="st1" d="M135.7,5.9c-3.1,1.6-5.7,4-7,7.3c-1.2,3-0.9,6.4,0.6,9.2c0.8,1.5,1.9,2.8,3.1,4c1.2,1.1,2.6,2.2,3.4,3.7
					c1.7,3.1-2.1,6.5-3.8,8.8c-2.5,3.3-5.1,7.9-3.7,12.1c0.5,1.5,2.9,0.9,2.4-0.7c-1.2-3.6,1.3-7.5,3.4-10.2c1.9-2.4,4.5-5,4.6-8.3
					c0.1-3.2-2.7-5.4-4.8-7.4c-2.3-2.2-3.9-5.1-3.5-8.4c0.5-3.7,3.4-6.4,6.5-8.1C138.4,7.3,137.2,5.2,135.7,5.9L135.7,5.9z"/>
			</g>
		</g>
	</g>
	<g>
		<g>
			<g>
				<path class="st1" d="M26.2,203.5c-3.2,2.3-6.2,5.5-7.5,9.3c-0.6,1.7-0.8,3.7-0.1,5.5c0.6,1.6,1.9,2.8,3.3,3.8
					c2.9,2.1,6.6,3.7,8,7.2c1.1,2.6-0.1,5.1-1.5,7.3c-3.5,5.2-9.5,9.6-10.7,16.1c-1.1,6.5,4.1,10.5,8.6,14.1c2.5,2,5.6,4.4,6.2,7.7
					c0.4,2.2-0.4,4.4-1,6.4c-0.6,2.2-0.9,4.3-0.2,6.5c0.5,1.5,2.9,0.9,2.4-0.7c-1.2-3.7,1.4-7.3,1.3-11c0-3.3-1.9-6-4.2-8.2
					c-2.1-2.1-4.6-3.7-6.7-5.7c-1.9-1.7-3.8-3.8-4.2-6.5c-0.4-3.1,1.3-5.9,3-8.3c1.9-2.6,4.1-4.9,6.1-7.5c1.7-2.2,3.3-4.7,3.6-7.5
					c0.3-3.1-1.5-5.8-3.7-7.9c-1.5-1.4-3.3-2.5-5-3.6c-1.5-1-3.1-2.2-3.4-4.1c-0.4-2.1,0.8-4.3,2-6.1c1.3-1.9,2.9-3.6,4.8-4.9
					C28.8,204.8,27.5,202.6,26.2,203.5L26.2,203.5z"/>
			</g>
		</g>
	</g>
	<g>
		<g>
			<g>
				<path class="st1" d="M18.4,121.7c-1.8,1.4-3.8,3.5-2.9,6c0.9,2.3,3.3,3.8,5.2,5.2c1,0.7,2.3,1.6,2.4,2.9c0.1,1-0.5,1.9-1.1,2.7
					c-1.4,1.9-3.2,3.3-4.4,5.3c-1,1.5-1.5,3.5-0.7,5.2c0.8,1.6,2.4,2.5,3.9,3.2c1.6,0.8,3.6,1.4,4.9,2.7c1.9,1.7,0.8,4.2-0.2,6.1
					c-1.4,2.6-3.4,4.9-4.6,7.7c-1.5,3.5-0.8,6.8,1.1,10c0.4,0.7,1.5,0.1,1.1-0.6c-0.9-1.5-1.7-3.1-1.8-4.9c-0.1-1.8,0.5-3.6,1.3-5.2
					c1.2-2.2,2.7-4.1,3.9-6.3c0.9-1.8,2-4,1.2-6c-0.6-1.5-2-2.4-3.4-3.2c-2.8-1.4-8.1-2.8-6.3-7.1c0.9-2,2.7-3.5,4.1-5.2
					c1.1-1.3,2.3-2.9,2-4.8c-0.4-2.6-3.6-4-5.4-5.6c-1-0.8-2.2-1.9-2.3-3.3c-0.2-1.7,1.5-3.1,2.7-4C19.9,122.1,19,121.2,18.4,121.7
					L18.4,121.7z"/>
			</g>
		</g>
	</g>
	<g>
		<g>
			<g>
				<path class="st1" d="M78.6,44.6c-2.6,2.1-4.9,5.6-2.5,8.8c1.2,1.6,3,2.4,4.8,3.1c0.8,0.3,1.9,0.6,2.6,1.3c0.7,0.8,0.5,2,0.1,2.9
					c-0.8,1.6-2.1,3-3.1,4.4c-1,1.4-2.1,2.7-3.1,4.1c-0.7,1-1.4,2.3-1.1,3.5c0.3,1.3,1.6,2,2.8,2.5c1.8,0.7,4.4,0.6,5.9,1.9
					c1.7,1.5-0.8,4.5-1.4,6.1c-0.3,0.8,0.9,1.1,1.2,0.3c0.6-1.6,1.9-3.1,2-4.9c0.1-1.6-0.9-2.7-2.3-3.2c-2.1-0.9-8.5-1.1-6.6-4.8
					c1.5-2.9,4.1-5.3,5.9-8c0.8-1.2,1.6-2.8,1.3-4.3c-0.3-1.6-1.8-2.3-3.3-2.9c-2-0.8-4.6-1.7-5.4-4c-0.8-2.4,1.3-4.6,3-6
					C80.1,45,79.2,44.1,78.6,44.6L78.6,44.6z"/>
			</g>
		</g>
	</g>
	<g>
		<g>
			<g>
				<path class="st1" d="M156.4,181.4c-2.5,1.7-4.7,5.1-3.6,8.2c0.5,1.4,1.9,2.4,2.3,3.8c0.6,1.9-0.6,4.3-1.3,6
					c-0.6,1.3-1.4,3-0.9,4.5c0.3,1,1.2,1.6,2.1,2.1c1.1,0.6,2.1,1.3,2.1,2.6c0.1,1.3-0.5,2.6-0.8,3.9c-0.7,2.5-1.7,5.9,1,7.5
					c0.7,0.4,1.3-0.7,0.6-1.1c-2.3-1.3-0.8-4.8-0.3-6.8c0.6-2,1.2-4.3-0.3-6c-0.7-0.7-1.6-1.1-2.4-1.6c-1.4-0.9-0.9-2.3-0.4-3.7
					c1-2.6,3-6,1.3-8.7c-0.9-1.5-2.2-2.5-2.1-4.4c0.2-2.1,1.6-4,3.3-5.2C157.7,182,157.1,180.9,156.4,181.4L156.4,181.4z"/>
			</g>
		</g>
	</g>
	<g>
		<g>
			<g>
				<path class="st1" d="M190.5,11.5c-2.3,1-4.1,2.8-4.2,5.4c-0.1,1.2,0.3,2.4,0.9,3.5c0.8,1.3,2.4,1.9,1.6,3.6
					c-1,2.1-3.9,4.1-3.7,6.7c0.2,2.2,3.2,2.8,4.6,4c2.7,2.4-0.9,6.4-1.7,8.9c-0.2,0.8,1,1.1,1.2,0.3c0.8-2.7,3.8-5.8,2.5-8.7
					c-0.7-1.5-2.2-2.2-3.5-3c-1.3-0.8-2.2-1.3-1.4-2.9c1-2.1,5.1-5.2,3.1-7.8c-0.5-0.7-1.3-1.2-1.7-2c-0.4-0.7-0.6-1.6-0.6-2.4
					c0.1-2,1.5-3.6,3.3-4.4C191.5,12.4,191.2,11.2,190.5,11.5L190.5,11.5z"/>
			</g>
		</g>
	</g>
	<g>
		<g>
			<g>
				<path class="st1" d="M196.6,140.5c-1.6,1.2-3.1,3.1-2.8,5.2c0.3,2.1,1.9,2.9,3.5,3.8c1.7,1,1.4,2.1,0.2,3.4
					c-1,1.1-2.2,2-3.1,3.1c-0.8,1-1.3,2.2-1.1,3.4c0.4,1.8,1.9,2.7,3.4,3.5c0.8,0.4,1.8,0.8,2.4,1.5c1.1,1.3,0.7,2.9,0,4.3
					c-1,2-2.5,3.6-3.6,5.5c-0.9,1.6-1.1,3.5,0.7,4.5c1.1,0.6,2.2,0.8,2.8,1.9c0.8,1.4,0.7,2.9,0.6,4.5c-0.1,0.8,1.2,0.8,1.3,0
					c0.2-2,0.1-4.3-1.3-5.9c-1.2-1.3-4.1-1.3-3.3-3.6c1.3-3.4,6.3-6.8,4.5-10.9c-0.8-1.8-2.6-2.5-4.2-3.3c-1.6-0.9-2.6-2.3-1.6-4
					c1.3-2.2,4.5-3.4,4.9-6.1c0.2-1.7-1.2-2.6-2.5-3.3c-1.3-0.7-2.4-1.5-2.2-3.2c0.1-1.5,1.3-2.7,2.4-3.6
					C198.1,140.8,197.2,140,196.6,140.5L196.6,140.5z"/>
			</g>
		</g>
	</g>
	<g>
		<g>
			<g>
				<path class="st1" d="M178.5,186c2.4,0,2.4-3.8,0-3.8C176.1,182.3,176.1,186,178.5,186L178.5,186z"/>
			</g>
		</g>
	</g>
	<g>
		<g>
			<g>
				<path class="st1" d="M44.9,247.3c1.6,0,1.6-2.5,0-2.5C43.3,244.8,43.3,247.3,44.9,247.3L44.9,247.3z"/>
			</g>
		</g>
	</g>
	<g>
		<g>
			<g>
				<path class="st1" d="M15,103.6"/>
			</g>
		</g>
		<g>
			<g>
				<g>
					<path class="st1" d="M15,104.9c1.6,0,1.6-2.5,0-2.5C13.4,102.4,13.4,104.9,15,104.9L15,104.9z"/>
				</g>
			</g>
		</g>
	</g>
	<g>
		<g>
			<g>
				<path class="st1" d="M114.2,19.5c1.6,0,1.6-2.5,0-2.5C112.6,17,112.6,19.5,114.2,19.5L114.2,19.5z"/>
			</g>
		</g>
	</g>
	<g>
		<g>
			<g>
				<path class="st1" d="M56.3,21.8c2.4,0,2.4-3.8,0-3.8C53.9,18,53.9,21.8,56.3,21.8L56.3,21.8z"/>
			</g>
		</g>
	</g>
	<g>
		<g>
			<g>
				<path class="st1" d="M138.6,220.1c0.8,0,0.8-1.3,0-1.3C137.8,218.8,137.8,220.1,138.6,220.1L138.6,220.1z"/>
			</g>
		</g>
	</g>
	<g>
		<g>
			<g>
				<path class="st1" d="M198.7,284.8c2.4,0,2.4-3.8,0-3.8C196.3,281,196.3,284.8,198.7,284.8L198.7,284.8z"/>
			</g>
		</g>
	</g>
	<g>
		<g>
			<g>
				<path class="st1" d="M13.5,279.5c0.8,0,0.8-1.3,0-1.3C12.7,278.2,12.7,279.5,13.5,279.5L13.5,279.5z"/>
			</g>
		</g>
	</g>
	<g>
		<g>
			<g>
				<path class="st1" d="M166.2,29c0.8,0,0.8-1.3,0-1.3C165.4,27.8,165.4,29,166.2,29L166.2,29z"/>
			</g>
		</g>
	</g>
	<g>
		<g>
			<g>
				<path class="st1" d="M198.7,75c1.6,0,1.6-2.5,0-2.5C197.1,72.5,197.1,75,198.7,75L198.7,75z"/>
			</g>
		</g>
	</g>
	<g>
		<g>
			<g>
				<path class="st1" d="M51.2,166.4c2.4,0,2.4-3.8,0-3.8C48.7,162.6,48.7,166.4,51.2,166.4L51.2,166.4z"/>
			</g>
		</g>
	</g>
	<g>
		<g>
			<g>
				<path class="st1" d="M6.9,190.5c1.6,0,1.6-2.5,0-2.5C5.3,188,5.3,190.5,6.9,190.5L6.9,190.5z"/>
			</g>
		</g>
	</g>
	<g>
		<g>
			<g>
				<path class="st1" d="M184.3,146.9c1.6,0,1.6-2.5,0-2.5C182.7,144.4,182.7,146.9,184.3,146.9L184.3,146.9z"/>
			</g>
		</g>
	</g>
	<g>
		<g>
			<g>
				<path class="st1" d="M159.6,70.8c2.4,0,2.4-3.8,0-3.8C157.2,67.1,157.2,70.8,159.6,70.8L159.6,70.8z"/>
			</g>
		</g>
	</g>
	<g>
		<g>
			<g>
				<path class="st1" d="M101.3,60.4c0.8,0,0.8-1.3,0-1.3C100.5,59.1,100.5,60.4,101.3,60.4L101.3,60.4z"/>
			</g>
		</g>
	</g>
	<g>
		<g>
			<g>
				<path class="st1" d="M49.7,80.1c2.4,0,2.4-3.8,0-3.8C47.3,76.3,47.3,80.1,49.7,80.1L49.7,80.1z"/>
			</g>
		</g>
	</g>
	<g>
		<g>
			<g>
				<path class="st1" d="M8.4,27.9c0.8,0,0.8-1.3,0-1.3C7.6,26.7,7.6,27.9,8.4,27.9L8.4,27.9z"/>
			</g>
		</g>
	</g>
	<g>
		<g>
			<g>
				<path class="st1" d="M94.7,43.2c2.4,0,2.4-3.8,0-3.8C92.3,39.4,92.3,43.2,94.7,43.2L94.7,43.2z"/>
			</g>
		</g>
	</g>
	<g>
		<g>
			<g>
				<path class="st1" d="M33.5,8.3c1.6,0,1.6-2.5,0-2.5C31.8,5.8,31.8,8.3,33.5,8.3L33.5,8.3z"/>
			</g>
		</g>
	</g>
	<g>
		<g>
			<g>
				<path class="st1" d="M205.7,18.5c2.4,0,2.4-3.8,0-3.8C203.3,14.7,203.3,18.5,205.7,18.5L205.7,18.5z"/>
			</g>
		</g>
	</g>
	<g>
		<g>
			<g>
				<path class="st1" d="M46.4,45.9c1.6,0,1.6-2.5,0-2.5C44.8,43.4,44.7,45.9,46.4,45.9L46.4,45.9z"/>
			</g>
		</g>
	</g>
	<g>
		<g>
			<g>
				<path class="st1" d="M204.2,133.6c2.4,0,2.4-3.8,0-3.8C201.8,129.8,201.8,133.6,204.2,133.6L204.2,133.6z"/>
			</g>
		</g>
	</g>
	<g>
		<g>
			<g>
				<path class="st1" d="M46.7,96.2c0.8,0,0.8-1.3,0-1.3C45.9,94.9,45.9,96.2,46.7,96.2L46.7,96.2z"/>
			</g>
		</g>
	</g>
	<g>
		<g>
			<g>
				<path class="st1" d="M40.1,204c2.4,0,2.4-3.8,0-3.8C37.7,200.3,37.7,204,40.1,204L40.1,204z"/>
			</g>
		</g>
	</g>
	<g>
		<g>
			<g>
				<path class="st1" d="M9.8,230.9c2.4,0,2.4-3.8,0-3.8C7.4,227.2,7.4,230.9,9.8,230.9L9.8,230.9z"/>
			</g>
		</g>
	</g>
	<g>
		<g>
			<g>
				<path class="st1" d="M54.1,288.1c2.4,0,2.4-3.8,0-3.8C51.7,284.4,51.7,288.1,54.1,288.1L54.1,288.1z"/>
			</g>
		</g>
	</g>
	<g>
		<g>
			<g>
				<path class="st1" d="M86.9,221.8c1.6,0,1.6-2.5,0-2.5C85.3,219.3,85.3,221.8,86.9,221.8L86.9,221.8z"/>
			</g>
		</g>
	</g>
	<g>
		<g>
			<g>
				<path class="st1" d="M148.9,290.4c1.6,0,1.6-2.5,0-2.5C147.3,287.9,147.3,290.4,148.9,290.4L148.9,290.4z"/>
			</g>
		</g>
	</g>
	<g>
		<g>
			<g>
				<path class="st1" d="M197.2,230.1c0.8,0,0.8-1.3,0-1.3C196.4,228.8,196.4,230.1,197.2,230.1L197.2,230.1z"/>
			</g>
		</g>
	</g>
</g>
<g id="pokal">
	<g>
		<g>
			<path class="st1" d="M149,173.4c-0.2,0-0.4-0.1-0.6-0.2c-0.3-0.2-0.4-0.5-0.4-0.8l-0.6-60.6H42.9c-0.6,0-1-0.4-1-1s0.4-1,1-1
				h105.5c0,0,0,0,0,0h23.2c0.5,0,1,0.4,1,0.9c0.2,2.2,4.1,53.2-23.3,62.6C149.2,173.3,149.1,173.4,149,173.4z M149.4,111.7
				l0.6,59.2c22.7-9.4,21.1-52.3,20.7-59.2H149.4z"/>
		</g>
	</g>
	<g>
		<g>
			<path class="st1" d="M107.4,215.8c-0.5,0-1-0.4-1-1c0-0.6,0.4-1,1-1c15.7-0.1,27.3-7.1,34.5-20.7c5.4-10.3,6.1-20.7,6.1-20.8
				c0-0.6,0.5-1,1.1-0.9c0.6,0,1,0.5,0.9,1.1C149.9,172.8,146.8,215.5,107.4,215.8C107.4,215.8,107.4,215.8,107.4,215.8z"/>
		</g>
	</g>
	<g>
		<g>
			<path class="st1" d="M65.8,173.4c-0.1,0-0.2,0-0.3-0.1C38,163.9,42,112.8,42.1,110.7c0-0.6,0.5-1,1.1-0.9c0.6,0,1,0.5,0.9,1.1
				c0,0.5-3.9,49.9,20.7,60.1l0.6-60.2c0-0.5,0.5-1,1-1c0,0,0,0,0,0c0.6,0,1,0.5,1,1l-0.6,61.6c0,0.3-0.2,0.6-0.4,0.8
				C66.2,173.3,66,173.4,65.8,173.4z"/>
		</g>
	</g>
	<g>
		<g>
			<path class="st1" d="M107.4,215.8C107.4,215.8,107.4,215.8,107.4,215.8c-39.4-0.3-42.5-42.9-42.6-43.4c0-0.6,0.4-1,0.9-1.1
				c0.6,0,1,0.4,1.1,0.9c0,0.1,0.7,10.5,6.1,20.8c7.2,13.6,18.8,20.6,34.5,20.7c0.6,0,1,0.5,1,1
				C108.4,215.3,107.9,215.8,107.4,215.8z"/>
		</g>
	</g>
	<g>
		<g>
			<path class="st1" d="M107.3,173.9c-0.8,0-1.5-0.7-1.5-1.5v-36.1l-7,8.3c-0.5,0.6-1.5,0.7-2.1,0.2c-0.6-0.5-0.7-1.5-0.2-2.1
				l9.7-11.4c0.4-0.5,1.1-0.7,1.7-0.4c0.6,0.2,1,0.8,1,1.4v40.2C108.8,173.2,108.2,173.9,107.3,173.9z"/>
		</g>
	</g>
	<g>
		<g>
			<path class="st1" d="M116.5,173.9H97.6c-0.8,0-1.5-0.7-1.5-1.5s0.7-1.5,1.5-1.5h18.9c0.8,0,1.5,0.7,1.5,1.5
				S117.3,173.9,116.5,173.9z"/>
		</g>
	</g>
	<g>
		<g>
			<path class="st1" d="M132.2,169.6"/>
		</g>
	</g>
	<g>
		<g>
			<path class="st1" d="M107.1,199.4c-0.5,0-0.9-0.4-1-0.9c-0.1-0.5,0.3-1,0.9-1.1c16.6-1.6,21.7-15,21.9-15.6
				c0.2-0.5,0.8-0.8,1.3-0.6c0.5,0.2,0.8,0.8,0.6,1.3C130.7,182.7,125,197.7,107.1,199.4C107.1,199.4,107.1,199.4,107.1,199.4z"/>
		</g>
	</g>
	<g>
		<g>
			<path class="st1" d="M98.9,240.3c-0.6,0-1-0.4-1-1V214c0-0.6,0.4-1,1-1s1,0.4,1,1v25.4C99.9,239.9,99.5,240.3,98.9,240.3z"/>
		</g>
	</g>
	<g>
		<g>
			<path class="st1" d="M115.2,240.3c-0.6,0-1-0.4-1-1v-24.2c0-0.6,0.4-1,1-1s1,0.4,1,1v24.2C116.2,239.9,115.8,240.3,115.2,240.3z"
				/>
		</g>
	</g>
	<g>
		<g>
			<path class="st1" d="M149.9,279.3H64.2c-0.6,0-1-0.4-1-1v-21.9c0-10,8.1-18.1,18.1-18.1h51.5c10,0,18.1,8.1,18.1,18.1v21.9
				C150.9,278.9,150.5,279.3,149.9,279.3z M65.2,277.3h83.7v-20.9c0-8.9-7.2-16.1-16.1-16.1H81.3c-8.9,0-16.1,7.2-16.1,16.1V277.3z"
				/>
		</g>
	</g>
	<g>
		<g>
			<path class="st1" d="M128,279.3c-0.6,0-1-0.4-1-1V264c0-1.9-1.5-3.4-3.4-3.4H91.2c-1.9,0-3.4,1.5-3.4,3.4v14.4c0,0.6-0.4,1-1,1
				s-1-0.4-1-1V264c0-3,2.4-5.4,5.4-5.4h32.4c3,0,5.4,2.4,5.4,5.4v14.4C129,278.9,128.5,279.3,128,279.3z"/>
		</g>
	</g>
</g>
<g id="me">
	<g>
		<g>
			<path class="st1" d="M148.8,84.6c-0.1,0-0.2,0-0.3,0c-0.4-0.1-0.7-0.4-0.8-0.8c-0.8-4.7-3.4-8.2-7.9-10.2
				c-8.6-4-21.1-1.4-21.2-1.4c-0.2,0-0.3,0-0.5-0.1c-0.1-0.1-0.2-0.3-0.1-0.5c0-0.2,3.3-16.7,15.6-17.4
				c10.4-0.6,16.3,12.3,17.9,16.3c0.5,1.1,0.7,2.2,0.9,3.2c0.8,5.3-1.5,8.9-2.9,10.6C149.4,84.5,149.1,84.6,148.8,84.6z M148.8,83.6
				C148.8,83.6,148.9,83.6,148.8,83.6L148.8,83.6c1.4-1.5,3.5-4.8,2.8-9.7c-0.1-0.9-0.4-1.9-0.8-3c-1.5-3.7-7-15.7-16.3-15.7
				c-0.2,0-0.4,0-0.6,0c-10,0.6-13.7,12.7-14.5,15.8c2.9-0.5,13.3-2,21.1,1.6C145.1,74.8,147.9,78.5,148.8,83.6L148.8,83.6z"/>
		</g>
	</g>
	<g>
		<g>
			<path class="st1" d="M102.8,91.9c-6.1,0-9.9-0.7-11.2-2C91.2,89.5,91,89,91,88.5c0-4.4,24.6-16,27.4-17.3c0,0,0.1,0,0.1,0
				c0.5-0.1,12.9-2.7,21.8,1.4c0.2,0.1,0.3,0.2,0.3,0.4c0,0.2,0,0.3-0.2,0.4c-0.1,0.1-13.2,12-25.5,14.9c-2.3,1.7-4.9,3.3-7.8,3.4
				C105.6,91.8,104.2,91.9,102.8,91.9z M118.8,72.2C108.4,77,92,85.7,92,88.5c0,0.2,0.1,0.4,0.3,0.6c1.4,1.4,6.7,1.9,14.9,1.6
				c2.7-0.1,5.1-1.7,7.3-3.3c0.1,0,0.1-0.1,0.2-0.1c10.6-2.5,21.9-11.8,24.6-14.2C130.9,69.9,119.7,72,118.8,72.2z"/>
		</g>
	</g>
	<g>
		<g>
			<path class="st1" d="M116.6,87.4"/>
		</g>
	</g>
	<g>
		<g>
			<path class="st1" d="M129.5,102.2C129.5,102.2,129.5,102.2,129.5,102.2c-0.9-0.1-1.8-0.3-2.7-0.6c0,0-0.1,0-0.1,0
				c-0.4-0.3-10.5-6.3-10.6-14.1c0-0.3,0.2-0.5,0.5-0.5c0,0,0,0,0,0c0.3,0,0.5,0.2,0.5,0.5c0.1,7,9.4,12.8,10.1,13.3
				c0.8,0.3,1.6,0.4,2.4,0.5c0.3,0,0.5,0.3,0.4,0.5C130,102,129.8,102.2,129.5,102.2z"/>
		</g>
	</g>
	<g>
		<g>
			<path class="st1" d="M144.8,92.1c-0.1,0-0.2,0-0.3-0.1c-0.2-0.1-0.3-0.5-0.1-0.7c2.5-3.8,3.8-7.4,3.8-7.4
				c0.1-0.3,0.4-0.4,0.6-0.3c0.3,0.1,0.4,0.4,0.3,0.6c-0.1,0.1-1.4,3.7-3.9,7.6C145.1,92.1,144.9,92.1,144.8,92.1z"/>
		</g>
	</g>
	<g>
		<g>
			<path class="st1" d="M136.2,93.5c-0.6,0-2-0.5-5-4.1c-0.4-0.4-0.4-1-0.1-1.4c0.3-0.5,0.8-0.7,1.4-0.6c3.4,0.8,5.2,2.4,5.1,4.6
				c-0.1,0.8-0.4,1.3-0.9,1.5C136.5,93.5,136.4,93.5,136.2,93.5z M132.2,88.4c-0.1,0-0.2,0.1-0.2,0.1c0,0.1-0.1,0.2,0,0.3
				c0,0,0,0,0,0c2.7,3.2,4,3.8,4.3,3.7c0.1,0,0.2-0.2,0.2-0.6C136.7,89.8,134.3,88.8,132.2,88.4C132.2,88.4,132.2,88.4,132.2,88.4z"
				/>
		</g>
	</g>
	<g>
		<g>
			<path class="st1" d="M126.2,96.9c-0.1,0-0.2,0-0.2-0.1c-3-1.6-3.3-4.4-2.5-6.6c0.4-1.1,0.8-1.2,1.1-1.1c0,0,0.5,0.1,0.4,0.7
				c0.2,0.5,3,2,5.5,3.1c0.3,0.1,0.4,0.4,0.3,0.7c-0.1,0.3-0.4,0.4-0.7,0.3c-2.9-1.3-4.8-2.3-5.6-3.2c-0.2,0.6-0.4,1.5-0.3,2.5
				c0.2,1.2,1,2.2,2.2,2.8c0.2,0.1,0.3,0.4,0.2,0.7C126.5,96.8,126.3,96.9,126.2,96.9z"/>
		</g>
	</g>
	<g>
		<g>
			<path class="st1" d="M143.8,87.6c-0.2,0-0.4-0.1-0.5-0.3c-0.2-0.6-0.6-1-1.1-1.2c-1.8-0.8-4.8,0.4-4.8,0.4
				c-0.3,0.1-0.5,0-0.7-0.3c-0.1-0.3,0-0.5,0.3-0.7c0.1-0.1,3.4-1.4,5.6-0.4c0.8,0.3,1.3,0.9,1.6,1.8c0.1,0.3,0,0.5-0.3,0.6
				C143.9,87.6,143.8,87.6,143.8,87.6z"/>
		</g>
	</g>
	<g>
		<g>
			<path class="st1" d="M131.3,85.6c-0.2,0-0.4-0.1-0.5-0.3c0-0.1-0.8-2-3.2-2.5c-0.3-0.1-0.4-0.3-0.4-0.6s0.3-0.4,0.6-0.4
				c3,0.7,3.9,3,3.9,3.1c0.1,0.3,0,0.5-0.3,0.6C131.4,85.5,131.4,85.6,131.3,85.6z"/>
		</g>
	</g>
	<g>
		<g>
			<path class="st1" d="M128.3,110.4c-0.9,0-1.8-0.1-2.7-0.3c-11.3-2.4-11.8-9.3-11.8-9.6c0-0.3,0.2-0.5,0.5-0.5
				c0.3,0,0.5,0.2,0.5,0.5l0,0c0,0.3,0.5,6.4,11,8.6c8.9,1.9,22.1-7.7,25.9-10.7c1.4-1.1,2-2.9,1.4-4.5c-0.6-1.6-2-2.4-4.3-2.5
				c-2.5-0.1-5.1,0.7-7.3,2.4c-2.2,1.7-6.6,4.8-15.2,10.4c-0.2,0.1-0.5,0.1-0.7-0.1c-0.1-0.2-0.1-0.5,0.1-0.7
				c8.5-5.5,12.9-8.7,15.1-10.3c2.4-1.8,5.2-2.7,7.9-2.6c3.4,0.1,4.7,1.8,5.2,3.2c0.7,2,0,4.2-1.8,5.6
				C147.8,102.8,137,110.4,128.3,110.4z"/>
		</g>
	</g>
	<g>
		<g>
			<path class="st1" d="M151.2,100.1c-0.2,0-0.4-0.1-0.4-0.3c-0.1-0.2,0-0.5,0.2-0.7l12.6-6.2c1.1-0.5,1.8-1.3,2.2-2.4
				c0.5-1.5,0.2-2.5-1.1-3.3c-1.2-0.6-2.6-0.6-4,0l-9.2,4.6c-0.2,0.1-0.5,0-0.7-0.2c-0.1-0.2,0-0.5,0.2-0.7l9.2-4.6
				c1.6-0.8,3.4-0.8,4.9,0c1.7,0.9,2.3,2.5,1.6,4.5c-0.5,1.3-1.4,2.3-2.7,2.9l-12.6,6.2C151.3,100,151.2,100.1,151.2,100.1z"/>
		</g>
	</g>
	<g>
		<g>
			<path class="st1" d="M112.5,104.3c-0.1,0-0.2,0-0.3-0.1c-2.6-1.9-3.9-3.9-3.6-6c0.3-3.3,4.1-5.9,6.4-7.3c-1.1,0-2.6,0-4.3,0
				c-0.3,0-0.5-0.2-0.5-0.5s0.2-0.5,0.5-0.5c3.8,0,6.4,0,6.4,0c0.3,0,0.4,0.2,0.5,0.4c0.1,0.2-0.1,0.5-0.3,0.6
				c-0.1,0-7.3,3.3-7.7,7.5c-0.2,1.8,0.9,3.5,3.2,5.1c0.2,0.2,0.3,0.5,0.1,0.7C112.8,104.2,112.7,104.3,112.5,104.3z"/>
		</g>
	</g>
	<g>
		<g>
			<path class="st1" d="M96.5,111.6c-5.7,0-12.2-0.6-19.1-2.4c-1.6-0.4-2.7-1.9-2.6-3.5c0.3-6.2,1.2-13.8,3.3-15.5
				c0.3-0.4,2.7-2.7,8-1.4c1.2,0.3,3.4,0.5,6.6,0.7c0.3,0,0.5,0.2,0.5,0.5c0,0.3-0.3,0.5-0.5,0.5c-3.3-0.2-5.5-0.4-6.7-0.7
				c-5.1-1.2-7,1-7.1,1.1c0,0-0.1,0.1-0.1,0.1c-1.4,1-2.5,6.6-2.9,14.8c-0.1,1.1,0.7,2.2,1.8,2.4c23.7,5.9,41.4-1.3,41.6-1.3
				c0.3-0.1,0.5,0,0.7,0.3c0.1,0.3,0,0.5-0.3,0.7C119.5,107.9,110.4,111.6,96.5,111.6z"/>
		</g>
	</g>
	<g>
		<g>
			<path class="st1" d="M74.2,93.5c-1.7,0-2.7-0.8-3.3-1.6c-1.4-1.8-0.9-3.9,0.2-5.2c1-1.2,3-2,4.9-1c1.4,0.7,2.2,2.1,2.4,3.9
				c0.2,1.7-0.9,3.3-2.6,3.7C75.2,93.5,74.7,93.5,74.2,93.5z M74.2,86.3c-1,0-1.8,0.5-2.3,1.1c-0.8,1-1.2,2.6-0.2,3.9
				c0.9,1.1,2.1,1.5,3.8,1.1c1.2-0.3,2-1.4,1.9-2.6l0,0c-0.2-1.5-0.8-2.5-1.9-3.1C75.1,86.4,74.6,86.3,74.2,86.3z"/>
		</g>
	</g>
	<g>
		<g>
			<path class="st1" d="M70.8,107c-1.2,0-2.3-0.4-3.2-1.3c-1.9-1.8-1.8-4.2-0.8-5.9c1.1-2,3.2-2.8,5.3-2.2c1.7,0.5,2.9,1.8,3.6,3.8
				l0,0c0.7,2-0.3,4.2-2.3,5.1C72.4,106.8,71.6,107,70.8,107z M70.7,98.4c-1.5,0-2.6,0.9-3.1,1.9c-0.8,1.3-0.9,3.3,0.6,4.7
				c1.3,1.2,2.8,1.4,4.7,0.5c1.5-0.7,2.3-2.3,1.8-3.8l0,0c-0.5-1.7-1.5-2.7-2.9-3.1C71.4,98.4,71,98.4,70.7,98.4z"/>
		</g>
	</g>
	<g>
		<g>
			<g>
				<path class="st1" d="M94.1,264.3c-0.1,0.5-0.1,0.9-0.1,1.4c0,0.4,0,0.9,0,1.3c0,0.3,0.3,0.6,0.6,0.6c0.4,0,0.6-0.3,0.6-0.6
					c0-0.4,0-0.8,0-1.2c0-0.2,0-0.4,0-0.6c0-0.1,0-0.2,0-0.3c0,0,0-0.1,0-0.1c0-0.1,0-0.1,0,0c0,0,0-0.1,0-0.1c0-0.2,0-0.3-0.1-0.5
					c-0.1-0.1-0.2-0.3-0.4-0.3C94.6,263.8,94.2,264,94.1,264.3L94.1,264.3z"/>
			</g>
		</g>
	</g>
	<g>
		<g>
			<g>
				<path class="st1" d="M94.4,264.3c0.1-0.1,0.1-0.2,0.2-0.3c0-0.1,0.1-0.1,0.1-0.2c-0.1,0.1,0,0,0,0c0,0,0.1-0.1,0.1-0.1
					c0.1-0.1,0,0,0,0c0,0,0.1,0,0.1,0c0,0,0.1-0.1,0.1-0.1c0,0-0.2,0.1,0,0c0,0,0.1,0,0.1,0c0,0,0.1,0,0.2,0c-0.1,0-0.1,0,0,0
					c0,0,0.1,0,0.1,0c0.1,0,0.1,0,0.2,0c0,0,0.1,0,0.1,0c-0.1,0-0.1,0,0,0c0,0,0.1,0,0.1,0c0.1,0-0.1-0.1,0,0c0,0,0,0,0.1,0
					c0.1,0-0.1-0.1,0,0c0,0.1,0.1,0.1,0,0c0,0,0,0,0,0.1c0-0.1,0-0.1,0-0.1c0,0,0,0,0,0.1c0,0,0-0.1,0-0.1c0,0,0,0,0,0
					c0,0.1,0,0.1,0,0c0,0,0,0,0,0c0,0,0,0.1,0,0.1c0,0.1,0.1-0.1,0,0c0,0,0,0.1,0,0.1c0,0,0,0,0,0.1c-0.1,0.1,0.1-0.1,0,0
					c-0.2,0.2-0.4,0.5-0.5,0.8c-0.2,0.6,0.2,1.1,0.6,1.5c0.4,0.4,0.8,0.7,1.3,1c0.3,0.1,0.7,0.1,0.9-0.2c0.1-0.3,0.1-0.7-0.2-0.9
					c-0.2-0.1-0.3-0.2-0.5-0.3c-0.1,0,0.1,0.1,0,0c0,0-0.1,0-0.1-0.1c0,0-0.1-0.1-0.1-0.1c-0.1-0.1-0.2-0.2-0.3-0.3
					c-0.1-0.1-0.2-0.2-0.2-0.2c0,0,0,0,0-0.1c-0.1-0.1,0,0,0,0c0,0-0.1-0.1-0.1-0.1c-0.1-0.1,0,0.1,0,0.1c0,0,0,0,0-0.1
					c0,0,0,0.1,0,0.1c0-0.1,0-0.1,0,0c0,0,0,0,0,0c0-0.1,0-0.1,0,0c0,0.1,0,0,0,0c0,0,0,0,0-0.1c0-0.1-0.1,0.1,0,0
					c0,0,0.1-0.1,0.1-0.1c0.2-0.3,0.4-0.6,0.5-0.9c0.1-0.4,0-0.8-0.3-1.1c-0.4-0.5-1.3-0.6-1.9-0.4c-0.7,0.2-1.2,0.7-1.5,1.4
					c-0.1,0.3-0.1,0.7,0.2,0.9C93.8,264.6,94.3,264.6,94.4,264.3L94.4,264.3z"/>
			</g>
		</g>
	</g>
	<g>
		<g>
			<g>
				<path class="st1" d="M99.2,265c0,0.4,0,0.9,0.1,1.3c0.1,0.3,0.3,0.6,0.6,0.8c0.3,0.2,0.6,0.2,1,0.2c0.6-0.1,1.2-0.5,1.5-1
					c0.2-0.3,0.2-0.7,0.1-1c-0.1-0.3-0.2-0.6-0.4-0.8c-0.4-0.4-0.9-0.8-1.5-0.9c-0.3-0.1-0.7,0.1-0.8,0.4c-0.1,0.3,0.1,0.7,0.4,0.8
					c0.1,0,0.2,0,0.2,0.1c0.1,0-0.1,0-0.1,0c0,0,0,0,0.1,0c0,0,0.1,0,0.1,0.1c0.1,0,0.2,0.1,0.2,0.2c0,0,0.1,0.1,0,0c0,0,0,0,0.1,0
					c0,0,0.1,0.1,0.1,0.1c0,0,0.1,0.1,0.1,0.1c0,0,0,0,0,0c0,0,0,0.1,0,0c0,0,0,0.1,0.1,0.1c0,0,0,0,0,0.1c0,0,0.1,0.1,0,0
					c0-0.1,0,0,0,0.1c0,0,0,0,0,0.1c0,0.1,0-0.1,0-0.1c0,0,0,0.1,0,0.1c0,0.1,0,0.1,0-0.1c0,0,0,0.1,0,0.1c0,0,0,0,0,0.1
					c0-0.1,0.1-0.1,0-0.1c0,0,0,0.1-0.1,0.1c0,0.1,0.1-0.1,0-0.1c0,0,0,0,0,0c0,0,0,0,0,0c0,0,0,0,0,0c0,0,0.1,0,0.1-0.1
					c-0.1,0-0.2,0.1-0.3,0.2c0,0,0,0-0.1,0c-0.1,0.1,0.1,0,0,0c-0.1,0-0.1,0-0.2,0.1c0,0-0.1,0-0.1,0c0.1,0,0.1,0,0.1,0
					c0,0,0,0-0.1,0c0,0-0.1,0,0,0c0.1,0,0,0,0,0c0,0,0,0-0.1,0c0.1,0,0.1,0.1,0.1,0c0,0,0,0,0,0c-0.1,0,0.1,0,0.1,0.1c0,0,0,0,0,0
					c0,0-0.1-0.1,0,0.1c0,0,0-0.1-0.1-0.1c0,0,0,0,0-0.1c0-0.1,0.1,0.2,0,0.1c0-0.1-0.1-0.2-0.1-0.3c0,0,0-0.1,0-0.1
					c0,0,0,0.2,0,0.1c0,0,0-0.1,0-0.1c0-0.2,0-0.4,0-0.6c0-0.3-0.3-0.6-0.6-0.6C99.5,264.4,99.2,264.7,99.2,265L99.2,265z"/>
			</g>
		</g>
	</g>
	<g>
		<g>
			<g>
				<path class="st1" d="M104.6,263.7c0,1-0.1,2,0.2,2.9c0.1,0.2,0.3,0.4,0.5,0.4c0.3,0,0.5-0.1,0.6-0.3c0.1-0.1,0.2-0.3,0.3-0.4
					c0.1-0.1,0.1-0.2,0.2-0.2c-0.1,0.2,0,0,0,0c0,0,0.1-0.1,0.1-0.1c0.1-0.1,0.1-0.2,0.2-0.2c0,0,0.2-0.2,0.2-0.2c0,0-0.1,0.1,0,0
					c0,0,0,0,0.1,0c0,0,0.1,0,0.1-0.1c0.1-0.1-0.1,0,0,0c0,0,0,0,0.1,0c0.1,0-0.1,0-0.1,0c0.2,0-0.1,0,0,0c0.1,0-0.1-0.1,0,0
					c0.1,0.1-0.1-0.1,0,0c0,0,0,0.1,0.1,0.1c0,0-0.1-0.1,0,0c0,0,0.1,0.1,0.1,0.1c0.1,0.1,0,0,0,0c0,0,0,0.1,0,0.1c0,0,0,0.1,0,0.1
					c0,0.1,0,0.1,0-0.1c0,0.1,0,0.1,0,0.2c0,0,0,0,0,0.1c0,0.1,0,0,0-0.1c0,0,0,0.1,0,0.2c0,0-0.1,0.1,0,0.1c0-0.1,0.1-0.1,0,0
					c0,0,0,0.1-0.1,0.1c0,0.1-0.1,0.1-0.1,0.2c0,0,0,0.1,0,0.1c0,0,0.1-0.1,0,0c0,0-0.1,0.1-0.1,0.1c0,0,0,0-0.1,0.1
					c0,0-0.1,0.1,0,0c0.1-0.1,0,0,0,0c0,0-0.1,0-0.1,0.1c0,0-0.1,0-0.2,0.1c0,0,0.1-0.1,0,0c0,0-0.1,0-0.1,0c0,0,0,0-0.1,0
					c-0.1,0,0.2,0,0,0c-0.1,0-0.1,0-0.2,0c0.1,0,0.1,0,0.1,0c0,0-0.1,0-0.1,0c0,0-0.1,0,0,0c0.1,0,0,0,0,0c0,0,0,0-0.1,0
					c0,0,0,0,0,0c0,0,0,0-0.1-0.1c-0.2-0.2-0.6-0.3-0.9,0c-0.2,0.2-0.3,0.7,0,0.9c0.6,0.5,1.4,0.6,2.1,0.2c0.6-0.3,1.1-0.9,1.2-1.6
					c0.2-0.7-0.1-1.6-0.7-1.9c-0.6-0.4-1.3,0-1.7,0.5c-0.4,0.4-0.7,0.9-1.1,1.3c0.4,0,0.8,0.1,1.1,0.1c0-0.1-0.1-0.2-0.1-0.3
					c0,0,0-0.1,0-0.1c0-0.1,0,0.1,0,0c0-0.2,0-0.5,0-0.7c0-0.5,0-0.9,0-1.4c0-0.3-0.3-0.6-0.6-0.6
					C104.9,263.1,104.5,263.3,104.6,263.7L104.6,263.7z"/>
			</g>
		</g>
	</g>
	<g>
		<g>
			<g>
				<path class="st1" d="M110.2,266.7c0.6-0.3,1.2-0.6,1.5-1.2c0.3-0.4,0.2-0.9-0.1-1.3c-0.4-0.4-1.1-0.6-1.6-0.3
					c-0.7,0.4-0.9,1.4-1,2.2c-0.1,0.8,0.3,1.8,1.2,1.9c1.1,0.2,2.1-0.4,3.1-0.8c0.3-0.1,0.4-0.6,0.2-0.9c-0.2-0.3-0.5-0.4-0.9-0.2
					c-0.3,0.1-0.7,0.3-1,0.5c0.1-0.1-0.1,0-0.1,0.1c-0.1,0-0.2,0.1-0.3,0.1c-0.1,0-0.2,0-0.2,0.1c0,0-0.1,0-0.1,0c0,0-0.2,0.1,0,0
					c-0.1,0-0.2,0-0.3,0c0,0-0.1,0-0.1,0c-0.1,0,0.1,0,0,0c0,0-0.1,0-0.1,0c-0.1,0,0.1,0.1,0,0c0,0,0,0-0.1,0c-0.1,0,0,0,0,0
					c0,0,0,0,0,0c0,0-0.1-0.1,0,0c0.1,0.1,0,0,0,0c0,0,0-0.1,0-0.1c0,0,0.1,0.2,0,0C110.3,266.7,110.3,266.7,110.2,266.7
					C110.3,266.5,110.3,266.5,110.2,266.7c0.1-0.1,0.1-0.1,0.1-0.2c0-0.1,0-0.3,0-0.4c0,0,0-0.1,0-0.1c0,0,0-0.1,0,0c0,0.1,0,0,0,0
					c0,0,0-0.1,0-0.1c0-0.1,0-0.2,0.1-0.3c0-0.1,0-0.1,0.1-0.2c0-0.1-0.1,0.1,0,0c0,0,0-0.1,0.1-0.1c0,0,0-0.1,0.1-0.1
					c0.1-0.1-0.1,0.1,0,0c0,0,0,0,0.1-0.1c0.1-0.1-0.1,0.1,0,0c0.1-0.1,0,0,0,0c0,0,0.1,0,0.1,0c0,0-0.1,0-0.1,0c0.1,0,0,0-0.1,0
					c0,0,0.1,0,0.1,0c-0.1,0-0.1,0,0,0c0,0,0.1,0,0.1,0.1c-0.1-0.1,0,0,0,0c0.1,0.1-0.1-0.1,0,0c0.1,0.1,0-0.1,0-0.1
					c0,0.1,0,0.1,0-0.1c0,0.1,0,0,0-0.1c0,0,0,0.1,0,0.1c0,0,0.1-0.2,0-0.1c0,0,0,0.1,0,0.1c0.1-0.1,0.1-0.1,0-0.1c0,0,0,0,0,0
					c0,0.1-0.1,0.1-0.2,0.1c0,0,0,0-0.1,0c-0.1,0.1,0.1-0.1,0,0c-0.1,0-0.1,0.1-0.2,0.1c-0.2,0.1-0.4,0.2-0.6,0.4
					c-0.3,0.1-0.4,0.6-0.2,0.9C109.5,266.8,109.9,266.9,110.2,266.7L110.2,266.7z"/>
			</g>
		</g>
	</g>
	<g>
		<g>
			<g>
				<path class="st1" d="M113.8,265.1c0.1,0.3,0.2,0.6,0.2,0.9c0-0.1,0-0.1,0-0.2c0,0.3,0,0.5,0,0.8c0.4-0.1,0.8-0.2,1.2-0.3
					c0,0,0-0.1-0.1-0.1c0,0,0,0,0-0.1c0-0.1,0.1,0.2,0,0.1c0-0.1-0.1-0.2-0.1-0.3c0,0.1,0,0.1,0,0.2c0-0.2,0-0.3,0-0.5
					c0,0.1,0,0.1,0,0.2c0-0.1,0-0.3,0.1-0.4c0,0,0.1-0.1,0,0c0,0,0,0,0-0.1c0-0.1,0.1-0.1,0.1-0.2c-0.1,0.2-0.1,0.1,0,0
					c0,0,0.1-0.1,0.1-0.1c0,0,0,0-0.1,0c0,0,0,0,0.1,0c0,0,0.1,0,0.1,0c0,0,0,0,0.1,0c-0.1,0-0.1,0.1-0.1,0c0,0,0.1,0,0.1,0
					c0.1,0,0.1,0,0.2,0c-0.1,0-0.1,0-0.2,0c0.2,0,0.5,0,0.7,0c0.3,0,0.6-0.3,0.6-0.6c0-0.3-0.3-0.6-0.6-0.6c-0.4,0-0.8,0-1.2,0.1
					c-0.4,0.1-0.8,0.4-1,0.8c-0.2,0.3-0.3,0.7-0.3,1.1c0,0.4,0.1,0.8,0.3,1.1c0.1,0.1,0.2,0.2,0.3,0.3c0.1,0.1,0.3,0.1,0.4,0
					c0.1,0,0.2-0.1,0.3-0.2c0.1-0.1,0.2-0.3,0.2-0.4c0-0.3,0-0.7-0.1-1c0-0.3-0.1-0.6-0.2-0.9c-0.1-0.3-0.4-0.5-0.8-0.4
					C114,264.4,113.8,264.7,113.8,265.1L113.8,265.1z"/>
			</g>
		</g>
	</g>
	<g>
		<g>
			<g>
				<path class="st1" d="M118.5,263.1c0,1,0,2.1,0.3,3.1c0.1,0.5,0.3,1,0.6,1.4c0.4,0.5,0.9,0.8,1.6,0.8c0.3,0,0.6-0.3,0.6-0.6
					c0-0.3-0.3-0.6-0.6-0.6c-0.1,0-0.1,0-0.2,0c0,0,0,0,0,0c0,0,0,0-0.1,0c0,0-0.2-0.1-0.1,0c0.1,0-0.1,0-0.1,0c0.1,0,0,0,0,0
					c0,0-0.1-0.1,0,0c-0.1-0.1-0.1-0.2-0.2-0.3c-0.1-0.2-0.1-0.2-0.2-0.5c-0.1-0.2-0.1-0.4-0.2-0.7c-0.2-0.8-0.2-1.7-0.2-2.5
					c0-0.3-0.3-0.6-0.6-0.6C118.8,262.4,118.5,262.7,118.5,263.1L118.5,263.1z"/>
			</g>
		</g>
	</g>
	<g>
		<g>
			<g>
				<path class="st1" d="M118.3,265.8c0.6-0.1,1.2-0.1,1.8-0.2c0.2,0,0.3-0.1,0.4-0.2c0.1-0.1,0.2-0.3,0.2-0.4
					c0-0.3-0.3-0.6-0.6-0.6c-0.6,0-1.2,0.1-1.8,0.2c-0.2,0-0.3,0.1-0.4,0.2c-0.1,0.1-0.2,0.3-0.2,0.4c0,0.2,0.1,0.3,0.2,0.4
					C118,265.7,118.1,265.8,118.3,265.8L118.3,265.8z"/>
			</g>
		</g>
	</g>
	<g>
		<g>
			<g>
				<path class="st1" d="M99.4,269.7c-0.7-0.1-1.5-0.1-2.1,0.4c-0.5,0.4-0.8,1-0.9,1.6c-0.1,0.7-0.2,1.5,0,2.1
					c0.2,0.7,0.7,1.1,1.4,1.4c0.7,0.3,1.5,0.4,2.2,0.4c0.8,0,0.8-1.2,0-1.3c-0.3,0-0.5,0-0.8,0c-0.1,0,0.1,0,0,0c0,0-0.1,0-0.1,0
					c-0.1,0-0.1,0-0.2,0c-0.1,0-0.3-0.1-0.4-0.1c-0.1,0-0.1,0-0.2-0.1c0,0-0.1,0-0.1,0c0.1,0,0,0,0,0c-0.1-0.1-0.2-0.1-0.3-0.2
					c0,0-0.1-0.1,0,0c0,0-0.1-0.1-0.1-0.1c0,0-0.1-0.1-0.1-0.1c-0.1-0.1,0.1,0.1,0,0c0,0,0-0.1-0.1-0.1c0-0.1-0.1-0.1-0.1-0.2
					c0,0.1,0,0,0-0.1c0-0.1,0-0.1,0-0.2c0,0,0-0.1,0-0.1c0,0.1,0,0,0,0c0-0.3,0-0.6,0-0.9c0-0.1,0,0.1,0-0.1c0-0.1,0-0.1,0-0.2
					c0-0.1,0.1-0.2,0.1-0.4c0,0,0.1-0.2,0-0.1c0,0.1,0-0.1,0.1-0.1c0,0,0-0.1,0.1-0.1c0,0,0-0.1,0.1-0.1c0,0-0.1,0.1,0,0
					c0,0,0.1-0.1,0.1-0.1c0.1-0.1-0.1,0,0,0c0.1,0,0.1-0.1,0.2-0.1c0.1,0,0,0,0,0c0,0,0.1,0,0.1,0c0.1,0,0.1,0,0.2-0.1
					c0,0,0.1,0,0,0c-0.1,0,0.1,0,0.1,0c0.1,0,0.1,0,0.2,0c0,0,0.1,0,0.1,0c0,0,0.1,0,0.1,0c0.3,0,0.7-0.1,0.8-0.4
					C99.9,270.1,99.7,269.7,99.4,269.7L99.4,269.7z"/>
			</g>
		</g>
	</g>
	<g>
		<g>
			<g>
				<path class="st1" d="M104.5,271.6c-0.8-0.3-1.7-0.4-2.4,0.2c-0.5,0.5-0.8,1.3-0.9,2c-0.1,0.4-0.1,0.8,0,1.1
					c0.1,0.4,0.4,0.7,0.8,0.8c0.6,0.2,1.4-0.1,1.9-0.4c0.8-0.5,1.3-1.2,1.5-2.1c-0.4,0-0.8,0-1.2,0c0.3,0.8,0.7,1.7,1.3,2.4
					c0.2,0.2,0.7,0.2,0.9,0c0.2-0.2,0.2-0.6,0-0.9c0,0-0.1-0.1-0.1-0.1c0,0-0.1-0.1,0,0c-0.1-0.1-0.1-0.2-0.2-0.2
					c-0.1-0.2-0.2-0.3-0.3-0.5c-0.1-0.2-0.1-0.3-0.2-0.4c-0.1-0.2-0.1-0.4-0.2-0.6c-0.1-0.3-0.3-0.5-0.6-0.5c-0.3,0-0.5,0.2-0.6,0.5
					c0,0.1-0.1,0.3-0.1,0.4c0,0-0.1,0.2,0,0.1c0,0.1-0.1,0.1-0.1,0.2c0,0.1-0.1,0.1-0.1,0.2c0,0,0,0,0,0.1c0.1-0.1,0,0,0,0
					c-0.1,0.1-0.2,0.2-0.3,0.3c-0.1,0.1,0,0,0,0c0,0,0,0-0.1,0.1c-0.1,0-0.1,0.1-0.2,0.1c-0.1,0-0.1,0.1-0.2,0.1c0,0,0,0-0.1,0
					c-0.1,0.1,0.1,0,0,0c-0.1,0-0.2,0.1-0.3,0.1c-0.1,0-0.1,0-0.2,0c-0.1,0,0.1,0-0.1,0c0,0-0.1,0-0.1,0c-0.1,0,0.1,0,0,0
					c0,0-0.1,0-0.1,0c0,0,0.1,0,0.1,0c0,0-0.1-0.1,0,0c0,0,0,0,0,0c0,0,0,0,0,0c0.1,0,0,0,0,0c0-0.1,0,0.1,0,0.1c0,0,0-0.2,0-0.1
					c0,0.1,0-0.1,0-0.1c0-0.1,0-0.1,0-0.2c0,0,0-0.1,0-0.1c0,0.1,0,0,0,0c0-0.1,0-0.1,0-0.2c0-0.1,0.1-0.3,0.1-0.4
					c0-0.1,0-0.1,0.1-0.2c0,0.1,0-0.1,0-0.1c0-0.1,0.1-0.1,0.1-0.2c0,0,0.1-0.2,0.1-0.1c0-0.1,0.1-0.1,0.1-0.2c0,0-0.1,0,0,0
					c0,0,0.1-0.1,0.1-0.1c-0.1,0,0.1,0,0.1,0c-0.1,0,0.1,0,0.1,0c0,0,0.1,0,0.1,0c0,0,0.1,0,0.1,0c-0.1,0,0.1,0,0.1,0
					c0,0,0.1,0,0.1,0c0.2,0,0.3,0.1,0.5,0.1c0.3,0.1,0.7-0.1,0.8-0.4C105,272.1,104.8,271.7,104.5,271.6L104.5,271.6z"/>
			</g>
		</g>
	</g>
	<g>
		<g>
			<g>
				<path class="st1" d="M107.6,273.3c0.1,0.5,0.2,1,0.4,1.4c0.3-0.2,0.7-0.4,1-0.6c0,0,0,0,0,0c0,0,0,0,0.1,0.1c0,0,0-0.1,0-0.1
					c0,0,0-0.1,0-0.1c0-0.1,0.1,0.2,0,0c0-0.1-0.1-0.3-0.1-0.4c0,0.2,0,0.1,0,0c0,0,0-0.1,0-0.1c0-0.1,0-0.2,0-0.2
					c0-0.1,0-0.2,0-0.2c0,0,0-0.1,0-0.1c0-0.1,0,0.2,0,0c0-0.1,0.1-0.3,0.1-0.4c0-0.1,0.1-0.1,0,0.1c0,0,0-0.1,0.1-0.1
					c0.1-0.1-0.1,0.1,0,0c0.1-0.1-0.1,0.1,0,0c0.1,0-0.2,0.1-0.1,0c0,0-0.2,0-0.1,0c0.1,0,0.1,0,0.2,0c0.2,0,0.3,0,0.5,0
					c0.3,0,0.6-0.3,0.6-0.6c0-0.3-0.3-0.6-0.6-0.6c-0.3,0-0.6-0.1-0.9,0c-0.4,0.1-0.7,0.5-0.8,0.8c-0.1,0.3-0.1,0.6-0.2,0.9
					c0,0.3,0,0.7,0.1,1c0.1,0.4,0.2,0.7,0.5,1c0.2,0.2,0.5,0.2,0.8,0.1c0.2-0.1,0.4-0.4,0.3-0.7c-0.1-0.5-0.2-1-0.4-1.4
					c-0.1-0.3-0.5-0.5-0.8-0.4C107.7,272.6,107.5,272.9,107.6,273.3L107.6,273.3z"/>
			</g>
		</g>
	</g>
	<g>
		<g>
			<g>
				<path class="st1" d="M112,271.3c0.1,1.4,0.2,2.7,0.4,4c0,0.3,0.5,0.5,0.8,0.4c0.4-0.1,0.5-0.4,0.4-0.8c-0.2-1.2-0.2-2.5-0.3-3.7
					c0-0.3-0.3-0.6-0.6-0.6C112.3,270.7,112,271,112,271.3L112,271.3z"/>
			</g>
		</g>
	</g>
	<g>
		<g>
			<g>
				<path class="st1" d="M117.3,271.5c-0.5-0.1-1.1,0-1.6,0.3c-0.3,0.2-0.5,0.5-0.6,0.9c0,0.3,0.1,0.7,0.4,0.9
					c0.5,0.4,1.1,0.4,1.6,0.6c0.2,0.1-0.1-0.1,0,0c0,0,0.1,0,0.1,0c0,0-0.1-0.1,0,0c0.1,0.1,0-0.1,0,0c0,0.1,0,0,0,0c0,0,0,0,0,0
					c0,0.1,0,0.1,0,0c0,0,0,0.1,0,0.1c0,0,0-0.1,0,0c0,0,0,0.1,0,0.1c0,0,0.1-0.1,0,0c0,0,0,0.1-0.1,0.1c0,0-0.1,0.1,0,0
					c0.1-0.1,0,0,0,0c0,0-0.1,0.1-0.1,0.1c-0.1,0.1,0.1,0,0,0c-0.1,0-0.2,0.1-0.3,0.2c0,0,0.1,0,0,0c-0.1,0-0.1,0-0.2,0.1
					c0,0-0.1,0-0.1,0c0,0-0.1,0-0.1,0c0,0,0,0,0.1,0c-0.1,0-0.2,0-0.3,0c-0.1,0-0.2,0-0.3,0c0.1,0,0,0,0,0c-0.1,0-0.1,0-0.2,0
					c-0.2,0-0.4-0.1-0.6-0.2c-0.3-0.1-0.7,0.1-0.8,0.4c-0.1,0.3,0.1,0.7,0.4,0.8c0.7,0.2,1.5,0.4,2.2,0.1c0.7-0.3,1.5-0.9,1.5-1.8
					c0-0.4-0.3-0.8-0.6-1.1c-0.2-0.1-0.5-0.2-0.8-0.3c-0.1,0-0.3-0.1-0.4-0.1c-0.1,0-0.1,0-0.2-0.1c0,0-0.1,0-0.1,0
					c0.1,0,0.1,0.1,0,0c0,0,0,0-0.1,0c-0.1,0,0.1,0.1,0,0c0,0-0.1-0.1,0,0c0.1,0.1,0,0,0,0c-0.1-0.1,0,0.1,0,0c0-0.1,0,0,0,0.1
					c0,0,0,0,0-0.1c0,0,0,0.2,0,0.1c-0.1,0.2-0.1,0.1,0,0.1c0-0.1-0.1,0.1,0,0c0,0,0,0,0,0c-0.1,0.1-0.1,0.1-0.1,0c0,0,0,0,0,0
					c0,0,0.1-0.1,0.1-0.1c0,0-0.2,0.1,0,0c0,0,0.1,0,0.1,0c0.1,0,0.1,0,0.2,0c0,0,0.1,0,0.1,0c0,0-0.2,0,0,0c0.1,0,0.1,0,0.2,0
					c0,0,0,0,0.1,0c0.1,0-0.1,0-0.1,0c0.3,0.1,0.7-0.1,0.8-0.4C117.8,272,117.7,271.6,117.3,271.5L117.3,271.5z"/>
			</g>
		</g>
	</g>
</g>
</svg>
