<?xml version="1.0" encoding="utf-8"?>
<!-- Generator: Adobe Illustrator 24.2.0, SVG Export Plug-In . SVG Version: 6.00 Build 0)  -->
<svg version="1.1" xmlns="http://www.w3.org/2000/svg" xmlns:xlink="http://www.w3.org/1999/xlink" x="0px" y="0px"
	 viewBox="0 0 549.1 462.4" style="enable-background:new 0 0 549.1 462.4;" xml:space="preserve">
<style type="text/css">
	.st0{display:none;}
	.st1{fill:#FFFFFF;}
</style>
<g id="Schablonen" class="st0">
	
		<image style="display:inline;overflow:visible;opacity:0.37;" width="648" height="868" xlink:href="2481D1B0.png"  transform="matrix(-0.341 0 0 0.341 527.2527 -23.6475)">
	</image>
</g>
<g id="Jules">
	<g id="Gesicht">
		<path class="st1" d="M432,120.6c-1.3,1.6-2.6,3.5-4.2,5c-1.5,1.6-3.1,3-4.8,4.4c-3.4,2.7-7.1,5.1-10.9,7.2
			c-3.8,2.1-7.8,4-11.8,5.7c-2,0.8-4,1.7-6.1,2.4c-2.2,0.7-4.7,0.8-7,0.2l0.3,0l0,0l-0.1,0l-0.2,0c-7.8-2.2-15.4-5.6-21.7-10.9
			c-3.2-2.6-6-5.6-8.5-8.9c-2.4-3.3-4.4-6.9-6-10.7c-3.1-7.6-4.6-15.7-5.1-23.8c-0.5-8.1,0.1-16.2,1.2-24.2l0.1-1l1-0.2l3.4-0.6
			l0.7-0.1l0.5,0.6c4.7,5,10,9.4,15.6,13.4c5.6,4,11.5,7.6,17.6,10.9l-0.1,0c4.2,1.9,8.4,3.9,12.5,6.1c4.1,2.2,8.2,4.4,12.1,6.9
			c3.9,2.5,7.7,5.2,11.3,8.1C425.6,113.9,429,117.1,432,120.6z M432,120.6c-3.3-3.3-6.8-6.3-10.5-9c-3.7-2.8-7.6-5.3-11.6-7.6
			c-4-2.3-8.1-4.5-12.2-6.5c-4.1-2-8.4-3.9-12.6-5.7l0,0l0,0c-6.2-3.2-12.3-6.7-18.1-10.7c-5.8-4-11.3-8.5-16.1-13.6l1.3,0.4
			l-3.2,0.6l1.1-1.2c-1,7.9-1.5,15.8-1,23.6c0.4,7.8,1.8,15.7,4.8,22.9c1.5,3.6,3.3,7,5.6,10.2c2.3,3.2,4.9,6,7.9,8.5
			c6,5,13.1,8.6,20.7,10.9l-0.3,0l0,0l0.2,0l0.1,0c1.9,0.6,3.9,0.6,5.8,0c2-0.6,4-1.4,6-2.2c4-1.6,8-3.2,11.8-5.2
			c3.9-1.9,7.6-4.1,11-6.7c1.7-1.3,3.4-2.7,5-4.1C429.2,123.8,430.5,122.2,432,120.6z"/>
		<path class="st1" d="M354.1,94.2c2.1,0.1,4.2,0.3,6.2,0.6c2,0.3,4,0.6,6,1c2,0.4,4,0.8,6,1.2c2,0.5,4,1,6,1.8
			c-2.1,0.5-4.2,0.6-6.3,0.6c-2.1,0-4.2-0.3-6.2-0.6c-2.1-0.4-4.1-0.9-6-1.6C357.8,96.4,355.9,95.5,354.1,94.2z"/>
		<path class="st1" d="M359.6,88.4c1.5,0.5,3,1,4.4,1.6c1.4,0.6,2.8,1.2,4.2,1.8l8.2,3.8l-0.1,0c1.1,0.4,2.2,0.8,3.2,1.1
			c0.5,0.1,1,0.2,1.5,0.1c0.5,0,1.1-0.2,1.7-0.4c-0.3,0.5-0.8,1-1.3,1.3c-0.6,0.3-1.3,0.6-1.9,0.6c-0.7,0.1-1.3,0-1.9,0
			c-0.6-0.1-1.2-0.1-1.8-0.2l-0.1,0c-3.1-0.9-5.9-2.2-8.6-3.8c-1.3-0.8-2.6-1.7-3.9-2.7C361.9,90.7,360.7,89.6,359.6,88.4z"/>
		<path class="st1" d="M370.3,102.2c-0.4,1.3-1.3,2.3-2.5,2.9c-1.2,0.6-2.7,0.9-4.1,0.7c-1.4-0.2-2.9-0.9-4-2.1
			c-1.1-1.2-1.7-3.1-1.2-4.9c0.5-1.8,2-3.1,3.6-3.5c1.6-0.5,3.2-0.3,4.5,0.3c1.3,0.6,2.4,1.6,3.1,2.7
			C370.4,99.6,370.7,101,370.3,102.2z M370.3,102.2c0.4-1.3-0.1-2.7-0.9-3.6c-0.9-0.9-2.1-1.4-3.2-1.5c-2.4-0.2-4.4,1.1-4.8,2.6
			c-0.2,0.8-0.1,1.6,0.4,2.5c0.5,0.9,1.3,1.7,2.3,2.2c1,0.5,2.3,0.7,3.5,0.4C368.9,104.4,370,103.5,370.3,102.2z"/>
		<path class="st1" d="M397.7,113.7c0.1,0.7-0.3,1.3-0.7,1.8c-0.4,0.5-1,0.9-1.6,1.3c-1.2,0.7-2.5,1.2-3.8,1.5
			c-1.4,0.3-2.8,0.4-4.3,0.2c-0.8-0.1-1.5-0.4-2.3-0.9c-0.4-0.2-0.8-0.6-1.1-1c-0.3-0.4-0.6-1-0.6-1.6c0-0.6,0.1-1.2,0.3-1.7
			c0.2-0.5,0.6-0.9,0.9-1.2c0.7-0.6,1.4-1,2.1-1.3c1.4-0.5,2.9-0.7,4.3-0.6c1.4,0.1,2.8,0.4,4,0.9c0.6,0.3,1.2,0.6,1.8,1
			C397.2,112.4,397.6,113,397.7,113.7z M397.7,113.7c-0.1-0.7-0.5-1.2-1.1-1.6c-0.5-0.4-1.2-0.6-1.8-0.7c-1.3-0.2-2.6-0.1-3.8,0.2
			c-1.2,0.3-2.4,0.8-3.3,1.4c-0.5,0.3-0.9,0.6-1.1,1c-0.3,0.3-0.3,0.6-0.3,0.6c0,0.1,0.1,0.3,0.4,0.6c0.3,0.3,0.8,0.5,1.3,0.8
			c1,0.5,2.3,0.7,3.5,0.8c1.3,0.1,2.6,0,3.8-0.4c0.6-0.2,1.2-0.5,1.7-1C397.4,114.9,397.7,114.3,397.7,113.7z"/>
		<path class="st1" d="M385,133.3c-1.3,0-2.8-0.3-4-1.5c-0.5-0.6-0.9-1.4-1-2.2c-0.1-0.8,0-1.7,0.2-2.4c0.1-0.4,0.3-0.7,0.4-1.1
			l0.2-0.5c0.1-0.2,0.3-0.4,0.4-0.6c0.6-0.8,1.5-1.2,2.2-1.5c1.5-0.6,3-0.7,4.4-0.7c1.5,0,2.9,0.2,4.3,0.8c0.7,0.2,1.5,0.6,2.1,1.2
			c0.4,0.3,0.7,0.7,0.9,1.2c0.2,0.4,0.4,0.9,0.4,1.3c0.2,1.7-0.4,3.2-1.2,4.4c-0.4,0.6-1,1.1-1.6,1.5c-0.6,0.4-1.4,0.6-2.1,0.4
			c0.7-0.2,1.2-0.6,1.5-1.1c0.4-0.5,0.7-1,0.8-1.6c0.4-1.1,0.5-2.4,0.2-3.3c-0.1-0.5-0.3-0.7-0.6-0.9c-0.4-0.2-0.8-0.4-1.4-0.6
			c-1.1-0.3-2.3-0.4-3.5-0.5c-1.2,0-2.4,0.1-3.4,0.4c-0.5,0.1-0.9,0.4-1.1,0.5c0,0.1-0.1,0.1-0.2,0.2l-0.3,0.4
			c-0.2,0.2-0.3,0.5-0.4,0.7c-0.5,1-0.7,2-0.2,3C382.6,132,383.7,132.7,385,133.3z"/>
	</g>
	<g id="Haare">
		<path class="st1" d="M348.4,64.1c-1.1,5.2-1.7,10.5-1.8,15.7c0,5.3,0.5,10.5,1.4,15.6c0.9,5.2,2.3,10.2,3.8,15.3
			c1.5,5,3.3,10,5,15c0.3,0.8-0.1,1.6-0.9,1.9c-0.6,0.2-1.2,0-1.5-0.4l0,0c-4.8-5-8.9-10.7-12.3-16.7c-3.5-6-6.2-12.4-8.2-19
			c-1.9-6.7-2.9-13.7-2.1-20.6c0.4-3.5,1.3-6.9,2.8-10c1.5-3.1,3.6-5.9,6.2-8.2c-4.7,5-7.1,11.6-7.4,18.3
			c-0.3,6.7,0.9,13.4,2.9,19.7c2,6.4,4.9,12.5,8.3,18.3c1.7,2.9,3.6,5.7,5.5,8.4c2,2.7,4.1,5.3,6.4,7.7l-2.5,1.5
			c-1.7-5-3.4-10.1-4.8-15.2c-1.5-5.1-2.6-10.4-3.4-15.7c-0.7-5.3-1-10.7-0.6-16C345.7,74.4,346.8,69.1,348.4,64.1z"/>
		<g>
			<path class="st1" d="M435.1,200.7c1.1-4.2,2.1-8.4,2.9-12.7c0.4-2.1,0.7-4.3,1-6.4c0.2-2.1,0.4-4.3,0.5-6.4
				c0-0.6,0.6-1.1,1.2-1.1c0.6,0,1.1,0.5,1.1,1.1l0,0.1c0.1,4.4,0.2,8.9,0.3,13.3c0,2.2,0,4.4,0.1,6.6l0,6.6l-2.9-0.5
				c1.5-4.2,2.9-8.4,4.3-12.7c1.4-4.2,2.8-8.5,4.1-12.7c1.3-4.3,2.6-8.5,3.9-12.8c1.3-4.3,2.5-8.6,3.7-12.9
				c-0.6,4.4-1.4,8.9-2.2,13.3c-0.9,4.4-1.9,8.8-3.1,13.1c-1.1,4.3-2.4,8.6-3.7,12.9c-1.3,4.3-2.7,8.5-4.2,12.8
				c-0.3,0.8-1.1,1.2-1.9,0.9c-0.6-0.2-1-0.8-1-1.4l0-6.6c0-2.2,0-4.4,0.1-6.6c0.1-4.4,0.1-8.9,0.3-13.3l2.3,0.1
				c-0.2,2.2-0.5,4.4-0.9,6.5c-0.4,2.2-0.9,4.3-1.5,6.4c-0.6,2.1-1.2,4.2-1.9,6.3C436.8,196.6,436,198.6,435.1,200.7z"/>
			<path class="st1" d="M429.4,123.7c-1.1,1.7-2.4,3.1-3.8,4.5c-1.4,1.3-2.9,2.6-4.4,3.7c-1.6,1.1-3.2,2.2-4.9,3.1
				c-1.7,0.9-3.5,1.7-5.5,2.2c1.3-1.6,2.7-2.9,4.1-4.2c1.4-1.3,2.9-2.5,4.5-3.6c1.5-1.1,3.1-2.2,4.8-3.2
				C425.8,125.3,427.5,124.4,429.4,123.7z"/>
		</g>
		<path class="st1" d="M459.3,117.1l-0.8,11.7c0,0,0,0,0,0l-21.1,13.4c0,0,0,0,0,0c-2.5,0.4-5,1-7.5,1.5c-2.5,0.6-5,1.1-7.6,1.2
			c-0.6,0.1-1.3,0-1.9,0c-0.6,0-1.3-0.1-1.9-0.2c-0.6-0.2-1.3-0.3-1.9-0.5l-0.9-0.4c-0.3-0.1-0.6-0.2-0.9-0.4
			c-2.3-1.3-4-3.4-5.3-5.6c-0.1-0.1,0-0.3,0.1-0.4l0,0l0.9-0.6l0,0c6.8-3.6,13.2-7.9,18.3-13.6c0,0,0,0,0.1-0.1l0,0l0.8-0.6
			l-0.1,0.1c0.4-0.5,0.8-0.8,1.1-1.1c0.3-0.3,0.7-0.7,0.8-1l0,0.2l0,0l0.2,0.4c-3.2-3.4-6.7-6.4-10.3-9.2c-3.7-2.8-7.5-5.4-11.5-7.7
			c-7.9-4.7-16.3-8.7-24.8-12.3l-0.1,0l0,0c-4.5-2.3-8.9-4.8-13.2-7.5c-4.3-2.7-8.4-5.7-12.4-8.9c-3.9-3.2-7.7-6.8-11.1-10.6
			c-3.4-3.9-6.3-8.1-8.7-12.7l0,0c0-0.1-0.1-0.1-0.1-0.2c-1.4-4.4-2.4-9-1.8-13.8c0.3-2.4,1-4.7,2.2-6.9c1.2-2.1,2.8-4,4.6-5.5
			l1.4-1.1c0.5-0.4,1-0.7,1.5-1c1-0.7,2-1.2,3.1-1.7c1-0.5,2.1-0.9,3.2-1.4l3.2-1.1l1.6-0.6l1.6-0.5l3.3-1c2.2-0.5,4.4-1.2,6.6-1.6
			c4.4-0.9,9-1.4,13.5-1.5c2.3-0.1,4.6,0.1,6.8,0.2c2.3,0.3,4.5,0.5,6.8,1c4.5,0.9,8.9,2.3,13,4.3c4.1,2,8,4.4,11.6,7.2l0,0
			c0,0,0.1,0,0.1,0.1l9.4,9.6l-1.3,1.1l-9.3-12.6l0,0c-0.2-0.3-0.2-0.7,0.1-1c0.2-0.2,0.5-0.2,0.7-0.1c8.4,3.6,15.7,9.5,21.5,16.4
			c5.8,6.9,10.3,15,13.1,23.6c2.7,8.6,4.5,17.5,5.3,26.5C462,99.3,461.4,108.4,459.3,117.1z M459.3,117.1c2.1-8.8,2.6-17.9,1.8-26.8
			c-0.8-9-2.8-17.8-5.5-26.3c-2.9-8.5-7.5-16.4-13.3-23.1c-5.9-6.7-13.1-12.3-21.4-15.7l0.8-1.1l9.6,12.5c0.3,0.4,0.2,0.9-0.2,1.2
			c-0.3,0.3-0.8,0.2-1.1-0.1l0,0l-9.6-9.4l0.1,0.1c-3.5-2.6-7.3-4.9-11.3-6.7c-4-1.8-8.2-3.1-12.5-3.9c-2.1-0.4-4.3-0.6-6.5-0.9
			c-2.2-0.1-4.4-0.2-6.6-0.1c-4.4,0.1-8.8,0.7-13,1.6c-2.2,0.4-4.3,1-6.4,1.6l-3.2,1l-1.6,0.5l-1.6,0.6l-3.1,1.1
			c-1,0.4-2,0.8-2.9,1.3c-0.9,0.5-1.9,1-2.8,1.6c-0.4,0.3-0.9,0.6-1.3,0.9l-1.2,1c-1.6,1.4-2.9,2.9-3.9,4.7c-1,1.8-1.6,3.8-1.8,5.8
			c-0.5,4.1,0.3,8.4,1.6,12.6l-0.1-0.2c4.5,8.7,11.3,16.2,18.9,22.6c7.6,6.4,16.1,11.8,24.9,16.5l-0.1,0c8.5,3.8,16.9,8,24.8,12.9
			c4,2.5,7.8,5.1,11.5,8.1c3.7,2.9,7.1,6.1,10.3,9.5l0,0c0.1,0.1,0.1,0.2,0.1,0.4l0,0l0,0c0,0.1,0,0.1,0,0.2
			c-0.3,0.7-0.7,1.1-1.1,1.5c-0.4,0.4-0.8,0.7-1.1,1l0,0c0,0,0,0-0.1,0.1l-0.8,0.6l0.1-0.1c-5.3,5.7-11.9,10-18.8,13.5l0,0l-1,0.6
			l0.1-0.4c1.2,2.2,2.8,4.2,5,5.5c0.3,0.2,0.5,0.3,0.8,0.4l0.9,0.4c0.6,0.2,1.2,0.3,1.8,0.5c0.6,0.1,1.2,0.2,1.9,0.2
			c0.6,0,1.3,0.1,1.9,0c2.5-0.1,5-0.6,7.5-1.1c2.5-0.5,5-1.1,7.5-1.5l0,0l21.2-13.3l0,0L459.3,117.1z"/>
	</g>
	<g>
		<path class="st1" d="M435.1,200.7c-2.3-8.3-5-16.4-8.3-24.3l0.1,0l-6.3,2.9l0-0.1c3.7-2,7.3-4.2,10.9-6.4c1.8-1.1,3.5-2.3,5.2-3.5
			c0.9-0.6,1.7-1.3,2.5-1.9c0.8-0.7,1.6-1.4,2.1-2.2l0,0l0,0c0.1-0.2,0.3-0.5,0.4-0.8c0.1-0.3,0.2-0.6,0.3-0.9l0,0.1l-4.8-21.2
			l0.4,0.3c-2.5,0.4-5,1-7.5,1.6c-2.5,0.6-5,1.1-7.6,1.3c-0.6,0.1-1.3,0-2,0c-0.7,0-1.3-0.1-2-0.2c-0.6-0.2-1.3-0.3-1.9-0.5
			l-0.9-0.4c-0.3-0.1-0.6-0.3-0.9-0.4c-2.3-1.3-4.1-3.5-5.4-5.7l0,0l-0.1-0.1l0.8,0.2l-1.1,0.6l0.1,0c-4.3,3-9.2,5.4-14.5,6.2l0.1,0
			c-2.3,0.8-4.9,0.9-7.3,0.2l0.2,0l0,0l0,0l0,0c-4.2-0.4-8.2-1.7-11.9-3.7c-3.7-1.9-7-4.4-10.2-7.1l1.5-0.1l-15.3,18.8L336.3,172
			l0.1-1.6c0.6,0.8,1.2,1.5,2,2.2l-0.4-0.2l13.3,5.5l-0.3-0.1l2.3,0.4l-1.6,1l1.5-5.4c0.5-1.8,0.9-3.6,1.4-5.4c1-3.6,2-7.3,3.2-10.9
			l2.8,0.9l-3.6,12.5l-0.9,3.1l-0.7,3.1c-0.5,2.1-0.9,4.2-1.4,6.3c-1.7,8.4-3,17-3.9,25.5c-0.9,8.6-1.5,17.2-1.9,25.8
			c-0.4,8.6-0.4,17.3-0.3,25.9l-0.6-0.9c7.5,3.2,15.4,5.3,23.4,6.4c8.1,1.2,16.3,1.4,24.4,0.9c8.2-0.5,16.3-1.6,24.3-3.2
			c8-1.6,16-3.7,23.8-6.1l-0.1,0.2c-0.3-9.7-1-19.3-2.3-28.9C439.5,219.5,437.6,210,435.1,200.7z M435.1,200.7
			c2.5,9.3,4.4,18.8,5.8,28.4c1.3,9.6,2.2,19.2,2.6,28.9l0,0.1l-0.1,0c-15.6,5-31.7,8.9-48.1,10.2c-8.2,0.6-16.5,0.5-24.7-0.5
			c-8.2-1-16.3-3-24-6.1l-0.6-0.2l0-0.7c-0.5-17.3-0.3-34.8,1.5-52.1c0.8-8.7,2.1-17.3,3.8-25.8c0.4-2.1,0.9-4.3,1.4-6.4l0.8-3.2
			l0.9-3.1l3.6-12.5l2.8,0.9c-1.2,3.5-2.2,7.1-3.2,10.7c-0.5,1.8-0.9,3.6-1.4,5.4l-1.6,5.4l-0.4,1.3l-1.3-0.2l-2.4-0.5l-0.1,0
			l-0.1-0.1l-13.3-5.5l-0.2-0.1l-0.2-0.1c-0.9-0.8-1.7-1.7-2.4-2.8l-0.6-0.9l0.7-0.8l15.6-18.6l15.6-18.6l0.7-0.8l0.8,0.7
			c3,2.7,6.2,5.1,9.6,7c3.5,1.9,7.3,3.2,11.2,3.7l-0.1,0l0,0l0.1,0l0.1,0c2,0.6,4.3,0.6,6.3-0.1l0.1,0l0.1,0c5-0.7,9.8-2.9,14-5.7
			l0,0l0,0l1.1-0.5l0.5-0.3l0.3,0.5l0,0.1l0,0c1.2,2.1,2.8,4.1,4.9,5.4c2.1,1.3,4.6,1.6,7.1,1.5c2.5-0.1,5-0.6,7.5-1.1
			c2.5-0.5,5-1.1,7.5-1.4l0.3,0l0.1,0.3l4.5,21.3l0,0l0,0c-0.1,0.3-0.2,0.6-0.3,0.9c-0.1,0.3-0.2,0.6-0.4,0.9l0,0
			c-0.6,1-1.4,1.6-2.2,2.3c-0.8,0.7-1.7,1.3-2.5,1.9c-1.7,1.2-3.5,2.4-5.3,3.5c-1.8,1.1-3.6,2.2-5.4,3.3c-1.8,1.1-3.7,2.1-5.5,3.1
			l0-0.1l6.4-2.9l0,0l0,0C430.2,184.3,432.9,192.4,435.1,200.7z"/>
	</g>
	<g id="Arme">
		<path class="st1" d="M350.7,191.8l-0.3,6.8l-0.2,3.5l-0.2,3.6l-0.1,1.3l-1.3-0.7c-3-1.6-5.9-3.3-8.6-5.4c-2.7-2.1-5.3-4.5-7.1-7.8
			l-0.6-1.2c-0.2-0.4-0.3-0.9-0.4-1.3c-0.3-0.9-0.4-1.8-0.6-2.7c-0.1-0.5,0-0.9-0.1-1.4c0-0.5,0-0.9,0-1.4l0.2-1.4
			c0.1-0.5,0.1-0.9,0.3-1.3c0.9-3.5,2.5-6.6,4.4-9.5l0.7-1l1,0.5c2.2,1,4.4,1.9,6.6,2.9c2.2,1,4.4,2,6.6,3l1,0.5l-0.5,0.9l-2,3.3
			c-0.6,1.1-1.3,2.2-1.7,3.3c-0.4,1.1-0.7,2.3-0.1,3.4C348.4,190.6,349.6,191.3,350.7,191.8z M350.7,191.8l-0.9-0.3
			c-0.3-0.1-0.6-0.2-0.9-0.4c-0.3-0.1-0.6-0.3-0.9-0.5c-0.3-0.2-0.5-0.5-0.7-0.7c-0.4-0.6-0.6-1.3-0.7-2c0-0.7,0.1-1.4,0.2-2
			c0.3-1.3,0.8-2.5,1.4-3.7l1.7-3.5l0.5,1.4c-2.3-0.8-4.5-1.7-6.8-2.5c-2.3-0.8-4.5-1.7-6.7-2.6l1.7-0.5c-1.6,2.8-3.2,5.7-3.9,8.7
			c-0.1,0.4-0.2,0.7-0.2,1.1l-0.2,1.1c-0.1,0.4,0,0.7,0,1.1c0,0.4,0,0.7,0,1.1c0.1,0.7,0.2,1.5,0.4,2.2l0.3,1.1l0.5,1
			c1.3,2.7,3.6,5.1,6.1,7.1c2.5,2.1,5.2,4,8,5.8l-1.3,0.7l0.6-3.3l0.6-3.3L350.7,191.8z"/>
		<path class="st1" d="M492.2,119.7c-0.1,1.6-0.5,3.2-1.1,4.7c-0.6,1.5-1.6,2.8-2.9,3.9c-1.3,1.1-2.7,1.9-4.3,2.4
			c-1.6,0.5-3.2,0.8-4.8,1l-0.2,0l-0.2-0.2c-0.8-0.6-1.7-1.1-2.3-0.8c-0.3,0.1-0.7,0.3-1,0.7c-0.3,0.3-0.7,0.7-1.1,1.1l-4.4,4.6
			l-8.9,9.2c-5.9,6.1-11.9,12.1-17.9,18.2l-1.8,1.9l-0.6-2.6l-4.7-21.2l-0.2-1l0.9-0.6l18.4-11.5c6.1-3.8,12.3-7.6,18.4-11.3
			l-0.2,0.2c0.9-0.9,1.3-1.9,1-2.9l0-0.2l0-0.2c0.1-1,0.2-2.1,0.5-3.1c0.4-1,1.1-2.2,2.3-2.7c1.2-0.5,2.4-0.4,3.4-0.1
			c1,0.3,2,0.7,2.9,1.1l-0.1,0l1.2,0.5l1.3,0.6l-1.2,0.9l-5.5,4l0.3-0.5c-0.1,0.6-0.1,1.3,0.1,1.8c0.2,0.6,0.5,1,1,1.4
			c1,0.7,2.4,0.7,3.7,0.7l-0.3,0.1l5.1-4.7l0.2-0.2l0.1,0.2C490.4,116.5,491.4,118.1,492.2,119.7z M492.2,119.7
			c-0.9-1.6-2-3.1-3.3-4.4l0.3,0l-4.8,5l-0.1,0.1l-0.2,0c-0.7,0.1-1.5,0.1-2.2,0.1c-0.7-0.1-1.5-0.2-2.2-0.7
			c-0.7-0.4-1.3-1.1-1.5-1.9c-0.3-0.8-0.3-1.6-0.3-2.3l0-0.3l0.2-0.2l5.3-4.3l0.2,1.4l-1-0.4l0,0l-0.1,0c-0.8-0.4-1.7-0.7-2.5-0.9
			c-0.8-0.2-1.6-0.1-2.2,0.1c-0.6,0.3-0.9,0.8-1.2,1.6c-0.2,0.8-0.3,1.6-0.3,2.5l0-0.3c0.3,0.9,0.3,1.9,0,2.8
			c-0.3,0.9-0.8,1.6-1.4,2.3l-0.1,0.1l-0.1,0.1c-6,4-12.1,7.8-18.2,11.8l-18.3,11.6l0.7-1.6l4.6,21.3l-2.4-0.7
			c6.1-5.9,12.2-11.9,18.3-17.8l9.2-8.8l4.6-4.4l1.2-1.1c0.4-0.4,1-0.8,1.7-1c0.7-0.2,1.5,0,2,0.3c0.6,0.3,1,0.6,1.4,1l-0.4-0.1
			c1.6-0.1,3.1-0.3,4.6-0.7c1.5-0.4,2.9-1,4.2-2c1.2-0.9,2.2-2.2,3-3.5C491.5,122.9,491.9,121.3,492.2,119.7z"/>
		<path class="st1" d="M489,115.2c-1,1.6-2.5,3.7-4.1,5.7l-0.2,0.2l-0.5,0.1c-0.8,0.1-1.5,0.2-2.4,0.2c-0.8,0-1.7-0.2-2.6-0.7
			c-0.9-0.5-1.6-1.5-1.9-2.4c-0.3-0.9-0.3-1.8-0.2-2.7l0.1-0.7l0.5-0.4c1.8-1.4,3.7-2.7,5.6-3.9l0.7-0.4l0.5,0.3
			c0.5,0.3,1,0.6,1.4,0.9c0.4,0.3,0.9,0.7,1.3,1.1C487.9,113.3,488.5,114.2,489,115.2z M489,115.2c-0.9-0.6-1.8-1.1-2.7-1.6
			c-0.5-0.2-0.9-0.4-1.4-0.6c-0.5-0.2-0.9-0.3-1.4-0.5l1.1-0.1c-1.6,1.6-3.4,3.1-5.1,4.5l0.6-1c0,0.6,0,1.1,0.1,1.5
			c0.1,0.4,0.3,0.6,0.6,0.9c0.3,0.2,0.8,0.4,1.4,0.5c0.6,0.1,1.2,0.1,1.8,0.2l-0.7,0.3C484.9,117.9,486.7,116.8,489,115.2z"/>
	</g>
	<path class="st1" d="M526.3,78.7c-3.3,3.2-6.6,6.6-9.9,10.1l-10.1,10.7c-3.4,3.7-7,7.3-10.5,10.9c-1.8,1.8-3.6,3.6-5.4,5.4
		l-5.3,5.2l-0.4,0.4l-0.5,0c-0.8,0.1-1.6,0.1-2.4,0c-0.8-0.1-1.7-0.3-2.6-0.8c-0.9-0.5-1.6-1.5-1.9-2.5c-0.3-1-0.3-1.9-0.2-2.7
		l0.1-0.6l0.5-0.4l6-4.6c2-1.6,4.1-3.1,6.2-4.7c4.2-3.1,8.4-6.2,12.5-9.1l12.3-8.7C518.6,84.5,522.5,81.6,526.3,78.7z M526.3,78.7
		c-4.2,3.3-8.3,6.6-12.3,9.9c-4,3.3-7.8,6.6-11.6,9.7c-3.8,3.2-7.5,6.3-11.3,9.3c-1.9,1.5-3.8,3-5.7,4.5l-5.9,4.6l0.6-1
		c0,0.6,0,1.1,0.1,1.5c0.1,0.4,0.3,0.6,0.6,0.8c0.6,0.4,1.9,0.5,3.1,0.4L483,119l5.3-5.1c1.7-1.7,3.5-3.3,5.2-4.9
		c3.5-3.3,7-6.5,10.6-9.7c3.6-3.2,7.3-6.5,11-9.9C518.8,85.9,522.5,82.4,526.3,78.7z"/>
</g>
<g id="Team">
	<g id="Vero">
		<path class="st1" d="M60,322.3c0.2,16.4-2.3,32.8-6,48.8c-1.8,8-4,15.9-6.5,23.8c-1.2,3.9-2.5,7.8-4,11.7l-1.1,2.9l-0.5,1.4
			c-0.2,0.5-0.3,0.9-0.7,1.6c-0.6,1.3-2.1,2.2-3.5,2.4c-1.4,0.2-2.9-0.2-4-1.3c-0.5-0.5-1-1.2-1.2-1.9l-0.2-0.5l-0.1-0.5
			c-0.1-0.4-0.1-0.6-0.1-0.9l-0.1-3.1c-0.1-2.1,0-4.1-0.1-6.2c0-2.1,0.1-4.1,0.2-6.2c0.1-2.1,0.3-4.1,0.4-6.2
			c0.6-8.2,1.8-16.4,3.2-24.5c3-16.2,7.4-32.1,13.1-47.4l0.2-0.4l0.4,0.2l5.3,3.1L60,322.3z M60,322.3l-5.5-2.8l-5.5-2.8l0.5-0.2
			c-4.9,15.6-8.7,31.5-11.3,47.6c-1.3,8-2.3,16.1-2.9,24.3c-0.1,2-0.3,4.1-0.3,6.1c0,2-0.2,4.1-0.1,6.1c0,2,0,4.1,0.1,6.1l0.1,3
			c0,0.2,0,0.5,0,0.7l0,0.2l0.1,0.2c0.1,0.3,0.2,0.5,0.4,0.7c0.4,0.4,1,0.6,1.6,0.5c0.6-0.1,1.1-0.4,1.3-0.9
			c0.1-0.2,0.3-0.8,0.5-1.2l0.5-1.4l1.1-2.9c1.4-3.8,2.8-7.7,4.1-11.5c2.6-7.7,4.9-15.6,7-23.5c2-7.9,3.8-15.9,5.2-23.9
			C58.6,338.6,59.5,330.5,60,322.3z"/>
		<path class="st1" d="M139.7,413c-2.6,4-6.1,7.4-10.1,10.1c-4,2.7-8.4,4.8-12.9,6.4c-9.1,3.2-18.8,4.6-28.4,5
			c-4.8,0.1-9.7,0-14.5-0.5c-2.4-0.2-4.8-0.5-7.2-1c-2.4-0.4-4.8-1.2-7-2.2c-9.1-3.8-16.3-11.8-19.5-21.2l-0.1-0.4l0.1-0.4
			c2.6-7,4.9-14,7-21.1c2.1-7.1,4-14.3,5.7-21.5c1.6-7.2,3-14.5,4.1-21.8c1-7.3,1.7-14.7,1.8-22.1l0-2.4l2.1,1.1l1.4,0.8l-1.8,0.4
			c4-5.4,7.4-11.3,9.9-17.5c2.5-6.2,4.3-12.8,5.2-19.5l2.9,0.4c-0.9,7.6-1.7,15.3-3.2,23c-0.8,3.8-1.7,7.6-3.2,11.3
			c-1.5,3.7-3.5,7.3-6.7,10.1l-0.8-2.4c9.7,0.7,19.4,0.7,28.9-0.8c9.5-1.5,18.8-4.6,26.6-10.2l1.4,1.9l-12.1,10l-1-1.8
			c3.9-1.3,7.8-2.7,11.6-4.3l1.4-0.6l0,1.5c0.1,7.7,0.6,15.4,1.3,23c0.8,7.6,1.9,15.3,3.3,22.8c1.4,7.6,3.2,15,5.5,22.4
			C133.7,398.7,136.4,406,139.7,413z M139.7,413c-3.5-6.9-6.4-14-8.8-21.4c-2.4-7.3-4.4-14.8-6-22.4c-3.3-15.1-5-30.5-5.5-46
			l1.4,0.9c-3.8,1.7-7.8,3.2-11.7,4.6l-5.3,1.8l4.2-3.6l12-10.2l1.4,1.9c-4,3-8.5,5.3-13.1,7.1c-4.7,1.8-9.5,3-14.4,3.8
			c-9.8,1.6-19.7,1.6-29.6,0.9l-3.3-0.2l2.5-2.2c2.7-2.3,4.5-5.5,5.9-9c1.3-3.5,2.3-7.2,3-10.9c1.4-7.5,2.2-15.1,3-22.7l2.9,0.4
			c-0.9,6.9-2.7,13.7-5.4,20.2c-2.7,6.5-6.2,12.5-10.4,18.1l-0.7,1l-1.1-0.6l-1.4-0.8l2.1-1.2c-0.2,7.5-0.9,15-2,22.4
			c-1.1,7.4-2.5,14.8-4.2,22c-3.4,14.6-7.8,28.9-13.2,42.8l0-0.8c2.8,8.8,9.5,16.4,18.1,20.2c4.2,2,8.9,2.6,13.7,3.2
			c4.7,0.6,9.5,0.8,14.3,0.7c9.5-0.1,19.1-1.3,28.2-4.3c4.5-1.5,8.9-3.4,12.9-6C133.3,420.2,136.9,416.9,139.7,413z"/>
		<path class="st1" d="M120.7,317.5c0.1-0.1,0.4-0.1,0.5,0.3c0.2,0.3,0.1,0.8,0,1.2l-2.5-1.2l0.2-0.1l0.6-1.1c0.4,0,0.8,0.1,1,0.3
			C120.9,317.2,120.8,317.4,120.7,317.5z M120.7,317.5c-0.2,0.2-0.4,0.5-0.3,0.8c0.1,0.3,0.4,0.5,0.6,0.6l0.6-1.1l0.2,0.1l-2.5-1.2
			c0,0.3,0.1,0.7,0.4,0.9C120.1,317.8,120.5,317.7,120.7,317.5z"/>
		<path class="st1" d="M148.1,412.8c0,1.1-0.7,2.1-1.6,2.7c-0.9,0.6-2.1,0.8-3.1,0.7c-1.1-0.1-2.1-0.6-2.8-1.5
			c-0.6-0.9-1-1.9-1.5-2.9c-0.9-2-1.9-3.9-2.7-5.9c-0.4-1-0.9-2-1.3-3l-1.2-3c-3.1-8.1-5.8-16.4-7.8-24.9c-2.1-8.4-3.7-17-5-25.6
			c-1.2-8.6-1.9-17.3-2.1-26.1l0-1l0.9-0.4c2.5-1.1,5-2.4,7.4-3.8c2.4-1.4,4.7-3,6.7-4.7l1.7-1.5l0.7,2.1c1.3,4,2.4,8,3.4,12.1
			c1,4.1,1.9,8.1,2.7,12.2c1.6,8.2,2.8,16.5,3.7,24.7c0.9,8.3,1.5,16.6,1.9,24.9l0.2,6.2c0.1,2.1,0.1,4.2,0.1,6.2L148.1,412.8z
			 M148.1,412.8l0-12.5c0-1,0-2.1,0-3.1l-0.2-3.1l-0.3-6.2c-0.5-8.3-1.6-16.5-2.8-24.7c-1.3-8.2-2.8-16.4-4.7-24.4c-1-4-2-8-3-12
			c-1.1-4-2.3-7.9-3.5-11.9l2.4,0.6c-2.2,2-4.6,3.6-7.1,5.1c-2.5,1.5-5.1,2.8-7.7,3.9l0.9-1.4c0.2,8.6,0.7,17.2,1.6,25.8
			c0.9,8.6,2.2,17.2,3.9,25.6c1.8,8.5,3.9,16.9,6.9,25l1.1,3.1c0.4,1,0.8,2,1.2,3c0.4,1,0.8,2,1.2,3l1.4,3c0.5,1,0.9,2,1.4,2.9
			c0.6,0.9,1.7,1.4,2.7,1.5c1.1,0.1,2.2-0.1,3.1-0.6C147.3,414.9,148,413.9,148.1,412.8z"/>
		<path class="st1" d="M138.4,310.7c-1.8,2.3-3.9,4.2-6.3,6c-2.3,1.7-4.8,3.3-7.3,4.6c-5.1,2.7-10.5,4.8-16,6.7l-2.2,0.8l1.8-1.6
			l11.9-10.2l0.8,1c-4,2.9-8.4,5.3-13,7.1c-4.6,1.8-9.4,3-14.3,3.8c-9.7,1.6-19.7,1.7-29.5,1.1l-2.6-0.2l2-1.8
			c2.7-2.4,4.6-5.6,5.9-9.1c1.3-3.5,2.2-7.2,3-10.9c1.4-7.5,2.2-15.1,3-22.8l2.6,0.3c-0.9,6.9-2.7,13.7-5.3,20.2
			c-2.6,6.5-6.1,12.6-10.3,18.2l-0.7,1l-1.1-0.6l-20.2-11l-0.7-0.4l0-0.9c-0.3-13.3,0-26.7,0.8-40c0.8-13.3,2.3-26.6,4.5-39.8
			l0.4-2.2l1.8,1.4c5.9,4.6,12.7,8,20,9.7c7.3,1.8,14.9,2.1,22.4,1.5c7.5-0.6,15-2.2,22.3-4.4c7.3-2.2,14.4-4.9,21.4-8l-0.4,0.4
			l0.2-0.3l1.9-3.8l-0.2,4.3c-0.3,5.2-0.3,10.5-0.2,15.7c0,5.2,0.3,10.5,0.5,15.7l0.3,7.9c0.1,2.6,0.2,5.3,0.4,7.9l1.2,15.7l0,0l0,0
			l0,0l0,0L138.4,310.7z M138.4,310.7l-2-16.8l0,0l0,0l0,0l0,0l-1.5-15.7c-0.2-2.6-0.4-5.2-0.6-7.9l-0.5-7.9
			c-0.3-5.3-0.7-10.5-0.8-15.8c-0.1-5.3-0.2-10.5,0-15.8l1.7,0.4l-0.1,0.3l-0.1,0.3l-0.3,0.1c-7,3.2-14.1,6.1-21.5,8.4
			c-7.4,2.3-14.9,4-22.7,4.8c-7.7,0.8-15.6,0.4-23.2-1.4c-7.6-1.8-14.8-5.3-21-10.1l2.2-0.8c-2.2,13.1-3.5,26.2-4.3,39.5
			c-0.4,6.6-0.6,13.2-0.7,19.9c-0.1,6.6-0.1,13.3-0.1,19.9l-0.8-1.3l20.2,11.1l-1.8,0.4c4-5.4,7.4-11.3,10-17.5
			c2.6-6.2,4.3-12.8,5.2-19.5l2.6,0.3c-0.4,3.8-0.8,7.7-1.3,11.5c-0.5,3.8-1.1,7.7-1.8,11.5c-0.8,3.8-1.8,7.6-3.2,11.3
			c-1.5,3.6-3.5,7.3-6.7,9.9l-0.6-1.9c9.7,0.8,19.5,0.8,29-0.6c9.5-1.5,18.9-4.6,26.8-10.2l0.8,1L109,328l-0.4-0.8
			c5.5-1.8,10.9-3.7,16.1-6.3c2.6-1.3,5.1-2.7,7.4-4.4C134.4,314.8,136.6,312.9,138.4,310.7z"/>
		<g id="Mütze">
			<path class="st1" d="M133.9,230.9l-0.1,0.3l0,0c-7.1,3.3-14.4,6.1-21.9,8.5c-7.5,2.3-15.2,4.2-23,4.9c-7.8,0.8-15.9,0.5-23.6-1.6
				c-3.9-1-7.7-2.4-11.2-4.2c-3.6-1.8-6.9-4.1-10-6.6l-0.3-0.3l-0.1-0.5c-0.5-1.9-0.8-3.8-1.1-5.7c-0.2-1.9-0.4-3.9-0.3-5.9
				c0.1-2,0.3-4,0.9-6c0.6-2,1.4-3.9,2.6-5.6l0.7-1l1.1,0.4c3.4,1.4,6.8,2.5,10.4,3.5c3.5,1,7.1,1.9,10.7,2.5
				c3.6,0.7,7.2,1.3,10.9,1.7c3.7,0.5,7.3,0.7,11,1c7.4,0.6,14.8,0.8,22.1,0.5c7.4-0.2,14.8-1,22.1-2.1l0.1,0l0,0.1
				c1.1,2.5,1.6,5.3,1.5,8C136,225.8,135.1,228.4,133.9,230.9z M133.9,230.9c1.2-2.4,2-5.1,2.1-7.8c0.1-2.7-0.4-5.5-1.5-7.9l0.1,0
				c-7.3,1.3-14.7,2.2-22.1,2.8c-7.4,0.6-14.9,0.7-22.3,0.3c-7.4-0.2-14.9-0.7-22.3-1.9c-3.7-0.6-7.4-1.4-11-2.3
				c-3.6-1-7.2-2.2-10.7-3.5L48,210c-1.9,2.8-2.8,6.3-3,9.9c-0.2,3.6,0.4,7.3,1.2,10.9l-0.5-0.8c5.8,5,12.6,8.8,20,11
				c7.4,2.2,15.2,2.9,23,2.4c7.8-0.5,15.5-1.9,23-4.1c7.5-2.1,14.9-5,22-8.2l0,0L133.9,230.9z"/>
			<path class="st1" d="M134.6,215.1c-7.3,1.5-14.6,2.5-22,3.1c-7.4,0.6-14.9,0.7-22.3,0.3c-7.4-0.4-14.9-1.2-22.2-2.5
				c-7.3-1.3-14.6-3.1-21.7-5.4l-1.2-0.4l0.2-1.2c0.8-4.2,1.5-8.5,3.1-12.8c0.8-2.1,1.8-4.2,2.9-6.1c1.2-1.9,2.5-3.7,3.9-5.4
				c1.4-1.7,2.8-3.4,4.4-4.9c0.8-0.8,1.6-1.5,2.5-2.2c0.9-0.7,1.7-1.4,2.7-2c3.7-2.6,7.9-4.4,12.4-5.2c2.2-0.4,4.4-0.5,6.7-0.6
				c2.2,0,4.4,0.2,6.6,0.5c4.4,0.6,8.6,1.8,12.7,3.3c4.1,1.5,8.1,3.2,11.9,5.4c1.9,1.1,3.7,2.3,5.5,3.6c1.7,1.4,3.5,2.8,4.7,4.9
				l-0.1-0.1c3.1,3.9,5.5,8.4,7,13.1C133.8,205.2,134.5,210.2,134.6,215.1z M134.6,215.1c-0.4-4.9-1.4-9.8-3.1-14.3
				c-1.8-4.6-4.3-8.8-7.4-12.4l0,0l-0.1-0.1c-1-1.6-2.7-3-4.4-4.2c-1.7-1.2-3.5-2.3-5.4-3.3c-3.7-2-7.7-3.6-11.7-5
				c-4-1.3-8.2-2.3-12.3-2.9c-2.1-0.3-4.2-0.4-6.2-0.4c-2.1,0.1-4.1,0.2-6.2,0.6c-4,0.8-7.9,2.4-11.2,4.8c-0.9,0.6-1.6,1.2-2.5,1.9
				c-0.8,0.7-1.6,1.3-2.3,2.1c-1.5,1.4-2.9,3-4.2,4.7c-1.3,1.7-2.6,3.3-3.7,5.1c-1.1,1.7-2,3.6-2.7,5.5c-1.4,3.9-2.2,8.1-3,12.3
				l-1-1.6c7,2.3,14.1,4.2,21.3,5.6c7.2,1.4,14.5,2.5,21.8,3c7.3,0.6,14.7,0.7,22.1,0.5C119.9,216.7,127.2,216.1,134.6,215.1z"/>
			<path class="st1" d="M69.6,214.9c0.6,0,0.9,0.1,1.2,0.1c0.2,0,0.3,0.1,0.3,0.1c0,0-0.1,0.1-0.3,0.1c-0.2,0-0.6,0.1-1.2,0.1
				c-0.6,0-0.9-0.1-1.2-0.1c-0.2,0-0.3-0.1-0.3-0.1c0,0,0.1-0.1,0.3-0.1C68.6,215,68.9,215,69.6,214.9z"/>
			<path class="st1" d="M85.2,244.7c-0.6,0-0.9,0-1.2,0c-0.2,0-0.3-0.1-0.3-0.1c0,0,0.1-0.1,0.3-0.1c0.2-0.1,0.5-0.1,1.2-0.2
				c0.6,0,1,0,1.2,0c0.2,0,0.3,0.1,0.3,0.1c0,0-0.1,0.1-0.3,0.1C86.1,244.5,85.8,244.6,85.2,244.7z"/>
		</g>
	</g>
	<g id="Nesrin">
		<path class="st1" d="M167.8,309c0.2,7.6-0.4,15.2-1.3,22.8c-0.9,7.6-2.2,15.1-3.9,22.6c-0.8,3.7-1.7,7.4-2.6,11.2l-1.5,5.5
			l-1.6,5.5c-2.2,7.3-4.7,14.6-7.4,21.7l-2.5,6.6l-0.3-7.1l-0.5-10.8c-0.2-3.5-0.5-7.1-0.8-10.7c-0.7-7.1-1.5-14.3-2.6-21.4l0-0.2
			l0-0.2c1.4-8.3,3.2-16.6,5.3-24.7c2.2-8.2,4.6-16.2,7.5-24.1l0.5-1.5l0.3,1.5c0.3,1.4,1,2.7,2.2,3.5l-0.2,0c0.1,0,0.3,0.1,0.2,0.1
			c0,0-0.1-0.1-0.2-0.1l0.2,0c1.2,0.7,2.7,0.8,4.1,0.6c1.4-0.3,2.8-0.9,4-1.8l0,0l0,0L167.8,309z M167.8,309l-0.9-0.9l0.1,0
			c-1.1,1-2.5,1.7-4,2.1c-1.5,0.4-3.1,0.4-4.5-0.4l0.2,0c-0.1,0-0.3-0.1-0.2-0.1c0,0,0.1,0.1,0.2,0.1l-0.2,0
			c-1.4-0.8-2.3-2.3-2.8-3.9l0.9,0c-1.2,4-2.3,8.1-3.4,12.1c-1.1,4-2.1,8.1-3,12.2c-1.9,8.2-3.4,16.4-4.7,24.7l0-0.4
			c1.2,7.1,2.2,14.3,2.8,21.5c0.4,3.6,0.6,7.2,0.9,10.9l0.4,10.8l-2.9-0.5c2.7-7.1,5.2-14.2,7.6-21.4l1.7-5.4l1.6-5.5
			c1-3.6,2-7.3,2.9-11c1.8-7.4,3.4-14.8,4.7-22.3C166.5,324.1,167.4,316.6,167.8,309z"/>
		<path class="st1" d="M240.8,429.8c-7.6,5.8-16.4,9.9-25.6,12.4l-1.7,0.5l-1.7,0.4l-3.5,0.7c-1.2,0.3-2.4,0.4-3.5,0.6
			c-1.2,0.2-2.4,0.4-3.6,0.5c-4.8,0.4-9.5,0.7-14.3,0.3c-4.8-0.1-9.5-0.9-14.2-1.8l-3.5-0.9l-1.7-0.5l-1.7-0.6
			c-1.1-0.4-2.3-0.7-3.4-1.2l-3.3-1.4l-0.8-0.4l-0.8-0.4l-1.6-0.9l-1.6-0.9c-0.5-0.3-1-0.7-1.5-1c-2-1.5-3.7-3.2-5.1-5.2
			c-2.9-4-4.2-9-4.4-13.9l0-0.9l0.9,0c1.5,0,2.9-0.9,3.1-2.1c0-0.2,0-0.3,0.1-0.5l0-0.7l0-1.3l0-2.6l-0.1-10.4l0-0.2l0.1-0.2
			c2.7-7.1,5-14.3,7.2-21.6c2.2-7.3,4.1-14.6,5.8-22c1.7-7.4,3.1-14.8,4.2-22.3c1-7.5,1.8-15,2-22.5l0.1-3.3l2.4,2.3
			c2.3,2.2,5,3.9,8,5c3,1,6.2,1.3,9.3,0.8c1.6-0.2,3.1-0.7,4.5-1.3c1.4-0.6,2.8-1.5,4.1-2.4c2.5-1.9,4.7-4.5,6.1-7.2l0.8-1.5l1.2,1
			c1.7,1.5,3.9,2.6,6.2,2.8c1.1,0.1,2.2-0.1,3.2-0.5c1-0.4,1.7-1.1,2.2-2l1.8-3.9l0.3,4.3c1,16.3,3.5,32.6,7.3,48.6
			c1.9,8,4.1,15.9,6.8,23.6c2.6,7.8,5.8,15.4,9.5,22.7l0,0l0,0c0,3.6,0.2,7.1,0.5,10.7l0.2,2.7c0.1,0.9,0.3,1.8,0.9,2.5
			c1.1,1.4,3.2,1.9,4.8,1.2l0,0l0,0c0.3,1.4,0.6,2.8,0.5,4.2c-0.1,1.4-0.4,2.8-1,4.1C244.9,425.8,243,428.1,240.8,429.8z
			 M240.8,429.8c2.2-1.7,4-4,5.1-6.6c0.5-1.3,0.9-2.7,1-4.1c0.1-1.4-0.2-2.8-0.5-4.2l0,0c-1.7,0.7-3.8,0.2-4.9-1.2
			c-0.6-0.7-0.8-1.6-0.9-2.5l-0.3-2.7c-0.3-3.6-0.5-7.1-0.6-10.7l0,0.1c-3.8-7.3-7-14.9-9.8-22.6c-2.8-7.7-5.2-15.6-7.3-23.6
			c-4.1-15.9-7-32.2-8.4-48.7l2.1,0.4c-0.6,1.4-1.9,2.6-3.2,3.2c-1.4,0.6-2.9,0.8-4.3,0.7c-2.9-0.2-5.6-1.4-7.7-3.2l2-0.4
			c-1.7,3.3-4,6-6.7,8.2c-1.4,1.1-2.9,2.1-4.6,2.8c-1.7,0.7-3.4,1.3-5.2,1.6c-3.5,0.7-7.3,0.4-10.7-0.8c-3.4-1.2-6.5-3.1-9.1-5.6
			l2.5-1c-0.1,7.7-0.8,15.3-2,22.9c-1.1,7.6-2.6,15.1-4.3,22.5c-1.8,7.4-3.8,14.8-6.1,22.1c-2.3,7.3-4.9,14.5-7.7,21.6l0.1-0.4
			l-0.2,10.5l0,2.6l0,1.3l0,0.7c0,0.2,0,0.5-0.1,0.8c-0.3,1.1-1,2-1.9,2.6c-0.9,0.5-1.9,0.8-2.9,0.8l0.8-0.9
			c0.1,4.6,1.2,9.3,3.8,13.1c1.3,1.9,2.9,3.6,4.7,5c0.5,0.3,0.9,0.7,1.4,1l1.5,0.9l1.5,0.9l0.8,0.4l0.8,0.4l3.2,1.5
			c1.1,0.5,2.2,0.8,3.3,1.2l1.7,0.6l1.7,0.5l3.4,1c4.6,1,9.3,1.8,14.1,2.1c4.7,0.4,9.5,0.2,14.3-0.2c1.2-0.1,2.4-0.3,3.5-0.4
			c1.2-0.2,2.4-0.2,3.5-0.5l3.5-0.7l1.8-0.4l1.7-0.5C224.4,439.7,233.2,435.6,240.8,429.8z"/>
		<path class="st1" d="M244.1,352.5L244.1,352.5L244.1,352.5c-1,5.4-1.8,10.8-2.4,16.2c-0.6,5.4-1.1,10.8-1.2,16.3l-0.1-0.2
			c0,0,0.1,0.1,0.1,0.2c0,0.1-0.1,0.2-0.1,0.2l0.1-0.2l0,12.8l0,2.3l-1.1-2c-3.9-7.3-7.2-14.8-10.2-22.6c-2.9-7.7-5.4-15.6-7.4-23.6
			l-1.5-6l-1.3-6l-1.2-6.1l-1-6.1l-0.9-6.1l-0.7-6.1l-0.6-6.2l-0.4-6.2l0-0.3l0.1-0.2c0.2-0.5,0.4-1,0.5-1.6l0,0.1l0,0l0-0.4
			l0.2-0.3c0.5-0.7,1.1-1.1,1.7-1.5l0.6-0.4l0.6,0.5l1,0.8l0.4,0.8c0-0.2-0.1-0.5-0.3-0.7c-0.1-0.1-0.2-0.2-0.3-0.2
			c-0.1,0-0.2-0.1-0.3-0.1l0.5,0.2c1.5,1.1,3.3,1.8,5.2,1.9c1.8,0.1,3.7-0.5,5.1-1.7l0.8-0.7l0.4,1c1.5,4.3,2.9,8.6,4.2,12.9
			c1.3,4.3,2.4,8.7,3.6,13c1.1,4.4,2.2,8.7,3.1,13.1C242.3,343.7,243.3,348.1,244.1,352.5z M244.1,352.5c-0.9-4.4-1.8-8.8-2.9-13.2
			c-1-4.4-2.2-8.7-3.4-13.1c-1.2-4.3-2.6-8.6-4.1-12.9c-1.5-4.3-3-8.5-4.7-12.6l1.2,0.3c-0.8,0.8-1.8,1.4-2.8,1.8
			c-1.1,0.4-2.2,0.6-3.3,0.6c-2.2,0-4.4-0.8-6.3-2l0.5,0.2c-0.1,0-0.2,0-0.3-0.1c-0.1,0-0.2-0.1-0.3-0.2c-0.2-0.2-0.3-0.6-0.3-0.7
			l0.4,0.8l-1.2-0.9l1.3,0.1c-0.5,0.3-0.9,0.7-1.1,1.1l0.2-0.6l0,0l0,0l0,0.1c-0.1,0.7-0.3,1.5-0.6,2.2l0.1-0.5
			c0.8,8.1,1.8,16.3,3.2,24.3l1.1,6l1.2,6l1.3,6l1.4,6c1.9,7.9,4.1,15.8,6.7,23.6c2.6,7.8,5.6,15.4,9.1,22.8l-1.1,0.3l0.5-12.8
			l0.1-0.2c0,0-0.1,0.1-0.1,0.2c0,0.1,0.1,0.2,0.1,0.2l-0.1-0.2c0.4-5.4,0.9-10.9,1.7-16.3C242.2,363.3,243.1,357.9,244.1,352.5
			L244.1,352.5L244.1,352.5z"/>
		<g>
			<path class="st1" d="M234.5,248.7c0.2-4.9-0.9-9.8-3.3-14.1c-2.3-4.3-5.9-7.8-10-10.2l-0.1-0.1l-0.1-0.1c-0.9-2-2.1-3.8-3.6-5.3
				c-1.5-1.5-3.3-2.8-5.2-3.7c-1.9-0.9-4-1.4-6.2-1.6c-2.1-0.2-4.3,0-6.3,0.6l-0.4,0.1l-0.3-0.2c-2.2-1.5-4.5-2.7-7-3.6
				c-2.5-0.8-5.1-1.3-7.7-1.4c-5.2-0.2-10.5,1.3-14.9,4l-0.4,0.2l-0.5-0.1c-1.6-0.4-3.4-0.5-5.2-0.4c-1.7,0.1-3.4,0.5-4.9,1.2
				c-1.5,0.7-2.9,1.8-4,3c-1.1,1.3-1.9,2.8-2.4,4.4l-0.2,0.6l-0.6,0.2c-2.4,0.9-4.7,2.3-6.5,4.1c-1.8,1.8-3.2,4.1-3.8,6.6
				c-0.7,2.5-0.6,5.1,0.1,7.5c0.8,2.4,2.2,4.7,4,6.5l2.1,2.1l-2.9,0.2c-3.5,0.3-6.8,1.9-9.2,4.4l0.4-1l1.2,21.8l-0.5-1l1.3,1
				l1.1,0.9l-0.7,1.1c-0.4,0.7-0.8,1.4-1.1,2.1l0.1-0.7c0.5,5.3,0.9,10.6,1.4,15.9l0,0.1v0.1l0,0l-0.3-0.8c1,1.5,2.4,2.8,3.9,3.7
				c1.6,0.9,3.3,1.5,5.2,1.7c1.8,0.2,3.7,0.1,5.5-0.4c1.8-0.5,3.5-1.3,5.1-2.3l8-5.4l-6.1,7.5c-0.9,1.1-1.5,2.3-1.9,3.6
				c-0.3,1.3-0.4,2.7-0.1,4l0,0.2v0.2v0l0-0.3c0.3,1.2,1,2.3,1.9,2.9l-0.7-0.2c0.2,0,0.4,0.1,0.7,0.2c0.2,0.1,0.3,0.2,0.3,0.2
				s-0.1-0.1-0.3-0.2c-0.2-0.1-0.5-0.2-0.6-0.2l0.7,0.2c0.9,0.5,2.1,0.6,3.3,0.3c1.2-0.3,2.4-0.9,3.5-1.7l1-0.7l0.9,0.9l0.8,0.8
				c0.3,0.3,0.6,0.6,0.9,0.8c0.6,0.5,1.3,1,2,1.5c1.4,0.9,2.8,1.7,4.3,2.3c1.5,0.6,3.1,1,4.7,1.2c1.6,0.2,3.3,0.2,4.9-0.1
				c0.8-0.1,1.6-0.2,2.4-0.5c0.8-0.2,1.6-0.5,2.3-0.8c1.5-0.7,2.9-1.4,4.2-2.4c2.6-2,4.9-4.6,6.4-7.4l0.7-1.3l1.1,1
				c2,1.8,4.6,2.9,7.1,2.8c1.3,0,2.5-0.4,3.4-1.1c0.4-0.4,0.8-0.8,1.1-1.3c0.3-0.5,0.4-1.1,0.5-1.8l0,0.1l0,0l0-0.3l0.2-0.2
				c0.5-0.7,1.1-1.1,1.7-1.5l0.6-0.4l0.6,0.5l1,0.8l0.4,0.8c0-0.2-0.1-0.5-0.3-0.7c-0.1-0.1-0.2-0.2-0.3-0.2c-0.1,0-0.2-0.1-0.3-0.1
				l0.5,0.2c1.7,1.2,3.8,1.9,5.9,1.8c2.1-0.1,4-1.1,5.3-2.7c1.3-1.6,2.1-3.7,2.2-5.8c0.1-2.1-0.5-4.3-1.6-6.1l-0.4-0.7l0.7-0.3
				c3.3-1.6,6.4-4,8.7-7c2.3-3,3.8-6.6,4.1-10.4c0.4-3.8-0.3-7.7-2-11.1C240.3,253.9,237.7,250.9,234.5,248.7z M234.5,248.7
				c3.3,2.1,6,5.1,7.8,8.5c1.8,3.5,2.6,7.5,2.3,11.4c-0.3,3.9-1.7,7.8-4,11c-2.3,3.2-5.4,5.8-9,7.6l0.3-1c1.3,2,2,4.5,1.9,6.9
				c-0.1,2.4-0.9,4.9-2.4,6.8c-0.8,1-1.7,1.8-2.9,2.4c-1.1,0.6-2.4,0.9-3.6,1c-2.5,0.2-5-0.7-7.1-2l0.5,0.2c-0.1,0-0.2,0-0.3-0.1
				c-0.1,0-0.2-0.1-0.3-0.2c-0.2-0.2-0.3-0.5-0.3-0.7l0.4,0.8l-1.2-0.9l1.2,0.1c-0.5,0.3-0.9,0.7-1.2,1.1l0.2-0.6l0,0l0,0.1l0,0.1
				c-0.1,0.8-0.3,1.6-0.7,2.4c-0.4,0.8-1,1.5-1.6,2c-1.4,1.1-3,1.6-4.6,1.6c-3.3,0.1-6.4-1.2-8.7-3.2l1.8-0.4
				c-1.7,3.3-4.1,6.1-7,8.4c-1.4,1.1-3.1,2.1-4.8,2.8c-0.9,0.3-1.7,0.7-2.6,0.9c-0.9,0.3-1.8,0.4-2.7,0.6c-1.8,0.3-3.7,0.3-5.5,0.1
				c-1.8-0.2-3.7-0.7-5.4-1.3c-1.7-0.7-3.4-1.5-4.9-2.6c-0.8-0.5-1.5-1.1-2.2-1.7c-0.3-0.3-0.7-0.6-1-0.9l-1-1l1.9,0.2
				c-1.3,1-2.8,1.8-4.5,2.2c-0.8,0.2-1.7,0.3-2.6,0.2c-0.9-0.1-1.8-0.3-2.7-0.8l0.7,0.2c-0.2,0-0.4-0.1-0.7-0.2
				c-0.2-0.1-0.3-0.2-0.3-0.2s0.1,0.1,0.3,0.2c0.2,0.1,0.5,0.2,0.6,0.2l-0.7-0.2c-1.7-1.1-2.7-2.8-3.1-4.5l0-0.2v-0.2v0l0,0.3
				c-0.5-1.8-0.4-3.6,0.1-5.4c0.4-1.7,1.3-3.3,2.4-4.7l1.9,2.1c-1.8,1.2-3.8,2.2-5.9,2.8c-2.1,0.6-4.4,0.7-6.6,0.5
				c-2.2-0.3-4.4-1-6.3-2.1c-1.9-1.1-3.6-2.7-4.9-4.6l-0.3-0.4v-0.5l0,0l0,0.1c-0.5-5.3-0.9-10.6-1.3-16l0-0.4l0.1-0.3
				c0.4-0.9,0.8-1.7,1.3-2.5l0.4,2l-1.6-1.3l-0.4-0.4l0-0.6l-1.1-21.9l0-0.6l0.4-0.4c2.9-3,6.9-4.9,11-5.2l-0.9,2.3
				c-2.1-2.2-3.7-4.8-4.6-7.7c-0.9-2.9-1-6.1-0.1-9c0.8-2.9,2.4-5.6,4.5-7.7c2.1-2.1,4.7-3.7,7.5-4.7l-0.8,0.8
				c0.6-1.9,1.6-3.7,3-5.2c1.3-1.5,3-2.8,4.8-3.6c1.8-0.8,3.8-1.2,5.8-1.4c2-0.1,3.9,0.1,5.9,0.6l-0.8,0.1
				c4.8-2.9,10.5-4.4,16.1-4.1c2.8,0.1,5.6,0.7,8.2,1.7c2.6,1,5.1,2.3,7.4,3.9l-0.7-0.1c2.3-0.6,4.6-0.7,6.9-0.5
				c2.3,0.2,4.5,0.9,6.6,1.9c2.1,1,3.9,2.4,5.5,4.1c1.5,1.7,2.8,3.6,3.7,5.7l-0.2-0.2c4.3,2.6,7.8,6.4,10,10.8
				C234,238.7,234.9,243.8,234.5,248.7z"/>
			<path class="st1" d="M205.2,239.1c-0.7,0.6-1.5,1.1-2.3,1.5c-0.8,0.4-1.8,0.6-2.7,0.5c-0.9-0.1-1.8-0.4-2.6-0.9
				c-0.8-0.5-1.5-1.1-2.1-1.8l0.1-0.1c0.7,1.1,1.2,2.2,1.5,3.4c0.3,1.2,0.5,2.5,0.4,3.7c-0.1,1.3-0.4,2.5-0.9,3.7
				c-0.5,1.2-1.2,2.3-2.2,3.1c-1,0.9-2.2,1.5-3.5,1.7c-1.3,0.2-2.7,0.1-3.9-0.3c-2.5-0.7-4.7-2.4-6.3-4.5l1.1,0.1
				c-1.8,1.6-4.1,2.7-6.6,2.8c-2.5,0.2-5.1-0.6-7-2.3c-1.9-1.7-3.1-4.2-3.3-6.7c-0.3-2.5,0.4-5.1,1.8-7.3l0.5,2
				c-1.3-0.6-2.5-1.7-3.3-3c-0.8-1.3-1.2-2.9-1-4.5c0.2-1.6,1.1-3.1,2.3-4.1c1.2-1,2.7-1.5,4.2-1.6l-0.8,2.7
				c-1.2-0.9-2.2-2.2-2.8-3.6c-0.5-1.5-0.8-3.1,0-4.9c0.2-0.4,0.5-0.9,0.9-1.2c0.4-0.4,0.9-0.6,1.3-0.7c0.9-0.3,1.7-0.3,2.5-0.2
				c1.6,0.2,3,0.9,4.2,1.8l-2.2,1c0.1-0.9,0.2-1.7,0.5-2.6c0.3-0.8,0.8-1.6,1.3-2.3c1.1-1.4,2.6-2.4,4.4-2.8
				c0.9-0.2,1.9-0.2,2.8,0.1c0.9,0.3,1.7,0.7,2.3,1.3c1.3,1.1,2.2,2.7,2.6,4.3l-1.8-0.1c0.8-2,2.3-3.8,4.3-4.7
				c1.9-1,4.2-1.2,6.2-0.5c2,0.6,3.7,2.1,4.7,4c1,1.8,1.2,4,0.7,6l-0.3-0.4c2.1,0.1,4.1,0.8,5.7,2c1.6,1.2,2.8,3,3.3,4.9
				c0.5,1.9,0.4,4-0.3,5.9C208.3,236.5,206.9,238.1,205.2,239.1z M205.2,239.1c1.7-1.1,3-2.7,3.7-4.6c0.7-1.8,0.8-3.9,0.3-5.8
				c-0.6-1.9-1.8-3.6-3.4-4.7c-1.6-1.1-3.5-1.8-5.5-1.7l-0.4,0l0.1-0.4c0.4-1.9,0-3.8-0.9-5.4c-0.9-1.6-2.5-2.8-4.2-3.2
				c-1.7-0.5-3.6-0.2-5.2,0.7c-1.5,0.9-2.7,2.3-3.2,4l-0.9,2.9l-0.9-2.9c-0.4-1.3-1.1-2.4-2.1-3.2c-1-0.8-2.1-1-3.3-0.7
				c-1.1,0.3-2.2,1.1-2.9,2c-0.4,0.5-0.6,1-0.8,1.6c-0.2,0.6-0.3,1.2-0.3,1.8l-0.1,2.5l-2-1.5c-0.9-0.6-1.9-1-2.8-1.1
				c-0.5,0-0.9,0-1.3,0.1c-0.2,0.1-0.3,0.1-0.4,0.2c-0.1,0.1-0.1,0.1-0.2,0.3c-0.3,0.6-0.2,1.7,0.1,2.6c0.4,0.9,1,1.7,1.9,2.4l3,2.3
				l-3.8,0.3c-0.9,0.1-1.9,0.4-2.6,1c-0.7,0.6-1.2,1.3-1.3,2.2c-0.1,0.9,0.1,1.8,0.6,2.6c0.5,0.8,1.2,1.5,2.1,2l1.4,0.7l-0.9,1.3
				c-1.1,1.6-1.7,3.6-1.5,5.5c0.1,1.9,0.9,3.9,2.3,5.3c1.4,1.4,3.3,2.2,5.4,2.1c2,0,4.1-0.8,5.7-2.1l0.7-0.5l0.4,0.7
				c1.3,2,3.2,3.5,5.4,4.3c2.2,0.8,4.8,0.6,6.6-0.9c1.8-1.5,3-3.9,3.2-6.3c0.1-1.2,0-2.5-0.3-3.7c-0.3-1.2-0.8-2.3-1.4-3.4l-0.3-0.5
				l0.4,0.4c0.6,0.7,1.3,1.3,2.1,1.8c0.8,0.5,1.7,0.8,2.6,0.9c0.9,0.1,1.9-0.1,2.7-0.5C203.7,240.2,204.5,239.7,205.2,239.1z"/>
		</g>
		<path class="st1" d="M205.2,239.1c-0.7,0.6-1.5,1.1-2.3,1.5c-0.8,0.4-1.8,0.6-2.7,0.5c-0.9-0.1-1.8-0.4-2.6-0.9
			c-0.8-0.5-1.5-1.1-2.1-1.8l0.1-0.1c0.7,1.1,1.2,2.2,1.5,3.4c0.3,1.2,0.5,2.5,0.4,3.7c-0.1,1.3-0.4,2.5-0.9,3.7
			c-0.5,1.2-1.2,2.3-2.2,3.1c-1,0.9-2.2,1.5-3.5,1.7c-1.3,0.2-2.7,0.1-3.9-0.3c-2.5-0.7-4.7-2.4-6.3-4.5l1.1,0.1
			c-1.8,1.6-4.1,2.7-6.6,2.8c-2.5,0.2-5.1-0.6-7-2.3c-1.9-1.7-3.1-4.2-3.3-6.7c-0.3-2.5,0.4-5.1,1.8-7.3l0.5,2
			c-1.3-0.6-2.5-1.7-3.3-3c-0.8-1.3-1.2-2.9-1-4.5c0.2-1.6,1.1-3.1,2.3-4.1c1.2-1,2.7-1.5,4.2-1.6l-0.8,2.7
			c-1.2-0.9-2.2-2.2-2.8-3.6c-0.5-1.5-0.8-3.1,0-4.9c0.2-0.4,0.5-0.9,0.9-1.2c0.4-0.4,0.9-0.6,1.3-0.7c0.9-0.3,1.7-0.3,2.5-0.2
			c1.6,0.2,3,0.9,4.2,1.8l-2.2,1c0.1-0.9,0.2-1.7,0.5-2.6c0.3-0.8,0.8-1.6,1.3-2.3c1.1-1.4,2.6-2.4,4.4-2.8c0.9-0.2,1.9-0.2,2.8,0.1
			c0.9,0.3,1.7,0.7,2.3,1.3c1.3,1.1,2.2,2.7,2.6,4.3l-1.8-0.1c0.8-2,2.3-3.8,4.3-4.7c1.9-1,4.2-1.2,6.2-0.5c2,0.6,3.7,2.1,4.7,4
			c1,1.8,1.2,4,0.7,6l-0.3-0.4c2.1,0.1,4.1,0.8,5.7,2c1.6,1.2,2.8,3,3.3,4.9c0.5,1.9,0.4,4-0.3,5.9
			C208.3,236.5,206.9,238.1,205.2,239.1z M205.2,239.1c1.7-1.1,3-2.7,3.7-4.6c0.7-1.8,0.8-3.9,0.3-5.8c-0.6-1.9-1.8-3.6-3.4-4.7
			c-1.6-1.1-3.5-1.8-5.5-1.7l-0.4,0l0.1-0.4c0.4-1.9,0-3.8-0.9-5.4c-0.9-1.6-2.5-2.8-4.2-3.2c-1.7-0.5-3.6-0.2-5.2,0.7
			c-1.5,0.9-2.7,2.3-3.2,4l-0.9,2.9l-0.9-2.9c-0.4-1.3-1.1-2.4-2.1-3.2c-1-0.8-2.1-1-3.3-0.7c-1.1,0.3-2.2,1.1-2.9,2
			c-0.4,0.5-0.6,1-0.8,1.6c-0.2,0.6-0.3,1.2-0.3,1.8l-0.1,2.5l-2-1.5c-0.9-0.6-1.9-1-2.8-1.1c-0.5,0-0.9,0-1.3,0.1
			c-0.2,0.1-0.3,0.1-0.4,0.2c-0.1,0.1-0.1,0.1-0.2,0.3c-0.3,0.6-0.2,1.7,0.1,2.6c0.4,0.9,1,1.7,1.9,2.4l3,2.3l-3.8,0.3
			c-0.9,0.1-1.9,0.4-2.6,1c-0.7,0.6-1.2,1.3-1.3,2.2c-0.1,0.9,0.1,1.8,0.6,2.6c0.5,0.8,1.2,1.5,2.1,2l1.4,0.7l-0.9,1.3
			c-1.1,1.6-1.7,3.6-1.5,5.5c0.1,1.9,0.9,3.9,2.3,5.3c1.4,1.4,3.3,2.2,5.4,2.1c2,0,4.1-0.8,5.7-2.1l0.7-0.5l0.4,0.7
			c1.3,2,3.2,3.5,5.4,4.3c2.2,0.8,4.8,0.6,6.6-0.9c1.8-1.5,3-3.9,3.2-6.3c0.1-1.2,0-2.5-0.3-3.7c-0.3-1.2-0.8-2.3-1.4-3.4l-0.3-0.5
			l0.4,0.4c0.6,0.7,1.3,1.3,2.1,1.8c0.8,0.5,1.7,0.8,2.6,0.9c0.9,0.1,1.9-0.1,2.7-0.5C203.7,240.2,204.5,239.7,205.2,239.1z"/>
		<path class="st1" d="M205.2,239.1c-0.7,0.6-1.5,1.1-2.3,1.5c-0.8,0.4-1.8,0.6-2.7,0.5c-0.9-0.1-1.8-0.4-2.6-0.9
			c-0.8-0.5-1.5-1.1-2.1-1.8l0.1-0.1c0.7,1.1,1.2,2.2,1.5,3.4c0.3,1.2,0.5,2.5,0.4,3.7c-0.1,1.3-0.4,2.5-0.9,3.7
			c-0.5,1.2-1.2,2.3-2.2,3.1c-1,0.9-2.2,1.5-3.5,1.7c-1.3,0.2-2.7,0.1-3.9-0.3c-2.5-0.7-4.7-2.4-6.3-4.5l1.1,0.1
			c-1.8,1.6-4.1,2.7-6.6,2.8c-2.5,0.2-5.1-0.6-7-2.3c-1.9-1.7-3.1-4.2-3.3-6.7c-0.3-2.5,0.4-5.1,1.8-7.3l0.5,2
			c-1.3-0.6-2.5-1.7-3.3-3c-0.8-1.3-1.2-2.9-1-4.5c0.2-1.6,1.1-3.1,2.3-4.1c1.2-1,2.7-1.5,4.2-1.6l-0.8,2.7
			c-1.2-0.9-2.2-2.2-2.8-3.6c-0.5-1.5-0.8-3.1,0-4.9c0.2-0.4,0.5-0.9,0.9-1.2c0.4-0.4,0.9-0.6,1.3-0.7c0.9-0.3,1.7-0.3,2.5-0.2
			c1.6,0.2,3,0.9,4.2,1.8l-2.2,1c0.1-0.9,0.2-1.7,0.5-2.6c0.3-0.8,0.8-1.6,1.3-2.3c1.1-1.4,2.6-2.4,4.4-2.8c0.9-0.2,1.9-0.2,2.8,0.1
			c0.9,0.3,1.7,0.7,2.3,1.3c1.3,1.1,2.2,2.7,2.6,4.3l-1.8-0.1c0.8-2,2.3-3.8,4.3-4.7c1.9-1,4.2-1.2,6.2-0.5c2,0.6,3.7,2.1,4.7,4
			c1,1.8,1.2,4,0.7,6l-0.3-0.4c2.1,0.1,4.1,0.8,5.7,2c1.6,1.2,2.8,3,3.3,4.9c0.5,1.9,0.4,4-0.3,5.9
			C208.3,236.5,206.9,238.1,205.2,239.1z M205.2,239.1c1.7-1.1,3-2.7,3.7-4.6c0.7-1.8,0.8-3.9,0.3-5.8c-0.6-1.9-1.8-3.6-3.4-4.7
			c-1.6-1.1-3.5-1.8-5.5-1.7l-0.4,0l0.1-0.4c0.4-1.9,0-3.8-0.9-5.4c-0.9-1.6-2.5-2.8-4.2-3.2c-1.7-0.5-3.6-0.2-5.2,0.7
			c-1.5,0.9-2.7,2.3-3.2,4l-0.9,2.9l-0.9-2.9c-0.4-1.3-1.1-2.4-2.1-3.2c-1-0.8-2.1-1-3.3-0.7c-1.1,0.3-2.2,1.1-2.9,2
			c-0.4,0.5-0.6,1-0.8,1.6c-0.2,0.6-0.3,1.2-0.3,1.8l-0.1,2.5l-2-1.5c-0.9-0.6-1.9-1-2.8-1.1c-0.5,0-0.9,0-1.3,0.1
			c-0.2,0.1-0.3,0.1-0.4,0.2c-0.1,0.1-0.1,0.1-0.2,0.3c-0.3,0.6-0.2,1.7,0.1,2.6c0.4,0.9,1,1.7,1.9,2.4l3,2.3l-3.8,0.3
			c-0.9,0.1-1.9,0.4-2.6,1c-0.7,0.6-1.2,1.3-1.3,2.2c-0.1,0.9,0.1,1.8,0.6,2.6c0.5,0.8,1.2,1.5,2.1,2l1.4,0.7l-0.9,1.3
			c-1.1,1.6-1.7,3.6-1.5,5.5c0.1,1.9,0.9,3.9,2.3,5.3c1.4,1.4,3.3,2.2,5.4,2.1c2,0,4.1-0.8,5.7-2.1l0.7-0.5l0.4,0.7
			c1.3,2,3.2,3.5,5.4,4.3c2.2,0.8,4.8,0.6,6.6-0.9c1.8-1.5,3-3.9,3.2-6.3c0.1-1.2,0-2.5-0.3-3.7c-0.3-1.2-0.8-2.3-1.4-3.4l-0.3-0.5
			l0.4,0.4c0.6,0.7,1.3,1.3,2.1,1.8c0.8,0.5,1.7,0.8,2.6,0.9c0.9,0.1,1.9-0.1,2.7-0.5C203.7,240.2,204.5,239.7,205.2,239.1z"/>
	</g>
	<g id="Elli">
		<path class="st1" d="M269.5,315.6c-0.2,5.7-0.6,11.4-1.2,17.1c-0.6,5.7-1.3,11.4-2.2,17c-1.8,11.3-4.1,22.5-7,33.6
			c-1.5,5.5-3,11.1-4.8,16.5c-0.9,2.7-1.9,5.4-2.8,8.1l-1.4,4.1l-0.4,1c-0.1,0.2-0.1,0.3-0.2,0.5c-0.1,0.2-0.2,0.5-0.3,0.7
			c-0.5,0.9-1.4,1.6-2.3,2c-1.9,0.7-3.9,0.4-5.5-0.6c-0.8-0.5-1.5-1.3-1.9-2.3c-0.2-0.5-0.3-1-0.4-1.5l-0.1-1.1
			c-0.3-2.9-0.5-5.8-0.6-8.6c-0.1-1.4-0.1-2.9-0.1-4.3l0.1-4.3l0.2-8.6l0.4-1c-0.1,0.1-0.2,0.2-0.2,0.3c-0.1,0.2-0.2,0.4-0.2,0.7
			c0,0.3,0.1,0.5,0.2,0.7c0.1,0.2,0.2,0.3,0.2,0.3l-0.4-1.1c0.3-5.5,0.9-10.9,1.6-16.4c0.7-5.4,1.6-10.8,2.6-16.2l0,0.2l0,0l0-0.1
			l0-0.1c1.3-6.9,2.9-13.7,4.8-20.4c1.8-6.7,4-13.4,6.4-19.9l0.1-0.4l0.4,0.1C259.5,313.2,264.5,314.4,269.5,315.6z M269.5,315.6
			c-5.1-0.8-10.1-1.7-15.1-3l0.5-0.3c-2.1,6.6-3.9,13.3-5.5,20.1c-1.6,6.7-3,13.5-4.2,20.4l0-0.2l0,0l0,0.1l0,0.1
			c-0.9,5.4-1.7,10.7-2.3,16.1c-0.6,5.4-1.1,10.8-1.3,16.2l-0.4-1.1c0.1,0.1,0.2,0.2,0.3,0.3c0.1,0.2,0.2,0.4,0.2,0.7
			c0,0.3-0.1,0.5-0.2,0.7c-0.1,0.2-0.2,0.3-0.2,0.3l0.4-1l-0.1,8.6l-0.1,4.3c0,1.4,0.1,2.8,0.1,4.2c0.1,2.8,0.3,5.6,0.6,8.5l0.1,1.1
			c0,0.2,0.1,0.4,0.2,0.6c0.2,0.4,0.4,0.7,0.8,1c0.7,0.5,1.9,0.7,2.7,0.4c0.4-0.2,0.7-0.4,0.9-0.8c0.1-0.1,0.1-0.2,0.1-0.3
			c0-0.1,0.1-0.3,0.2-0.5l0.4-1l1.4-4c0.9-2.7,1.9-5.3,2.8-8c1.8-5.4,3.4-10.8,5-16.3c3.1-11,5.7-22.1,7.8-33.3
			C266.8,338.3,268.4,327,269.5,315.6z"/>
		<path class="st1" d="M352.3,413.9c-0.3,3-1,5.9-2.1,8.7c-1.2,2.8-2.8,5.4-4.8,7.6c-2,2.3-4.4,4.2-7,5.7c-2.7,1.5-5.5,2.6-8.3,3.7
			c-11.4,4-23.6,5.5-35.6,5.3c-6-0.1-12.1-0.7-18-1.7c-3-0.5-6-1.3-8.9-2.6c-2.8-1.3-5.5-3-7.7-5.2c-2.3-2.2-4-4.9-5.2-7.9
			c-1.2-2.9-1.8-6.1-2-9.1l-1.2-18l0-0.2l0.1-0.2c4.5-13.7,8-27.7,10.8-41.9c2.8-14.1,4.8-28.4,5.7-42.8l0.1-1.7l1.7,0.3
			c5.1,1.1,10.2,2,15.2,3.6l-1.8,1c1-4.1,2.4-7.9,3.5-11.8c0.5-1.9,1-3.8,1.3-5.8c0.3-1.9,0.3-3.8,0-5.6l2.7-0.6
			c1.2,4.8,1.4,9.8,1.1,14.7c-0.4,4.9-1.3,9.7-3,14.4l-1.6-1.7c6.3-1.7,12.5-3.2,18.8-4.8c6.3-1.5,12.5-3.2,18.5-5.3l1.5,1.3
			c0,0,0,0,0-0.1l0-0.1c0.6,8.7,1.6,17.4,2.9,26c1.4,8.6,3.1,17.2,5.2,25.6c2.1,8.5,4.6,16.8,7.6,25c0.7,2.1,1.6,4.1,2.3,6.1
			c0.8,2,1.7,4,2.5,6c0.9,2,1.8,4,2.8,5.9C350.3,410.1,351.3,412,352.3,413.9z M352.3,413.9c-4.5-7.5-8.2-15.5-11.4-23.6
			c-3.2-8.2-5.9-16.5-8.2-25c-2.3-8.5-4.2-17-5.7-25.7c-1.5-8.6-2.6-17.3-3.3-26.1l0,0l0,0c0-0.1,0-0.2,0-0.4l1.5,1.3
			c-12.3,4.5-25,7-37.4,10.5l-2.4,0.7l0.9-2.4c1.6-4.3,2.5-9,2.8-13.6c0.3-4.6,0-9.3-1.1-13.8l2.7-0.6c0.4,2.2,0.4,4.4,0.1,6.5
			c-0.3,2.1-0.8,4.2-1.3,6.1c-1.1,4-2.5,7.8-3.4,11.7l-0.4,1.5l-1.5-0.4c-4.8-1.5-9.9-2.4-15-3.4l1.8-1.4
			c-0.4,7.3-1.2,14.5-2.2,21.7c-1,7.2-2.3,14.4-3.7,21.5c-2.9,14.2-6.5,28.3-11.1,42.1l0.1-0.5l1.1,17.9c0.2,2.9,0.7,5.7,1.7,8.4
			c1,2.7,2.5,5.1,4.5,7.1c2,2,4.4,3.7,7,4.9c2.6,1.2,5.4,2,8.3,2.5c5.8,1.1,11.8,1.7,17.7,1.9c6,0.2,11.9,0,17.8-0.8
			c5.9-0.7,11.8-1.9,17.4-3.8c2.8-1,5.6-2,8.2-3.4c2.6-1.4,5-3.3,7-5.4c2-2.2,3.7-4.7,4.9-7.4C351.1,419.8,351.9,416.9,352.3,413.9z
			"/>
		<path class="st1" d="M359.6,411.8c0,0.8-0.2,1.7-0.8,2.3c-0.5,0.6-1.3,1.1-2.1,1.3c-0.8,0.2-1.7,0.2-2.5,0c-0.8-0.2-1.5-0.8-2-1.5
			l0,0c-4.4-7.6-8-15.5-11.3-23.7c-3.2-8.1-6-16.5-8.4-24.9c-2.4-8.4-4.4-17-5.9-25.6l-1.1-6.5l-0.9-6.5l-0.7-6.5l-0.6-6.6l0,0
			l0-0.1c0-0.1,0-0.3,0-0.4l0.1-0.8l0.9-0.3l5.7-2.3l5.5-2.7l0.5-0.3l0.5,0.1c0.7,0.1,1.4,0.3,2.1,0.8c0.4,0.2,0.7,0.6,1,0.9
			c0.1,0.2,0.3,0.4,0.4,0.6l0.1,0.2l0,0.1l0.1,0.2l1.2,3.2c0.8,2.1,1.5,4.3,2.2,6.4c0.7,2.1,1.3,4.3,2,6.4c0.7,2.2,1.2,4.3,1.8,6.5
			c2.3,8.7,4.3,17.5,5.9,26.3c1.7,8.8,3,17.7,4.1,26.6C358.4,393.9,359.2,402.8,359.6,411.8z M359.6,411.8
			c-0.4-8.9-1.3-17.9-2.6-26.7c-1.3-8.9-3-17.6-5-26.4c-2-8.7-4.3-17.4-6.9-25.9c-1.3-4.3-2.7-8.5-4.2-12.7
			c-0.8-2.1-1.5-4.2-2.3-6.3l-1.2-3.1l-0.1-0.2l0-0.1l0,0c0,0,0-0.1-0.1-0.1c-0.1-0.1-0.1-0.1-0.2-0.2c-0.2-0.2-0.6-0.3-1-0.4l1-0.2
			l-5.7,2.9l-5.9,2.4l1-1.1c0,0,0-0.1,0-0.1l0-0.1l0.5,6.5l0.7,6.5l0.8,6.5l0.9,6.5c1.3,8.6,2.9,17.2,5,25.7
			c2,8.5,4.5,16.9,7.4,25.1c0.7,2.1,1.5,4.1,2.3,6.1c0.8,2,1.7,4,2.6,6c0.9,2,1.9,4,2.8,5.9c1,1.9,2,3.9,3.1,5.8l0,0
			c0.5,0.7,1.2,1.2,1.9,1.5c0.8,0.2,1.7,0.2,2.5,0c0.8-0.2,1.6-0.6,2.1-1.3C359.4,413.5,359.7,412.6,359.6,411.8z"/>
		<path class="st1" d="M347.5,299.6c-3.7,4.1-8.1,7.4-13,9.8l-3.7,1.9l-3.8,1.6c-2.5,1.1-5.1,2-7.7,2.8c-10.4,3.4-21.1,5.7-31.6,8.8
			L286,325l0.6-1.8c1.5-4.4,2.4-9.1,2.7-13.7c0.3-4.7,0-9.4-1.2-13.9l2.4-0.5c0.5,2.2,0.4,4.4,0.1,6.5c-0.3,2.1-0.8,4.1-1.3,6.1
			c-1.1,4-2.4,7.8-3.4,11.7l-0.3,1.4l-1.4-0.4c-4.3-1.3-8.8-2.2-13.3-3.1c-4.5-0.9-9-1.8-13.5-2.9c-4.5-1.1-9-2.4-13.3-4.4
			c-2.2-1-4.3-2.2-6.2-3.7c-1.9-1.5-3.7-3.4-4.9-5.6l-0.3-0.5l0.2-0.6c4.2-14.6,9.6-29,17.4-42.1l0.9-1.5l1.3,1.2
			c4.9,4.7,11.3,8,17.8,10.4c6.6,2.3,13.5,3.9,20.5,4.7c7,0.8,14.1,0.9,21.1,0.1c7-0.7,14-2.2,20.5-4.9l0.6-0.3l0.2,0.6
			c1.7,5.6,3.6,11.1,5.8,16.5c1.1,2.7,2.3,5.3,3.7,7.9C344.1,294.9,345.7,297.4,347.5,299.6z M347.5,299.6c-2-2.2-3.6-4.6-5.1-7.1
			c-1.5-2.5-2.8-5.2-4-7.8c-2.4-5.3-4.5-10.8-6.4-16.3l0.8,0.4c-6.6,3-13.7,4.6-20.8,5.5c-7.1,0.9-14.4,1-21.5,0.3
			c-3.6-0.3-7.2-0.8-10.7-1.6c-3.5-0.7-7-1.6-10.5-2.8c-6.8-2.4-13.5-5.7-18.9-10.8l2.2-0.3c-3.7,6.5-7,13.2-9.7,20.2
			c-2.8,7-5.1,14.1-7.2,21.3l-0.1-1.1c1,1.8,2.4,3.4,4.1,4.7c1.7,1.3,3.6,2.4,5.6,3.3c4,1.9,8.4,3.1,12.8,4.2
			c4.4,1.1,8.9,2,13.4,2.9c4.5,0.9,9,1.9,13.5,3.3l-1.7,1c1-4,2.4-7.9,3.5-11.7c0.6-1.9,1-3.8,1.3-5.8c0.3-1.9,0.3-3.8,0-5.6
			l2.4-0.5c1.1,4.8,1.4,9.8,1,14.6c-0.4,4.9-1.4,9.7-3.1,14.2l-1.2-1.3c5.3-1.4,10.6-2.7,15.9-3.9c5.3-1.3,10.6-2.5,15.8-4.1
			c2.6-0.8,5.2-1.5,7.7-2.6l3.8-1.4l3.7-1.7C339.1,306.6,343.7,303.5,347.5,299.6z"/>
		<path class="st1" d="M349.7,249.6c-0.2,3.3-1.6,6.5-3.7,9.1c-2.1,2.6-4.7,4.7-7.6,6.5c-5.7,3.5-12.1,5.7-18.6,7.1
			c-6.5,1.4-13.2,2.1-19.9,2.1c-6.7,0-13.4-0.6-20-1.9c-6.6-1.3-13.1-3.4-19.2-6.4c-3-1.5-6-3.3-8.6-5.6c-2.6-2.2-5-4.8-6.7-8.1
			c-1.6-3.2-2.4-7-1.6-10.6c0.7-3.6,2.8-6.8,5.2-9.3c5-5.1,11.4-8.1,17.8-10.1l3.8-1.2l-2.1,3.4c-2.6,4.2-4.5,9-5.7,13.9l-0.6-1.5
			c5,3.4,10.3,6.2,15.9,8.5c5.6,2.3,11.5,3.9,17.5,4.6c6,0.8,12.1,0.6,18.1-0.2c6-0.9,11.9-2.5,17.6-4.8l-0.2,0.2
			c0.9-2.7,1.5-5.6,1.6-8.5c0.2-2.9,0-5.8-0.7-8.6l-0.1-0.3l0.3,0.1c2.2,1.1,4.3,2.3,6.3,3.7c2,1.4,3.9,2.9,5.6,4.7
			c1.7,1.8,3.1,3.8,4.1,6C349.3,244.7,349.8,247.2,349.7,249.6z M349.7,249.6c0.1-2.4-0.5-4.9-1.5-7.1c-1-2.2-2.5-4.2-4.2-5.9
			c-3.4-3.5-7.5-6.1-11.9-8.3l0.2-0.2c1.5,5.7,1.1,11.7-0.5,17.3l0,0.2l-0.2,0.1c-5.6,2.4-11.6,4.3-17.6,5.4
			c-6.1,1.1-12.3,1.4-18.5,0.8c-6.2-0.6-12.3-2-18.1-4.2c-5.8-2.1-11.4-5.1-16.6-8.4l-0.8-0.5l0.2-1c1.2-5.2,3.1-10.2,5.9-14.8
			l1.7,2.2c-3.1,1-6.1,2.2-8.9,3.8c-2.8,1.5-5.5,3.4-7.7,5.6c-2.2,2.2-3.9,4.9-4.5,7.9c-0.7,2.9-0.2,6,1.2,8.8
			c1.3,2.8,3.5,5.2,5.9,7.3c2.4,2.1,5.1,3.9,8,5.5c5.8,3.1,12,5.3,18.5,6.8c6.4,1.5,13,2.3,19.7,2.5c6.6,0.2,13.3-0.3,19.8-1.5
			c6.5-1.3,12.9-3.4,18.7-6.8c2.8-1.7,5.5-3.8,7.6-6.4C348.1,256.1,349.5,253,349.7,249.6z"/>
		<path class="st1" d="M331.6,245.4c-5.6,2.6-11.5,4.5-17.5,5.6c-6.1,1.2-12.3,1.5-18.5,1c-6.2-0.6-12.3-2-18.1-4.2
			c-5.8-2.2-11.4-5.1-16.6-8.5l-0.8-0.5l0.2-1c1.1-4.7,2.8-9.4,5.3-13.7c1.2-2.1,2.7-4.1,4.2-6.1c1.6-1.8,3.4-3.6,5.3-5.1
			c3.8-3.1,8.3-5.4,13.1-6.8c4.7-1.3,9.7-1.9,14.6-1.4c1.2,0.1,2.4,0.3,3.7,0.5c0.6,0.1,1.2,0.3,1.8,0.4c0.6,0.1,1.2,0.3,1.8,0.4
			c2.4,0.6,4.7,1.5,6.9,2.6c4.4,2.2,8.3,5.3,11.3,9.2c3,3.9,4.8,8.6,5.3,13.4C333.9,236.1,333.1,240.9,331.6,245.4z M331.6,245.4
			c1.2-4.6,1.6-9.4,0.8-14c-0.8-4.6-2.8-9-5.7-12.5c-2.9-3.6-6.7-6.3-10.9-8.3c-2.1-0.9-4.3-1.8-6.5-2.3c-2.2-0.5-4.5-0.9-6.8-1
			c-9.2-0.6-18.5,2.2-25.6,8c-1.8,1.4-3.4,3.1-4.9,4.8c-1.4,1.8-2.8,3.6-4,5.6c-2.3,4-3.9,8.3-5,12.8l-0.6-1.5
			c5,3.3,10.3,6.2,15.9,8.5c5.6,2.2,11.4,3.8,17.4,4.6c6,0.8,12.1,0.7,18.1-0.1C319.9,249.1,325.8,247.5,331.6,245.4z"/>
	</g>
</g>
</svg>
