<?xml version="1.0" encoding="utf-8"?>
<!-- Generator: Adobe Illustrator 24.2.0, SVG Export Plug-In . SVG Version: 6.00 Build 0)  -->
<svg version="1.1" id="Ebene_1" xmlns="http://www.w3.org/2000/svg" xmlns:xlink="http://www.w3.org/1999/xlink" x="0px" y="0px"
	 viewBox="0 0 97 45" style="enable-background:new 0 0 97 45;" xml:space="preserve">
<style type="text/css">
	.st0{enable-background:new    ;}
</style>
<g class="st0">
	<path d="M24.5,12.7c-0.6,0.1-1.1,0.2-1.7,0.3c-0.2,0-0.4,0.2-0.4,0.4l0.9,8.8c0,0.4,0.1,0.8,0.2,1.3c0.1,1.1-0.2,1.6-1.3,1.7
		c-1.6,0.2-1.6-0.9-1.8-2.2c-0.1-0.9,0-0.9-0.1-1.9l-0.8-7.9c0-0.2-0.2-0.4-0.5-0.3C18.4,13,18.6,13,18,13c-0.6,0.1-2.6,0.3-2.7-0.7
		c-0.2-0.8,0.7-1.1,1.4-1.1c1.6-0.2,2.4-0.3,3.9-0.5c1-0.1,5.1-0.8,5.2,0.8C26,12.3,25,12.7,24.5,12.7z"/>
	<path d="M32.3,21.4c-0.3,0.6-0.8,1-1.5,1c-0.8,0.1-1.5-0.3-1.6-1.2c0-0.3,0-0.6-0.1-0.8L28.6,15c-0.1-0.7-0.2-1.4-0.3-2.2
		c0-0.4-0.1-0.7-0.1-1.1c0-0.7,0.7-1,1.3-1.1c1-0.1,1.6,0.2,1.7,1.3c0,0.3,0,0.6,0.1,1l0.3,2.9c0,0.3,0.2,0.4,0.5,0.4
		c0.7-0.1,1.4-0.2,2.1-0.4c0.2-0.1,0.3-0.2,0.3-0.5c-0.1-1.1-0.3-2.1-0.5-3.2c-0.1-0.4-0.2-0.7-0.3-1.1c-0.1-0.8,0.7-1.1,1.4-1.2
		c0.6-0.1,1.1,0.1,1.4,0.6c0.4,0.6,0.4,1.6,0.6,2.3c0.2,0.8,0.3,1.6,0.4,2.5c0.2,1.9,0.5,3.7,0.7,5.6c0.1,1.1-0.2,1.7-1.3,1.8
		c-1,0.1-1.5-0.3-1.6-1.3c0-0.4,0-0.8-0.1-1.1L35,18.3c0-0.2-0.3-0.3-0.5-0.3S34.2,18,33.9,18c-0.4,0.1-0.9,0.1-1.3,0.2h-0.3
		c-0.1,0-0.3,0.1-0.3,0.2l0.1,1.3c0,0.3,0.3,0.6,0.3,1.1C32.5,21,32.5,21.2,32.3,21.4z"/>
	<path d="M45.8,10.3c2.3,1.7,3.3,5.4,4.4,7.8c0.1,0.2,0.2,0.4,0.2,0.7c0.1,0.8-0.6,1.3-1.3,1.4c-1.6,0.2-1.6-1-2-2.1
		c-0.1-0.3-0.2-0.6-0.3-0.8c-0.1-0.1-0.1-0.2-0.2-0.2c-0.8,0.1-1.6,0.2-2.3,0.3c-0.1,0-0.2,0-0.3,0s-0.2,0.1-0.2,0.2
		c0,0.3-0.1,0.7-0.1,1c-0.1,1.1,0.4,2.4-1.4,2.6c-0.6,0.1-1.5-0.1-1.5-0.9c-0.2-1.7,0.2-3.6,0.6-5.3c0.2-1,0.4-2,0.6-2.9
		c-0.1-0.7-0.2-1.7,0.4-2.1c0.3-0.2,0.6-0.4,1-0.4C44.2,9.5,45,9.8,45.8,10.3z M44.3,13.2c0,0.2-0.3,1.7-0.3,1.8
		c0,0.2,0.2,0.3,0.3,0.3l0.9-0.1c0.2,0,0.3-0.1,0.3-0.3s-0.7-1.5-0.9-1.7c0-0.1-0.1-0.1-0.2-0.1C44.5,13,44.5,13.1,44.3,13.2z"/>
	<path d="M63.5,8.9c0.1,2.7,0.3,5.6-0.6,8.3c-0.2,0.5-0.6,0.8-1.1,0.9c-0.6,0.1-1.2-0.1-1.6-0.5c-1.3-1-2.4-2.3-3.6-3.3
		c-0.1,0-0.1-0.1-0.2-0.1c-0.1,0-0.1,0.1-0.1,0.2c-0.1,1.1-0.2,2.5-0.2,3.5s0.3,2.2-0.9,2.6c-0.1,0-0.3,0.1-0.4,0.1
		c-0.6,0.1-1.4-0.1-1.6-0.7c0-0.1,0-0.2-0.1-0.3c-0.1-0.5,0-1.1,0-1.6c0-2,0.1-4.1,0.5-6c0.1-0.7,0.6-1.1,1.3-1.1
		c1.7-0.2,4.2,2.3,5.4,3.4c0.1,0,0.1,0.1,0.2,0.1c0.1,0,0.1-0.1,0.1-0.2c0.2-1.6,0-4,0-5.6c0-0.8-0.1-1.5,0.8-1.9
		c0.2-0.1,0.4-0.1,0.5-0.1c0.9-0.1,1.5,0.3,1.6,1.2C63.5,8,63.5,8.4,63.5,8.9z"/>
	<path d="M69.3,18.9c-0.6,0.1-1.3-0.2-1.5-0.9c-0.7-3.1-0.9-6.3-1.5-9.4c0-0.1,0-0.2,0-0.3c-0.1-0.8,0.6-1.2,1.3-1.3
		c1.4-0.1,1.6,1,1.8,2.1c0,0.1,0,0.4,0.1,0.4s0.1-0.1,0.2-0.1c0.2-0.2,0.3-0.5,0.5-0.8c0.4-0.7,0.9-1.5,1.5-2.1
		c0.3-0.4,0.8-0.6,1.2-0.6c0.6-0.1,1.5,0.2,1.5,0.9c0,0.4-0.3,0.8-0.5,1c-0.8,1.1-1.5,2.4-2.3,3.6c-0.1,0.1-0.1,0.2-0.1,0.3
		s0.1,0.2,0.2,0.3c0.8,0.7,1.7,1.5,2.7,2c0.3,0.2,1.1,0.5,1.3,0.6c0.1,0.1,0.2,0.3,0.3,0.5c0.1,0.7-0.7,1.1-1.3,1.2
		c-1.8,0.2-4.2-2.3-4.4-2.2c-0.1,0-0.1,0.1-0.1,0.2c0.1,0.8,0.2,1.6,0.4,2.3c0.1,0.3,0.2,0.7,0.2,1C70.8,18.5,70.1,18.9,69.3,18.9z"
		/>
</g>
<g class="st0">
	<path d="M20.6,31c0.1-0.9,0.3-1.7,0.5-2.6c0.2-0.6,0.6-1,1.2-1.1c0.5-0.1,1.4,0.1,1.5,0.7c0,0.1,0,0.2,0,0.3
		c-0.2,0.8-0.4,1.6-0.5,2.4c-0.4,2.5-0.4,5-1,7.4c-0.2,0.8-0.4,1.3-1.3,1.4c-0.5,0.1-1.4-0.1-1.4-0.7c-0.2-0.5,0.1-1.1,0.2-1.8
		c0.1-0.4,0.4-2.8,0.4-3l0,0c-1.3-0.6-3.1-2.4-4.1-3.5c-0.2-0.2-0.5-0.6-0.5-0.9c-0.1-0.6,0.7-1,1.2-1.1c0.3,0,0.5,0,0.7,0.1
		c0.6,0.2,0.9,0.8,1.3,1.2c0.4,0.5,0.9,1,1.4,1.4C20.5,31.2,20.6,31.2,20.6,31z"/>
	<path d="M30.3,27c0.7-0.1,1.5,0,2.3,0c2.2,0.3,3.7,1.7,4.1,4c0.4,2.9-1.4,5.8-4.3,6.2c-3,0.4-5-1.7-5.4-4.5
		C26.5,30.2,27.5,27.4,30.3,27z M32.2,29c-0.3-0.1-0.7-0.1-1,0c-0.2,0-0.4,0-0.6,0c-0.1,0-0.2,0-0.3,0.1c-0.8,0.7-0.8,2.2-0.7,3.1
		c0.1,0.4,0.1,0.8,0.2,1.1c0.3,0.8,1.3,2.2,2.3,2c0.3,0,0.5-0.2,0.7-0.4c1-0.9,1.4-2.4,1.2-3.7C33.8,30.3,33.3,29.2,32.2,29z"/>
	<path d="M46,35c-0.6,0.7-1.5,1.1-2.4,1.2c-3.3,0.5-4.4-3-4.7-5.6c-0.2-1.2-0.2-2.5,0-3.6c0.1-0.7,0.5-1.1,1.2-1.2
		c0.6-0.1,1.4,0.1,1.5,0.8c0,0.1,0,0.2,0,0.4c-0.2,1.1-0.2,2.2-0.1,3.4c0.1,0.7,0.2,1.4,0.4,2.1c0.2,0.5,0.7,2,1.5,1.9
		c0.2,0,0.4-0.2,0.5-0.4c1.1-1.3,1-4.5,0.7-6c-0.1-0.5-0.1-0.9-0.2-1.4c-0.1-0.4-0.3-0.8-0.3-1.2c-0.1-0.8,0.5-1.1,1.2-1.2
		c0.6-0.1,1.1,0.1,1.4,0.7c0.3,0.8,0.5,1.7,0.6,2.6C47.7,29.7,47.7,33.3,46,35z"/>
	<path d="M59.2,23.8c2.1,1.5,3.2,4.8,4.3,7.1c0.1,0.2,0.2,0.4,0.2,0.6c0.1,0.8-0.5,1.2-1.2,1.3C61,33,61,31.9,60.5,30.9
		c-0.1-0.3-0.2-0.5-0.3-0.8c-0.1-0.1-0.1-0.2-0.2-0.2c-0.7,0.1-1.4,0.2-2.1,0.3c-0.1,0-0.2,0-0.3,0s-0.2,0.1-0.2,0.2
		c0,0.3-0.1,0.6-0.1,0.9c-0.1,1,0.4,2.2-1.2,2.4c-0.6,0.1-1.3-0.1-1.4-0.8c-0.2-1.6,0.1-3.3,0.3-4.9c0.1-0.9,0.3-1.8,0.4-2.7
		c0.1-0.6,0-1.5,0.5-1.9c0.3-0.2,0.6-0.4,0.9-0.4C57.7,23.1,58.5,23.4,59.2,23.8z M58,26.5c0,0.2-0.2,1.6-0.2,1.6
		c0,0.2,0.2,0.3,0.3,0.2l0.9-0.1c0.2,0,0.3-0.1,0.2-0.3c0-0.2-0.7-1.3-0.9-1.5c0,0-0.1-0.1-0.2-0.1C58,26.3,58,26.4,58,26.5z"/>
	<path d="M68.7,29.8l0.1,0.3c0.1,0.2,0.2,0.3,0.4,0.3l2.8-0.4c0.5-0.1,1.4,0.1,1.5,0.8c0,0.1,0,0.2,0,0.2c-0.2,0.8-1.3,0.9-2,1
		c-0.6,0.1-1.2,0.2-1.8,0.2c-0.4,0.1-0.8,0.1-1.2,0.2c-0.3,0-0.6,0.1-0.9,0c-0.8-0.1-0.9-0.5-1.2-1.1c-0.5-1.7-0.8-3.5-1.1-5.2
		c-0.1-0.8-0.2-1.6-0.3-2.4c0-0.2-0.1-0.4-0.1-0.6c-0.1-0.9,0.3-1.3,1.2-1.4c0.8-0.1,1.4,0.1,1.5,1c0,0.2,0,0.4,0.1,0.6
		C67.8,25.4,68.1,27.5,68.7,29.8z"/>
	<path d="M78.1,28.5l0.1,0.3c0.1,0.2,0.2,0.3,0.4,0.3l2.8-0.4c0.5-0.1,1.4,0.1,1.5,0.8c0,0.1,0,0.2,0,0.2c-0.2,0.8-1.3,0.9-2,1
		c-0.6,0.1-1.2,0.2-1.8,0.2c-0.4,0.1-0.8,0.1-1.2,0.2c-0.3,0-0.6,0.1-0.9,0c-0.8-0.1-1-0.4-1.2-1.1c-0.5-1.7-0.8-3.5-1.1-5.2
		c-0.1-0.8-0.2-1.6-0.3-2.4c0-0.2-0.1-0.4-0.1-0.6c-0.1-0.9,0.3-1.3,1.2-1.4c0.8-0.1,1.4,0.1,1.5,1c0,0.2,0,0.4,0.1,0.6
		C77.3,24.1,77.4,26.2,78.1,28.5z"/>
</g>
</svg>
