<?xml version="1.0" encoding="utf-8"?>
<!-- Generator: Adobe Illustrator 24.1.3, SVG Export Plug-In . SVG Version: 6.00 Build 0)  -->
<svg version="1.1" id="Ebene_1" xmlns="http://www.w3.org/2000/svg" xmlns:xlink="http://www.w3.org/1999/xlink" x="0px" y="0px"
	 viewBox="0 0 516.7 319.3" style="enable-background:new 0 0 516.7 319.3;" xml:space="preserve">
<style type="text/css">
	.st0{fill:#00B7D9;}
	.st1{fill:none;stroke:#000000;stroke-width:2;stroke-miterlimit:10;}
	.st2{stroke:#000000;stroke-width:6;stroke-miterlimit:10;}
	.st3{fill:#232323;}
	.st4{opacity:0.65;}
	.st5{fill:#6D6D6D;}
	.st6{fill:#00B7D9;stroke:#000000;stroke-width:7;stroke-miterlimit:10;}
	.st7{stroke:#000000;stroke-width:2;stroke-miterlimit:10;}
	.st8{fill:none;stroke:#000000;stroke-miterlimit:10;}
	.st9{fill:#C1C1C1;stroke:#000000;stroke-width:10;stroke-miterlimit:10;}
	.st10{fill:none;stroke:#000000;stroke-width:5;stroke-linecap:round;stroke-miterlimit:10;}
	.st11{fill:#686868;stroke:#000000;stroke-width:5;stroke-miterlimit:10;}
	.st12{fill:#565656;stroke:#000000;stroke-width:8;stroke-miterlimit:10;}
	.st13{fill:#919191;stroke:#000000;stroke-width:3;stroke-miterlimit:10;}
	.st14{fill:#494949;}
	.st15{fill:#242424;}
	.st16{fill:#919191;}
	.st17{fill:url(#SVGID_1_);}
	.st18{fill:#FFFFFF;}
	.st19{fill:#2E2E2E;}
	.st20{fill:#313131;}
	.st21{fill:#00B7D9;stroke:#333333;stroke-width:5;stroke-miterlimit:10;}
	.st22{fill:#00B7D9;stroke:#333333;stroke-width:3;stroke-miterlimit:10;}
	.st23{fill:#262626;}
	.st24{fill:#212121;}
	.st25{fill:#00B7D9;stroke:#000000;stroke-width:3;stroke-miterlimit:10;}
	.st26{fill:#3D3D3D;stroke:#000000;stroke-width:6;stroke-miterlimit:10;}
	.st27{fill:#00B7D9;stroke:#000000;stroke-width:2;stroke-miterlimit:10;}
	.st28{fill:#FFFFFF;stroke:#000000;stroke-miterlimit:10;}
	.st29{fill:#464943;stroke:#000000;stroke-miterlimit:10;}
	.st30{stroke:#000000;stroke-width:3;stroke-miterlimit:10;}
	.st31{fill:#BFBFBF;stroke:#000000;stroke-width:2;stroke-miterlimit:10;}
	.st32{fill:#242423;stroke:#000000;stroke-width:2;stroke-miterlimit:10;}
	.st33{fill:#A1C0FF;}
	.st34{fill:#646363;}
	.st35{fill:#00B7D9;stroke:#000000;stroke-width:6;stroke-miterlimit:10;}
	.st36{fill:#757575;}
</style>
<g>
	<g>
		<g>
			<path class="st34" d="M504.1,264.4c-0.5-80.2,2.8-160.4,9.9-240.3c-21.5,9.3-45.9,8.3-69.1,5.4c-4.2-0.5-9.3-0.7-11.6,2.8
				c-1.2,1.8-1.3,4-1.4,6.2c-1.1,39.3-2.2,78.7-3.4,118c-35.9,0.5-71.8-0.6-107.5-3.5c-30.7-2.5-61.4-6.2-92.2-6.4
				c-12.2-0.1-24.4,0.4-36.6,0.9c-22.9,0.9-45.9,1.8-68.8,2.8c-21.5,0.9-43.1,1.8-64,6.8c-0.5-17.9-4-35.8-10.3-52.5
				c-3.3-8.8-7.4-17.5-8.2-26.8c-0.8-10.3,2.6-20.3,5.1-30.3c3.7-14.5,5.7-29.5,6.1-44.5C41.6,4,31.3,5.2,20.9,6.3
				c-2.5,0.3-5.3,0.6-7.2,2.2c-2.8,2.3-3.3,6.3-3.5,9.9c-5.5,79.9-11,160.2-3.8,240c0.1,1.4,0.3,3,1.3,4c0.9,1,2.2,1.4,3.5,1.6
				c21.7,4.8,44-3.2,66.2-4.4c17-0.9,34,2.2,51,2.8c21.7,0.7,43.4-2.6,65.1-4c53.2-3.4,106.5,5.3,159.8,3.6
				c17.5-0.5,34.9-2.2,52.3-3.3c34.6-2.3,69.3-2.5,103.8-0.7"/>
			<g>
				<path d="M505.7,264.4c1-80.2,4-160.4,11-240.3c0.1-1.7-1.9-3.4-3.5-2.7c-16.7,7-34.7,8-52.6,6.8c-7.3-0.5-15.8-2.9-23.1-1.6
					c-6.7,1.3-8.4,6.6-8.6,12.8c-1.3,39-2.2,78-3.4,117c1-1,1.9-1.9,2.9-2.9c-48.8,0.7-97.2-2.6-145.8-6.9
					c-24.4-2.1-48.8-3.5-73.3-2.7c-24.1,0.7-48.3,1.9-72.4,2.9c-26.3,1.1-52.8,1.4-78.5,7.4c1.2,0.9,2.4,1.9,3.7,2.8
					c-0.4-12.9-2.2-25.8-5.6-38.3c-3.3-12.4-9.7-24-12.2-36.6c-2.7-13.4,2.8-26.5,5.7-39.5c2.9-13.1,4.5-26.4,4.9-39.8
					c0-1.4-1.4-3.1-2.9-2.9c-6.5,0.7-13,1.4-19.5,2.1c-5.8,0.6-13,0.3-18.4,2.8C5,9.2,6.9,24.1,6.3,32.3
					c-1.9,27.1-3.6,54.2-4.8,81.3c-1.2,27.1-1.8,54.2-1.3,81.4c0.2,13.9,0.9,27.8,1.7,41.6c0.4,6.6,0.9,13.2,1.5,19.8
					c0.4,4.5,1,8.4,5.7,10c10.8,3.6,23.9,2,35,0.5c13-1.8,26-4.5,39.2-4.5c13.8-0.1,27.5,2,41.2,2.8c13.2,0.7,26.3-0.1,39.4-1.3
					c27.7-2.4,55-3.8,82.8-2.7c27,1.1,53.9,3.4,80.9,3.9c30,0.6,59.8-2.5,89.7-4.1c30.7-1.6,61.4-1.6,92.1,0c3.8,0.2,3.7-5.6,0-5.8
					c-25.5-1.3-51-1.5-76.4-0.6c-25.7,0.9-51.2,3.6-76.8,4.6c-51.7,2-103.1-6.1-154.8-3.9c-25.7,1.1-51.2,5.6-76.9,4.2
					c-12.4-0.7-24.8-2.4-37.3-2.7c-12.3-0.3-24.4,1.6-36.5,3.6c-12.1,1.9-24.8,3.8-37,1.5c-2.6-0.5-3.6-0.3-4.6-3.3
					c-0.3-1-0.3-3-0.3-4c-0.3-3.3-0.5-6.6-0.8-9.9c-0.5-6.6-0.9-13.2-1.2-19.8c-1.3-25.7-1.3-51.6-0.7-77.3
					c0.7-29.1,2.2-58.2,4.1-87.3c0.9-14.3,1.2-28.8,2.9-43c0.5-3.7,1.5-6.5,5.4-7.6c3.4-0.9,7.5-0.9,11.1-1.3
					C37.1,7.4,44.5,6.6,52,5.8c-1-1-1.9-1.9-2.9-2.9c-0.4,13.8-2.1,27.5-5.3,41c-2.9,11.9-7.3,23.9-5.6,36.3
					c1.6,12.4,8,23.7,11.5,35.6c4,13.4,6.2,27.2,6.6,41.2c0.1,1.9,1.8,3.2,3.7,2.8c23.3-5.5,47.3-6,71.1-7c24.2-1,48.3-2,72.5-2.9
					c47.9-1.7,95,4.9,142.7,7.7c27.4,1.6,54.8,2.1,82.2,1.8c1.6,0,2.9-1.3,2.9-2.9c1-35.7,2-71.5,3-107.2c0.1-4-0.3-8.5,0.4-12.4
					c0.9-5.6,5.7-4.9,10-4.5c7.9,0.8,15.8,1.7,23.8,1.9c15.7,0.4,31.5-1.4,46.1-7.5c-1.2-0.9-2.3-1.8-3.5-2.7
					c-6.9,79.9-10.5,160.1-8.7,240.3C502.6,266.5,505.7,266.5,505.7,264.4L505.7,264.4z"/>
			</g>
		</g>
		<g>
			<path class="st0" d="M430.3,86.2c-27.7-9.5-59.9-4.8-83.7,12.3c-5.8,4.1-11.1,9-14.6,15.2c-3.5,6.2-4.8,13.8-2.5,20.5
				c1.6,4.4,4.6,8.1,8,11.2c12.7,11.6,31.7,15.9,48.1,10.9c5.3-1.6,10.2-4.1,15.1-6.8c5.8-3.2,11.4-6.9,16-11.7
				c9.1-9.5,13.4-23.3,11.3-36.3"/>
			<g>
				<path d="M432,83.4c-9.1-4.6-18-7.1-28.3-7.6c-9.8-0.4-19.7,0.7-29.2,3.3c-17.8,4.8-38.9,15.4-47.9,32.4
					c-4.6,8.8-5.6,19.4-0.8,28.4c4.4,8.4,13,14.9,21.4,18.8c19,8.8,38.6,5.8,56.4-4.3c9.9-5.5,19-12.5,24.5-22.6
					c5.4-9.9,7-20.8,5.4-31.9c-1.1-7.3-12.2-4.2-11.2,3.1c2.4,16.5-6.8,30.5-20.3,38.9c-14.1,8.8-29.1,13.6-45.4,8.1
					c-6.9-2.3-13.6-6.5-18.2-12.1c-5.4-6.6-5.2-14.8-1-22c7.9-13.3,25.1-21.5,39.4-25.5c17-4.7,35.3-4.1,52.6-1.1
					C432.8,90,435.5,85.2,432,83.4L432,83.4z"/>
			</g>
		</g>
		<g>
			<path class="st0" d="M330.8,113.3c7,27.1,14,54.2,20.9,81.3c2.1,8,3.9,17.2-1.4,23.9c-6.2,7.8-18.8,8.6-27.6,14.1
				c-11.2,7-14.8,21.1-26.4,27.7c-5.6,3.2-12.4,4.2-19,5.1c-14.2,2-28.6,4.3-41.3,10.3c-12.7,6-23.5,16.5-25.4,29.2
				c-0.6,4.1-2.9,10.1-7.3,8.6c-1.8-0.6-2.7-2.3-3.2-4c-3.6-9.8-2.1-20.9,3.9-29.7c2.5-3.7,5.7-7,7-11.1c2.7-9-5-17.7-13.3-23.4
				c-16.3-11.1-36.6-16.8-57-18.5c-12.6-1.1-26.7-1.3-35.4-9.5c-7.4-6.9-8.9-18.2-17.8-23.5c-4.8-2.9-11.1-3.5-15.4-6.9
				c-3.8-2.9-5.4-7.4-7.3-11.5c-4.6-10-11.7-19.2-15-29.6c-3.3-10.4-1.6-23.3,8.4-29.5c4.8-3,10.9-4,16.7-4.9
				c22.2-3.5,44.4-7,66.7-10.5c24.8-3.9,49.8-7.8,75-6.8c24.3,0.9,48.4,6.5,70.2,16.2c5.1,2.3,10.3,4.8,16.1,5
				c5,0.2,9.9-1.5,14.8-1.1c6.5,0.5,12.4,4.9,14.1,10.5"/>
			<g>
				<path d="M327.9,114.1c2.6,16.5,6.4,32.7,10.3,48.9c1.9,7.8,3.8,15.5,5.7,23.3c1.7,7,4.8,14.9,4.2,22.2
					c-1,12.6-18.3,13.4-27.1,18.4c-10.5,5.9-14.8,17.1-23.2,25.1c-4.7,4.5-10.8,6-17.1,7.1c-7.5,1.3-15.2,2.1-22.7,3.7
					c-13.6,2.7-27.1,7.3-37.9,16.2c-4.5,3.7-8.6,8.3-11.3,13.5c-1.3,2.5-2.5,5.2-3.2,8c-0.1,0.4-2,8.1-2.2,7.8
					c3.4,2.9,1.2-3.5,1.2-3.5c-0.4-1.6-0.6-3.2-0.7-4.9c-0.2-3.3,0.3-6.6,1.3-9.7c2.2-7,8.1-11.7,10.7-18.5
					c4.9-13-5.4-24.5-15.3-31.3c-11.7-8.1-25.5-13.3-39.3-16.3c-13.3-2.9-27.2-2.3-40.4-5.5c-5.6-1.3-10.6-3.7-14.1-8.4
					c-3.5-4.8-5.6-10.4-9.3-15.1c-3.8-4.8-8.5-7.4-14.1-9.4c-2.9-1-6.1-1.8-8.4-4c-2.6-2.4-3.7-6.2-5.2-9.3
					c-5.5-11.8-16-23.4-15.7-37.1c0.1-5,1.9-10.2,6-13.3c5.5-4.2,13.7-4.6,20.3-5.6c16.3-2.6,32.7-5.1,49-7.7
					c35.4-5.6,71.5-12.3,107.4-6.9c16.8,2.5,33.1,7.4,48.6,14.2c7.6,3.4,14.6,5.8,23,4.8c7.4-0.9,15.3-1.4,19.3,6.4
					c2.5,4.9,9.8,1.4,8.7-3.6c-1.5-6.5-5.9-11.3-12.1-13.7c-8.1-3.1-16,0.9-24.1-0.7c-7.5-1.5-14.6-5.9-21.8-8.6
					c-7.6-2.9-15.4-5.2-23.3-7.1c-33.8-8-67.7-5.3-101.7-0.2c-17.9,2.7-35.7,5.6-53.6,8.4c-8.8,1.4-17.6,2.8-26.5,4.2
					c-6.9,1.1-14,2.5-19.8,6.7c-10.4,7.7-13,21.6-9.7,33.6c2,7.4,5.9,14.1,9.7,20.7c3.7,6.4,6.2,13.7,10.4,19.8
					c4.5,6.5,10.9,8.1,17.8,11c6.1,2.6,8.7,7.9,11.8,13.4c3.1,5.6,6.7,10.6,12.1,14.1c5.8,3.8,12.8,5.3,19.6,6.2
					c15.2,2,30,2.6,44.7,7.3c7.4,2.4,14.6,5.5,21.2,9.6c5.6,3.4,13,8.4,14.4,15.2c0.8,3.8-1.5,6.8-3.6,9.7c-2.3,3.2-4.5,6.2-6.1,9.9
					c-2.9,6.7-4,13.9-3,21.2c0.9,6.1,3,13.9,9.9,15.2c6.4,1.2,10.7-4,12.4-9.5c2-6.2,2.6-11.5,7-16.7c4.5-5.3,10.3-9.3,16.6-12.3
					c14.9-7,31.4-7.7,47.3-10.9c6.9-1.4,13.3-4,18.6-8.6c4.7-4.1,8.1-9.4,11.7-14.4c3.7-5.1,7.9-9.2,13.8-11.7
					c5.9-2.5,12.4-3.9,17.9-7.4c13.3-8.5,11.8-23,8.3-36.4c-4.6-17.7-9.5-35.4-14.6-53c-2.5-8.7-5.3-17.2-8.4-25.7
					C332.3,108.8,327.3,110.3,327.9,114.1L327.9,114.1z"/>
			</g>
		</g>
	</g>
	<g>
		<g>
			<path d="M224.1,99.7c0.2,0,0.4,0,0.6,0c0.2,0,0.4,0,0.6-0.1c0.2-0.1,0.2-0.4,0-0.5c-0.2-0.1-0.4-0.1-0.6-0.1c-0.2,0-0.4,0-0.6,0
				C223.5,98.8,223.5,99.7,224.1,99.7L224.1,99.7z"/>
		</g>
	</g>
	<g>
		<g>
			<path d="M224.6,99.4c-3.1,0.9-4.1,4.2-5.3,6.9c-1.7,3.8-3,7.7-4.2,11.7c0.8-0.5,1.6-0.9,2.5-1.4c-10.1-1.7-20.2-3.4-30.3-5
				c-9.3-1.6-18.4-3.1-27.8-1.6c0.9,0.7,1.7,1.3,2.6,2c-0.3-4.9,1-8.9,1.7-13.7c0.3-1.8-1.9-2.8-3-1.2c-2.8,4.2-3.1,10-2.8,14.9
				c0.1,1.4,1.2,2.2,2.6,2c9.9-1.6,19.7,0.5,29.4,2.1c8.8,1.5,17.7,3,26.5,4.4c1.1,0.2,2.1-0.3,2.5-1.4c1.1-3.8,2.3-7.6,3.8-11.3
				c1.1-2.6,3-5.4,2.1-8.2C224.9,99.4,224.8,99.3,224.6,99.4L224.6,99.4z"/>
		</g>
	</g>
	<g>
		<g>
			<path d="M428.2,94.6c-4.2-2.3-7.7-3.5-12.6-2.7c-2.4,0.4-4.7,1.2-6.7,2.4c-1.6,0.9-3.5,3.4-5.2,3.7c-1.6,0.3-4.9-1.1-6.8-1.1
				c-2.3,0-4.6,0.5-6.8,1.3c-4.1,1.5-7.4,4.2-9.9,7.8c0.7-0.1,1.5-0.2,2.2-0.3c-7.3-7.2-20.5-5.7-25.3,3.7c0.9,0.4,1.9,0.8,2.8,1.2
				c0.7-1.8-0.3-3.7-2.3-4c-1.5-0.3-3,0.7-4.3,1.3c-2.9,1.5-5.8,3.1-8.6,4.6c-2.4,1.3-5.4,2.9-5.6,5.9c-0.1,2.2,1.2,4.1,3.4,3.9
				c0.8-0.1,1.3-1,0.7-1.6c-1-1.1,1.5-4.5,2.2-5.2c1.1-1,3-1.6,4.3-2.3c1.3-0.7,6.9-2.7,7.4-3.9c-0.8,1.8,1.7,3.3,2.6,1.5
				c4-7.3,14.6-9.3,20.7-3.2c0.7,0.7,1.7,0.4,2.2-0.3c4.9-6.8,13.8-9.2,21.5-6.1c0.5,0.2,1.1,0,1.5-0.4c5.2-5.9,14.8-8.1,22.2-5.2
				C428.4,96.1,428.9,95,428.2,94.6L428.2,94.6z"/>
		</g>
	</g>
	<g>
		<g>
			<path d="M427.8,101.9c-2.8,8.3-20.1,2.1-25.2,0.2c-0.8-0.3-1.8,0.3-2,1.1c-1,4-3,8.1-6.9,10c-4.6,2.2-11.7-1.1-9.7-7.1
				c0.6-1.7-2-2.7-2.8-1.2c-2.1,3.6-4.3,9.2-7.6,11.8c-3.9,3-9.5,0.7-10.6-4c-0.4-1.7-3.3-1.4-3.1,0.4c1.4,12-16.6,6.3-22.5,5.9
				c0.4,0.9,0.8,1.9,1.2,2.8c0.9-1.1,1.8-2.2,2.6-3.5c0.6-0.9-0.5-1.8-1.4-1.4c-1.2,0.7-2.2,1.4-3.3,2.2c-1.3,1-0.9,3,0.8,3.1
				c6.3,0.5,13.2,3.4,19.3,0.7c4-1.8,6.9-5.3,6.4-9.9c-1,0.1-2.1,0.3-3.1,0.4c1.2,4.8,5.8,8.1,10.8,7.7c7.1-0.6,10.2-9.6,13.3-14.7
				c-0.9-0.4-1.9-0.8-2.8-1.2c-2,5.8,3,11.6,8.9,12.1c7.5,0.5,12.2-6.9,13.9-13.2c-0.7,0.4-1.3,0.8-2,1.1c6.7,2.5,25.1,8.2,27.8-2.9
				C429.8,101.3,428.2,100.8,427.8,101.9L427.8,101.9z"/>
		</g>
	</g>
	<g>
		<g>
			<path d="M210.8,105.6c1.2,2.8,3.4,4.6,6.2,5.7c2.4,0.9,5.7,1.5,7.8-0.2c0.9-0.7,0.3-2-0.6-2.3c-1.9-0.7-4.1-0.2-6.1-0.9
				c-2.1-0.7-4-2.2-5.6-3.8C211.6,103.1,210.3,104.4,210.8,105.6L210.8,105.6z"/>
		</g>
	</g>
	<g>
		<g>
			<path d="M198.1,109.6c-1.4,4.7-2.9,10.1-2.9,15c0,0.7,1.1,1.1,1.5,0.4c2-4.5,2.9-10,3.5-14.8
				C200.4,108.8,198.5,108.2,198.1,109.6L198.1,109.6z"/>
		</g>
	</g>
	<g>
		<g>
			<path d="M188.6,110.3c-1.9,4.1-3.9,8.7-4.3,13.1c-0.1,0.9,1.2,1.1,1.6,0.4c2.4-3.6,3.8-8.5,4.9-12.6
				C191.1,110,189.1,109.1,188.6,110.3L188.6,110.3z"/>
		</g>
	</g>
	<g>
		<g>
			<path d="M174.4,110.5c-0.7,0.8-1.4,1.7-2,2.6c-0.5,0.9-1.2,1.9-1.5,2.9c-0.2,0.6,0.6,1,1,0.6c0.7-0.6,1.4-1.6,2-2.3
				c0.6-0.9,1.2-1.8,1.7-2.8C176,110.7,175,109.8,174.4,110.5L174.4,110.5z"/>
		</g>
	</g>
	<g>
		<g>
			<path d="M163.4,104.4c-4.5-0.8-9.6-0.1-12.6,3.7c-0.4,0.5-0.1,1.6,0.7,1.3c3.6-1.5,7.2-2.9,11.1-2.3
				C164.4,107.2,165.1,104.7,163.4,104.4L163.4,104.4z"/>
		</g>
	</g>
	<g>
		<g>
			<path d="M157.5,229.2c-2-4.1-5.3-7.5-8.1-11.1c-3.2-4-6.4-8-9.6-12c-1.5-1.8-3.8-3.9-4.8-6c-2-1.6-2-3.7,0.2-6.2
				c1.2-0.1,2.3-0.2,3.5-0.3c4.1-0.4,8.2-1.2,12.2-2.4c10.2-3,29.5-13.9,20-27.1c-0.4-0.5-1.1-0.1-0.8,0.5
				c6,12.3-6.6,20.1-16.4,23.5c-4.8,1.7-9.9,2.8-15,3.3c-2.3,0.2-5.8-0.2-7.8,1.3c-4.9,3.7,3.6,10.9,5.8,13.7c3.2,4,6.4,8,9.6,12
				c3.2,3.9,6.1,8.4,10,11.5C157,230.5,157.9,230,157.5,229.2L157.5,229.2z"/>
		</g>
	</g>
	<g>
		<g>
			<path d="M317.7,221.4c1-4.4,1.4-8.9,1.9-13.4c0.4-3.2,1.7-7.4-0.3-10.2c-3.2-4.4-11.5-6.5-16.4-8.3c-7.7-2.8-16.3-5.1-22.7-10.6
				c-6.9-6-5-18.4-8.8-26.2c-0.4-0.8-1.6-0.4-1.6,0.4c-0.1,4.6,1.6,9.3,2.6,13.8c0.7,3.2,1.1,6.9,2.6,9.9c2.6,5.2,9.1,8.2,14.1,10.4
				c7,3,14.4,4.8,21.4,8c1.5,0.7,4.3,1.6,5.4,2.8c2.1,2.4,1.9,5.2,1.6,8.1c-0.5,5-1.2,10.1-1.2,15.1
				C316.4,221.9,317.6,222.1,317.7,221.4L317.7,221.4z"/>
		</g>
	</g>
	<g>
		<g>
			<path d="M78.6,104.3c-4.4,4.2-8.9,8.4-12.9,13c-3,3.4-8.1,8.4-9.4,12.7c-1.2,4.1,2.5,5.6,5,8.2c4.5,4.6,6,10.2,7.9,16
				c0.3,1,1.7,0.8,1.8-0.2c0.4-3.6-0.6-7-2.2-10.2c-0.8-1.7-1.8-3.3-3-4.8c-1.4-1.8-3.4-3.1-4.7-4.9c-3.8-5.2,4.5-12.4,7.7-16.3
				c3.4-4.3,7-8.6,10.8-12.5C80.3,104.6,79.3,103.6,78.6,104.3L78.6,104.3z"/>
		</g>
	</g>
</g>
</svg>
