<?xml version="1.0" encoding="utf-8"?>
<!-- Generator: Adobe Illustrator 24.1.3, SVG Export Plug-In . SVG Version: 6.00 Build 0)  -->
<svg version="1.1" id="Ebene_1" xmlns="http://www.w3.org/2000/svg" xmlns:xlink="http://www.w3.org/1999/xlink" x="0px" y="0px"
	 viewBox="0 0 333.2 378.1" style="enable-background:new 0 0 333.2 378.1;" xml:space="preserve">
<style type="text/css">
	.st0{fill:#00B7D9;}
	.st1{fill:none;stroke:#000000;stroke-width:2;stroke-miterlimit:10;}
	.st2{stroke:#000000;stroke-width:6;stroke-miterlimit:10;}
	.st3{fill:#232323;}
	.st4{opacity:0.65;}
	.st5{fill:#6D6D6D;}
	.st6{fill:#00B7D9;stroke:#000000;stroke-width:7;stroke-miterlimit:10;}
	.st7{stroke:#000000;stroke-width:2;stroke-miterlimit:10;}
	.st8{fill:none;stroke:#000000;stroke-miterlimit:10;}
	.st9{fill:#C1C1C1;stroke:#000000;stroke-width:10;stroke-miterlimit:10;}
	.st10{fill:none;stroke:#000000;stroke-width:5;stroke-linecap:round;stroke-miterlimit:10;}
	.st11{fill:#686868;stroke:#000000;stroke-width:5;stroke-miterlimit:10;}
	.st12{fill:#565656;stroke:#000000;stroke-width:8;stroke-miterlimit:10;}
	.st13{fill:#919191;stroke:#000000;stroke-width:3;stroke-miterlimit:10;}
	.st14{fill:#494949;}
	.st15{fill:#242424;}
	.st16{fill:#919191;}
	.st17{fill:url(#SVGID_1_);}
	.st18{fill:#FFFFFF;}
	.st19{fill:#2E2E2E;}
	.st20{fill:#313131;}
	.st21{fill:#00B7D9;stroke:#333333;stroke-width:5;stroke-miterlimit:10;}
	.st22{fill:#00B7D9;stroke:#333333;stroke-width:3;stroke-miterlimit:10;}
	.st23{fill:#262626;}
	.st24{fill:#212121;}
	.st25{fill:#00B7D9;stroke:#000000;stroke-width:3;stroke-miterlimit:10;}
	.st26{fill:#3D3D3D;stroke:#000000;stroke-width:6;stroke-miterlimit:10;}
	.st27{fill:#00B7D9;stroke:#000000;stroke-width:2;stroke-miterlimit:10;}
	.st28{fill:#FFFFFF;stroke:#000000;stroke-miterlimit:10;}
	.st29{fill:#464943;stroke:#000000;stroke-miterlimit:10;}
	.st30{stroke:#000000;stroke-width:3;stroke-miterlimit:10;}
	.st31{fill:#BFBFBF;stroke:#000000;stroke-width:2;stroke-miterlimit:10;}
	.st32{fill:#242423;stroke:#000000;stroke-width:2;stroke-miterlimit:10;}
	.st33{fill:#A1C0FF;}
	.st34{fill:#646363;}
	.st35{fill:#00B7D9;stroke:#000000;stroke-width:6;stroke-miterlimit:10;}
	.st36{fill:#757575;}
</style>
<g>
	<g>
		<path class="st18" d="M240.9,328.2c0,0,9.7-8,11.4-25.6c0.2-2.4,0-4.5-1.3-5.7c-1.4-1.3-3.6-1.3-5.5-1.2
			c-16.9,0.8-33.8,1.6-50.6,2.4c-1.8,0.1-3.6,0.2-5.2,1c-2.6,1.4-4,4.5-4,7.4c-0.1,3,0.9,5.8,1.9,8.6c2.6,7.4,5.7,13,11.8,16.6
			c1,0.6,3.7,2.1,9.3,2.9C215.9,335.5,229.7,337.5,240.9,328.2z"/>
		<g>
			<path d="M241.4,329.1c6.2-4.7,9.7-12.3,11.4-19.7c1-4.4,3.1-12.3-2.3-14.7c-2.9-1.3-6.7-0.5-9.8-0.4c-5.2,0.2-10.4,0.2-15.6,0.5
				c-9.7,0.4-19.5,0.8-29.2,1.4c-5.9,0.3-11,2.2-11.9,8.8c-0.8,6.3,2.9,14.2,6.1,19.5c2.7,4.4,6.5,8.1,11.4,9.9
				c12.6,4.9,30.2,4.3,40.5-5c1.3-1.2-0.4-3.5-1.9-2.5c-10.6,7.3-25.6,9.1-37.7,4.2c-6.2-2.5-9.9-8.3-12.3-14.4
				c-1.4-3.7-3.4-8.3-2.2-12.3c1.7-5.8,10.1-4.6,14.8-4.8c8.4-0.4,16.9-0.7,25.3-1.2c4.5-0.3,9.1-0.7,13.6-0.9
				c1.6-0.1,3.8-0.6,5.4-0.2c5,1.1,4,4.6,3.4,8.3c-1.2,7.5-4.5,16.7-10.2,22.1C239.4,328.3,240.5,329.8,241.4,329.1z"/>
		</g>
	</g>
	<g>
		<g>
			<g>
				<path d="M214.4,244.1c0.4,0,0.4-0.7,0-0.7C213.9,243.5,213.9,244.1,214.4,244.1L214.4,244.1z"/>
			</g>
		</g>
		<g>
			<g>
				<path d="M212.4,240.7c1.9-2.8-2.3-5-4.7-4.1c-1,0.4-1.2,1.4-0.3,2.1c0.7,0.6,1.6,0.9,2.4,1.3c0.8,0.3,1.7,0.8,2.5,0.8
					c0.2,0,0.3-0.3,0.1-0.4c-0.8-0.5-1.8-0.7-2.7-1.1c-0.4-0.2-0.9-0.4-1.3-0.6c-0.5-0.3-1.9-0.9-0.4-1.6c0.8-0.4,2.3-0.1,3,0.4
					c1.1,0.6,1.7,1.9,1.1,3.1C212.1,240.8,212.3,240.9,212.4,240.7L212.4,240.7z"/>
			</g>
		</g>
		<g>
			<g>
				<path d="M216.3,240.3c0.6-0.8,1.3-1.2,2.2-1.6c0.3-0.1,0.6-0.2,1-0.3c0.7-0.2,1-0.4,1.2,0.4c0.2,0.8-0.2,0.8-1,1
					c-0.4,0.1-0.9,0.2-1.3,0.3c-0.9,0.1-1.8-0.1-2.7,0c-0.1,0-0.1,0.1,0,0.2c1,0.5,7.4,0.1,6.1-2c-0.5-0.8-1.9-0.5-2.7-0.2
					c-1.2,0.3-2.4,0.9-2.9,2.2C216,240.3,216.2,240.4,216.3,240.3L216.3,240.3z"/>
			</g>
		</g>
		<g>
			<g>
				<path d="M228.8,222.2C228.8,222.1,228.8,222.1,228.8,222.2C228.8,222.2,228.8,222.2,228.8,222.2
					C228.8,222.1,228.8,222.1,228.8,222.2c-0.1-0.1-0.1-0.2-0.1-0.2c0,0-0.1-0.1-0.1-0.1c-0.1,0-0.1-0.1-0.2-0.1
					c-0.1,0-0.1,0-0.2,0.1c-0.1,0.1-0.1,0.3,0,0.4c0,0,0.1,0.1,0.1,0.1c0,0,0,0,0.1,0.1c0,0,0,0,0.1,0c0.1,0,0.1,0,0.1,0
					c0,0,0,0,0,0c0,0,0,0,0,0c0.1,0.1,0.2,0,0.3,0C228.8,222.4,228.9,222.2,228.8,222.2L228.8,222.2z"/>
			</g>
		</g>
		<g>
			<g>
				<path d="M226.3,218.9c-0.3-1.5-1.2-2.7-2.6-3.3c-1.3-0.6-3.5-0.6-4.5,0.6c-0.9,0.9-0.1,1.8,0.8,2.2c1.7,0.8,4.1,0.6,6,0.6
					c0.2,0,0.2-0.4,0-0.4c-1.1,0-2.1,0-3.2,0c-0.6,0-1.2-0.1-1.8-0.2c-0.7-0.2-2.4-0.7-1.2-2c0.9-0.9,3-0.6,4-0.1
					c1.1,0.6,1.7,1.5,2.2,2.6C226.1,219.2,226.4,219.1,226.3,218.9L226.3,218.9z"/>
			</g>
		</g>
		<g>
			<g>
				<path d="M231.1,219.5c0.1-1.4,1.1-2.4,2.2-3.1c1-0.7,3.6-1.6,3.5,0.6c0,2.7-4.4,2.5-6.1,2.5c-0.1,0-0.2,0.2,0,0.3
					c1.6,0.3,3.8,0.2,5.3-0.7c1-0.6,1.8-2.1,1-3.2c-0.9-1.3-2.6-0.7-3.7-0.1c-1.4,0.8-2.5,2-2.5,3.7
					C230.8,219.7,231.1,219.7,231.1,219.5L231.1,219.5z"/>
			</g>
		</g>
		<g>
			<g>
				<path d="M244,269C244,269,244,269,244,269C244,269,244,269,244,269c0.1,0,0.1,0,0.2-0.1c0.1-0.1,0.1-0.2,0-0.3
					c-0.1-0.1-0.2-0.1-0.2,0c0,0-0.1,0.1-0.1,0.1c0,0,0,0.1,0,0.1c0,0,0-0.1,0-0.1c0,0,0,0,0,0.1C243.8,269,243.9,269.1,244,269
					L244,269z"/>
			</g>
		</g>
		<g>
			<g>
				<path d="M241.5,266c-0.8-1-3.1-1.5-3.9-0.1c-0.3,0.6,0.2,0.9,0.7,1.1c0.6,0.2,1.2,0.2,1.8,0.3c0.6,0.1,1.3,0.2,2,0.2
					c0.1,0,0.1-0.1,0-0.1c-0.6-0.2-1.3-0.3-1.9-0.4c-0.3-0.1-0.6-0.1-1-0.2c-0.5-0.1-0.8,0-1-0.5c-0.3-0.5,0-0.6,0.5-0.8
					c0.3-0.1,0.6-0.2,0.9-0.2c0.7,0,1.3,0.3,1.7,0.8C241.4,266.3,241.6,266.1,241.5,266L241.5,266z"/>
			</g>
		</g>
		<g>
			<g>
				<path d="M243.5,267c0.3-0.5,0.5-1.1,0.8-1.5c0.3-0.5,0.8-1,1.3-1.4c-0.1,0-0.2-0.1-0.2-0.1c0.1,1.1-0.3,1.9-1,2.7
					c-0.1,0.1,0,0.2,0.1,0.1c0.9-0.6,1.3-1.8,1.2-2.8c0-0.1-0.1-0.2-0.2-0.1C244.4,264.6,243.4,265.8,243.5,267
					C243.4,267,243.5,267,243.5,267L243.5,267z"/>
			</g>
		</g>
	</g>
	<g>
		<path class="st21" d="M269,28.2L53.7,34.1l4.9,328.7L274,349.4L269,28.2z M259.3,176.8l-88.8,2.1l2.7-136l84-2.3L259.3,176.8z
			 M161.3,43.1l-2.7,136l-90.6,2.1l-2-135.5L161.3,43.1z M68.1,194.2l90.1-2.1l-3.1,152.6L70.5,350L68.1,194.2z M167.2,344
			l3.1-152.2l89.3-2.1l2.3,148.3L167.2,344z"/>
		<path class="st22" d="M301,358.4L37.9,376.6c-3.6,0.3-6.8-2.5-7-6.1l-1.6-23.2c-0.3-3.6,2.5-6.8,6.1-7L298.5,322
			c3.6-0.3,6.8,2.5,7,6.1l1.6,23.2C307.4,355,304.7,358.1,301,358.4z"/>
		<path class="st23" d="M216,295.9c1.1,0.1,1.7-1.2,0.8-2c-3.5-3-8-6.2-13.7-9c-3.5-1.7-6.8-2.9-9.7-3.8c-0.7-0.2-1.5,0-1.9,0.6
			c-2.7,3.5-6.5,8.5-11.1,14.5C162,320,158.2,324,155.7,331.9c-1.3,4.2-2.5,10.2-1.7,18.1c0.2,2,3.1,2.1,3.5,0.1c0,0,0-0.1,0-0.1
			c1.9-9.1,5.7-13.8,24.7-38.6c5.8-7.5,6.6-8.7,8.9-10.3C199.2,295.4,209,295.2,216,295.9z"/>
		<path class="st23" d="M216.5,294.4c-0.1-3.1,9-7.6,17.7-6.9c6.8,0.6,6.6,3.9,17.7,7.1c6.9,2,9.6,1.5,12.1,4.2
			c3.4,3.6-0.1,7.2,2.6,13.2c2.4,5.2,5.4,4.1,10,11.1c1.4,2.1,3.7,5.7,4.5,10.8c0.7,4.7-0.1,8.6-0.8,10.8c-0.3-2.1-0.9-5.4-2.9-8.7
			c-0.7-1.1-2.9-4.7-11.6-10.5c-8.8-5.9-11.8-5.8-13.2-9.5c-1.6-4.2,1.2-6.6-0.3-10.5c-2.2-5.7-10.5-7.3-12.4-7.6
			c-8.7-1.5-13.2,3.1-20-0.3C218.6,297,216.5,295.9,216.5,294.4z"/>
		<path class="st24" d="M215.4,295.5c2.3-6.8,8.8-11.1,15.3-10.3c5.8,0.7,10.6,5.2,11.6,10c1.1,5.1-2.8,7-3.4,14.5
			c-0.5,5.3,1.3,6.5,2.9,14.5c0.8,4.2,2.7,13.2,0.8,22.9c-1.9,10.1-6.5,14-4.2,20c1.2,3.1,3.5,5.1,5.3,6.3c-2.9-0.4-6.5-1.3-8.4-4.2
			c-1.9-2.8-0.9-5.8-1.1-10.8c-0.1-4.1-1.1-7.4-3.2-14c-4.1-13.2-7.8-14.4-7.1-20.8c0.4-3.4,1.3-2.7,4.2-11.1
			c3.1-9.1,4.7-13.6,2.6-16.4C227.3,291.8,216.2,295.2,215.4,295.5z"/>
		<g>
			<g>
				<path d="M215.6,283.4c2.5-3.3-2.8-6.3-1.9-9.6c0.1-0.3-0.3-0.4-0.4-0.2c-2.3,3.3,3,6.1,1.6,9.4
					C214.6,283.5,215.3,283.9,215.6,283.4L215.6,283.4z"/>
			</g>
		</g>
		<g>
			<g>
				<path d="M214.7,263c0-0.7,0-1.3-0.1-2c0-0.2-0.3-0.2-0.4,0c0,0.7,0,1.3-0.1,2C214.2,263.3,214.7,263.3,214.7,263L214.7,263z"/>
			</g>
		</g>
		<polygon class="st11" points="309,169.7 210.6,208.4 203.4,18.5 309,18.5 		"/>
		<polygon class="st11" points="149.7,178 40.3,212 44.1,26.8 149.7,26.8 		"/>
		<g>
			<g>
				<path d="M225.4,281.1c1.7,0.1,2.3-1.4,2-2.9c-0.5-2-1.6-3.5-1.7-5.6c-0.1-1.9,0.4-3.7,0.4-5.6c0-0.3-0.4-0.3-0.5-0.1
					c-0.8,2.1-1,4.3-1,6.6c0,1,0,1.9,0.3,2.9c0.2,0.7,1.9,3.3,0.3,3.6C224.6,280.2,224.8,281.1,225.4,281.1L225.4,281.1z"/>
			</g>
		</g>
		<g>
			<g>
				<path d="M202.8,273.7c0.4-2.8-0.6-6-3.3-7.2c-0.2-0.1-0.4,0.1-0.3,0.3c1.5,2.2,2.9,4.3,3.4,6.9
					C202.5,273.9,202.8,273.9,202.8,273.7L202.8,273.7z"/>
			</g>
		</g>
		<g>
			<g>
				<path d="M199.1,264.3c1.5-1.8,2.5-4.2,1.9-6.5c-0.1-0.4-0.7-0.3-0.7,0.1c-0.1,2.2-0.2,4.2-1.6,6.1
					C198.6,264.2,198.9,264.5,199.1,264.3L199.1,264.3z"/>
			</g>
		</g>
		<g>
			<g>
				<path d="M251,283c0-0.7,0.1-1.5,0.1-2.2c0.2-0.2,0.3-0.3,0.5-0.5c0.3-0.4,0.5-0.6,0.8-1c0.4-0.6,0.6-1.4,0.6-2.1
					c0.2-1.8-0.6-3.6-1.4-5.1c-0.1-0.2-0.5-0.1-0.5,0.1c0.1,1.6,0.4,3.2,0.1,4.8c-0.3,1.6-1.7,2.6-2.1,4.2c-0.3,1.4,0.3,2.7,1.8,2.8
					C251.5,284.2,251.6,283.1,251,283L251,283z"/>
			</g>
		</g>
		<g>
			<g>
				<path d="M207.4,309.4c-1.9,1-5.3,2.6-5.6,5.1c-0.1,0.5,0.6,1,1.1,0.8c1.1-0.4,1.7-1.4,2.4-2.3c0.8-0.9,1.6-1.8,2.7-2.6
					C208.6,310,208.1,309,207.4,309.4L207.4,309.4z"/>
			</g>
		</g>
		<g>
			<g>
				<path d="M200.8,310.9c0.8,0.6,1.7,1.1,2.5,1.8c0.7,0.6,1.3,1.5,2.1,1.9c0.5,0.2,1.1-0.2,0.9-0.7c-0.3-1-1.4-1.9-2.2-2.5
					c-0.9-0.7-1.8-1.3-2.9-1.7C200.6,309.5,200.3,310.5,200.8,310.9L200.8,310.9z"/>
			</g>
		</g>
		<g>
			<g>
				<path d="M227.8,309.6c0.1-0.1,0.2-0.3,0.4-0.4c0.1-0.1,0.1-0.3,0-0.4c-0.1-0.1-0.3-0.1-0.4,0c-0.1,0.1-0.3,0.2-0.4,0.4
					c-0.1,0.1-0.1,0.4,0,0.5C227.4,309.7,227.7,309.7,227.8,309.6L227.8,309.6z"/>
			</g>
		</g>
		<g>
			<g>
				<path d="M226.7,308.5c-0.9,0.8-1.8,1.6-2.7,2.4c-0.8,0.7-1.9,1.6-1.8,2.8c0,0.5,0.4,0.9,0.9,0.9c1.2,0,2-1,2.7-1.8
					c0.8-0.9,1.6-1.8,2.3-2.8C229.1,308.9,227.8,307.6,226.7,308.5L226.7,308.5z"/>
			</g>
		</g>
		<g>
			<g>
				<path d="M227,313.5c-0.3-1.1-0.9-2-1.6-2.9c-0.6-0.9-1.2-1.7-2.3-2.1c-0.5-0.2-1,0.3-1,0.8c0.1,1.1,0.7,2,1.4,2.8
					c0.7,0.9,1.4,1.8,2.3,2.4C226.4,314.8,227.1,314.2,227,313.5L227,313.5z"/>
			</g>
		</g>
		<g>
			<g>
				<path d="M219,321.4c-0.6-2.5-2.5-4.4-5.3-3.6c-2.1,0.6-4.6,3.3-2.7,5.3c0.2,0.2,0.6,0.2,0.7,0c0.9-0.9,1.4-2.4,2.6-2.9
					c1.3-0.4,3.2,0.3,3.8,1.5C218.4,322.3,219.1,321.9,219,321.4L219,321.4z"/>
			</g>
		</g>
		<g>
			<g>
				<path d="M40.5,12.4c-1.9,1.6-1.7,4.7-1.9,7c-0.3,3-0.8,6.2,0.1,9.1c0.5,1.8,2.7,1.5,3.3,0c1.1-2.8,0.9-6.2,1-9.1
					c0-2.3,0.5-5.2-1.2-7C41.4,12.1,40.8,12.1,40.5,12.4L40.5,12.4z"/>
			</g>
		</g>
		<g>
			<g>
				<path d="M45.3,13.4c-0.6,5-1.5,11.1,0.6,15.8c0.4,0.9,2,0.9,2.5,0c2.1-4.7,1.2-10.8,0.6-15.8C48.7,11,45.6,11,45.3,13.4
					L45.3,13.4z"/>
			</g>
		</g>
		<g>
			<g>
				<path d="M53.7,14.5c-0.7,2.6-0.9,5.3-1.1,8c-0.2,2.6-0.5,4.9,0.8,7.3c0.7,1.2,2.4,1.1,3.1,0c1.5-2.2,1.3-4.7,1.3-7.3
					c0-2.7,0-5.3-0.5-8C57,12.6,54.1,12.8,53.7,14.5L53.7,14.5z"/>
			</g>
		</g>
		<g>
			<g>
				<path d="M61.5,12.9c-1.1,2.9-0.7,6.4-0.4,9.4c0.3,2.9,0.8,5.2,2.8,7.5c0.8,0.9,2.1,0.3,2.4-0.6c1-3,0.5-5.6,0.1-8.7
					c-0.4-2.7-0.6-5.5-1.8-8C63.9,11.1,62,11.7,61.5,12.9L61.5,12.9z"/>
			</g>
		</g>
		<g>
			<g>
				<path d="M69.7,15c-0.5,5.6-0.4,13.5,3.8,17.8c0.8,0.8,2.7,0.6,2.9-0.8c0.8-5.7-1.9-12.1-3.1-17.6C72.9,12.4,69.9,13,69.7,15
					L69.7,15z"/>
			</g>
		</g>
		<g>
			<g>
				<path d="M82,14.4c-0.7,3.3-0.7,6.5-0.1,9.8c0.4,2.2,0.9,7.1,4.1,7c2.6,0,2.5-3,2-4.8c-0.8-3.8-1.5-7.6-1.9-11.4
					C85.8,12.9,82.5,11.9,82,14.4L82,14.4z"/>
			</g>
		</g>
		<g>
			<g>
				<path d="M92.7,14.9c-1.6,5.5-0.5,13.4,3.2,17.8c0.7,0.8,2.2,0.4,2.4-0.6c0.5-2.8,0.2-5.2-0.2-8c-0.5-3-0.7-6.2-1.7-9.1
					C95.8,13.1,93.2,12.9,92.7,14.9L92.7,14.9z"/>
			</g>
		</g>
		<g>
			<g>
				<path d="M103.5,16.1c-2.7,5.6-0.5,16,4.5,19.7c1.1,0.8,2.5-0.3,2.5-1.4c0.1-3.2-1.3-6.2-2-9.2c-0.7-3-0.7-6.2-1.9-9.1
					C106.1,14.9,104.1,15,103.5,16.1L103.5,16.1z"/>
			</g>
		</g>
		<g>
			<g>
				<path d="M111.6,18.1c-0.3,6.1,0,14.5,4.8,19c1.1,1,2.7,0.2,2.8-1.1c0.2-3-0.8-6-1.4-8.9c-0.7-3.1-1.3-6.4-1.8-9.6
					C115.6,15,111.7,15.8,111.6,18.1L111.6,18.1z"/>
			</g>
		</g>
		<g>
			<g>
				<path d="M126.7,18c-0.5,2.9-0.2,5.8,0.2,8.7c0.4,2.8,0.8,5.4,2.7,7.6c1,1.1,2.9,0.5,3.3-0.9c0.7-2.5,0-4.8-0.4-7.3
					c-0.5-2.7-0.7-5.5-1.5-8.1C130.2,16.1,127.1,15.7,126.7,18L126.7,18z"/>
			</g>
		</g>
		<g>
			<g>
				<path d="M134.4,18.4c-0.6,2-0.6,4.3-0.3,6.4c0.3,2.1,0.5,4.3,2.4,5.5c0.9,0.6,2.5,0.3,3-0.8c0.8-1.9,0.2-3.5-0.2-5.5
					c-0.4-1.9-0.5-3.8-0.9-5.7C137.9,16.3,135,16.5,134.4,18.4L134.4,18.4z"/>
			</g>
		</g>
		<g>
			<g>
				<path d="M143.8,19.3c-0.1,2.1,0,4.2,0.2,6.3c0.2,2,0.3,3.8,1.6,5.3c0.8,1,2.5,0.6,3.1-0.4c1-1.7,0.8-3.8,0.7-5.7
					c-0.1-2.1-0.4-4.2-0.8-6.2C148,15.9,143.9,16.7,143.8,19.3L143.8,19.3z"/>
			</g>
		</g>
		<g>
			<g>
				<path d="M300.6,2.3c-0.7,3.7-1.3,7.4-1.6,11.1c-0.3,3.4-1.2,6.9,0.3,10.1c0.7,1.4,2.6,1.1,3.3,0c1.8-2.7,1.4-6.2,1.5-9.3
					c0.2-3.8,0.1-7.6,0-11.4C304,0.8,300.9,0.2,300.6,2.3L300.6,2.3z"/>
			</g>
		</g>
		<g>
			<g>
				<path d="M289,1c-1.8,4-2.2,8.4-2.5,12.7c-0.3,4.1-1.2,9.4,1.4,12.8c0.8,1,2.4,1.3,3.1,0c1.9-3.3,1-7.2,1.1-11
					c0.1-4.5,0.8-9.1,0.4-13.6C292.3,0.3,289.8-0.8,289,1L289,1z"/>
			</g>
		</g>
		<g>
			<g>
				<path d="M278.4,3.4c-1.8,3.7-2.2,7.8-2.4,11.9c-0.2,3.9-0.9,8.7,1.5,12.1c0.7,1.1,2.6,1.4,3.3,0c1.6-3.5,0.7-7.4,0.8-11.2
					c0-4.1,0.6-8.2,0-12.4C281.3,2.4,279,2.2,278.4,3.4L278.4,3.4z"/>
			</g>
		</g>
		<g>
			<g>
				<path d="M268,2.6c-1.4,4.1-1.9,8.4-2.2,12.8c-0.3,4.2-1,8.9,0.6,12.8c0.8,1.8,3.2,2,3.9,0c1.4-3.7,0.9-8,1-11.9
					c0.2-4.4,0.7-8.8,0.5-13.2C271.8,0.9,268.7,0.5,268,2.6L268,2.6z"/>
			</g>
		</g>
		<g>
			<g>
				<path d="M255.5,1.1c-2.3,7.6-4.4,19-1.6,26.6c0.6,1.7,2.8,1.7,3.4,0c1.5-4,1.2-8.2,1.3-12.3c0.1-4.6,0.3-9.2,0-13.8
					C258.5-0.2,256-0.7,255.5,1.1L255.5,1.1z"/>
			</g>
		</g>
		<g>
			<g>
				<path d="M243.5,5.8c-1,3.8-1.4,7.8-1.7,11.8c-0.2,3.6-0.6,7.3,1.2,10.5c0.6,1,2.2,1.1,2.8,0c1.7-3.1,1.3-6.3,1.4-9.7
					c0.1-4,0.2-8.1,0-12.1C247.1,4.2,244,3.6,243.5,5.8L243.5,5.8z"/>
			</g>
		</g>
		<g>
			<g>
				<path d="M228.2,5c-0.7,3.7-0.9,7.3-1,11.1c-0.1,3.4-0.7,7.1,1.2,10c0.7,1.2,2.4,1.2,3.1,0c1.8-3,1.3-6.7,1.2-10
					c-0.1-3.8-0.3-7.4-1-11.1C231.3,3.3,228.5,3.3,228.2,5L228.2,5z"/>
			</g>
		</g>
		<g>
			<g>
				<path d="M221.6,7.5c-1.1,3.3-1.1,6.9-1.1,10.4c0,3.3-0.3,6.6,1.3,9.5c0.6,1.2,2.7,1.4,3.3,0c1.3-3.1,0.9-6.2,0.7-9.5
					c-0.2-3.5-0.3-7.1-1.4-10.4C224,6.1,222,6.1,221.6,7.5L221.6,7.5z"/>
			</g>
		</g>
		<g>
			<g>
				<path d="M208.9,7.4c-0.7,3.6-1.1,7.1-1.3,10.7c-0.2,3.6-0.8,7.4,0.5,10.8c0.7,2,3.2,1.9,4,0c1.4-3.4,1-7.3,1-10.8
					c0-3.6-0.2-7.2-0.8-10.7C212,5.7,209.2,5.8,208.9,7.4L208.9,7.4z"/>
			</g>
		</g>
		<g>
			<g>
				<path d="M34.9,21.8c-5.9,0.4-11.7-1.7-17.5-2.3C12,18.9,6.4,18.7,1,19.7c-1.3,0.3-1.3,2-0.3,2.7c3.1,2.1,0.7,6.3,2.4,9.1
					c1.5,2.5,4.5,2.5,7,2.3c4-0.3,8-1,11.8-2.1c2.9-0.8,5.4-1.7,8.5-1.5c2.2,0.1,3.6,0.4,5.7-0.3c1.9-0.6,1.1-3.2-0.8-2.9
					c-3.8,0.6-7.2-0.3-10.9,1c-3.5,1.2-6.9,2.5-10.5,3.5c-1.3,0.4-3.3,1.2-4.6,1.3c-6.8,0.2-5.2-4.4-5.2-7.5c0-2.1-0.2-3.6-1.6-5.2
					c-0.3,0.8-0.7,1.7-1,2.5c6.2,0.2,12.3-0.2,18.5,0.7c5.2,0.7,10.1,2.3,15.3,0.7C36.3,23.6,36.2,21.7,34.9,21.8L34.9,21.8z"/>
			</g>
		</g>
		<g>
			<g>
				<path d="M305.3,13.3c4,1.1,8.4,0.4,12.4,0.3c4.7-0.1,9.5,0.2,14.2-0.3c-0.4-0.5-0.8-1-1.2-1.6c-0.3,2.3-1.8,3.6-2.7,5.6
					c-0.2,0.5-0.3,2.1-0.7,2.6c-1.4,2-3.9,1.8-5.8,1.5c-4-0.6-8.2-1-11.9,0.6c-1.1,0.5-0.4,2,0.6,2.1c3.4,0.3,6.8-0.4,10.2-0.3
					c1.9,0.1,4.7,1,6.4,0.2c1.3-0.6,1.6-1.3,2.1-2.5c0.7-1.6,0.5-3.6,1.4-5.2c0.7-1.3,1.8-2.4,2.7-3.7c0.5-0.6,0-1.6-0.7-1.8
					c-4.7-1.1-9.7-1.1-14.5-0.9c-4.1,0.1-8.9,0.2-12.6,2.2C304.7,12.4,304.8,13.2,305.3,13.3L305.3,13.3z"/>
			</g>
		</g>
		<g>
			<g>
				<path d="M199.4,20.5c-6.9-0.7-14-0.2-20.9,0.1c-2.6,0.1-5.2,0.1-7.7,0.7c-3.1,0.7-5.6,1.8-8.9,1.8c-0.7,0-1.2,0.9-0.6,1.4
					c1.6,1.3,2.7,1.5,4.7,1.2c3.5-0.4,6.8-1.5,10.5-1.7c7.7-0.4,15.6-0.5,23.1-2C200.6,21.8,200.2,20.5,199.4,20.5L199.4,20.5z"/>
			</g>
		</g>
		<g>
			<g>
				<path d="M199.4,26.3c-6.7-2.5-15.9-2.1-23.1-1.9c-6.8,0.2-14.5,1-20,5.2c-0.6,0.5-0.3,1.5,0.5,1.3c7.5-1.8,14.3-3.2,22.1-3.3
					c6.6,0,14.1,1.4,20.5-0.2C200,27.3,199.9,26.5,199.4,26.3L199.4,26.3z"/>
			</g>
		</g>
		<g>
			<g>
				<path d="M102.3,41.7c-4.8,7.8-9.4,15.7-14,23.6c-1.4,2.5-5,6.4-5.4,9.3c-0.2,1.7,0.6,2.3,1.6,3.8c4.4,7,5.6,15.6,7.3,23.5
					c0.4,1.8,0.9,3.7,1.2,5.4c0.4,3.6-0.9,5.7-1.7,9c-0.9,3.6-1.3,7.3-1.5,10.9c0,0.3,0.4,0.3,0.4,0c0.7-4.9,1.3-9.5,2.8-14.2
					c0.7-2.3,1-3.5,0.6-5.8c-1.1-7.4-2.8-15.5-5.4-22.5c-1-2.7-3.3-5.2-4.1-7.8c-1.2-3.9,3.5-9,5.3-12.1c4.5-7.6,9-15.2,13.3-22.8
					C102.7,41.7,102.4,41.5,102.3,41.7L102.3,41.7z"/>
			</g>
		</g>
		<g>
			<g>
				<path d="M96.1,53.5c-5.2,7.7-10.8,17.9-5.8,27c3.2,5.9,7.9,8.8,4.6,16.3c-1.5,3.4-3.3,6.3-2.6,10.1c0,0.2,0.3,0.1,0.3,0
					c-0.6-7.6,7.4-13,2.5-20.5c-3.1-4.8-6.6-8.1-6.3-14.4c0.4-6.8,4.1-12.6,7.6-18.3C96.4,53.4,96.2,53.3,96.1,53.5L96.1,53.5z"/>
			</g>
		</g>
		<g>
			<g>
				<path d="M270.7,38.5c-3.4,7.4-6.6,14.9-9.8,22.3c-1,2.3-2.5,4.8-2.9,7.3c-0.4,2.6,0.5,5.7,0.9,8.2c2.9,17.3,4.3,34.5,1.7,52
					c0,0.3,0.4,0.4,0.4,0.1c2.7-14.4,1.7-29.2-0.3-43.6c-0.5-3.9-1.3-7.7-1.9-11.5c-0.9-5.5,1.1-9.1,3.2-14.1
					c3-6.9,6.1-13.7,8.9-20.7C271.2,38.5,270.8,38.3,270.7,38.5L270.7,38.5z"/>
			</g>
		</g>
		<g>
			<g>
				<path d="M264.5,52.9c-3.6,5.7-3.9,12.2-3.4,18.8c0.3,4.3,1.2,8.6,1.1,12.9c-0.1,4.4-2.4,8.5-3.5,12.7c-1.9,7.4-2.6,15.2-2,22.8
					c0.7,8.4,4.1,16.3,4.4,24.7c0,0.3,0.4,0.3,0.4,0c0.4-7.8-3.2-15.3-4.1-22.9c-0.9-8.2-0.4-16.5,1.7-24.4
					c0.9-3.4,2.6-6.7,3.3-10.1c0.6-3.2,0.1-6.7-0.2-9.9c-0.8-8.4-1.8-16.7,2.5-24.4C264.8,52.9,264.6,52.7,264.5,52.9L264.5,52.9z"
					/>
			</g>
		</g>
		<g>
			<g>
				<path d="M238,35.4c-0.5,9.9-8.2,16.4-10.2,25.7c-1.2,5.8,0.3,11.6,3.8,16.3c0.1,0.2,0.5-0.1,0.3-0.2c-5.4-8-4.7-16.1-0.1-24.3
					c3.1-5.6,6.8-10.8,6.4-17.5C238.3,35.2,238.1,35.2,238,35.4L238,35.4z"/>
			</g>
		</g>
		<g>
			<g>
				<path d="M294.7,43.2c-1.3,1.5-1.1,2.9-0.2,4.6c2.9,5.7,5.6,10.2,2.3,16.5c-0.1,0.2,0.2,0.4,0.4,0.2c1.9-2.6,2.4-5.6,1.8-8.8
					c-0.7-3.5-5.9-9.3-4-12.4C295,43.3,294.8,43.1,294.7,43.2L294.7,43.2z"/>
			</g>
		</g>
	</g>
</g>
</svg>
