<?xml version="1.0" encoding="utf-8"?>
<!-- Generator: Adobe Illustrator 24.1.3, SVG Export Plug-In . SVG Version: 6.00 Build 0)  -->
<svg version="1.1" id="Ebene_1" xmlns="http://www.w3.org/2000/svg" xmlns:xlink="http://www.w3.org/1999/xlink" x="0px" y="0px"
	 viewBox="0 0 333.2 375" style="enable-background:new 0 0 333.2 375;" xml:space="preserve">
<style type="text/css">
	.st0{fill:#00B7D9;}
	.st1{fill:none;stroke:#000000;stroke-width:2;stroke-miterlimit:10;}
	.st2{stroke:#000000;stroke-width:6;stroke-miterlimit:10;}
	.st3{fill:#232323;}
	.st4{opacity:0.65;}
	.st5{fill:#6D6D6D;}
	.st6{fill:#00B7D9;stroke:#000000;stroke-width:7;stroke-miterlimit:10;}
	.st7{stroke:#000000;stroke-width:2;stroke-miterlimit:10;}
	.st8{fill:none;stroke:#000000;stroke-miterlimit:10;}
	.st9{fill:#C1C1C1;stroke:#000000;stroke-width:10;stroke-miterlimit:10;}
	.st10{fill:none;stroke:#000000;stroke-width:5;stroke-linecap:round;stroke-miterlimit:10;}
	.st11{fill:#686868;stroke:#000000;stroke-width:5;stroke-miterlimit:10;}
	.st12{fill:#565656;stroke:#000000;stroke-width:8;stroke-miterlimit:10;}
	.st13{fill:#919191;stroke:#000000;stroke-width:3;stroke-miterlimit:10;}
	.st14{fill:#494949;}
	.st15{fill:#242424;}
	.st16{fill:#919191;}
	.st17{fill:url(#SVGID_1_);}
	.st18{fill:#FFFFFF;}
	.st19{fill:#2E2E2E;}
	.st20{fill:#313131;}
	.st21{fill:#00B7D9;stroke:#333333;stroke-width:5;stroke-miterlimit:10;}
	.st22{fill:#00B7D9;stroke:#333333;stroke-width:3;stroke-miterlimit:10;}
	.st23{fill:#262626;}
	.st24{fill:#212121;}
	.st25{fill:#00B7D9;stroke:#000000;stroke-width:3;stroke-miterlimit:10;}
	.st26{fill:#3D3D3D;stroke:#000000;stroke-width:6;stroke-miterlimit:10;}
	.st27{fill:#00B7D9;stroke:#000000;stroke-width:2;stroke-miterlimit:10;}
	.st28{fill:#FFFFFF;stroke:#000000;stroke-miterlimit:10;}
	.st29{fill:#464943;stroke:#000000;stroke-miterlimit:10;}
	.st30{stroke:#000000;stroke-width:3;stroke-miterlimit:10;}
	.st31{fill:#BFBFBF;stroke:#000000;stroke-width:2;stroke-miterlimit:10;}
	.st32{fill:#242423;stroke:#000000;stroke-width:2;stroke-miterlimit:10;}
	.st33{fill:#A1C0FF;}
	.st34{fill:#646363;}
	.st35{fill:#00B7D9;stroke:#000000;stroke-width:6;stroke-miterlimit:10;}
	.st36{fill:#757575;}
</style>
<g>
	<g>
		<g>
			<g>
				<path d="M257.1,338.5c4.1-9.6,3.8-19.7,4.9-30c0.3-2.6,2.6-8.4,0.6-10.8c-2.1-2.6-8.3-1.7-11.1-1.7c-3,0-9.1-1.5-11.7,0.4
					c-2.4,1.7-2.2,7.8-2.3,10.3c-0.2,5.8,0.5,11.6,1,17.4c0.5,5.9,0.8,12,2,17.8c0.2,0.8,1.3,0.6,1.3-0.2c0.3-8.3-1.1-16.8-1.6-25.1
					c-0.2-4.2-0.4-8.4,0.1-12.6c-0.1-1.6,0.3-3,1.1-4.3c0.2-1.3,1.1-1.7,2.5-1.1c2-0.5,4.6-0.1,6.7-0.2c2.1,0,4.3-0.2,6.4-0.1
					c3.4,0.2,3.7,1.3,3.4,4.6c-0.3,3.3-1,6.7-1.3,10c-0.7,8.4-0.8,16.9-3,25.1C255.8,338.6,256.8,339.1,257.1,338.5L257.1,338.5z"/>
			</g>
		</g>
		<g>
			<g>
				<path d="M256,297.4c0.2-2.4,0.6-4.7,0.8-7.1c0.1-2,0.6-4.5,0.2-6.5c-0.5-2.7-3.9-2.3-6.1-2.3c-2.3,0-4.4-0.2-4.6,2.5
					c-0.1,2.1,0.5,4.3,0.5,6.4c0.1,2.1-0.6,4.4,0,6.5c0.1,0.4,0.7,0.7,1.1,0.3c1.4-1.7,1.3-4,1.3-6.2c0-1.4-0.1-2.8-0.2-4.3
					c0-0.6-0.3-1.6-0.2-2.1c0.3-1-1.1-0.2,0.7-0.6c1-0.2,2.9-0.2,3.9,0.1c1.2,0.4,0.8,0.2,1,1.3c0.1,0.7,0,1.5,0,2.2
					c0,3.3,0.3,6.5,0.5,9.8C254.8,298.2,255.9,298.2,256,297.4L256,297.4z"/>
			</g>
		</g>
		<g>
			<g>
				<path d="M260.7,308.7c-3-0.7-6.1-0.3-9.1-0.6c-4-0.3-7.7-1.4-11.7-2c-0.5-0.1-0.9,0.6-0.4,0.9c5.5,3.2,15.4,5.1,21.3,2.1
					C260.9,309.1,260.9,308.8,260.7,308.7L260.7,308.7z"/>
			</g>
		</g>
		<g>
			<g>
				<path d="M258.7,321.7c-4.6,1.8-9.5,0.6-14-0.9c-0.5-0.2-1,0.6-0.6,1c2.5,2.1,5.7,3,8.9,2.9c2.1-0.1,5.4-0.2,6.2-2.5
					C259.4,322,259,321.6,258.7,321.7L258.7,321.7z"/>
			</g>
		</g>
		<g>
			<g>
				<path d="M235.9,320.4c-6.6-2-13.3-3.2-20.2-4.1c-3.1-0.4-6.3-0.6-9.5-0.8c-0.2,0.3-0.5,0.5-0.7,0.8c0-0.2-0.1-0.3-0.2-0.4
					c-0.1,0-0.4-0.3-0.6-0.3c-1.6-0.5-2.2,2.2-0.7,2.4c10.5,1.5,21.1,2.3,31.6,3.5C236.4,321.6,236.5,320.6,235.9,320.4L235.9,320.4
					z"/>
			</g>
		</g>
		<g>
			<g>
				<path d="M204.9,317.3c0.6,0,0.6-1,0-1C204.3,316.4,204.3,317.3,204.9,317.3L204.9,317.3z"/>
			</g>
		</g>
		<g>
			<g>
				<path d="M204.3,315.8c-3.4,2.2-4.8,6.2-6.3,9.8c-0.9,2.2-2.1,4.5-2.7,6.8c-0.6,2.3,0.5,3.3,0.6,5.7c0,0.5,0.6,0.6,0.9,0.2
					c0.6-1,0.9-1.8,1-2.9c0.2-2.2,0.5-3.6,1.4-5.8c1.9-4.5,3.8-8.4,6.5-12.5C206.3,316.4,205.2,315.3,204.3,315.8L204.3,315.8z"/>
			</g>
		</g>
		<g>
			<g>
				<path d="M201.2,322.8c-5.6-3-11.4-4.9-17.3-6.9c-1-0.3-1.4,1-0.7,1.6c1.5,1.1-5.4,7-2.6,9.7c1.2,1.2,4.3,1.3,5.8,1.6
					c3.3,0.7,6.6,1.4,9.9,2c1.5,0.3,2.2-2,0.6-2.3c-2.9-0.5-5.7-1-8.6-1.5c-1.3-0.2-3.1-0.2-4.3-0.7c-1.4,0.2-2.1-0.4-2.1-1.9
					c0.2-0.5,0.5-1.1,0.7-1.6c1.2-2.1,4.4-4.7,1.2-6.7c-0.1,0.5-0.3,1.1-0.4,1.6c2.9,0.2,5.7,2.3,8.4,3.3c2.8,1.1,5.7,2.3,8.6,3.1
					C201.4,324.3,201.9,323.2,201.2,322.8L201.2,322.8z"/>
			</g>
		</g>
		<g>
			<g>
				<path d="M255.3,284.1c-1.3-0.1-2.6,0.4-4,0.5c-1.4,0-2-0.3-3.1-1c-0.6-0.3-1.4-0.1-1.5,0.6c-0.4,2,1.8,2.8,3.4,2.8
					c2,0.1,4.5-0.4,5.8-2C256.1,284.6,255.7,284.1,255.3,284.1L255.3,284.1z"/>
			</g>
		</g>
		<g>
			<g>
				<path d="M183.2,317.8c0.1,0,0.1,0,0.2-0.1c0.2-0.1,0.3-0.2,0.3-0.5c0.1-1.2-1.3-1.3-2.1-1c-1.8,0.7-2.8,3.1-3.1,4.9
					c-0.2,1.1-0.6,2-0.9,3.1c-0.2,0.7-0.1,1.2,0.3,1.8c0.9,1.2,2.7,1.4,3.9,0.8c0.7-0.3,0.3-1.2-0.3-1.2c-0.8-0.1-1,0-1.8-0.4
					c-1.1-0.6-0.6-1.2,0-2.1c0.5-0.6,0.9-1.1,1.2-1.9c0.4-1,0.7-1.8,1.5-2.6c0.3-0.3,1.1-1.3,1.1-1.3c-0.3,0-0.5,0-0.8,0
					c0-0.1,0-0.1,0-0.2C182.6,317.6,182.9,317.9,183.2,317.8L183.2,317.8z"/>
			</g>
		</g>
		<g>
			<g>
				<path d="M216.2,320c0.2,3,0.5,5.4-0.6,8.3c-1.1,2.8-3.1,4.9-4.5,7.5c-0.5,1.1,0.7,2,1.6,1.3c4.2-3.7,9.2-12.4,4.8-17.7
					C217.1,318.9,216.2,319.3,216.2,320L216.2,320z"/>
			</g>
		</g>
		<g>
			<g>
				<path d="M231.9,320.7c-0.3,2.7,0.4,5.2-0.1,8c-0.5,2.7-1.9,5-3.5,7.2c-0.4,0.6,0.4,1.4,1,1c4.4-3.2,8.1-12,3.8-16.6
					C232.6,319.8,231.9,320.2,231.9,320.7L231.9,320.7z"/>
			</g>
		</g>
	</g>
	<g>
		<g>
			<path class="st25" d="M59.2,349.4l215.3,13.4l4.9-328.7L64.1,28.2L59.2,349.4z M75.9,40.5l84,2.3l2.7,136l-88.8-2.1L75.9,40.5z
				 M267.3,45.7l-2,135.5l-90.6-2.1l-2.7-136L267.3,45.7z M262.7,350l-84.7-5.3l-3.1-152.6l90.1,2.1L262.7,350z M71.4,338.1
				l2.3-148.3l89.3,2.1L166,344L71.4,338.1z"/>
			<path class="st25" d="M45.7,373.5l263.7-6.6c3.6-0.1,6.5-3.1,6.4-6.8l-0.6-23.3c-0.1-3.6-3.1-6.5-6.8-6.4L44.8,337
				c-3.6,0.1-6.5,3.1-6.4,6.8L39,367C39.1,370.7,42.1,373.6,45.7,373.5z"/>
			<polygon class="st11" points="297.4,176.1 199,214.9 191.8,25 297.4,25 			"/>
			<polygon class="st11" points="130.4,165.9 31.9,204.6 24.8,14.7 130.4,14.7 			"/>
			<g>
				<g>
					<path d="M291.5,12.4c-1.7,1.8-1.3,4.6-1.2,7c0,3-0.2,6.4,1,9.1c0.6,1.5,2.8,1.8,3.3,0c0.9-2.9,0.3-6.2,0.1-9.1
						c-0.2-2.3,0-5.4-1.9-7C292.3,12.1,291.8,12.1,291.5,12.4L291.5,12.4z"/>
				</g>
			</g>
			<g>
				<g>
					<path d="M284.2,13.4c-0.6,5-1.5,11.1,0.6,15.8c0.4,0.9,2,0.9,2.5,0c2.1-4.7,1.2-10.8,0.6-15.8C287.6,11,284.5,11,284.2,13.4
						L284.2,13.4z"/>
				</g>
			</g>
			<g>
				<g>
					<path d="M275.8,14.5c-0.5,2.6-0.5,5.3-0.5,8c0,2.6-0.2,5,1.3,7.3c0.7,1.1,2.4,1.2,3.1,0c1.3-2.4,1-4.7,0.8-7.3
						c-0.2-2.7-0.3-5.4-1.1-8C279,12.8,276.2,12.6,275.8,14.5L275.8,14.5z"/>
				</g>
			</g>
			<g>
				<g>
					<path d="M268.5,12.5c-1.2,2.5-1.4,5.3-1.8,8c-0.4,3-1,5.7,0.1,8.7c0.3,0.9,1.7,1.5,2.4,0.6c1.9-2.3,2.4-4.6,2.8-7.5
						c0.4-3,0.7-6.5-0.4-9.4C271.2,11.7,269.2,11.1,268.5,12.5L268.5,12.5z"/>
				</g>
			</g>
			<g>
				<g>
					<path d="M259.8,14.5c-1.2,5.5-3.9,11.9-3.1,17.6c0.2,1.3,2.1,1.6,2.9,0.8c4.2-4.3,4.3-12.2,3.8-17.8
						C263.3,13.1,260.3,12.3,259.8,14.5L259.8,14.5z"/>
				</g>
			</g>
			<g>
				<g>
					<path d="M247.1,15c-0.4,3.7-0.9,7.3-1.8,10.9c-0.5,1.9-1,5.3,1.9,5.4c3,0.1,3.6-4.4,4-6.5c0.6-3.5,0.7-6.8,0-10.3
						C250.7,11.9,247.4,12.8,247.1,15L247.1,15z"/>
				</g>
			</g>
			<g>
				<g>
					<path d="M236.8,14.9c-1,2.9-1.2,6.1-1.7,9.1c-0.4,2.8-0.7,5.2-0.2,8c0.2,1,1.7,1.4,2.4,0.6c3.7-4.4,4.8-12.3,3.2-17.8
						C240,13,237.4,13.1,236.8,14.9L236.8,14.9z"/>
				</g>
			</g>
			<g>
				<g>
					<path d="M226.6,16.1c-1.2,2.9-1.2,6.1-1.9,9.1c-0.7,3-2.1,6-2,9.2c0,1.1,1.4,2.2,2.5,1.4c5-3.7,7.1-14.2,4.5-19.7
						C229.1,15,227.1,14.9,226.6,16.1L226.6,16.1z"/>
				</g>
			</g>
			<g>
				<g>
					<path d="M217.2,17.6c-0.4,3.2-1,6.4-1.8,9.6c-0.7,2.9-1.7,5.8-1.4,8.9c0.1,1.4,1.7,2.1,2.8,1.1c4.8-4.5,5.1-12.8,4.8-19
						C221.5,15.8,217.6,14.9,217.2,17.6L217.2,17.6z"/>
				</g>
			</g>
			<g>
				<g>
					<path d="M202.3,18c-0.9,2.6-1.1,5.4-1.5,8.1c-0.4,2.5-1.1,4.8-0.4,7.3c0.4,1.4,2.3,2,3.3,0.9c1.9-2.1,2.3-4.8,2.7-7.6
						c0.4-2.9,0.7-5.8,0.2-8.7C206.1,15.7,202.9,16.1,202.3,18L202.3,18z"/>
				</g>
			</g>
			<g>
				<g>
					<path d="M194.8,18.4c-0.4,1.9-0.5,3.8-0.9,5.7c-0.4,2-1,3.6-0.2,5.5c0.5,1,2.1,1.4,3,0.8c1.9-1.3,2.1-3.4,2.4-5.5
						c0.3-2.1,0.3-4.4-0.3-6.4C198.2,16.5,195.2,16.3,194.8,18.4L194.8,18.4z"/>
				</g>
			</g>
			<g>
				<g>
					<path d="M184.6,18.7c-0.4,2-0.7,4.1-0.8,6.2c-0.1,1.9-0.3,4,0.7,5.7c0.6,1,2.2,1.4,3.1,0.4c1.3-1.6,1.4-3.4,1.6-5.3
						c0.2-2.1,0.3-4.2,0.2-6.3C189.2,16.7,185.2,15.9,184.6,18.7L184.6,18.7z"/>
				</g>
			</g>
			<g>
				<g>
					<path d="M29.2,2.7c-0.1,3.8-0.2,7.6,0,11.4c0.1,3.2-0.3,6.6,1.5,9.3c0.7,1.1,2.6,1.4,3.3,0c1.5-3.2,0.6-6.7,0.3-10.1
						c-0.4-3.8-1-7.4-1.6-11.1C32.3,0.2,29.2,0.8,29.2,2.7L29.2,2.7z"/>
				</g>
			</g>
			<g>
				<g>
					<path d="M40.8,1.9c-0.4,4.5,0.3,9.1,0.4,13.6c0.1,3.7-0.8,7.6,1.1,11c0.7,1.3,2.3,1,3.1,0c2.5-3.4,1.6-8.8,1.4-12.8
						C46.5,9.4,46,5.1,44.2,1C43.4-0.8,40.9,0.3,40.8,1.9L40.8,1.9z"/>
				</g>
			</g>
			<g>
				<g>
					<path d="M51.7,3.9c-0.6,4.1,0,8.2,0,12.4c0,3.8-0.9,7.7,0.8,11.2c0.7,1.4,2.6,1.1,3.3,0c2.3-3.3,1.7-8.2,1.5-12.1
						c-0.2-4.1-0.6-8.2-2.4-11.9C54.2,2.2,51.9,2.4,51.7,3.9L51.7,3.9z"/>
				</g>
			</g>
			<g>
				<g>
					<path d="M61.3,3.1c-0.1,4.4,0.4,8.8,0.5,13.2c0.2,3.9-0.4,8.2,1,11.9c0.7,2,3.1,1.8,3.9,0c1.6-4,0.9-8.6,0.6-12.8
						c-0.3-4.3-0.8-8.6-2.2-12.8C64.5,0.5,61.4,0.8,61.3,3.1L61.3,3.1z"/>
				</g>
			</g>
			<g>
				<g>
					<path d="M74.5,1.6c-0.4,4.6-0.1,9.2,0,13.8c0.1,4.2-0.1,8.4,1.3,12.3c0.6,1.7,2.8,1.7,3.4,0c2.7-7.6,0.6-19-1.6-26.6
						C77.1-0.6,74.7-0.2,74.5,1.6L74.5,1.6z"/>
				</g>
			</g>
			<g>
				<g>
					<path d="M86,6.3c-0.3,4-0.1,8.1,0,12.1c0.1,3.4-0.3,6.6,1.4,9.7c0.6,1.1,2.2,1,2.8,0c1.8-3.3,1.4-6.9,1.2-10.5
						c-0.2-4-0.7-7.9-1.7-11.8C89.2,3.6,86.1,4.2,86,6.3L86,6.3z"/>
				</g>
			</g>
			<g>
				<g>
					<path d="M101.5,5c-0.7,3.7-0.9,7.3-1,11.1c-0.1,3.4-0.7,7.1,1.2,10c0.7,1.2,2.4,1.2,3.1,0c1.8-3,1.3-6.7,1.2-10
						c-0.1-3.8-0.3-7.4-1-11.1C104.7,3.3,101.9,3.3,101.5,5L101.5,5z"/>
				</g>
			</g>
			<g>
				<g>
					<path d="M108.8,7.5c-1,3.3-1.1,6.9-1.4,10.4c-0.2,3.3-0.7,6.4,0.7,9.5c0.6,1.4,2.7,1.2,3.3,0c1.7-3,1.4-6.2,1.3-9.5
						c0-3.5-0.1-7.1-1.1-10.4C111.1,6.1,109.2,6.1,108.8,7.5L108.8,7.5z"/>
				</g>
			</g>
			<g>
				<g>
					<path d="M121,7.4c-0.6,3.6-0.8,7.1-0.8,10.7c0,3.6-0.4,7.5,1,10.8c0.8,1.9,3.3,2,4,0c1.2-3.4,0.7-7.3,0.5-10.8
						c-0.2-3.6-0.6-7.2-1.3-10.7C123.9,5.8,121.2,5.7,121,7.4L121,7.4z"/>
				</g>
			</g>
			<g>
				<g>
					<path d="M298,24c5.1,1.7,10.1,0.1,15.3-0.7c6.2-0.9,12.3-0.6,18.5-0.7c-0.3-0.8-0.7-1.7-1-2.5c-1.2,1.4-1.5,2.7-1.6,4.6
						c-0.1,3.3,1.8,7.8-5.2,8.1c-1.4,0.1-3.3-0.9-4.6-1.3c-3.3-1-6.5-2.1-9.7-3.3c-4.1-1.4-7.5-0.7-11.7-1.3
						c-1.9-0.3-2.7,2.3-0.8,2.9c1.6,0.5,2.5,0.6,4.2,0.5c3.4-0.3,6,0.2,9.2,1.1c4.1,1.2,8.4,2,12.6,2.3c2.3,0.2,5,0.2,6.6-1.8
						c2.3-2.8-0.4-7.4,2.8-9.6c0.9-0.7,1-2.4-0.3-2.7c-5.3-1.1-10.9-0.9-16.3-0.3c-5.8,0.6-11.6,2.7-17.5,2.3
						C297,21.7,296.8,23.6,298,24L298,24z"/>
				</g>
			</g>
			<g>
				<g>
					<path d="M28,12.1c-3.7-2-8.5-2-12.6-2.2c-4.8-0.2-9.8-0.2-14.5,0.9C0.2,11-0.3,12,0.2,12.7c0.7,1,1.7,2,2.3,3.1
						c1.1,1.9,1,3.8,1.8,5.8c0.5,1.3,0.8,2,2.1,2.5c1.8,0.8,4.6-0.1,6.4-0.2c3.4-0.1,6.8,0.6,10.2,0.3c1-0.1,1.7-1.6,0.6-2.1
						c-3.8-1.6-7.9-1.2-11.9-0.6c-2,0.3-2.3,0.7-4.2-0.5c-2-1.3-1.5-1.6-2.3-3.5c-0.9-2.1-2.4-3.3-2.7-5.7c-0.4,0.5-0.8,1-1.2,1.6
						c4.7,0.5,9.5,0.2,14.2,0.3c4.1,0.1,8.5,0.8,12.4-0.3C28.4,13.2,28.5,12.4,28,12.1L28,12.1z"/>
				</g>
			</g>
			<g>
				<g>
					<path d="M133.6,22c7.5,1.5,15.4,1.6,23.1,2c3.6,0.2,6.8,1.1,10.3,1.6c2.1,0.3,3.3,0.1,4.9-1.2c0.6-0.5,0.1-1.4-0.6-1.4
						c-2.9,0.1-5.3-0.9-8.1-1.6c-2.8-0.7-5.7-0.8-8.5-0.9c-6.9-0.3-14-0.8-20.9-0.1C132.9,20.5,132.6,21.8,133.6,22L133.6,22z"/>
				</g>
			</g>
			<g>
				<g>
					<path d="M133.8,27.4c6.4,1.7,13.9,0.2,20.5,0.2c7.7,0,14.6,1.5,22.1,3.3c0.8,0.2,1.1-0.8,0.5-1.3c-5.5-4.2-13.2-5-20-5.2
						c-7.1-0.2-16.3-0.6-23.1,1.9C133.3,26.5,133.2,27.3,133.8,27.4L133.8,27.4z"/>
				</g>
			</g>
			<g>
				<g>
					<path d="M230.6,41.8c4.2,7.4,8.5,14.7,12.8,22c1.8,3,7.2,9.3,5.8,13c-0.9,2.6-3.1,5-4.1,7.8c-2.6,6.9-3.8,14.4-5.2,21.6
						c-0.6,2.8-0.4,4,0.4,6.7c1.5,4.7,2.1,9.3,2.8,14.2c0,0.3,0.4,0.3,0.4,0c-0.2-3.7-0.6-7.4-1.5-10.9c-0.8-3.3-2.1-5.4-1.7-9
						c0.2-1.8,0.8-3.7,1.2-5.4c1.7-7.9,2.8-16.6,7.3-23.5c1-1.5,1.8-2,1.6-3.8c-0.3-2.8-3.9-6.8-5.4-9.3c-4.6-7.9-9.2-15.8-14-23.6
						C230.7,41.5,230.5,41.7,230.6,41.8L230.6,41.8z"/>
				</g>
			</g>
			<g>
				<g>
					<path d="M236.8,53.6c3.2,5.4,7.1,11.1,7.5,17.5c0.5,6.6-3,10.1-6.3,15.2c-4.9,7.5,3,12.9,2.5,20.5c0,0.2,0.2,0.2,0.3,0
						c0.6-3.5-0.9-6.3-2.3-9.5c-1.7-3.9-2.3-7.1,0-10.9c1.3-2.1,3.1-3.9,4.3-6.1c5.1-9.1-0.6-19.4-5.8-27
						C237,53.3,236.7,53.4,236.8,53.6L236.8,53.6z"/>
				</g>
			</g>
			<g>
				<g>
					<path d="M62,38.7c2.8,6.6,5.7,13.2,8.6,19.8c2,4.6,4.6,8.9,3.8,14c-0.6,4.2-1.4,8.3-2,12.5c-2,14.4-3,29.2-0.3,43.6
						c0.1,0.3,0.5,0.2,0.4-0.1c-2.5-17.4-1.2-34.7,1.7-52c0.4-2.6,1.4-5.5,0.9-8.2c-0.3-2.2-1.6-4.4-2.5-6.4
						C69.3,54,66,46.2,62.4,38.5C62.3,38.3,62,38.5,62,38.7L62,38.7z"/>
				</g>
			</g>
			<g>
				<g>
					<path d="M68.4,53.1c4.3,7.7,3.4,16,2.5,24.4c-0.3,3-0.8,6.2-0.3,9.2c0.6,3.7,2.4,7.2,3.4,10.8c2.1,8,2.7,16.2,1.7,24.4
						c-0.9,7.7-4.5,15.2-4.1,22.9c0,0.3,0.4,0.3,0.4,0c0.3-8.4,3.7-16.3,4.4-24.7c0.6-7.6,0-15.4-2-22.8c-1.1-4.2-3.4-8.4-3.5-12.7
						c-0.1-4.3,0.7-8.6,1.1-12.9c0.5-6.6,0.2-13.1-3.4-18.8C68.6,52.7,68.3,52.9,68.4,53.1L68.4,53.1z"/>
				</g>
			</g>
			<g>
				<g>
					<path d="M94.8,35.4c-0.4,6.6,3.3,11.9,6.4,17.5c4.6,8.2,5.2,16.3-0.1,24.3c-0.1,0.2,0.2,0.4,0.3,0.2c3.6-4.6,5-10.5,3.8-16.3
						c-1.9-9.3-9.7-15.8-10.2-25.7C95.1,35.2,94.9,35.2,94.8,35.4L94.8,35.4z"/>
				</g>
			</g>
			<g>
				<g>
					<path d="M38.3,43.4c1.9,3.1-3.4,9-4,12.4C33.6,59,34.1,62,36,64.6c0.2,0.2,0.5,0,0.4-0.2c-3.3-6.4-0.6-10.9,2.3-16.5
						c0.9-1.7,1.1-3.1-0.2-4.6C38.4,43.1,38.2,43.3,38.3,43.4L38.3,43.4z"/>
				</g>
			</g>
		</g>
	</g>
</g>
</svg>
