<?xml version="1.0" encoding="utf-8"?>
<!-- Generator: Adobe Illustrator 24.1.3, SVG Export Plug-In . SVG Version: 6.00 Build 0)  -->
<svg version="1.1" id="Ebene_1" xmlns="http://www.w3.org/2000/svg" xmlns:xlink="http://www.w3.org/1999/xlink" x="0px" y="0px"
	 viewBox="0 0 522.2 416.4" style="enable-background:new 0 0 522.2 416.4;" xml:space="preserve">
<style type="text/css">
	.st0{fill:#00B7D9;}
	.st1{fill:none;stroke:#000000;stroke-width:2;stroke-miterlimit:10;}
	.st2{stroke:#000000;stroke-width:6;stroke-miterlimit:10;}
	.st3{fill:#232323;}
	.st4{opacity:0.65;}
	.st5{fill:#6D6D6D;}
	.st6{fill:#00B7D9;stroke:#000000;stroke-width:7;stroke-miterlimit:10;}
	.st7{stroke:#000000;stroke-width:2;stroke-miterlimit:10;}
	.st8{fill:none;stroke:#000000;stroke-miterlimit:10;}
	.st9{fill:#C1C1C1;stroke:#000000;stroke-width:10;stroke-miterlimit:10;}
	.st10{fill:none;stroke:#000000;stroke-width:5;stroke-linecap:round;stroke-miterlimit:10;}
	.st11{fill:#686868;stroke:#000000;stroke-width:5;stroke-miterlimit:10;}
	.st12{fill:#565656;stroke:#000000;stroke-width:8;stroke-miterlimit:10;}
	.st13{fill:#919191;stroke:#000000;stroke-width:3;stroke-miterlimit:10;}
	.st14{fill:#494949;}
	.st15{fill:#242424;}
	.st16{fill:#919191;}
	.st17{fill:url(#SVGID_1_);}
	.st18{fill:#FFFFFF;}
	.st19{fill:#2E2E2E;}
	.st20{fill:#313131;}
	.st21{fill:#00B7D9;stroke:#333333;stroke-width:5;stroke-miterlimit:10;}
	.st22{fill:#00B7D9;stroke:#333333;stroke-width:3;stroke-miterlimit:10;}
	.st23{fill:#262626;}
	.st24{fill:#212121;}
	.st25{fill:#00B7D9;stroke:#000000;stroke-width:3;stroke-miterlimit:10;}
	.st26{fill:#3D3D3D;stroke:#000000;stroke-width:6;stroke-miterlimit:10;}
	.st27{fill:#00B7D9;stroke:#000000;stroke-width:2;stroke-miterlimit:10;}
	.st28{fill:#FFFFFF;stroke:#000000;stroke-miterlimit:10;}
	.st29{fill:#464943;stroke:#000000;stroke-miterlimit:10;}
	.st30{stroke:#000000;stroke-width:3;stroke-miterlimit:10;}
	.st31{fill:#BFBFBF;stroke:#000000;stroke-width:2;stroke-miterlimit:10;}
	.st32{fill:#242423;stroke:#000000;stroke-width:2;stroke-miterlimit:10;}
	.st33{fill:#A1C0FF;}
	.st34{fill:#646363;}
	.st35{fill:#00B7D9;stroke:#000000;stroke-width:6;stroke-miterlimit:10;}
	.st36{fill:#757575;}
</style>
<g>
	<path class="st3" d="M399.8,208.1c12.6-2.2,25.4-3.4,38.2-3.4c1.7,0,3.7,0.1,4.9,1.2c1.1,1,1.3,2.6,1.4,4
		c3.6,47,6.4,94.1,8.2,141.2c0.1,1.5,0.1,3.1-1,4.2c-1.2,1.2-3.2,1.4-5,1.4c-13.5,0.3-27,0.7-40.5,1c2.9-25.9,4.7-51.8,5.5-77.8
		c-6.4,2.5-13.8,0.5-20.6-0.8c-9.6-1.9-19.4-2.6-29.2-3.3c-101-6.7-202.6-7.2-303.7-1.4c-5.1,23.8-7.4,48-6.8,72.2
		c-11.8,2.4-24.3,1.9-35.9-1.5C7.7,298.5,4,251.3,4.1,204.1c9.7,4,20.8,3.9,31.4,3.8c45.9-0.5,91.7-1,137.6-1.5
		c75.7-0.9,151.5-1.7,227.1,2"/>
	<g>
		<path d="M400.1,209.3c10-1.6,20.1-2.6,30.2-2.9c1.9-0.1,3.8-0.1,5.8-0.1c4.1,0,5.8,1.4,6.8,5.6c1,4.3,0.7,9.5,1,13.9
			c1.4,18.9,2.6,37.8,3.7,56.7c1.1,18.9,2,37.8,2.8,56.7c0.2,4,2.2,13.7-2.6,15.8c-1.8,0.8-5.2,0.2-7.1,0.2
			c-1.9,0.1-3.9,0.1-5.8,0.2c-9.6,0.3-19.3,0.6-28.9,0.8c0.5,0.5,1.1,1.1,1.6,1.6c2.9-25.9,4.7-51.8,5.6-77.8c0-1.1-1.1-2-2.2-1.7
			c-10.3,3.3-22.4-1.8-32.8-3c-10.7-1.2-21.6-1.8-32.4-2.4c-23.1-1.4-46.3-2.5-69.4-3.2c-46.3-1.5-92.7-1.7-139-0.5
			c-26.5,0.6-52.9,1.7-79.4,3.2c-0.9,0-1.8,0.6-2,1.5c-5.1,23.9-7.5,48.3-6.9,72.8c0.5-0.7,1.1-1.4,1.6-2.1
			c-11.6,2.2-23.3,1.7-34.7-1.5c0.5,0.5,1,1,1.5,1.5C9.7,298.2,6.1,251.2,6.2,204.1c-0.9,0.7-1.8,1.3-2.6,2c10.9,4.2,22.5,4,34,3.9
			c13-0.1,25.9-0.2,38.9-0.4c26.3-0.3,52.5-0.5,78.8-0.8c52.2-0.5,104.3-1.1,156.5-0.5c29.6,0.3,59.1,1.1,88.6,2.6
			c3.3,0.2,3.3-4.9,0-5.1c-103.5-5.1-207.3-2-310.9-0.7c-14.6,0.2-29.3,0.4-43.9,0.6c-13.6,0.2-27.9,1.4-40.9-3.6
			c-1.3-0.5-2.6,0.8-2.6,2c0,47.5,3.9,94.8,11.4,141.7c0.1,0.7,0.8,1.3,1.5,1.5c12.1,3.4,24.6,3.9,37,1.6c0.9-0.2,1.6-1.2,1.6-2.1
			c-0.5-24.1,1.7-48.1,6.6-71.7c-0.7,0.5-1.3,1-2,1.5c93.9-5.4,188-5.4,281.9-0.1c12.8,0.7,25.6,1.2,38.3,2.6
			c10.8,1.2,23,6,33.7,2.5c-0.7-0.6-1.5-1.1-2.2-1.7c-0.8,26-2.6,51.9-5.4,77.8c-0.1,0.9,0.8,1.6,1.6,1.6c8.7-0.2,17.4-0.4,26-0.6
			c4.2-0.1,8.4-0.2,12.5-0.3c2.6-0.1,5.7,0.1,7.8-1.7c1.5-1.3,1.7-3.1,1.8-5c0.2-4.5-0.4-9.2-0.6-13.7c-0.4-9-0.8-17.9-1.2-26.9
			c-0.9-17.9-1.9-35.8-3.1-53.7c-0.6-9-1.2-17.9-1.8-26.8c-0.3-4.3-0.6-8.6-1-12.9c-0.3-3.4,0.2-8-1.2-11.2
			c-2.5-5.8-13.1-3.4-17.8-3.2c-9.4,0.5-18.7,1.7-28,3.4C397.9,207.2,398.6,209.6,400.1,209.3L400.1,209.3z"/>
	</g>
</g>
<path class="st6" d="M100.7,19.7c26.1-3.7,53.7-6.6,82.8-8.4c74.8-4.6,142.3-0.7,200.4,6.9c3.6,20.2,6.4,42.6,7.9,67
	c2.3,38.2,0.6,72.6-2.6,101.8c-21.5-1.6-44.6-2.6-69.1-2.6c-22.7,0-44.2,0.8-64.4,2.1c0,0.3,1.4,15.2,1.5,15.5c0,0,0.1,1.4,0.1,1.4
	c24.3-0.5,49.5-0.4,75.4,0.3c15.8,0.4,31.3,1,46.4,1.8c-5.1,4-10.2,7.9-15.3,11.9c-45.6-2.6-94-3.6-145.1-2.4
	c-24.7,0.6-48.7,1.7-72,3.2c-4.7-4.3-9.3-8.6-14-12.9c22.5-1.3,45.8-2.1,69.9-2.4c12.6-0.1,25-0.1,37.2,0c0.2-5.8,0.4-11.6,0.5-17.4
	c-28-1.8-60.7-1.5-96.8,3.4c-14.9,2-28.9,4.7-41.9,7.6c-4.5-22.1-8.1-48.5-9-78.3C91.8,79.6,95.7,46.3,100.7,19.7z"/>
<path class="st7" d="M116.3,25.5c-2.6,18.7-4.5,39.4-5,62c-0.8,32.1,1.4,60.9,4.7,85.7c7-1.1,14.2-2.2,21.4-3.2
	c85.8-11.5,166.7-7.7,240.5,4.7c2.4-26.4,3-57.7-0.5-92.6c-2-19.2-5-37-8.4-53c-40.1-3.9-83.7-6.6-130.3-7.1
	C195.1,21.6,154.2,22.9,116.3,25.5z"/>
<g>
	<g>
		<linearGradient id="SVGID_1_" gradientUnits="userSpaceOnUse" x1="31.5212" y1="219.1702" x2="87.6791" y2="219.1702">
			<stop  offset="0" style="stop-color:#FFFFFF"/>
			<stop  offset="1" style="stop-color:#000000"/>
		</linearGradient>
		<path class="st17" d="M87.7,210.7c-7.9,1.1-20.1,2.2-28,2.6c-3.5,0.2-7.1,0.2-10.7,0.3c-5.8,0.1-11.6,0.1-17.5,0.2
			c0.5,4.5,1.7,8.9,3.7,12.9c7.8,0.4,15.5,1.9,23.3,1.2c2.6-0.2,5.3-0.7,7.9-1c5.2-0.5,10.5-0.1,15.7-0.8c0.5-0.1,1.1-0.2,1.5-0.6
			c0.4-0.4,0.5-0.9,0.5-1.4c0.8-4.6,2-9.2,3.5-13.6"/>
		<g>
			<path d="M87.7,209.6c-4-0.4-8.4,0.8-12.4,1.1c-4.3,0.4-8.7,0.7-13,1c-10.2,0.6-20.5,0.3-30.8,0.6c-0.6,0-1.4,0.6-1.3,1.3
				c0.6,4.8,1.8,9.2,3.8,13.6c0.2,0.5,0.8,0.7,1.2,0.7c6.5,0.5,12.9,1.6,19.4,1.5c6.2-0.1,12.4-1.4,18.6-1.5c3-0.1,9.2,1,11.5-1.6
				c1.2-1.4,1.3-4.5,1.6-6.2c0.7-3.2,1.6-6.2,2.7-9.3c0.6-1.8-2.3-2.6-2.9-0.8c-0.9,2.8-1.7,5.6-2.4,8.5c-0.3,1.3-0.3,3.2-0.9,4.3
				c-1,1.8-2.6,1.8-4.7,2.1c-5.5,0.6-11.1,0.4-16.7,1.1c-6.2,0.8-12.2,0.4-18.5-0.2c-4.2-0.3-6.6,0.1-8.4-4.2
				c-1.1-2.6-1.5-5.5-1.9-8.2c-0.4,0.5-0.8,1.1-1.2,1.6c10.5,0.1,21,0.1,31.5-0.6c4.4-0.3,8.7-0.7,13.1-1.1
				c3.9-0.4,8.2-0.2,11.9-1.6C89.1,211.2,88.9,209.8,87.7,209.6L87.7,209.6z"/>
		</g>
	</g>
	<g>
		<path class="st18" d="M79.9,209.7c3.5-3.2,6.9-6.7,10-10.3c-2.1-1.4-4.2-2.9-6.3-4.3c-1.3,4-3.7,7.5-6.1,10.9
			c-0.8,1.2-1.6,2.3-2.8,3.1c-0.9,0.6-2.2,1.2-2.4,2.3c2.2-0.4,4.4-0.8,6.7-1.2"/>
		<g>
			<path d="M80.2,210.3c4.1-2.6,7.4-6.3,10.5-10c0.5-0.6,0.4-1.3-0.2-1.8c-2.1-1.5-4.1-3.2-6.3-4.4c-0.7-0.4-1.6,0-1.8,0.7
				c-1,3.7-3.1,7.2-5.4,10.2c-1.7,2.2-4.2,3.5-5.6,5.8c-0.4,0.6,0.1,1.7,0.9,1.6c2.4-0.2,4.7-0.6,7-0.9c1.8-0.2,1.1-3.2-0.8-2.7
				c-2.2,0.5-4.4,1-6.6,1.6c0.4,0.4,0.9,0.9,1.3,1.3c0.3-1,2.5-2.1,3.3-2.8c0.9-1,1.7-2.2,2.4-3.4c2-3.3,4.1-6.2,5.7-9.7
				c-0.6,0.1-1.3,0.2-1.9,0.2c2.1,1.7,4.4,3,6.6,4.5c-0.1-0.6-0.2-1.2-0.2-1.8c-3.3,3.5-6.9,6.9-9.8,10.7
				C78.9,209.9,79.7,210.6,80.2,210.3L80.2,210.3z"/>
		</g>
	</g>
	<g>
		<g>
			<path d="M86.2,202c-1-0.9-2.6-2.2-4-2.1c-0.6,0-1.1,0.4-1.3,1c0-0.1,0.1-0.2,0.1-0.3c-0.3,0.2-0.3,0.6-0.2,0.9
				c0.1,0.3,0.3,0.5,0.6,0.7c-0.2-0.2-0.3-0.4-0.5-0.6c0.1,0.9,1.3,1.2,2,1.6c0.8,0.4,1.6,0.8,2.5,0.8
				C86.3,203.8,86.9,202.6,86.2,202L86.2,202z"/>
		</g>
	</g>
	<g>
		<path class="st18" d="M43.3,212.7c-4.9-6.8-9.4-13.8-13.5-21.1c0,1.3-1,2.4-2.1,3.2c-1.1,0.8-2.3,1.5-3.1,2.5
			c2.9,0.9,4.6,3.8,6.1,6.4c1.7,3,3.3,6,5,9c0.1,0.2,0.3,0.5,0.5,0.6c0.3,0.1,0.6,0,0.9-0.1c1.6-0.5,3.3-0.7,5-0.5"/>
		<g>
			<path d="M43.9,212.4c-3.6-7.5-8.9-14.2-12.9-21.5c-0.5-0.9-2-0.8-2.3,0.3c-0.5,2.1-3.3,3.6-4.8,5.2c-0.6,0.6-0.4,1.9,0.5,2.1
				c5.2,1.1,7,9.7,9.7,13.4c2.4,3.2,4.5,2,8.2,2.3c1.9,0.1,1.9-3,0-3c-1.7,0-3.9,0.8-5.3,0.2c-2-0.9-3.2-4.8-4.4-6.7
				c-2-3.4-4-6.3-7.3-8.4c0.1,0.6,0.2,1.3,0.3,1.9c2.1-2.2,4.6-3.2,5.5-6.3c-0.8,0.1-1.5,0.2-2.3,0.3c4,7.2,8.1,15.2,14.1,21
				C43.4,213.7,44.2,213.1,43.9,212.4L43.9,212.4z"/>
		</g>
	</g>
	<g>
		<g>
			<path d="M33.4,198.5c-1.3-0.7-3.7,0.1-3.4,1.8c0-0.2,0-0.3,0-0.5c-0.2,0.5-0.3,1.1,0.3,1.4c0.6,0.3,0.9-0.2,1.3-0.5
				c-0.2,0.1-0.4,0.2-0.7,0.3c0.6,0,0.8-0.4,1.3-0.7c0.3-0.2,0.7-0.3,1-0.4C33.8,199.8,33.9,198.8,33.4,198.5L33.4,198.5z"/>
		</g>
	</g>
	<g>
		<path class="st18" d="M67.2,213.1c-2.2-5.6-4.1-11.3-5.5-17c-0.3,0.8-1.3,1.2-2.3,1.4s-2.1,0.3-2.9,0.7c2,1.4,2.7,3.6,3.2,5.7
			c0.6,2.3,1.2,4.7,1.8,7c0,0.2,0.1,0.4,0.3,0.5c0.2,0.2,0.5,0.2,0.7,0.2c1.4,0.1,2.7,0.5,4,1.1"/>
		<g>
			<path d="M67.8,213c-0.9-5.8-3.5-11.5-4.9-17.1c-0.3-1.2-1.7-1.1-2.3-0.3c-0.9,1.2-3.2,1.1-4.5,1.6c-0.9,0.3-1.3,1.7-0.3,2.3
				c3.6,2,2.9,7.5,4.2,10.8c1,2.6,3.4,2.9,5.7,4c2,0.9,3.2-2,1.2-2.7c-0.8-0.3-1.5-0.5-2.4-0.7c-0.3-0.1-1,0.2-1.3,0.1
				c-1.4-0.7-1.6-4-2-5.3c-0.9-3-1.8-5.7-3.9-8c-0.2,0.7-0.4,1.4-0.5,2.1c2.1-0.8,4.3-0.6,5.8-2.4c-0.7-0.2-1.4-0.4-2.1-0.6
				c1.4,5.6,2.8,12.1,6.2,17C67.1,214.1,67.9,213.7,67.8,213L67.8,213z"/>
		</g>
	</g>
	<g>
		<g>
			<path d="M63,201.4c-0.4-0.6-1.1-0.9-1.8-0.9c-0.3,0-0.7,0.1-1,0.3c-0.3,0.2-0.5,0.5-0.6,0.8c-0.4,0.8,0.4,1.4,1.1,1.1
				c0,0.1-0.1,0.1-0.2,0c0.2,0,0.4,0,0.6,0c0.2,0,0.2-0.1,0.3-0.1c0.3,0,0.7,0,1,0C62.9,202.5,63.4,201.9,63,201.4L63,201.4z"/>
		</g>
	</g>
	<g>
		<path class="st18" d="M53.5,212.8c-0.8-7.5-1-15-0.3-22.5c-1.8,0.4-3.5,0.9-5.2,1.3c-0.7,0.2-1.6,0.5-1.8,1.2
			c-0.2,0.8,0.4,1.5,0.9,2.2c1.2,1.9,1.1,4.2,1.1,6.4c0,3.8,0.4,7.7,1.2,11.5c1-0.2,2.1-0.3,3.1-0.5"/>
		<g>
			<path d="M54.2,212.8c0.6-7.5-0.4-15,0.2-22.5c0.1-0.8-0.9-1.5-1.7-1.3c-3.1,1.1-8.4,0.9-7.6,5.3c0.3,1.7,1.3,2.2,1.7,4.5
				c0.2,1.5,0.1,2.9,0.2,4.3c0.1,3.1,1.4,6.8,1.2,9.8c0,0.5,0.5,1.1,1,1c1-0.1,2.1-0.2,3.1-0.3c1.6-0.2,1.3-2.6-0.3-2.3
				c-1.6,0.3-1.9,0.1-2.3-1.7c-0.3-1.2-0.3-2.8-0.4-4.1c-0.2-2.3,0-4.6-0.2-6.8c-0.1-1.1-0.5-2-0.8-3.1c-0.3-1.6-0.9-2.1,0.6-3.2
				c0.9-0.7,3.4-0.8,4.4-0.9c-0.6-0.4-1.1-0.8-1.7-1.3c-0.5,7.3-1.2,15.6,0.9,22.7C53,213.9,54.2,213.6,54.2,212.8L54.2,212.8z"/>
		</g>
	</g>
	<g>
		<g>
			<path d="M51.7,195.6c-1.1,0.2-3.5,0.5-3.5,2c0-0.2,0.1-0.3,0.1-0.5c-0.1,0.2-0.2,0.4-0.2,0.7c0,0.2,0.1,0.4,0.3,0.5
				c0.7,0.4,1.2,0.3,1.9,0c0.6-0.3,1.2-0.5,1.9-0.7C53.6,197.3,53,195.4,51.7,195.6L51.7,195.6z"/>
		</g>
	</g>
	<g>
		<path class="st18" d="M65.6,214c3-4.1,6.6-7.9,10.5-11.2c-1.2-0.8-2.5-1.6-3.7-2.3c-0.5-0.3-1.2-0.7-1.7-0.4
			c-0.5,0.3-0.5,1-0.5,1.6c-0.2,1.6-1.3,2.7-2.4,3.8c-1.8,1.9-3.4,4-4.7,6.3c0.7,0.5,1.4,1,2.1,1.5"/>
		<g>
			<path d="M66,214.7c2-1.4,3.4-3.5,5.1-5.3c1.9-2,3.8-3.9,5.9-5.6c0.6-0.5,0.5-1.7-0.3-2.1c-2.2-1-5.8-4.8-7.5-1.4
				c-0.4,0.8-0.4,1.9-1,2.8c-0.6,1-1.5,1.8-2.2,2.6c-0.6,0.7-1.2,1.4-1.7,2.1c-0.6,0.8-1.1,2.5-1.8,3.2c-0.3,0.4-0.3,0.9,0,1.3
				c0.6,0.6,1.2,1.2,1.9,1.7c1.3,1.1,2.8-0.9,1.4-1.8c-0.7-0.5-1.4-0.9-2.2-1.3c0.1,0.3,0.3,0.7,0.4,1c0.4-1.2,1.9-2.6,2.7-3.5
				c1-1.3,2.2-2.4,3.3-3.6c0.7-0.8,0.8-1.6,1.2-2.6c0.3-0.6,0-0.6,0.7-0.8c0.6-0.1,3.2,2.2,3.4,2.3c0-0.6,0-1.2,0-1.9
				c-3.6,3.2-8.6,7.3-10.3,12C64.7,214.4,65.5,215,66,214.7L66,214.7z"/>
		</g>
	</g>
	<g>
		<g>
			<path d="M73.1,204.5c-0.7-0.6-1.5-1.2-2.4-1.4c-1.3-0.3-2,1.4-0.9,2.1c0.6,0.4,1.4,0.6,2,1c0.5,0.3,1.1,0.1,1.4-0.3
				C73.5,205.5,73.6,204.8,73.1,204.5L73.1,204.5z"/>
		</g>
	</g>
	<g>
		<path class="st18" d="M105.7,214.8c-5.1,2.7-10.3,5.4-15.4,8.1c-0.5,0.2-1,0.5-1.2,1c-0.1,0.3-0.1,0.7,0,1.1
			c0.1,0.8,0.2,1.7,0.4,2.5c6.3-2.6,12.5-5.4,18.5-8.4c-0.5,0-0.9-0.4-1-0.9c-0.1-0.5,0-1-0.1-1.5c-0.1-0.7-0.5-1.4-1.1-1.8"/>
		<g>
			<path d="M105.5,214.2c-4.7,1.2-8.9,4.1-13.3,6.3c-4.1,2.1-4.4,2.3-4.2,6.9c0,0.8,0.9,1.7,1.8,1.4c6.4-2.6,12.5-5.8,18.8-8.6
				c0.9-0.4,0.9-2,0-2.4c-0.3-0.1-1.2-3.3-1.8-3.9c-1.2-1.3-3.3,0.7-2,2c1.6,1.6,0.4,3.5,2.8,4.4c-0.1-0.8-0.2-1.7-0.3-2.5
				c-5.8,3.2-12.1,5.7-18.2,8.2c0.6,0.3,1.2,0.7,1.7,1c-0.8-2.8,0.4-3.4,2.6-4.5c1.5-0.8,3-1.6,4.5-2.3c2.9-1.4,5.7-2.9,8.2-5
				C106.6,214.8,106.1,214,105.5,214.2L105.5,214.2z"/>
		</g>
	</g>
	<g>
		<g>
			<path d="M100.9,217.6c-0.3,0.3-0.3,0.5-0.4,0.9c0,0.2-0.1,0.3-0.1,0.6c0,0.6,0,1.1,0.3,1.7c0.7,1.3,2.7,0.7,2.7-0.7
				c0-0.6-0.2-1.1-0.5-1.6c-0.3-0.4-0.6-0.9-1.1-1C101.5,217.3,101.1,217.4,100.9,217.6L100.9,217.6z"/>
		</g>
	</g>
	<g>
		<g>
			<path d="M91.1,224.7c0.5-0.5,0.4-1.2-0.1-1.6c-0.5-0.4-1.3-0.3-1.8,0.2c-0.8,0.8-1.3,2.1-1.1,3.2c0.2,0.8,1.1,1,1.7,0.7
				c0.7-0.4,1.2-1.4,0.7-2.2c-0.2-0.3-0.7-0.4-1-0.1c0,0,0,0-0.1,0.1c0.1-0.1,0.2-0.1,0.3-0.2c-0.3,0.1-0.4,0.2-0.6,0.4
				c0.1-0.1,0.3-0.2,0.4-0.2c-0.1,0-0.5,0.2-0.4,0.2c0.2,0,0.4,0,0.6,0c-0.2,0-0.3-0.1-0.5-0.1c0.4,0.4,0.8,0.8,1.2,1.2
				c0-0.3,0-0.5,0.1-0.8c0.1-0.2,0.1-0.3,0.2-0.5c0.2-0.5,0.1,0-0.4,0c-0.2,0-0.3-0.1-0.5-0.1c0.1,0,0.1,0.1,0.2,0.1
				C90.3,225,90.8,224.9,91.1,224.7L91.1,224.7z"/>
		</g>
	</g>
	<g>
		<g>
			<path d="M89.5,223.2c-0.9,0.4-1.4,1.6-1.3,2.5c0.1,1.3,1.3,2.3,2.6,1.8c2.1-0.7,3-4.2,0.9-5.4c-2.6-1.4-4.2,2.9-2.6,4.6
				c0.9,1,2.4,0.9,3.2,0c0.8-0.9,1-2.7,0-3.6c-0.8-0.7-1.8-0.3-2.2,0.6c-0.1,0.3-0.1,0.6-0.1,1c0.1,0.4-0.1,0.1,0.2-0.1
				c0.4-0.2,0.7-0.1,0.9,0.1c0.1,0,0.1,0.1,0.2,0.2c0,0,0,0.1,0,0.1c0-0.1,0.1-0.3,0.1-0.4c0.1-0.2,0.1-0.2,0-0.1
				c-0.9,0.5-1.5,0.5-1.7-0.1c0,0,0-0.1,0-0.1c0,0.2,0,0.2,0,0.1c0,0.2-0.1,0.3-0.2,0.4c0.1-0.1,0,0-0.1,0.1c0.1,0,0,0-0.1,0.1
				c0.2-0.1,0.5-0.1,0.7-0.2c0.3,0,0.5,0.2,0.6,0.4c0.1,0.2,0.1,0.2,0,0c0,0,0,0.3,0-0.1c0-0.2,0.2-0.5,0.2-0.8
				C91.3,223.4,90.3,222.7,89.5,223.2L89.5,223.2z"/>
		</g>
	</g>
	<g>
		<path class="st18" d="M18.2,213.6c-1.4,0.8-2.9,1.7-4.3,2.5c-0.4,0.3-0.9,0.6-1,1.1c-0.1,0.7,0.6,1.2,1.2,1.6
			c4.7,2.9,6.7,8.7,10.9,12.2c0.3,0.3,0.7,0.5,1.1,0.7c1.5,0.5,3-0.7,4-1.9c-4.5-4.8-8.6-9.9-12.5-15.2"/>
		<g>
			<path d="M18,212.9c-1.9,0.6-6.4,1.7-6.4,4.4c0,1,0.6,1.5,1.2,2.1c1.9,1.7,3.6,2.9,5.1,5c1.9,2.6,3.7,5.8,6.3,7.7
				c2.6,1.9,4.8,0.7,6.9-1.4c0.6-0.6,0.5-1.5,0-2c-4.3-4.8-8.5-9.7-12.2-15c-1.1-1.5-3.6,0-2.5,1.5c4,5.4,8.1,10.7,12.7,15.5
				c0-0.7,0-1.3,0-2c-2.8,2.8-4.7,0.1-6.5-2.3c-1.2-1.6-2.3-3.3-3.6-4.9c-1-1.2-3.1-2.5-3.9-3.7c-0.7-1.2-0.4-0.8,0.9-1.7
				c0.9-0.6,1.8-1.3,2.6-2.1C19.2,213.6,18.6,212.7,18,212.9L18,212.9z"/>
		</g>
	</g>
	<g>
		<g>
			<path d="M20.1,217.5c-0.6,0.1-1.1,0.2-1.6,0.5c-0.5,0.2-1,0.4-1.5,0.7c-0.4,0.2-0.7,0.7-0.7,1.2c0,0,0,0.1,0,0.1
				c0,0.6,0.4,0.9,0.9,1.2c0,0,0.1,0,0.1,0.1c0.5,0.2,1-0.1,1.3-0.4c0.4-0.3,0.7-0.7,1.1-1.1c0.4-0.3,0.7-0.7,0.9-1.2
				C20.9,218.2,20.6,217.5,20.1,217.5L20.1,217.5z"/>
		</g>
	</g>
	<g>
		<g>
			<path d="M28.5,227.7c-0.7-0.5-1.6-0.4-2.3,0c-1,0.5-1.8,1.7-1.2,2.7c0.5,0.8,1.3,1.2,2.2,1.2c1-0.1,2.1-0.7,2.4-1.7
				c0.3-1.1-0.5-2-1.6-2.1c-0.1,0-0.2,0-0.3,0c-0.9,0.1-1.5,0.7-1.6,1.6c0-0.3,0-0.4,0-0.2c-0.1,0.5,0,1.1,0.5,1.3c0,0,0.1,0,0.1,0
				c-0.2-0.3-0.4-0.5-0.6-0.8c0.1,0.3,0.2,0.6,0.4,0.7c0.1,0.1,0.2,0.2,0.3,0.2c0.6,0.3,0.5,0.2-0.3-0.4c0.1-0.7,0.2-1.4,0.3-2
				c-0.1,0-0.5,0.6-0.2,0.3c0.1-0.1,0.1-0.1,0-0.1c0.1-0.1,0.1-0.1,0.2-0.2c0,0-0.4,0.2,0,0c0.4-0.2,0,0,0,0c0,0,0.5-0.1,0.2,0
				c-0.3,0,0.3,0.1,0.2,0c-0.2,0,0.4,0.2,0.2,0.1c-0.1,0-0.1-0.1-0.2-0.1c0.3,0.5,0.5,0.9,0.8,1.4c0-0.2,0,0.2,0,0.2
				c0,0,0.1-0.3,0,0c-0.1,0.2,0.1,0-0.1,0.1c0,0.1-0.1,0.1-0.1,0.1c-0.1,0.1-0.1,0.1,0,0c0.2-0.1-0.1,0-0.1,0c0,0,0.2,0,0.2,0
				c-0.1,0-0.1,0-0.2,0c0.4,0,0.5-0.1,0.3,0c-0.2,0,0,0,0.1,0c0.5,0,1.1-0.4,1.2-0.9C29.2,228.5,29,228,28.5,227.7L28.5,227.7z"/>
		</g>
	</g>
	<g>
		<g>
			<path d="M56.6,159.3c0.1,0,0.2,0,0.3,0c0.2,0,0.3-0.1,0.3-0.3c0-0.2-0.1-0.3-0.3-0.3c-0.1,0-0.2,0-0.3,0c-0.2,0-0.3,0.1-0.3,0.3
				C56.3,159.1,56.4,159.3,56.6,159.3L56.6,159.3z"/>
		</g>
	</g>
	<g>
		<g>
			<path d="M78.9,212.3c-0.9,2.4-1.5,5-2.7,7.4c-1.2,2.4-3.1,4.4-4.9,6.4c-0.2,0.2,0,0.4,0.3,0.3c4.8-2.5,6.6-9.3,7.8-14
				C79.5,212.1,79,212,78.9,212.3L78.9,212.3z"/>
		</g>
	</g>
	<g>
		<g>
			<path d="M72.9,211.8c-1.6,3.8-4.1,7.3-5.6,11.1c-0.1,0.2,0.2,0.4,0.4,0.2c2.6-3.1,4.6-7.3,5.7-11.2
				C73.5,211.6,73,211.5,72.9,211.8L72.9,211.8z"/>
		</g>
	</g>
	<g>
		<g>
			<path d="M65.7,212.5c-2.5,3-2.8,7.6-2.7,11.4c0,0.4,0.5,0.4,0.6,0c0.4-4,0.6-7.5,2.4-11.1C66,212.6,65.8,212.3,65.7,212.5
				L65.7,212.5z"/>
		</g>
	</g>
	<g>
		<g>
			<path d="M58.6,214.3c-1.2,0.4-1.4,1.5-1.6,2.7c-0.3,2.5-0.1,5,0.4,7.4c0.1,0.3,0.5,0.2,0.5-0.1c-0.1-1.5-0.2-3-0.2-4.4
				c0-1.4-0.3-4.3,1.2-5.1C59.1,214.7,58.9,214.2,58.6,214.3L58.6,214.3z"/>
		</g>
	</g>
	<g>
		<g>
			<path d="M53.3,212c-2.1,4.3-1.4,9.5,0.7,13.6c0.1,0.3,0.6,0.1,0.5-0.2c-1.5-4.5-2.3-8.6-0.9-13.3C53.7,211.9,53.4,211.8,53.3,212
				L53.3,212z"/>
		</g>
	</g>
	<g>
		<g>
			<path d="M46.2,211.3c-2.5,4.2-0.7,11.3,1,15.5c0.1,0.3,0.6,0.2,0.5-0.1c-1.1-4.7-3.4-10.5-1.2-15.2
				C46.7,211.3,46.3,211.1,46.2,211.3L46.2,211.3z"/>
		</g>
	</g>
	<g>
		<g>
			<path d="M39.2,213.4c-1.2,1.2-1,2.7-0.7,4.2c0.5,2.5,1.2,5.2,2.5,7.4c0.2,0.3,0.6,0.1,0.5-0.2c-0.8-2.8-3.9-8.4-1.9-11
				C39.8,213.5,39.5,213.1,39.2,213.4L39.2,213.4z"/>
		</g>
	</g>
	<g>
		<g>
			<path d="M35,214.7c-0.7,3.6,1.4,8.1,3.6,10.9c0.2,0.3,0.6-0.1,0.5-0.4c-1.6-3.1-3.9-6.7-3.4-10.3C35.7,214.4,35,214.2,35,214.7
				L35,214.7z"/>
		</g>
	</g>
	<g>
		<g>
			<path d="M84,216c0.3-0.1,0.6-0.2,0.9-0.4c0.3-0.1,0.2-0.5-0.1-0.4c-7.8,1.1-15.4,2.5-23.3,2.6c-7.1,0.1-14.2-0.8-21.3-1.2
				c-0.3,0-0.4,0.5-0.1,0.6c7.3,1.2,14.9,1.7,22.3,1.5c3.2-0.1,6.3-0.4,9.5-0.8c1.9-0.2,3.7-0.5,5.6-0.9
				C78.9,216.9,82.9,216.8,84,216C83.9,215.9,84,216,84,216L84,216z"/>
		</g>
	</g>
	<g>
		<g>
			<path d="M81.8,219.8c-15.3,1.8-30.2,2.1-45.5,1.5c-0.4,0-0.4,0.6,0,0.6c15,1.7,30.8,0.9,45.6-1.7C82.1,220.2,82,219.8,81.8,219.8
				L81.8,219.8z"/>
		</g>
	</g>
	<g>
		<g>
			<path d="M63.1,190.7c4-5.1,2.5-9.2-0.4-14.3c-2-1.9-2.7-4.4-2-7.6c0.2-0.3,0.5-0.6,0.7-0.9c0.3-3.1,0.6-0.3,0.4-3.4
				c-0.2-2.2-1.4-4.2-1.6-6.5c-0.2-3.3,0.7-6.3,2.3-9.2c0.2-0.4-0.3-0.7-0.5-0.3c-1.7,2.9-2.6,6.1-2.4,9.5c0.2,3.2,0.2,0.2,0.6,3.3
				c1.1,2.5,0.9,5.1-0.5,7.8c-0.2,0.3-0.4,0.6-0.6,1c-0.2,2,0.1,2.6,1.1,4.3c1.1,1.8,2.9,3.1,3.8,5c1.9,3.9,1.3,7.6-1.2,10.9
				C62.5,190.6,62.9,190.9,63.1,190.7L63.1,190.7z"/>
		</g>
	</g>
	<g>
		<g>
			<path d="M50.5,181c3-4.7,0.5-8-2.1-12c-4.1-6.1-0.9-8.4,0.2-14.5c0.6-3.5-0.4-6.6-0.4-10.2c0-0.5-0.7-0.4-0.7,0
				c-0.4,4,0.9,7.6-0.1,11.6c-0.6,2.7-2.6,5.6-2.5,8.4c0.1,1.3,0.4,2.1,1,3.2c2.8,4.5,7.8,7.2,4.2,13.3
				C49.9,181.1,50.3,181.3,50.5,181L50.5,181z"/>
		</g>
	</g>
	<g>
		<g>
			<path d="M75.9,189.2c2.5,0.6,2.7-2,2.5-3.9c-0.3-2-1.3-3.2-2.4-4.7c-2.5-3.3-2.9-9.1-0.4-12.7c0.2-0.2-0.2-0.5-0.4-0.3
				c-2.1,2.3-2.1,6.4-2,9.4c0,1.1,0.2,1.8,0.8,2.7c0.4,0.5,1,0.9,1.4,1.3c0.8,0.8,5,8.7,0.5,7.9C75.8,188.8,75.7,189.1,75.9,189.2
				L75.9,189.2z"/>
		</g>
	</g>
	<g>
		<g>
			<path d="M36.8,183.7c2.2,0.2,2.7-3.8,2.5-5.4c-0.2-1.3-0.9-2.2-1.7-3.2c-0.8-1-1.9-1.5-1.4-2.9c0.4-1.1,1.6-2.4,2.2-3.4
				c0.1-0.2-0.2-0.4-0.3-0.3c-0.9,1.1-3,3.1-2.8,4.6c0.1,0.8,1.1,1.7,1.6,2.2c1,1.2,1.8,2.4,1.9,4c0.1,1-0.5,4-2,4
				C36.6,183.4,36.6,183.7,36.8,183.7L36.8,183.7z"/>
		</g>
	</g>
	<g>
		<g>
			<path d="M91.8,219.7c0.5-1.4,0.1-2.5,0-3.9c-0.1-1.4-0.5-0.8,0.3-2.7c0.1-0.2,0.5-0.3,0.6-0.6c1-3,0.5-6.9-0.1-10
				c-0.1-0.3-0.6-0.2-0.6,0.1c0.2,1.9,0.5,3.9,0.5,5.8c0,1.8-0.6,2.7-1.3,4.3c-1,2.2,0.8,4.4,0.2,6.9
				C91.3,219.9,91.7,220,91.8,219.7L91.8,219.7z"/>
		</g>
	</g>
	<g>
		<g>
			<path d="M32,232.5C32,232.5,32,232.5,32,232.5c-0.1,0-0.1,0.1-0.1,0.1c0,0-0.1,0.1-0.1,0.1c0,0,0,0.1,0,0.1c0,0,0,0.1,0,0.1
				c0,0,0,0,0,0c0-0.1,0-0.2,0-0.2c0,0,0,0.1,0,0.1c0,0.1,0,0.2,0.1,0.3c0.1,0.1,0.2,0.1,0.3,0.1c0,0,0.1,0,0.1,0
				c-0.1,0-0.2,0-0.2,0c0,0,0,0,0,0c0,0,0.1,0,0.1,0c0,0,0.1,0,0.1,0c0,0,0.1,0,0.1,0c0,0,0.1-0.1,0.1-0.1c0,0,0,0,0,0
				c0,0,0-0.1,0-0.1c0,0,0-0.1,0-0.1c0,0,0-0.1,0-0.1c0,0,0-0.1-0.1-0.1c0,0-0.1-0.1-0.2-0.1c0,0-0.1,0-0.1,0
				C32.1,232.5,32,232.5,32,232.5L32,232.5z"/>
		</g>
	</g>
	<g>
		<g>
			<path d="M26.2,234C26.2,234,26.2,234,26.2,234C26.2,234,26.2,234,26.2,234c0,0,0,0-0.1,0.1c0,0-0.1,0-0.1,0.1c0,0,0,0,0,0
				c0.1,0,0.1-0.1,0,0c0,0,0,0,0,0c0,0-0.1,0-0.1,0c-0.2,0.1-0.3,0.3-0.1,0.5c0.1,0.1,0.1,0.1,0.2,0.1c0,0,0.1,0,0.1,0
				c0.1,0,0.1,0,0,0c0,0,0,0,0.1,0c0.2,0,0.4-0.1,0.5-0.2c0.2-0.1,0.1-0.4,0-0.5C26.6,233.9,26.4,233.9,26.2,234L26.2,234z"/>
		</g>
	</g>
	<g>
		<g>
			<path d="M26.6,234.5c0.4,0,0.5-0.7,0-0.7C26.2,233.8,26.2,234.5,26.6,234.5L26.6,234.5z"/>
		</g>
	</g>
	<g>
		<g>
			<path d="M31.9,232.5c0.1-0.1,0.2-0.1,0.2-0.2c0.1-0.1,0.1-0.1,0.2-0.2c0.1-0.1-0.1-0.2-0.2-0.2c-0.2,0-0.3,0.1-0.5,0.2
				c-0.1,0.1-0.1,0.2-0.1,0.3C31.6,232.5,31.8,232.6,31.9,232.5L31.9,232.5z"/>
		</g>
	</g>
	<g>
		<g>
			<path d="M33.2,231.3c0.1,0,0.1,0.1,0.2,0.1c0,0,0,0,0.1,0c0,0,0.1,0,0.1,0c0.1,0,0.1,0,0.2-0.1c0,0,0.1-0.1,0.1-0.1
				c0-0.1,0-0.2,0-0.2c0-0.1-0.1-0.1-0.1-0.2c-0.1-0.1-0.2-0.2-0.3-0.2c-0.1,0-0.2,0-0.3,0.1c-0.1,0.1-0.1,0.2-0.1,0.3
				C33,231.1,33.1,231.2,33.2,231.3L33.2,231.3z"/>
		</g>
	</g>
	<g>
		<g>
			<path d="M35.2,232.6c0,0,0.1,0,0.1,0c0.1,0,0.1-0.1,0-0.1c0,0-0.1,0-0.1,0C35.1,232.5,35.1,232.6,35.2,232.6L35.2,232.6z"/>
		</g>
	</g>
	<g>
		<g>
			<path d="M37.9,233.7c0,0,0.1,0.1,0.1,0.1c0.1,0.1,0.1,0.1,0.2,0.1c0.1,0,0.2,0,0.2-0.1c0.1-0.1,0.1-0.1,0.1-0.2
				c0-0.1,0-0.1-0.1-0.2c0,0-0.1-0.1-0.1-0.1c-0.1-0.1-0.1-0.1-0.2-0.1c-0.1,0-0.2,0-0.2,0.1c-0.1,0.1-0.1,0.1-0.1,0.2
				C37.8,233.6,37.8,233.6,37.9,233.7L37.9,233.7z"/>
		</g>
	</g>
	<g>
		<g>
			<path d="M35.3,234.5c-0.1,0-0.2,0.1-0.3,0.1c-0.1,0-0.2,0.1-0.2,0.2c0,0.1-0.1,0.2,0,0.2c0,0.2,0.3,0.2,0.4,0.2
				c0.1,0,0.2-0.1,0.3-0.1c0.2,0,0.3-0.2,0.2-0.4C35.6,234.6,35.4,234.5,35.3,234.5L35.3,234.5z"/>
		</g>
	</g>
	<g>
		<g>
			<path d="M31.4,233.9c-0.2,0.4-0.3,0.8-0.4,1.2c0.3,0,0.6,0,0.9,0c0-0.4-0.1-0.8-0.1-1.2c0-0.3-0.5-0.3-0.6,0
				c-0.1,0.4-0.1,0.8-0.1,1.2c0,0.6,0.8,0.5,0.9,0c0-0.3,0.1-0.6,0.2-0.8c0.1-0.2,0.1-0.4-0.1-0.5C31.8,233.7,31.5,233.8,31.4,233.9
				L31.4,233.9z"/>
		</g>
	</g>
	<g>
		<g>
			<path d="M28.4,236.3c0,0.3,0,0.7,0,1c0,0.6,0.9,0.6,0.9,0c0-0.1,0-0.3-0.1-0.4c0-0.1-0.1-0.3-0.1-0.4c-0.1-0.2-0.4-0.2-0.5,0
				c-0.1,0.1-0.1,0.2-0.1,0.4c0,0.1,0,0.3-0.1,0.4c0.3,0,0.6,0,0.9,0c0-0.3,0-0.7,0-1C29.3,235.7,28.4,235.7,28.4,236.3L28.4,236.3z
				"/>
		</g>
	</g>
	<g>
		<g>
			<path d="M26.1,237.6C26.1,237.6,26.1,237.7,26.1,237.6c-0.1,0.1-0.1,0.2-0.2,0.2c0,0,0,0,0,0c0,0,0,0.1,0,0.1c0,0,0,0.1,0.1,0.1
				c0,0,0.1,0.1,0.1,0.1c0,0,0.1,0,0.1,0c0,0,0,0,0,0c0.1,0,0.1,0,0.2-0.1c0,0,0,0,0.1-0.1c0.1-0.1,0.1-0.1,0.1-0.2
				c0-0.1,0-0.2-0.1-0.2c-0.1-0.1-0.1-0.1-0.2-0.1C26.3,237.5,26.2,237.6,26.1,237.6L26.1,237.6z"/>
		</g>
	</g>
	<g>
		<g>
			<path d="M22.1,236.4c0,0.2-0.1,0.3-0.3,0.5c0.3,0.1,0.5,0.1,0.8,0.2c-0.2-0.6-0.3-1.3-0.4-1.9c-0.1-0.4-0.6-0.2-0.6,0.1
				c-0.1,0.7,0,1.4,0.1,2.1c0.1,0.4,0.5,0.4,0.8,0.2c0.3-0.3,0.5-0.7,0.5-1.1C23,235.8,22.1,235.8,22.1,236.4L22.1,236.4z"/>
		</g>
	</g>
	<g>
		<g>
			<path d="M22.2,233.5c-0.2-0.8-0.1-1.5,0-2.4c-0.2,0-0.4,0-0.6,0c0.3,0.8,0.5,1.8,0.6,2.7c0.1,0.5,0.7,0.6,0.9,0.1
				c0.2-0.8,0.4-2,0.2-2.8c-0.1-0.3-0.5-0.3-0.6,0c-0.1,0.4-0.1,0.8-0.2,1.2c-0.1,0.4-0.2,0.9-0.3,1.3c0.3,0,0.6,0,0.9,0
				c-0.2-0.9-0.6-1.8-0.8-2.8c-0.1-0.3-0.5-0.3-0.6-0.1c-0.5,0.9-0.5,1.9-0.3,2.8C21.5,234.3,22.3,234,22.2,233.5L22.2,233.5z"/>
		</g>
	</g>
	<g>
		<g>
			<path d="M24.6,232.9C24.7,232.9,24.6,232.9,24.6,232.9c0,0,0.1,0.1,0.1,0.1c0,0.1,0,0.2,0.1,0.2c0.1,0.2,0.2,0.4,0.5,0.5
				c0.5,0.1,0.8-0.7,0.3-0.9c-0.2-0.1-0.4,0.2-0.3,0.4c0-0.1,0-0.2,0.1-0.2c0.1,0,0.1,0,0.1,0c0,0,0,0,0,0c0,0,0-0.1,0-0.1
				c0-0.2-0.1-0.4-0.3-0.5c-0.2-0.1-0.4-0.2-0.5,0C24.5,232.5,24.4,232.7,24.6,232.9L24.6,232.9z"/>
		</g>
	</g>
	<g>
		<g>
			<path d="M30.1,234.7c0.4,0.1,1,0.2,1.2-0.2c0.2-0.2,0.1-0.5-0.2-0.5c-0.2,0-0.5,0.1-0.7,0c-0.2-0.1-0.5,0-0.6,0.2
				C29.7,234.3,29.9,234.6,30.1,234.7L30.1,234.7z"/>
		</g>
	</g>
	<g>
		<g>
			<path d="M35,233.8c0.3-0.5,0.4-1.2,0.3-1.8c-0.1-0.3-0.5-0.3-0.6,0c-0.1,0.2-0.1,0.5-0.2,0.7c-0.1,0.2-0.2,0.4-0.3,0.7
				C34,233.8,34.8,234.3,35,233.8L35,233.8z"/>
		</g>
	</g>
	<g>
		<g>
			<path d="M38.3,232.8c0.4,0.3,0.9,0.4,1.4,0.2c0.5-0.2,0.9-0.6,0.9-1.1c0-0.4-0.5-0.5-0.7-0.2c-0.2,0.2-0.6,0.6-0.9,0.4
				c-0.2-0.2-0.5-0.2-0.7,0C38.1,232.3,38.1,232.6,38.3,232.8L38.3,232.8z"/>
		</g>
	</g>
	<g>
		<g>
			<path d="M45.4,232.2c0.1,0.1,0.1,0.1,0.2,0.2c0.1,0,0.2,0.1,0.2,0.1c0.1,0,0.3-0.1,0.4-0.2c0.2-0.2,0.2-0.4,0-0.6
				c0,0-0.1-0.1-0.2-0.1c-0.1,0-0.2,0-0.3,0.1c0,0,0,0,0.1-0.1c0,0,0,0,0,0c0,0,0.1,0,0.1,0c-0.1,0-0.1,0-0.2,0.1
				c0,0-0.1,0.1-0.1,0.1c0,0,0-0.1,0.1-0.1c0,0,0,0,0,0c0,0,0.1,0,0.1-0.1c0,0,0,0,0,0c0,0,0.1,0,0.1,0c0,0,0,0,0,0c0,0,0.1,0,0.1,0
				c0,0,0,0,0,0c0,0,0.1,0,0.1,0c0,0,0,0,0,0c0,0,0.1,0,0.1,0c0,0,0,0,0,0c0,0,0.1,0,0.1,0.1c0,0,0,0,0,0c0,0,0,0.1,0.1,0.1
				c0,0,0,0,0,0c0-0.1-0.1-0.2-0.2-0.2c-0.1,0-0.2,0-0.3,0c-0.1,0.1-0.2,0.1-0.2,0.2C45.4,232,45.4,232.1,45.4,232.2L45.4,232.2z"/>
		</g>
	</g>
	<g>
		<g>
			<path d="M49.4,233.4c0-0.2-0.1-0.4-0.2-0.6c-0.2-0.3-0.5-0.1-0.5,0.1c0,0.1,0,0.2,0,0.3c0,0.1,0,0.2,0,0.3c0,0.2,0.3,0.3,0.4,0.3
				C49.3,233.8,49.4,233.6,49.4,233.4L49.4,233.4z"/>
		</g>
	</g>
	<g>
		<g>
			<path d="M45.1,236.8C45.2,236.9,45.1,236.8,45.1,236.8C45.1,236.8,45.2,236.7,45.1,236.8C45.1,236.8,45.2,236.7,45.1,236.8
				C45.1,236.8,45.3,236.7,45.1,236.8C45.1,236.8,45.2,236.7,45.1,236.8C45.2,236.7,45.2,236.8,45.1,236.8
				C45.2,236.7,45.2,236.7,45.1,236.8c-0.1,0-0.2,0-0.2,0.1c-0.1,0-0.1,0,0,0c0,0,0,0,0,0c-0.2,0.1-0.2,0.3-0.1,0.5
				c0.1,0.2,0.3,0.3,0.5,0.3c0.1,0,0.3-0.1,0.4-0.1c0.2-0.2,0.4-0.4,0.4-0.7c0-0.2-0.2-0.5-0.4-0.4
				C45.4,236.3,45.1,236.5,45.1,236.8L45.1,236.8z"/>
		</g>
	</g>
	<g>
		<g>
			<path d="M38.1,236.4c-0.1,0-0.2,0-0.3,0c0,0-0.1,0-0.1,0c-0.1,0-0.3,0.1-0.3,0.2c-0.1,0.1-0.1,0.2,0,0.3c0,0.1,0.1,0.2,0.1,0.2
				c0,0,0.1,0.1,0.1,0.1c0.2,0.2,0.7,0.2,0.8-0.1c0.1-0.1,0.1-0.3,0.1-0.4c0-0.1-0.1-0.2-0.1-0.2C38.3,236.5,38.2,236.4,38.1,236.4
				L38.1,236.4z"/>
		</g>
	</g>
	<g>
		<g>
			<path d="M34.4,236c-0.1-0.3-0.2-0.6-0.4-0.9c-0.2-0.2-0.5,0-0.5,0.2c0,0.3,0.1,0.6,0.2,0.9c0.1,0.2,0.3,0.3,0.5,0.3
				C34.3,236.4,34.5,236.2,34.4,236L34.4,236z"/>
		</g>
	</g>
	<g>
		<g>
			<path d="M27.7,235.4c-0.1,0-0.2-0.1-0.3-0.1c-0.1,0-0.2,0-0.4-0.1c-0.1,0-0.3,0.1-0.3,0.2c-0.1,0.1,0,0.3,0.1,0.4
				c0.2,0.2,0.3,0.3,0.5,0.4c0.2,0.2,0.6,0,0.7-0.2C28.1,235.8,28,235.5,27.7,235.4L27.7,235.4z"/>
		</g>
	</g>
	<g>
		<g>
			<path d="M19.1,233.9c-0.1-0.2-0.3-0.4-0.4-0.6c-0.1-0.2-0.5,0-0.5,0.2c0,0.3,0.1,0.5,0.1,0.8c0.1,0.3,0.4,0.4,0.6,0.3
				C19.1,234.4,19.2,234.1,19.1,233.9L19.1,233.9z"/>
		</g>
	</g>
	<g>
		<g>
			<polygon points="14.6,233.6 14.6,233.6 14.6,233.6 			"/>
		</g>
	</g>
	<g>
		<g>
			<path d="M15.5,231.5c0-0.3,0.1-0.5,0.1-0.8c0-0.3-0.5-0.4-0.6-0.1c-0.1,0.3-0.1,0.5-0.2,0.8c0,0.2,0.1,0.4,0.3,0.4
				C15.3,231.8,15.5,231.7,15.5,231.5L15.5,231.5z"/>
		</g>
	</g>
	<g>
		<g>
			<path d="M17,231.3c0-0.1,0-0.1,0.1-0.2c0-0.1,0-0.2,0-0.3c0-0.1-0.1-0.2-0.2-0.2c-0.1,0-0.2,0-0.3,0.1c-0.1,0.1-0.1,0.1-0.1,0.2
				c0,0.1,0,0.1-0.1,0.2c0,0.1,0.1,0.3,0.2,0.3C16.8,231.5,16.9,231.5,17,231.3L17,231.3z"/>
		</g>
	</g>
	<g>
		<g>
			<path d="M85.5,231.1c-0.1,0.1-0.1,0.3-0.1,0.5c0,0.1,0.1,0.2,0.2,0.3c0.1,0.1,0.2,0.1,0.3,0c0.1,0,0.2-0.1,0.3-0.2c0,0,0,0,0-0.1
				c0,0,0.1-0.1,0.1-0.1c0.1-0.2,0-0.6-0.2-0.7c-0.1-0.1-0.2-0.1-0.4,0c-0.1,0-0.1,0.1-0.1,0.1C85.6,231,85.5,231,85.5,231.1
				L85.5,231.1z"/>
		</g>
	</g>
	<g>
		<g>
			<path d="M82.8,231.8c0.1,0,0.2,0.1,0.3,0.1c0.2,0.1,0.3,0.1,0.5,0.1c0.3,0,0.4-0.3,0.3-0.5c-0.1-0.3-0.4-0.4-0.6-0.6
				c-0.2-0.2-0.6-0.2-0.7,0.1C82.4,231.4,82.5,231.8,82.8,231.8L82.8,231.8z"/>
		</g>
	</g>
	<g>
		<g>
			<path d="M87.9,233.9c0.2-0.1,0.3-0.3,0.5-0.4c0.1-0.1,0.1-0.3,0-0.4c-0.1-0.1-0.2-0.2-0.3-0.1c-0.2,0-0.4,0.1-0.6,0.1
				c-0.3,0.1-0.4,0.3-0.3,0.6C87.4,233.9,87.7,234.1,87.9,233.9L87.9,233.9z"/>
		</g>
	</g>
	<g>
		<g>
			<path d="M93.2,231.7c0.1,0,0.1,0,0.2,0c0.2,0,0.3-0.1,0.4-0.2c0.1-0.2,0.1-0.4,0-0.5c-0.1-0.1-0.2-0.2-0.4-0.2
				c-0.1,0-0.1,0-0.2,0c-0.1,0-0.2,0-0.3,0.1c-0.1,0.1-0.1,0.2-0.1,0.3C92.8,231.5,93,231.7,93.2,231.7L93.2,231.7z"/>
		</g>
	</g>
	<g>
		<g>
			<path d="M96.8,230.3c0.2,0,0.3,0,0.5,0c0.1,0,0.3-0.2,0.2-0.4c-0.1-0.2-0.3-0.2-0.4-0.3c-0.2-0.1-0.5,0-0.6,0.2
				C96.3,230.1,96.5,230.3,96.8,230.3L96.8,230.3z"/>
		</g>
	</g>
	<g>
		<g>
			<path d="M99.3,230C99.3,230.1,99.3,230.1,99.3,230c0,0.1,0,0.1,0.1,0.2c0,0,0.1,0.1,0.1,0.1c0,0,0.1,0,0.1,0c0,0,0.1,0,0.1,0
				c0.1,0,0.1,0,0.2-0.1c0.1,0,0.1-0.1,0.2-0.2c0,0,0,0,0-0.1c0-0.1,0-0.3-0.1-0.4c-0.1-0.1-0.2-0.1-0.3-0.1c-0.1,0-0.2,0-0.3,0.1
				C99.3,229.7,99.3,229.9,99.3,230L99.3,230z"/>
		</g>
	</g>
	<g>
		<g>
			<path d="M92.6,231.4c0.6,0,0.6-0.9,0-0.9C92,230.5,92,231.4,92.6,231.4L92.6,231.4z"/>
		</g>
	</g>
	<g>
		<g>
			<path d="M89,231.7c0.2,0,0.2-0.3,0-0.3C88.8,231.4,88.8,231.7,89,231.7L89,231.7z"/>
		</g>
	</g>
	<g>
		<g>
			<path d="M87.2,229.7c0,0,0,0.1,0,0.1c0,0.1,0.1,0.1,0.1,0c0,0,0-0.1,0-0.1C87.4,229.6,87.2,229.6,87.2,229.7L87.2,229.7z"/>
		</g>
	</g>
	<g>
		<g>
			<path d="M85,226.9c0,0.2,0.1,0.5,0.3,0.6c0.2,0.1,0.4,0.1,0.6,0.1c0.2-0.1,0.3-0.3,0.4-0.5c0-0.1,0-0.2-0.1-0.3
				c-0.1-0.1-0.2-0.2-0.3-0.2c-0.1,0-0.1,0-0.2,0c0,0,0.1,0,0.1,0c0,0,0,0,0,0c0,0,0.1,0,0.1,0c0,0,0,0,0,0c0,0,0.1,0,0.1,0.1
				c-0.1,0-0.1,0-0.2-0.1c0,0,0.1,0,0.1,0.1c0,0,0,0,0,0c-0.1-0.1-0.2-0.1-0.3-0.1c0,0,0.1,0,0.1,0c0,0,0,0-0.1,0c0,0,0.1,0,0.1,0.1
				c0,0,0,0,0,0c0,0,0.1,0.1,0.1,0.1c0,0,0,0,0,0c0,0,0.1,0.1,0.1,0.1c0,0,0,0,0,0c0,0,0,0.1,0.1,0.1c0,0,0,0,0,0c0,0.1,0,0.1,0,0.2
				c0,0,0,0,0,0c0-0.1-0.1-0.3-0.2-0.4c-0.1-0.1-0.3-0.2-0.4-0.2c-0.2,0-0.3,0.1-0.4,0.2C85.1,226.6,85,226.7,85,226.9L85,226.9z"/>
		</g>
	</g>
	<g>
		<g>
			<path d="M85.3,226.8c0.8,0,0.8-1.2,0-1.2C84.6,225.6,84.6,226.8,85.3,226.8L85.3,226.8z"/>
		</g>
	</g>
	<g>
		<g>
			<path d="M86.1,228.9C86.1,228.9,86.2,228.8,86.1,228.9c0.1-0.1,0.1-0.2,0.2-0.2c0-0.1,0-0.1,0-0.2c0,0,0-0.1,0-0.1
				c0-0.1-0.1-0.2-0.1-0.2c0,0,0,0-0.1-0.1c0,0-0.1-0.1-0.1-0.1c0,0-0.1,0-0.1-0.1c-0.1,0-0.2,0-0.2,0c-0.1,0-0.1,0-0.1,0
				c0,0-0.1,0-0.1,0.1c0,0-0.1,0.1-0.1,0.1c0,0-0.1,0.1-0.1,0.1c0,0.1-0.1,0.1-0.1,0.2c0,0.1,0,0.1,0,0.2c0,0,0,0.1,0.1,0.1
				c0,0,0.1,0.1,0.1,0.1c0,0,0.1,0.1,0.1,0.1c0,0,0.1,0,0.1,0.1c0.1,0,0.2,0,0.2,0c0.1,0,0.1,0,0.1,0C86,229,86.1,228.9,86.1,228.9
				L86.1,228.9z"/>
		</g>
	</g>
	<g>
		<g>
			<path d="M91.2,229.9c-0.1,0.7,0.7,1.4,1.4,1.2c0.3-0.1,0.4-0.3,0.4-0.6c0-0.3-0.3-0.4-0.5-0.5c0,0,0,0-0.1,0c0,0,0,0,0,0
				c0,0-0.1-0.1,0,0c0,0,0,0,0,0c0,0,0,0,0.1,0c0,0-0.1-0.1-0.1-0.1c0,0,0,0,0,0c0,0,0,0,0,0c0,0.1,0-0.1,0,0c0,0.1,0,0.1,0,0
				c0,0,0,0,0,0.1c0,0,0-0.1,0-0.1c0-0.3-0.3-0.6-0.6-0.6C91.4,229.4,91.2,229.6,91.2,229.9L91.2,229.9z"/>
		</g>
	</g>
	<g>
		<g>
			<path d="M94.5,230.5c0.1,0.2,0.1,0.4,0.2,0.6c0.1,0.3,0.5,0.6,0.8,0.3c0.1-0.1,0.3-0.1,0.4-0.2c0.1-0.1,0.2-0.1,0.2-0.2
				c0.1-0.1,0.1-0.3,0.2-0.4c0-0.2-0.1-0.4-0.3-0.4c-0.1,0-0.2,0-0.3,0c-0.1,0-0.2,0.1-0.2,0.1c0,0,0,0-0.1,0c0.1,0,0,0,0,0
				c0,0-0.1,0-0.1,0c-0.1,0-0.1,0,0,0c0.2,0.1,0.4,0.3,0.6,0.4c0-0.2-0.1-0.4-0.2-0.6c-0.1-0.3-0.4-0.5-0.7-0.4
				C94.6,229.9,94.4,230.2,94.5,230.5L94.5,230.5z"/>
		</g>
	</g>
	<g>
		<g>
			<path d="M97.1,229.1c0,0.1,0,0.3,0.1,0.4c0.1,0.2,0.2,0.3,0.4,0.4c-0.1,0-0.2-0.1-0.2-0.1c-0.1-0.1,0,0.1,0.1,0.1
				c0,0,0,0.1,0.1,0.1c0.1,0.1,0.2,0.1,0.2,0.2c0.2,0.1,0.5,0.2,0.7,0c0.2-0.2,0.1-0.4-0.1-0.6c0,0,0-0.1-0.1-0.1c0.1,0.1,0,0,0,0
				c0,0,0-0.1,0-0.1c0,0,0,0,0,0c0-0.1,0,0,0,0c0,0.1,0,0.2-0.1,0.3c0.1-0.1,0.1-0.2,0.1-0.3c0-0.1,0-0.1,0-0.2c0,0.1,0,0.1,0,0
				c0-0.3-0.3-0.6-0.6-0.6C97.4,228.6,97.1,228.8,97.1,229.1L97.1,229.1z"/>
		</g>
	</g>
	<g>
		<g>
			<path d="M98,229c-0.1,0.2-0.2,0.3-0.2,0.5c0,0.1,0,0.2,0.1,0.3c0,0,0.1,0,0.1,0.1c0.1,0,0.2,0.1,0.2,0.1c0.1,0,0.3,0,0.4-0.1
				c0,0,0.1-0.1,0.1-0.1c0.1-0.1,0.2-0.1,0.2-0.2c0.1-0.1,0.1-0.2,0.1-0.3c0-0.1-0.1-0.3-0.2-0.4c-0.1-0.1-0.3-0.2-0.4-0.2
				c-0.1,0-0.2,0-0.3,0.1C98.1,228.8,98.1,228.9,98,229L98,229z"/>
		</g>
	</g>
	<g>
		<g>
			<path d="M93.9,229.2C93.9,229.3,93.9,229.3,93.9,229.2c-0.1,0.1-0.1,0.2-0.1,0.3c0,0,0,0.1,0,0.1c0,0.1,0,0.1,0,0.1
				c0,0,0,0,0,0.1c0,0.1,0.1,0.1,0.1,0.2c0,0,0.1,0.1,0.1,0.1c0,0,0.1,0,0.1,0.1c0,0,0,0,0.1,0c0.1,0,0.1,0,0.2,0
				c0.1,0,0.1,0,0.2-0.1c0,0,0.1,0,0.1,0c0.1-0.1,0.2-0.1,0.2-0.2c0.1-0.1,0.1-0.2,0.1-0.3c0-0.1,0-0.1,0-0.2c0-0.1-0.1-0.2-0.2-0.3
				c-0.1-0.1-0.1-0.1-0.2-0.1c-0.1,0-0.1-0.1-0.2-0.1c-0.1,0-0.2,0-0.3,0.1C94,229.1,94,229.1,93.9,229.2L93.9,229.2z"/>
		</g>
	</g>
	<g>
		<g>
			<path d="M94.6,228.1c0-0.1,0.1-0.1,0.1-0.2c0-0.1,0-0.2,0-0.3c-0.1-0.1-0.2-0.1-0.3,0c-0.1,0-0.1,0.1-0.2,0.1
				c-0.1,0-0.1,0.1-0.1,0.2c0,0.1,0,0.1,0.1,0.2c0,0,0.1,0.1,0.2,0.1C94.5,228.2,94.6,228.2,94.6,228.1L94.6,228.1z"/>
		</g>
	</g>
	<g>
		<g>
			<path d="M97.2,227C97.2,227.1,97.2,227.1,97.2,227c0.1,0.1,0.2,0.1,0.2,0.2c0.1,0,0.1,0,0.2,0c0,0,0.1,0,0.1,0
				c0.1,0,0.2-0.1,0.2-0.1c0,0,0,0,0.1-0.1c0,0,0.1-0.1,0.1-0.1c0,0,0-0.1,0.1-0.1c0-0.1,0-0.2,0-0.2c0-0.1,0-0.1,0-0.1
				c0,0,0-0.1-0.1-0.1c0,0-0.1-0.1-0.1-0.1c0,0-0.1-0.1-0.1-0.1c-0.1,0-0.1-0.1-0.2-0.1c-0.1,0-0.1,0-0.2,0c0,0-0.1,0-0.1,0.1
				c0,0-0.1,0.1-0.1,0.1c0,0-0.1,0.1-0.1,0.1c0,0,0,0.1-0.1,0.1c0,0.1,0,0.2,0,0.2c0,0.1,0,0.1,0,0.1C97.1,226.9,97.1,227,97.2,227
				L97.2,227z"/>
		</g>
	</g>
	<g>
		<g>
			<path d="M99.1,227.1c0.2,0.1,0.5,0.2,0.7,0.3c0.3,0.1,0.6-0.3,0.4-0.6c-0.1-0.2-0.3-0.4-0.4-0.6c-0.2-0.3-0.7-0.2-0.9,0.1
				c-0.1,0.1-0.1,0.3-0.1,0.4C98.9,226.9,99,227.1,99.1,227.1L99.1,227.1z"/>
		</g>
	</g>
	<g>
		<g>
			<path d="M101.3,226.2c0.1,0,0.1,0,0.2,0c0.1,0,0.1-0.1,0.2-0.1c0,0,0.1-0.1,0.1-0.2c0-0.1,0-0.1,0-0.2c0,0,0-0.1,0-0.1
				c0-0.1-0.1-0.2-0.1-0.2c-0.1-0.1-0.2-0.1-0.4-0.1c-0.1,0-0.1,0-0.2,0c-0.1,0-0.1,0.1-0.2,0.1c0,0-0.1,0.1-0.1,0.2
				c0,0.1,0,0.1,0,0.2c0,0,0,0.1,0,0.1c0,0.1,0.1,0.2,0.1,0.2C101,226.1,101.1,226.2,101.3,226.2L101.3,226.2z"/>
		</g>
	</g>
	<g>
		<g>
			<path d="M97.5,228.8c-0.2,0-0.4,0-0.6,0.1c-0.2,0.1-0.2,0.3,0,0.4c0.2,0.1,0.4,0.1,0.6,0.1c0.2,0,0.5-0.1,0.5-0.3
				C97.9,228.9,97.7,228.8,97.5,228.8L97.5,228.8z"/>
		</g>
	</g>
	<g>
		<g>
			<path d="M85.9,227.2c-0.2,0.1-0.5,0.2-0.7,0.4c-0.2,0.2-0.1,0.5,0.2,0.5c0.3,0,0.5-0.1,0.8-0.2c0.2-0.1,0.4-0.3,0.3-0.6
				C86.4,227.2,86.1,227.1,85.9,227.2L85.9,227.2z"/>
		</g>
	</g>
	<g>
		<g>
			<path d="M83.4,227.7c0,0,0,0.1,0,0.1c0,0,0,0,0,0.1c0,0.1,0.1,0.1,0.1,0.2c0.1,0.1,0.2,0.1,0.3,0.1c0.1,0,0.2,0,0.3-0.1
				c0.1-0.1,0.1-0.1,0.1-0.2c0,0,0,0,0-0.1c0,0,0-0.1,0-0.1c0.1-0.3-0.1-0.6-0.5-0.6C83.5,227.1,83.3,227.4,83.4,227.7L83.4,227.7z"
				/>
		</g>
	</g>
	<g>
		<g>
			<path d="M81.3,228.7c0,0-0.1,0.1-0.1,0.1c0,0,0,0.1,0,0.1c0,0,0.1,0,0.1,0c0,0,0.1-0.1,0.1-0.1c0,0,0-0.1,0-0.2
				C81.4,228.6,81.3,228.6,81.3,228.7L81.3,228.7z"/>
		</g>
	</g>
	<g>
		<g>
			<path d="M80.6,230.7C80.6,230.7,80.6,230.7,80.6,230.7c0.1,0.2,0.2,0.3,0.4,0.3c0.1,0,0.2-0.1,0.3-0.2c0,0,0-0.1,0.1-0.1
				c0.1-0.1,0.1-0.3,0-0.4c-0.1-0.1-0.2-0.2-0.4-0.2c-0.1,0-0.3,0.1-0.4,0.2C80.5,230.4,80.5,230.5,80.6,230.7L80.6,230.7z"/>
		</g>
	</g>
	<g>
		<g>
			<path d="M77.1,230.7c0,0-0.1,0.1-0.1,0.1c0,0-0.1,0.1-0.1,0.1c0,0.1-0.1,0.1-0.1,0.2c0,0.1,0,0.2,0.1,0.3c0,0.1,0.1,0.1,0.2,0.1
				c0.1,0,0.2,0.1,0.3,0c0.1,0,0.1,0,0.2-0.1c0,0,0,0,0.1,0c0,0,0.1-0.1,0.1-0.1c0.1,0,0.1-0.1,0.2-0.2c0-0.1,0.1-0.2,0.1-0.2
				c0-0.1,0-0.3-0.1-0.3c-0.1-0.1-0.2-0.1-0.3-0.1c-0.1,0-0.2,0-0.2,0.1C77.2,230.6,77.2,230.7,77.1,230.7L77.1,230.7z"/>
		</g>
	</g>
	<g>
		<g>
			<path d="M75.2,232.4c0.5,0,0.5-0.7,0-0.7C74.7,231.7,74.7,232.4,75.2,232.4L75.2,232.4z"/>
		</g>
	</g>
	<g>
		<g>
			<path d="M79.4,232.4c0.1,0,0.1,0.1,0.2,0.1c0.1,0,0.2,0,0.2,0c0.1-0.1,0.1-0.2,0-0.2c0-0.1-0.1-0.1-0.1-0.2
				c0-0.1-0.1-0.1-0.2-0.1c-0.1,0-0.1,0-0.2,0.1c0,0-0.1,0.1-0.1,0.2C79.3,232.3,79.3,232.3,79.4,232.4L79.4,232.4z"/>
		</g>
	</g>
	<g>
		<g>
			<path d="M80.2,232C80.2,232,80.3,232,80.2,232c0.1,0.1,0.1,0.2,0.1,0.2c0.1,0.1,0.1,0.1,0.2,0.1c0.1,0,0.2,0,0.2-0.1
				c0,0,0.1-0.1,0.1-0.1c0,0,0,0,0-0.1c0-0.1,0-0.1,0-0.2c0-0.1,0-0.1-0.1-0.1c-0.1-0.1-0.1-0.1-0.2-0.1c-0.1,0-0.2,0-0.2,0.1
				c0,0-0.1,0.1-0.1,0.1C80.2,231.9,80.2,231.9,80.2,232L80.2,232z"/>
		</g>
	</g>
	<g>
		<g>
			<path d="M79.4,232.6c0.1,0,0.1,0.1,0.2,0.1C79.6,232.7,79.6,232.7,79.4,232.6c0.2,0.1,0.2,0.1,0.3,0.1c0.1,0,0.2-0.1,0.3-0.2
				c0-0.1,0-0.2,0-0.2c0-0.1-0.1-0.1-0.2-0.1c0,0,0.1,0,0,0c0,0,0.1,0,0,0c0,0,0,0,0,0c-0.1,0-0.1,0,0,0c0,0,0,0,0,0c0,0,0,0,0,0
				c0,0,0,0,0,0c0,0,0,0.1,0,0c0,0,0,0.1,0,0.1c0,0,0,0,0,0c0,0.1,0,0.1,0,0.2c0,0,0,0,0,0c0,0,0,0.1,0,0.1c0,0,0,0,0,0
				c0.1-0.1,0.1-0.3,0-0.4c-0.1-0.1-0.3-0.2-0.4-0.1c-0.1,0-0.2,0.1-0.3,0.3c0,0.1,0,0.2,0,0.2C79.3,232.5,79.4,232.6,79.4,232.6
				L79.4,232.6z"/>
		</g>
	</g>
	<g>
		<g>
			<polygon points="103.9,227.7 103.9,227.7 103.9,227.7 			"/>
		</g>
	</g>
	<g>
		<g>
			<polygon points="108,227 108,227 108,227 			"/>
		</g>
	</g>
	<g>
		<g>
			<path d="M110.1,227.2c0.1,0,0.1,0,0.2,0c0,0,0,0,0.1,0c0.1,0,0.1,0,0.2,0c0,0,0.1,0,0.1,0c0,0,0.1,0,0.1-0.1c0,0,0.1-0.1,0.1-0.1
				c0-0.1,0-0.2,0-0.3c0-0.2-0.2-0.2-0.3-0.3c-0.1-0.1-0.3-0.2-0.5-0.1c-0.1,0-0.2,0.1-0.3,0.2C109.7,226.8,109.8,227.1,110.1,227.2
				L110.1,227.2z"/>
		</g>
	</g>
	<g>
		<g>
			<path d="M109.9,227.7c0,0.1,0.1,0.1,0.1,0.2c0,0.1,0.1,0.1,0.2,0.2c0.1,0,0.2,0.1,0.3,0c0,0,0.1,0,0.1,0c0.1,0,0.2-0.2,0.2-0.3
				c0,0,0-0.1,0-0.1c0-0.1,0-0.2-0.1-0.2c0-0.1-0.1-0.1-0.1-0.2c0-0.1-0.2-0.2-0.3-0.2c-0.1,0-0.3,0-0.4,0
				C109.9,227.2,109.8,227.4,109.9,227.7L109.9,227.7z"/>
		</g>
	</g>
	<g>
		<g>
			<path d="M104.8,228.8C104.8,228.8,104.8,228.8,104.8,228.8c-0.1,0.1-0.1,0.1-0.1,0.1c0,0,0,0,0,0.1c0,0,0,0.1,0,0.1
				c0,0,0,0,0,0.1c0,0.1,0,0.1,0,0.2c0,0.1,0,0.1,0.1,0.1c0.1,0.1,0.2,0.1,0.3,0.1c0,0,0.1,0,0.1,0c0,0,0.1,0,0.1,0c0,0,0,0,0,0
				c0,0,0,0,0,0c0,0,0,0,0.1,0c0.1,0,0.1-0.1,0.2-0.2c0-0.1,0.1-0.1,0.1-0.2c0-0.1,0-0.2-0.1-0.3c0,0-0.1-0.1-0.1-0.1
				c-0.1,0-0.1,0-0.2,0c-0.1,0-0.2,0-0.2,0.1C104.9,228.6,104.9,228.7,104.8,228.8L104.8,228.8z"/>
		</g>
	</g>
	<g>
		<g>
			<path d="M102.8,229.1c-0.1,0.2-0.3,0.3-0.3,0.5c-0.1,0.2-0.1,0.4,0,0.6c0.1,0.2,0.2,0.3,0.4,0.4c0.2,0,0.4-0.1,0.5-0.2
				c0-0.1,0.1-0.2,0.1-0.2c0,0,0-0.1,0-0.1c0,0.1,0,0.1,0,0c0,0,0-0.1,0.1-0.1c0-0.1,0,0,0,0c0,0,0,0,0.1-0.1c0.2-0.2,0.2-0.6,0-0.8
				C103.4,228.9,103,228.9,102.8,229.1L102.8,229.1z"/>
		</g>
	</g>
	<g>
		<g>
			<path d="M99.6,230c0,0.1,0,0.1,0,0.2c0,0,0,0.1,0,0.1c0-0.1,0-0.1,0-0.1c0,0,0,0,0,0.1c0,0,0,0,0-0.1c0,0,0,0,0,0
				c0,0,0.1-0.1,0.1-0.1c0,0-0.1,0.1-0.1,0.1c-0.1,0.1-0.2,0.3-0.2,0.4c0-0.1,0.1-0.2,0.1-0.3c0.1,0,0.1,0,0,0c0,0,0,0,0,0
				c0,0-0.1,0-0.1,0c0.1,0,0.1,0,0,0c-0.2,0-0.3,0.3-0.3,0.4c0,0.1,0.1,0.2,0.2,0.3c0.1,0,0.1,0.1,0.2,0.1c-0.1,0-0.1-0.1-0.2-0.1
				c0.3,0.3,0.8,0.1,1-0.2c0.1-0.2,0.2-0.5,0.2-0.8c0-0.3-0.3-0.6-0.6-0.6c-0.1,0-0.3,0.1-0.4,0.2C99.6,229.7,99.5,229.9,99.6,230
				L99.6,230z"/>
		</g>
	</g>
	<g>
		<g>
			<path d="M87.8,220.3c0,0,0.1,0.1,0.1,0.1c0,0,0,0,0.1,0.1c0,0,0.1,0,0.1,0.1c0,0,0.1,0.1,0.1,0.1c0,0,0.1,0,0.1,0
				c0.1,0,0.2,0,0.3,0c0.1,0,0.2-0.1,0.2-0.1c0.1-0.1,0.1-0.1,0.1-0.2c0-0.1,0-0.2,0-0.3c0,0,0-0.1-0.1-0.1c0,0-0.1-0.1-0.1-0.1
				c0,0,0,0-0.1-0.1c0,0-0.1-0.1-0.1-0.1c-0.1-0.1-0.3-0.2-0.4-0.2c-0.1,0-0.3,0.1-0.4,0.2c-0.1,0.1-0.2,0.3-0.2,0.4
				C87.6,220,87.7,220.2,87.8,220.3L87.8,220.3z"/>
		</g>
	</g>
	<g>
		<g>
			<path d="M87.6,220.9c0,0,0.1,0.1,0.1,0.1c0,0,0,0,0,0.1c0.1,0.1,0.1,0.2,0.3,0.2c0.1,0,0.2,0,0.3,0c0,0,0.1,0,0.1-0.1
				c0,0,0.1-0.1,0.1-0.2c0.1-0.1,0-0.3-0.1-0.4c-0.1-0.3-0.4-0.4-0.6-0.3c-0.1,0-0.2,0.1-0.2,0.2C87.5,220.6,87.5,220.8,87.6,220.9
				L87.6,220.9z"/>
		</g>
	</g>
	<g>
		<g>
			<path d="M85.8,224.3c0,0.1,0,0.3,0.1,0.4c0.1,0.1,0.2,0.2,0.4,0.2c0.2,0,0.3-0.1,0.4-0.2c0.1-0.1,0.1-0.3,0.1-0.4
				c0-0.2,0-0.4-0.1-0.5c-0.1-0.1-0.2-0.2-0.4-0.2c-0.1,0-0.3,0.1-0.4,0.2C85.8,223.9,85.8,224.1,85.8,224.3L85.8,224.3z"/>
		</g>
	</g>
	<g>
		<g>
			<polygon points="84.5,223.9 84.5,223.9 84.5,223.9 			"/>
		</g>
	</g>
	<g>
		<g>
			<path d="M29.1,225.4c0.2,0.1,0.4,0.5,0.6,0.3c0.2-0.1,0.1-0.5,0-0.7c0-0.1-0.1-0.2-0.3-0.3c-0.1,0-0.2,0-0.3,0
				C29,225,28.9,225.3,29.1,225.4L29.1,225.4z"/>
		</g>
	</g>
	<g>
		<g>
			<path d="M29.8,224.5c0.4,0.5,1.1,0.7,1.7,0.4c0.2-0.1,0.1-0.4-0.1-0.5c-0.3-0.1-0.6-0.3-0.8-0.5c-0.2-0.3-0.5-0.4-0.8-0.2
				C29.6,223.9,29.6,224.3,29.8,224.5L29.8,224.5z"/>
		</g>
	</g>
	<g>
		<g>
			<path d="M31.6,223.9c0.1,0.1,0.2,0.2,0.4,0.3c0.1,0.1,0.2,0.1,0.3,0.1c0.1,0,0.2,0,0.3-0.1c0.1,0,0.1-0.1,0.2-0.2
				c0-0.1,0.1-0.2,0.1-0.3c0-0.1-0.1-0.2-0.1-0.3c-0.1-0.1-0.2-0.2-0.3-0.4c-0.2-0.2-0.5-0.2-0.7,0
				C31.4,223.4,31.4,223.8,31.6,223.9L31.6,223.9z"/>
		</g>
	</g>
	<g>
		<g>
			<path d="M31.4,224.5c0.1,0.2,0.2,0.3,0.2,0.5c0.1,0.2,0.2,0.4,0.4,0.4c0.1,0,0.3,0,0.4-0.2c0.1-0.3,0-0.4-0.1-0.7
				c-0.1-0.2-0.2-0.3-0.2-0.5c-0.1-0.2-0.4-0.3-0.6-0.2C31.3,224,31.3,224.3,31.4,224.5L31.4,224.5z"/>
		</g>
	</g>
	<g>
		<g>
			<path d="M33.1,228.9c0,0.3,0.1,0.5,0.3,0.7c0.1,0.1,0.3,0.2,0.4,0.1c0.1,0,0.3,0,0.4-0.2c0.1-0.2,0.2-0.4,0-0.6
				c0,0-0.1-0.1-0.1-0.1c0,0,0,0,0,0c0,0,0,0,0,0c0.1,0.1,0-0.1-0.1-0.1c0,0,0,0-0.1-0.1c0,0,0.1,0.1,0.1,0.1c0,0,0-0.1-0.1-0.1
				c0,0,0,0.1,0.1,0.1c0,0,0-0.1,0-0.1c0,0,0,0.1,0,0.1c0,0,0-0.1,0-0.1c0,0,0,0.1,0,0.1c0,0,0,0,0,0c0.1-0.3-0.1-0.6-0.4-0.7
				C33.4,228.3,33.1,228.6,33.1,228.9L33.1,228.9z"/>
		</g>
	</g>
	<g>
		<g>
			<path d="M32.4,230.2c0.1,0,0.1,0,0.2,0c0.1,0,0.2,0,0.3,0c0.1,0,0.1-0.1,0.1-0.1c0.1-0.2,0-0.4-0.1-0.5c0,0-0.1-0.1-0.1-0.1
				c-0.2-0.2-0.6-0.2-0.7,0.1c-0.1,0.1-0.1,0.2,0,0.4C32.1,230.1,32.3,230.2,32.4,230.2L32.4,230.2z"/>
		</g>
	</g>
	<g>
		<g>
			<path d="M34.3,230.3c0.2,0.1,0.4,0.2,0.6,0.2c0.2,0.1,0.4,0.2,0.6,0.1c0.2,0,0.3-0.2,0.2-0.4c-0.1-0.3-0.3-0.3-0.5-0.5
				c-0.2-0.1-0.3-0.3-0.5-0.4c-0.2-0.2-0.6,0-0.7,0.2C33.9,229.8,34,230.2,34.3,230.3L34.3,230.3z"/>
		</g>
	</g>
	<g>
		<g>
			<path d="M37.3,230.3c0,0,0.1,0.1,0.1,0.1c0.1,0.1,0.3,0.1,0.4,0c0,0,0,0,0,0c-0.1,0-0.1,0-0.2,0.1c0,0,0,0,0.1,0
				c0.1,0,0.3-0.1,0.3-0.2c0.1-0.1,0.1-0.3,0-0.4c0,0,0,0,0-0.1c0,0.1,0,0.1,0.1,0.2c0,0,0,0,0,0c0-0.1-0.1-0.3-0.2-0.4
				c0,0-0.1,0-0.1-0.1c-0.1-0.1-0.2-0.1-0.3,0c-0.1,0-0.2,0.1-0.3,0.2C37.1,229.9,37.1,230.2,37.3,230.3L37.3,230.3z"/>
		</g>
	</g>
	<g>
		<g>
			<path d="M37.9,230.7c0.1,0.3,0.2,0.5,0.5,0.6c0.3,0.2,0.6,0.1,0.8-0.1c0.1-0.1,0-0.3-0.1-0.4c0,0-0.1-0.1-0.1-0.1c-0.1,0,0,0,0,0
				c-0.1,0-0.1-0.1-0.2-0.1c0,0-0.1-0.1,0,0c0,0,0,0,0,0c0.1,0.1,0,0,0,0c0,0.1,0,0,0,0c0-0.2-0.3-0.3-0.5-0.3
				C37.9,230.3,37.8,230.5,37.9,230.7L37.9,230.7z"/>
		</g>
	</g>
	<g>
		<g>
			<path d="M39.5,231.2c0.1,0.2,0.2,0.3,0.3,0.4c0.2,0.1,0.4,0.1,0.6,0c0.2-0.1,0.3-0.4,0.1-0.6c-0.1-0.1-0.1-0.1-0.2-0.2
				c-0.1,0,0.1,0.1,0,0c0,0,0,0,0,0c0,0.1,0.1,0.1,0,0c0,0,0,0,0,0c0,0,0,0.1,0,0.1c0,0,0-0.1,0-0.1c0-0.1-0.1-0.2-0.2-0.3
				c-0.1-0.1-0.3-0.1-0.4,0C39.6,230.7,39.4,231,39.5,231.2L39.5,231.2z"/>
		</g>
	</g>
	<g>
		<g>
			<path d="M41.5,232.3c0,0,0.1,0.1,0.1,0.1c0,0,0,0,0,0c0,0,0.1,0,0.1,0.1c0.1,0,0.1,0.1,0.2,0.1c0.2,0.1,0.4,0.1,0.5,0
				c0.1-0.1,0.2-0.2,0.1-0.3c0-0.1-0.1-0.2-0.2-0.2c0,0,0,0,0,0c0,0-0.1,0-0.1,0c0,0,0,0,0,0c0,0,0,0-0.1,0c0,0,0,0,0,0c0,0,0,0,0,0
				c0,0,0,0,0,0c0,0,0,0,0,0c-0.1-0.3-0.4-0.4-0.6-0.2C41.4,231.8,41.3,232.1,41.5,232.3L41.5,232.3z"/>
		</g>
	</g>
	<g>
		<g>
			<path d="M42.8,233.7c0,0.1,0,0.1,0,0.2c0,0.1,0,0.2,0.1,0.3c0.1,0.1,0.4,0.1,0.5,0c0.1-0.1,0.1-0.2,0.1-0.3c0-0.1,0-0.1,0-0.2
				c0-0.1,0-0.3-0.1-0.4c-0.1-0.1-0.2-0.1-0.3-0.1c-0.1,0-0.2,0-0.3,0.1C42.8,233.4,42.8,233.6,42.8,233.7L42.8,233.7z"/>
		</g>
	</g>
	<g>
		<g>
			<path d="M41.7,236.5c0,0.1,0.1,0.2,0.1,0.3c0.1,0.2,0.4,0.3,0.6,0.2c0.1,0,0.2-0.1,0.2-0.2c0.1-0.1,0.1-0.3,0-0.4
				c0-0.1,0-0.2-0.1-0.3c0-0.1-0.1-0.2-0.2-0.3c-0.1-0.1-0.3-0.1-0.4,0C41.7,235.9,41.6,236.2,41.7,236.5L41.7,236.5z"/>
		</g>
	</g>
	<g>
		<g>
			<path d="M38.6,237c0,0-0.1,0.1-0.1,0.1c0,0,0,0.1,0.1,0.1C38.6,237.2,38.6,237.1,38.6,237C38.7,237,38.6,237,38.6,237L38.6,237z"
				/>
		</g>
	</g>
	<g>
		<g>
			<path d="M50.1,235.2c0.1,0.1,0.2,0.2,0.3,0.2c0.2,0.1,0.4,0,0.6-0.1c-0.1,0-0.2,0.1-0.3,0.1c0.3,0,0.5-0.1,0.6-0.4
				c0-0.1-0.1-0.3-0.2-0.3c0,0-0.1,0-0.1,0c0,0-0.1,0,0,0c0,0,0,0-0.1,0c-0.1,0,0,0,0,0c0.1,0.1,0.1,0.2,0.2,0.2
				c0-0.1-0.1-0.2-0.2-0.3c0,0,0,0,0,0c-0.1-0.1,0,0.1,0,0c-0.2-0.2-0.5-0.3-0.7-0.1C50,234.6,49.9,234.9,50.1,235.2L50.1,235.2z"/>
		</g>
	</g>
	<g>
		<g>
			<path d="M53.2,236.1c0,0,0.1,0,0.1,0c0.1,0,0.1,0,0,0c0.1,0,0.2,0,0.2,0c0.1,0,0.2,0,0.4,0c0.2-0.1,0.5-0.2,0.6-0.4
				c0.1-0.2,0-0.5-0.3-0.5c-0.1,0-0.2,0-0.3,0c0,0-0.1,0-0.2,0c-0.1,0-0.1,0,0,0c-0.1,0-0.1,0,0,0.1c-0.2-0.3-0.7-0.4-0.9-0.1
				C52.8,235.5,52.9,236.1,53.2,236.1L53.2,236.1z"/>
		</g>
	</g>
	<g>
		<g>
			<path d="M60.1,235.5c0,0,0.1,0.1,0.1,0.1c0,0,0,0,0,0C60.2,235.5,60.2,235.5,60.1,235.5C60.1,235.5,60.1,235.5,60.1,235.5
				L60.1,235.5z"/>
		</g>
	</g>
	<g>
		<g>
			<polygon points="64.1,235.5 64.1,235.5 64.1,235.5 			"/>
		</g>
	</g>
</g>
<g>
	<g>
		<path class="st18" d="M437.7,154.4c-2.8,20.9-4.7,41.9-5.9,62.9c-9-1.1-18.3-0.2-27,2.6c-0.7-0.5-0.7-1.6-0.7-2.5
			c2.1-23,4.2-46.1,6.2-69.1c5.4,7.6,16.3,10.6,24.8,6.9c0.5-0.2,1.1-0.5,1.4-1.1c0.4-1-0.5-2-1.3-2.6c-6.9-5.3-16.9-6.3-24.7-2.3"
			/>
		<g>
			<path d="M436.6,154.1c-3.4,9.4-3.4,20.8-4.3,30.7c-1,10.8-1.8,21.6-2.4,32.5c0.6-0.6,1.2-1.2,1.8-1.8c-9.3-1-18.5-0.1-27.5,2.7
				c0.7,0.3,1.3,0.5,2,0.8c-1.2-2.2,0-6.2,0.2-8.6c0.3-3,0.5-5.9,0.8-8.9c0.5-5.9,1.1-11.8,1.6-17.8c1.1-11.8,2.1-23.7,3.2-35.5
				c-1.1,0.3-2.2,0.6-3.3,0.9c3.7,4.9,8.9,8.2,15,9.1c3.6,0.6,12.6,0.9,14.4-3.5c1.9-4.7-6.5-7.8-9.6-8.8c-6.3-2-13.2-1.5-19.1,1.5
				c-2.2,1.1-0.3,4.1,1.9,3.2c3.7-1.6,7.7-2.4,11.8-2c2,0.2,12.6,2.8,9.5,5.4c-2.4,2-8.7,0.7-11.3-0.1c-4-1.3-7.2-3.7-9.8-7
				c-1.1-1.4-2.9-0.1-3.1,1.3c-1.1,12.8-2.3,25.7-3.5,38.5c-0.6,6.3-1.1,12.5-1.7,18.8c-0.4,4.5-2.5,11.2-0.2,15.3
				c0.4,0.7,1.3,1.1,2,0.8c8.7-2.7,17.5-3.6,26.5-2.6c1,0.1,1.7-0.9,1.8-1.8c0.6-10.5,1.4-21,2.4-31.5c1-10.1,3.7-21.2,2.8-31.4
				C438.6,153.1,437,152.9,436.6,154.1L436.6,154.1z"/>
		</g>
	</g>
	<g>
		<g>
			<path d="M420.8,151.8c0,0,0,0.1,0,0.1c0.1,0.3,0.4,0.5,0.7,0.5c0,0,0,0,0,0c0.3,0,0.6-0.3,0.7-0.5c0.4-1-0.1-2-0.5-2.9
				c-0.6-1.5-1.2-3-2.1-4.4c-2.1-3.5-5-5-9.1-4.3c-0.6,0.1-1.2,0.8-1.3,1.3c-0.8,3.2,2.2,6,4.3,8.1c2.1,2.1,5,5.4,8.1,5.6
				c0.7,0.1,1.1-0.7,0.9-1.2c-0.6-2.4-3.3-3.9-5.1-5.5c-1.3-1.1-5.1-4.3-4.6-5.9c-0.6,0.5-1.2,0.9-1.9,1.4c3.3-0.3,4.4,1.7,6.3,4.1
				c1.2,1.4,2.2,2.9,3.5,4.1c0-0.4,0-0.7,0-1.1c0.2-0.1,0.4-0.1,0.6-0.2C421.1,150.8,420.6,151.3,420.8,151.8L420.8,151.8z"/>
		</g>
	</g>
	<g>
		<g>
			<path d="M423.9,152.1c0,0.6,0.2,1.1,0.6,1.6c0.6,0.6,1.5,0.6,2.2,0.3c0,0,0,0,0,0c-0.4,0.1-0.8,0.1-1.3,0.2
				c0.2,0.1,0.5,0.1,0.7,0.1c0.6-0.1,1.1-0.3,1.4-0.9c0.1-0.3,0.1-0.5,0.1-0.8c0-0.4-0.2-0.6-0.4-0.9c0,0,0,0,0,0
				c0.1,0.1,0.2,0.2,0.2,0.3c0,0,0-0.1-0.1-0.1c0.1,0.1,0.1,0.3,0.2,0.4c0,0,0-0.1,0-0.1c-0.1,0.5-0.3,1.1-0.4,1.6
				c0.5-0.5,0.7-1.2,0.5-1.8c-0.1-0.2-0.2-0.4-0.3-0.7c-0.1-0.1-0.2-0.2-0.3-0.4c-0.2-0.2-0.3-0.3-0.6-0.4c-0.4-0.1-0.8-0.2-1.1-0.1
				C424.4,150.7,423.9,151.3,423.9,152.1L423.9,152.1z"/>
		</g>
	</g>
	<g>
		<g>
			<path d="M435.5,170.5c-10.2,5-19.8,0.8-29.3-3.5c-1.6-0.7-3.1,1.5-1.4,2.5c9.4,5.5,21.7,9,31.4,2.3
				C436.9,171.2,436.3,170.1,435.5,170.5L435.5,170.5z"/>
		</g>
	</g>
	<g>
		<g>
			<path d="M432.3,190c-1.3,2.2-11.5,0.3-13.7,0.1c-4.5-0.4-8.7-0.7-12.6-3.3c-1.7-1.1-3.6,1.4-2.2,2.8c3.1,3.1,7.3,3.9,11.5,4.3
				c6,0.5,12,0.5,17.9-0.4c1-0.2,1.3-1.4,0.9-2.2c-0.2-0.4-0.5-0.8-0.7-1.2C433.2,189.6,432.6,189.6,432.3,190L432.3,190z"/>
		</g>
	</g>
</g>
<g>
	<g>
		<path class="st20" d="M462.8,362.3c0.4,3.1-2.8,5.6-5.8,6.3c-3.4,0.8-7,0.4-10.3,1.4c-6.4,2-9.9,8.9-11.6,15.3
			c-1.1,4.4-2.6,9.7-7,10.8c-1.3,0.3-2.7,0.2-4.1,0.3c-4.3,0.5-8,4.3-8.3,8.7s3,8.6,7.2,9.6c2.4,0.5,4.8,0.1,7.2-0.3
			c6.1-1.1,12.3-2.2,18.4-3.3c5-0.9,10.3-2.1,13.8-5.9c2-2.2,3.6-5.4,6.6-5.5c1.2-0.1,2.4,0.5,3.5,1c9.3,4,19.9,4.9,29.7,2.6
			c2.2-0.5,4.4-1.2,5.8-2.9c1.2-1.4,1.6-3.2,2-5c0.8-3.4,1-8-2.2-9.5c-2.3-1.1-5.8-0.2-7-2.5c1.3,0.4,2.7,0.8,4,0.5
			c1.3-0.3,2.6-1.3,2.6-2.7c0-1.2-1-2.2-1.9-2.9c-3.6-3.1-7.5-5.7-11.8-7.8c-1.6-0.8-3.4-1.5-5-0.9c-1.2,0.4-2,1.4-3.1,2.1
			c-1,0.7-2.6,0.9-3.4,0"/>
		<g>
			<path d="M461.9,362.1c-1.2,5.8-7.7,5.3-12.2,5.9c-3.2,0.4-6,1.5-8.5,3.6c-4.7,4.1-6.2,10.2-8,15.9c-0.6,1.8-1.2,3.7-2.4,5.2
				c-2.1,2.5-4,2-6.8,2.4c-2.6,0.4-4.9,1.4-6.7,3.3c-3.6,3.7-4,9.4-1,13.6c4,5.4,10.1,4.6,16,3.6c8.2-1.4,17.7-1.8,25.5-5.1
				c2.6-1.1,4.7-2.7,6.5-4.8c1.9-2.2,2.7-4.3,6.4-3.6c2.1,0.4,4.1,1.7,6.2,2.3c7.7,2.3,16,2.6,23.8,1c7-1.5,10.4-4.9,11-12.2
				c0.2-2.3,0-4.9-1.4-6.7c-2.2-2.9-6.6-1.4-8.6-3.9c-0.5,0.8-1,1.7-1.5,2.5c6.5,1.7,11.6-3.1,5.6-8.2c-3.7-3.2-8.3-6.6-13-8.2
				c-1.5-0.5-3.1-0.8-4.6-0.3c-1.5,0.5-3.5,3.2-5.2,2.3c-1.8-0.9-3.2,1.6-1.5,2.7c3.2,2.1,5.1-0.8,8.3-1.3c3.4-0.6,6.5,1.7,9.4,3.6
				c1.2,0.8,3.2,1.7,4,2.9c1.7,0.7,1.8,1.5,0.3,2.6c-0.3,1.5-1.1,1.9-2.3,1.1c-1.6-0.4-2.4,1.4-1.5,2.5c1.9,2.4,4.2,1.4,6.6,2.5
				c3.4,1.5,2.8,5.3,2.2,8c-0.7,3.3-2.1,5.4-5.5,6.5c-9,2.8-19.9,1.5-28.5-1.8c-2.6-1-4.9-2.3-7.7-1.2c-3.1,1.2-4.4,4.6-6.8,6.7
				c-3.3,2.8-7.8,3.7-11.9,4.6c-4.9,1-9.8,1.9-14.7,2.8c-5.9,1-14.2,2.7-16.1-5.2c-0.7-3,0.5-5.9,2.9-7.7c2.1-1.7,4.1-1.5,6.6-1.9
				c5.9-1,7.8-5.5,9.3-10.8c0.9-3.4,1.9-6.7,3.9-9.7c3.4-5.2,7.7-6.1,13.6-6.6c4.9-0.5,11.1-2.5,10.2-8.5
				C463.6,361.1,462.1,361.2,461.9,362.1L461.9,362.1z"/>
		</g>
	</g>
	<g>
		<path class="st18" d="M517.7,350.3c-3.9,1.6-7.2,4.3-10.7,6.6c-2.5,1.7-5.1,3.2-7.7,4.8c-4.4,2.6-8.7,5.1-13.1,7.7
			c-2.5,1.5-5,3-7.8,3.8c-2.8,0.9-5.9,1-8.5-0.1c-2.3-1-4.2-2.9-5.5-5.1c-1.3-2.2-2-4.7-2.5-7.2c-0.3-1.4-0.5-2.8-0.4-4.2
			c0.1-2.1,0.9-4,1.6-6c1.2-3.2,2.5-6.6,4.9-9.1c2-2.1,4.6-3.4,7.2-4.6c7.9-3.8,16.1-7,24.5-9.6c2.7-0.8,5.6-1.6,8.3-0.7
			c3.1,1,5,4,6.7,6.7c1.2,1.9,2.4,3.8,3.3,5.9c0.9,1.9,1.6,3.9,1.1,5.9c-0.5,2.4-2.5,4.2-4.4,5.7"/>
		<g>
			<path d="M517.5,349.5c-4.2,1.4-7.7,4-11.1,6.7c-4.9,3.8-10.1,6.8-15.6,9.6c-6.1,3.1-14.7,9.8-21.6,5.4c-5.4-3.4-7.2-12.4-5.5-18
				c1.9-6.2,4.7-11.2,10.7-14.3c5.7-2.9,11.7-5.3,17.6-7.5c6.5-2.4,14.7-6.6,19.8,0.2c1.5,2.1,2.9,4.5,4.1,6.7
				c0.8,1.5,1.8,3.4,1.8,5.2c0,2.8-2.1,4.7-3.9,6.4c-1,0.9,0.4,2.8,1.5,1.9c5.7-4.4,6.6-8.5,3.3-15c-2.5-4.9-6.1-11.6-12.2-12.2
				c-4.2-0.4-8.6,1.6-12.4,2.9c-3.7,1.3-7.3,2.7-10.9,4.2c-7.3,3-15.4,5.8-19.2,13.3c-3.2,6.3-4.7,12.3-2.6,19.1
				c1.7,5.5,5.8,10.6,12,10.9c8,0.3,15.1-6.1,21.4-10.1c7.7-4.8,15.6-9.5,23.5-14C518.8,350.5,518.3,349.2,517.5,349.5L517.5,349.5z
				"/>
		</g>
	</g>
	<g>
		<g>
			<path d="M477.4,362c0.3-0.4,0.3-1,0.2-1.4c-0.2-0.8-1-1.2-1.7-1.4c-1.6-0.5-3.9,0.1-4.8,1.5c-1.1,1.7-0.2,3.9,1.4,4.9
				c1.4,0.9,4,1.5,5.4,0.3c1.5-1.3,0.8-3.4-0.4-4.6c-1.3-1.4-3.5-2.3-5.2-1c-1.9,1.3-1.4,3.9,0.5,4.9c1.6,0.9,3.9,0.4,4.9-1.2
				c1-1.7,0.3-4-1.5-4.8c-1.9-0.8-4.1,0.5-4.3,2.6c0.3-0.4,0.5-0.9,0.8-1.3c-0.9,0.6-1.3,1.8-0.5,2.7c0.6,0.8,1.7,0.8,2.4,0.2
				c0.7-0.6,0.3-1.9-0.5-2.1c0.7,0.4,0.9,0.8,0.6,1.4c-0.3,0.2-0.6,0.5-0.9,0.7c0.6-0.3,1.1-0.8,1.3-1.3c0,0-0.1-0.1-0.1-0.1
				c0,0.2,0.1,0.2,0,0.4c-0.1,0.1-0.1,0-0.3,0.1c-0.3,0.1,0.1-0.3-0.1,0.2c-0.1,0.1-0.1,0.4-0.1,0.3c-0.1,0-0.1,0,0,0
				c0.1,0,0.2,0,0.2,0.1c0.3,0.2,0.7,0.4,1,0.8c0.2,0.3,0.1,0.5,0.4-0.1c0.1-0.2,0.2,0,0.1-0.2c-0.1-0.1-0.7-0.1-0.8-0.2
				c-0.4-0.1-1.3-0.3-1.3-0.8c0,0-0.1,0.1,0,0c0.1-0.1,0.4-0.1,0.5-0.2c0.3-0.1,0.6-0.1,0.9-0.2c0.3,0,0.6,0,0.9,0
				c0.1,0,0.6,0.1,0.6,0c-0.1,0.2-0.7-0.5-0.4,0.1C476.6,362.5,477.2,362.3,477.4,362L477.4,362z"/>
		</g>
	</g>
	<g>
		<g>
			<path d="M474.8,357.6c1.6-1.5,2.8-4,2.8-6.2c0-2-1.5-4.3-3.7-4.3c-1.8-0.1-3.5,1.8-3.9,3.5c-0.5,2.1,0.4,4.8,2,6.1
				c0.5,0.4,1.2,0,1.1-0.6c-0.2-1.1-0.9-2.1-1.2-3.2c-0.3-1.2,0.2-4.1,2.1-2.9c2,1.2-0.2,5.3-0.5,7
				C473.4,357.5,474.2,358.1,474.8,357.6L474.8,357.6z"/>
		</g>
	</g>
	<g>
		<g>
			<path d="M486.6,370.5c9-3.9,2.9-17.6-1.9-22.4c-5.2-5.1-19-11.6-23.3-1.8c-0.4,1,0.6,2.5,1.7,1.7c2.5-1.8,4.9-3.5,8.1-3.3
				c3.9,0.2,7.8,2.5,10.7,5c5.4,4.7,9.8,13.4,3.8,19.5C485,370,485.8,370.9,486.6,370.5L486.6,370.5z"/>
		</g>
	</g>
	<g>
		<g>
			<path d="M488.1,340.9c0.4,0.4,0.8,0.8,1.1,1.2c0.3,0.4,0.4,0.9,0.7,1.3c0.1,0.1,0.4,0.1,0.4-0.1c-0.1-1.1-1.1-2.1-1.9-2.7
				C488.2,340.4,487.9,340.7,488.1,340.9L488.1,340.9z"/>
		</g>
	</g>
	<g>
		<g>
			<path d="M483.8,339.7c2.3-1.3,4.8-1.9,7.4-1.8c-0.1-0.2-0.2-0.3-0.3-0.5c-0.7,1.5-1.8,2.3-3.2,3c-0.2,0.1-0.1,0.4,0.1,0.4
				c1.8-0.2,3-1.5,3.7-3.1c0.1-0.2-0.1-0.4-0.3-0.4c-2.7,0-5.3,0.7-7.6,2.1C483.5,339.5,483.6,339.8,483.8,339.7L483.8,339.7z"/>
		</g>
	</g>
	<g>
		<g>
			<path d="M492.3,339.2c1,0,3-0.5,3.1-1.7c0-1.5-2.1-1.1-2.9-0.7c-1,0.5-1.8,1.8-1,2.8c0.8,1,3.1,1.2,4.2,0.9
				c0.3-0.1,0.2-0.5-0.1-0.6c-0.9-0.1-4.7,0-3.6-1.9c0.3-0.4,0.7-0.7,1.2-0.8c0.2-0.1,2-0.5,1.3,0.5c-0.4,0.6-1.7,0.8-2.3,0.9
				C491.9,338.6,491.9,339.2,492.3,339.2L492.3,339.2z"/>
		</g>
	</g>
	<g>
		<g>
			<path d="M495.6,336.1c0.6,2,2.8,3.5,2.7,5.8c0.3,0,0.5-0.1,0.8-0.1c-0.5-1.6-1.3-3.3-1.4-4.9c0-0.6,0.3-1.7,0.9-1.9
				c0.5,0.1,0.9,0.2,1.4,0.3c0.1,0.3,0.1,0.5,0.2,0.8c0,1.3-1.4,1.7-2.4,2.2c-0.3,0.1-0.3,0.6,0.1,0.6c1.3-0.1,2.8-0.9,3.1-2.3
				c0.1-0.9-0.3-2-1.3-2.3c-1.2-0.3-2.2,0.7-2.5,1.7c-0.5,1.9,0.7,4.4,1.2,6.2c0.1,0.4,0.8,0.3,0.8-0.1c0.1-2.4-2.1-3.8-2.8-6
				C496.1,335.4,495.5,335.6,495.6,336.1L495.6,336.1z"/>
		</g>
	</g>
	<g>
		<g>
			<path d="M502.6,332.5c-0.7-0.2-1.7-0.2-2.2,0.4c-0.4,0.5-0.1,1.1,0.4,1.5c0.3,0.2,0.6,0.3,1,0.4c0.4,0,1.6-0.2,1.8,0.4
				c0.2,0.6-1,0.8-1.4,0.8c-0.5,0.1-1,0-1.4-0.2c-0.2-0.1-0.4,0.2-0.3,0.4c0.4,0.7,1.2,0.7,1.9,0.6c0.7-0.1,1.7-0.4,1.9-1.1
				c0.2-0.7-0.4-1.4-1-1.5c-0.5-0.2-1.1,0-1.6-0.1c-0.4-0.1-1.1-0.4-0.4-0.9c0.3-0.2,0.8-0.1,1.1-0.1
				C502.8,333.2,503,332.6,502.6,332.5L502.6,332.5z"/>
		</g>
	</g>
	<g>
		<g>
			<path d="M503.9,331.8c0.1,1.1,0.4,2.6,1.4,3.3c0.3,0.2,0.5-0.1,0.5-0.4c-0.1-0.5-0.4-0.9-0.6-1.4c-0.2-0.5-0.4-1.1-0.5-1.6
				C504.6,331.3,503.9,331.4,503.9,331.8L503.9,331.8z"/>
		</g>
	</g>
	<g>
		<g>
			<path d="M504.2,329.4c-0.1,0-0.1-0.1-0.2-0.1c-0.2,0-0.3,0-0.5,0.1c0.1,0,0.2,0,0.2-0.1c-0.1,0-0.2,0-0.4,0
				c-0.1,0-0.2,0.1-0.3,0.3c0,0.1,0,0.3,0.1,0.4c0.1,0.1,0.2,0.2,0.3,0.2c-0.1-0.1-0.1-0.1-0.2-0.2c0.1,0.2,0.3,0.3,0.6,0.4
				c0.3,0.1,0.6-0.1,0.6-0.4C504.7,329.7,504.5,329.4,504.2,329.4L504.2,329.4z"/>
		</g>
	</g>
	<g>
		<g>
			<path d="M495,345.3c-3.1,0-5.6,2.6-5,5.7c0.5,2.8,5.1,2.7,6.8,1.2c0.2-0.1,0-0.4-0.2-0.4c-1.6,0.5-5.3,1.3-5.8-1
				c-0.7-2.6,1.9-4.8,4.3-4.9C495.5,346,495.5,345.3,495,345.3L495,345.3z"/>
		</g>
	</g>
	<g>
		<g>
			<path d="M500.3,346.7c-0.5-1-1.9-0.9-2.6-0.3c-0.9,0.8-1.1,2.2-0.3,3.1c0.9,0.9,2.3,0.9,3.1-0.1c0.9-1.2,0.4-2.9-0.4-4
				c-0.2-0.2-0.5,0-0.5,0.3c0.3,0.8,0.7,1.5,0.6,2.3c-0.1,0.9-0.9,1.7-1.8,1.3c-2.2-0.9,0.4-4,1.4-2.4
				C500,347.3,500.5,347,500.3,346.7L500.3,346.7z"/>
		</g>
	</g>
	<g>
		<g>
			<path d="M501,343.2c0.3,0.6,0.6,1.2,0.8,1.8c0.1,0.5,0.2,1,0.5,1.5c0.4,0.8,1.1,1.5,2.1,1.2c0.2-0.1,0.2-0.4,0-0.4
				c-2-0.6-1.2-4.1-3.2-4.4C501.1,343,501,343.1,501,343.2L501,343.2z"/>
		</g>
	</g>
	<g>
		<g>
			<path d="M508.3,342.8c-1.1-0.4-2.7-0.5-3.4,0.7c-0.6,1,0,2.1,0.9,2.5c0.9,0.5,2.1,0.3,2.6-0.6c0.5-0.8,0.2-1.8-0.6-2.4
				c-0.4-0.3-0.9,0.4-0.5,0.7c0.7,0.7,1.5,1.4,2.4,1.9c0.3,0.1,0.6-0.2,0.4-0.4c-0.6-0.8-1.4-1.5-2.2-2.1c-0.1,0.2-0.3,0.5-0.4,0.7
				c0.4,0.2,0.4,0.8,0.2,1.1c-0.4,0.6-1.3,0.4-1.7,0.1c-0.6-0.5-0.6-1.2,0.1-1.6c0.6-0.4,1.4-0.2,2.1,0
				C508.6,343.4,508.7,342.9,508.3,342.8L508.3,342.8z"/>
		</g>
	</g>
	<g>
		<g>
			<path d="M486.3,339.5c0.2,0.5,0.6,1,1,1.4c0.4,0.5,0.8,1,1.2,1.4c0.2,0.2,0.6,0,0.4-0.3c-0.3-0.5-0.7-1-1.1-1.4
				c-0.4-0.4-0.8-0.9-1.3-1.2C486.3,339.2,486.2,339.4,486.3,339.5L486.3,339.5z"/>
		</g>
	</g>
	<g>
		<g>
			<path d="M412.6,178c0.6-0.8,1.5-1.7,1.3-2.7c0-0.2-0.3-0.3-0.5-0.2c-1,0.6-0.8,2.1,0.3,2.6c0.9,0.4,1.7-0.4,1.3-1.3
				c-0.1-0.3-0.6-0.2-0.6,0.2c0,0.7,0.2,1.4,0.3,2.1c0.1,0.5,0.1,0.9,0.1,1.4c0,0.5-0.1,1-0.4,1.4c-0.3,0.9-1.1,1.1-2.3,0.6
				c-0.1-0.3-0.5-0.1-0.4,0.2c0.3,1.3,1.9,1,2.7,0.3c1.7-1.5,0.8-4.1,0.7-6c-0.2,0-0.4,0.1-0.6,0.1c-0.2-0.3-0.5-0.7-0.7-1
				c-0.2-0.1-0.3-0.1-0.5-0.2c0.1,0.6-0.9,1.8-1.1,2.3C412.1,178,412.4,178.2,412.6,178L412.6,178z"/>
		</g>
	</g>
	<g>
		<g>
			<path d="M417.7,180.2c0.5-0.7-0.4-1.2-1-1.2c-0.8,0-1.4,0.7-1.4,1.5c0,0.7,0.6,1.3,1.4,1.3c0.9,0,1.3-0.8,1.3-1.6
				c0-0.4-0.6-0.5-0.7-0.1c-0.1,0.7-0.1,1.5,0.4,2c0.1,0.1,0.3,0,0.3-0.1c0-0.6-0.2-1.2-0.1-1.8c-0.2,0-0.4,0.1-0.7,0.1
				c0.3,0.8-1.1,1.2-1.4,0.4c-0.3-1,1.5-1.4,1.4-0.6C417.4,180.2,417.6,180.3,417.7,180.2L417.7,180.2z"/>
		</g>
	</g>
	<g>
		<g>
			<path d="M421.2,179.4c-0.9-1-2.2-0.1-2.5,1c-0.3,1.3,1.2,2.2,2.3,1.7c0.2-0.1,0.1-0.4-0.1-0.4c-0.6-0.1-1.6-0.1-1.6-1
				c0-0.7,0.8-1.6,1.5-0.9C421.1,180,421.4,179.6,421.2,179.4L421.2,179.4z"/>
		</g>
	</g>
	<g>
		<g>
			<path d="M422.6,177.7c-0.2,1.3-0.6,3.1,0,4.3c0.1,0.2,0.3,0.1,0.4,0c0.2-0.7,0.1-1.5,0.2-2.2c0-0.6,0.2-1.4,0-2
				c0-0.1-0.1-0.2-0.3-0.2c0,0,0,0,0,0C422.7,177.5,422.6,177.6,422.6,177.7L422.6,177.7z"/>
		</g>
	</g>
	<g>
		<g>
			<path d="M425.4,179.3c-0.8,0.1-1.9,0.3-2.4,1c-0.6,0.9,0.9,1.2,1.5,1.2c0.2,0,0.3-0.2,0.1-0.3c-0.2-0.2-0.5-0.4-0.8-0.5
				c0,0-0.1,0-0.1,0c-0.2,0-0.2-0.1-0.1-0.1c0-0.1,0.3-0.2,0.4-0.2c0.5-0.3,1.1-0.3,1.6-0.6C425.9,179.6,425.7,179.3,425.4,179.3
				L425.4,179.3z"/>
		</g>
	</g>
	<g>
		<g>
			<path d="M428.9,179.5c-0.6,0.5-1.1,1.1-1.6,1.7c-0.4,0.5-0.9,1-1.2,1.6c-0.1,0.2,0.2,0.4,0.4,0.3c0.6-0.4,1-1,1.5-1.6
				c0.4-0.6,0.9-1.1,1.3-1.7C429.5,179.6,429.1,179.3,428.9,179.5L428.9,179.5z"/>
		</g>
	</g>
	<g>
		<g>
			<path d="M427.8,181c-0.5-0.6-0.8-1.4-1.4-1.9c-0.2-0.1-0.4,0-0.4,0.2c-0.1,0.9,0.7,1.7,1.3,2.3
				C427.7,181.8,428.1,181.3,427.8,181L427.8,181z"/>
		</g>
	</g>
	<g>
		<g>
			<path d="M417.4,184.4c-0.1-0.8-1.2-0.6-1.8-0.6c-0.9,0.1-1.7,0.6-2,1.4c-0.8,1.7,0.7,3.3,2.4,3.1c0.3,0,0.4-0.4,0.1-0.5
				c-1-0.3-2.4-0.5-2.1-1.9c0.1-0.6,0.6-1.1,1.2-1.3c0.3-0.1,1.5-0.4,1.7,0C417,184.8,417.4,184.7,417.4,184.4L417.4,184.4z"/>
		</g>
	</g>
	<g>
		<g>
			<path d="M419.3,186.2C419.3,186.2,419.3,186.2,419.3,186.2c0.1-0.1,0.2-0.2,0.2-0.3c0-0.8-1.4-0.6-1.8-0.3
				c-0.6,0.4-0.8,1.4-0.1,1.9c0.5,0.4,1.6,0.7,2,0c0.3-0.6,0.2-1.7-0.6-1.9c-0.2,0-0.3,0.1-0.2,0.3c0.2,0.3,0.4,0.6,0.4,1
				c0,0.2-0.1,0.5-0.3,0.5c-0.2,0-0.5-0.1-0.6-0.2c-0.4-0.2-0.5-0.6-0.2-1c0.1-0.2,0.3-0.3,0.5-0.3c0.1,0,0.2,0,0.3,0
				c0.1,0,0.2,0.1,0.2,0c0-0.1,0.1-0.2,0.1-0.2c0,0,0,0,0,0C418.7,185.9,418.9,186.3,419.3,186.2L419.3,186.2z"/>
		</g>
	</g>
	<g>
		<g>
			<path d="M420.7,184.6c-0.4,1-0.5,2.3,0,3.3c0.1,0.2,0.5,0.2,0.5-0.1c0.1-0.5,0-1,0-1.5c0-0.6,0-1.1,0-1.7
				C421.3,184.4,420.8,184.4,420.7,184.6L420.7,184.6z"/>
		</g>
	</g>
	<g>
		<g>
			<path d="M424.5,186.5c0-0.7-0.7-1.1-1.3-0.8c-0.7,0.2-1,1.1-0.7,1.8c0.3,0.6,1.1,1,1.7,0.7c0.7-0.2,1-1,0.7-1.7
				c-0.2-0.4-0.8-0.4-0.8,0.1c0,0.7,0.1,1.5,0.7,2c0.2,0.2,0.5-0.1,0.5-0.3c0-0.3-0.1-0.6-0.2-0.9c-0.1-0.3-0.2-0.6-0.2-0.9
				c-0.2,0.1-0.5,0.2-0.7,0.3c0.3,0.6-0.6,0.9-0.9,0.5c-0.6-0.6,0.6-1.3,0.7-0.7C424,186.9,424.5,186.8,424.5,186.5L424.5,186.5z"/>
		</g>
	</g>
</g>
</svg>
