<?xml version="1.0" encoding="utf-8"?>
<!-- Generator: Adobe Illustrator 24.1.3, SVG Export Plug-In . SVG Version: 6.00 Build 0)  -->
<svg version="1.1" id="Ebene_1" xmlns="http://www.w3.org/2000/svg" xmlns:xlink="http://www.w3.org/1999/xlink" x="0px" y="0px"
	 viewBox="0 0 300 138.4" style="enable-background:new 0 0 300 138.4;" xml:space="preserve">
<style type="text/css">
	.st0{fill:#00B7D9;}
	.st1{fill:none;stroke:#000000;stroke-width:2;stroke-miterlimit:10;}
	.st2{stroke:#000000;stroke-width:6;stroke-miterlimit:10;}
	.st3{fill:#232323;}
	.st4{opacity:0.65;}
	.st5{fill:#6D6D6D;}
	.st6{fill:#00B7D9;stroke:#000000;stroke-width:7;stroke-miterlimit:10;}
	.st7{stroke:#000000;stroke-width:2;stroke-miterlimit:10;}
	.st8{fill:none;stroke:#000000;stroke-miterlimit:10;}
	.st9{fill:#C1C1C1;stroke:#000000;stroke-width:10;stroke-miterlimit:10;}
	.st10{fill:none;stroke:#000000;stroke-width:5;stroke-linecap:round;stroke-miterlimit:10;}
	.st11{fill:#686868;stroke:#000000;stroke-width:5;stroke-miterlimit:10;}
	.st12{fill:#565656;stroke:#000000;stroke-width:8;stroke-miterlimit:10;}
	.st13{fill:#919191;stroke:#000000;stroke-width:3;stroke-miterlimit:10;}
	.st14{fill:#494949;}
	.st15{fill:#242424;}
	.st16{fill:#919191;}
	.st17{fill:url(#SVGID_1_);}
	.st18{fill:#FFFFFF;}
	.st19{fill:#2E2E2E;}
	.st20{fill:#313131;}
	.st21{fill:#00B7D9;stroke:#333333;stroke-width:5;stroke-miterlimit:10;}
	.st22{fill:#00B7D9;stroke:#333333;stroke-width:3;stroke-miterlimit:10;}
	.st23{fill:#262626;}
	.st24{fill:#212121;}
	.st25{fill:#00B7D9;stroke:#000000;stroke-width:3;stroke-miterlimit:10;}
	.st26{fill:#3D3D3D;stroke:#000000;stroke-width:6;stroke-miterlimit:10;}
	.st27{fill:#00B7D9;stroke:#000000;stroke-width:2;stroke-miterlimit:10;}
	.st28{fill:#FFFFFF;stroke:#000000;stroke-miterlimit:10;}
	.st29{fill:#464943;stroke:#000000;stroke-miterlimit:10;}
	.st30{stroke:#000000;stroke-width:3;stroke-miterlimit:10;}
	.st31{fill:#BFBFBF;stroke:#000000;stroke-width:2;stroke-miterlimit:10;}
	.st32{fill:#242423;stroke:#000000;stroke-width:2;stroke-miterlimit:10;}
	.st33{fill:#A1C0FF;}
	.st34{fill:#646363;}
	.st35{fill:#00B7D9;stroke:#000000;stroke-width:6;stroke-miterlimit:10;}
	.st36{fill:#757575;}
</style>
<g>
	<g>
		<path class="st19" d="M245.7,27.7c-10,2.3-20.2,4.7-29.2,8.7s-17,10-20.5,17.6c-2.6,5.8-2.5,12-4.5,17.9
			c-2.1,6.1-6.5,11.7-12.6,15.9c-7,4.8-15.9,7.7-23.9,11.5c-8,3.8-15.7,9.1-17.6,16.2c-0.3,1-0.4,2.1,0.1,3.1c1.1,1.8,4,2.3,6.5,2.5
			c13.4,1.3,27.4,2.2,40.4-0.7c6.8-1.5,13.2-4,20.1-5.3c6.8-1.2,13.8-1.2,20.8-1.6c15.2-0.8,30.2-3.3,45.1-5.9
			c6.9-1.2,14.1-2.5,19.8-5.7s9.6-9.1,7.3-14.2c-2.1-4.9-8.9-7.8-11.9-12.4c-1.4-2.2-2-4.6-2.3-7.1c-0.6-4.3-0.5-8.7-1.5-12.9
			s-3.3-8.5-7.6-11.3c-4.3-2.8-11.1-3.6-15.7-1c-0.6-3.3-1.3-6.7-3.4-9.6c-2.2-2.9-6.2-5.3-10.6-5"/>
		<g>
			<path d="M245.3,26.2c-14.2,3-29.1,6.1-40.9,15.1c-4.2,3.2-8,7.3-10.2,12.2c-2.9,6.7-2.5,14.3-5.7,20.9
				c-7,14.3-23.6,17.7-36.5,24.4c-5,2.6-10.1,5.9-13.5,10.5c-2.2,3-4.9,8.2-1.4,11.3c3.7,3.2,11.6,2.6,16.1,2.9c8,0.5,16,0.7,24-0.2
				c7.2-0.9,14-3,21-4.9c8.3-2.2,16.6-2.6,25.2-2.9c16-0.7,31.8-3.2,47.6-6c10.1-1.8,26.9-4.5,29-17.1c0.9-5.7-3.2-9.6-7.2-12.9
				c-3.3-2.7-6.3-5.3-7.2-9.7c-0.9-4.1-0.8-8.3-1.4-12.4c-1.9-12.6-14-22.2-26.6-16.2c0.9,0.4,1.9,0.8,2.8,1.1
				c-1.6-8.7-6.1-15.9-15.8-16c-2.4,0-2.4,3.7,0,3.7c8,0.1,10.9,6.4,12.1,13.3c0.2,1.3,1.8,1.6,2.8,1.1c6.7-3.1,14.8-0.2,18.4,6
				c3.4,5.7,2.6,12.5,3.7,18.8c0.8,4.7,2.8,8,6.3,11.1c4.1,3.6,10.5,7.3,7.4,13.6c-3,6.1-10.6,8.5-16.7,9.9
				c-6.5,1.5-13.2,2.5-19.9,3.6c-13.6,2.2-27.2,3.6-41,4.3c-5.8,0.3-11.5,0.8-17.1,2.1c-6.2,1.5-12.2,3.8-18.5,5
				c-6.5,1.3-13.1,1.6-19.6,1.6c-3.1,0-6.2-0.2-9.3-0.4c-3.5-0.2-8,0-11.4-1.1c-7.7-2.5,2.7-11.6,5.8-13.8c4.9-3.4,10.4-5.7,15.8-8
				c9.9-4.2,19.8-8.7,26.1-17.8c3.6-5.2,4.6-10.9,5.8-17c1.4-7.1,4.4-12.8,10-17.4c11.3-9.3,26.7-12.6,40.6-16.1
				C247.9,28.7,247.1,25.8,245.3,26.2L245.3,26.2z"/>
		</g>
	</g>
	<g>
		<path class="st15" d="M244.9,28.6c1.6-2.5,3.1-5,4.7-7.5c1.1-1.8,2.3-3.6,3.8-5.3c4.1-4.3,11.1-6.9,18.1-6.6
			c-0.3,1.2-1.1,2.3-2.2,3.2c5.6,0.9,10.4,4.4,11.9,8.7c0.2,0.5,0.3,1.1,0.2,1.7c-0.4,1.3-2.2,1.9-3.9,1.9s-3.2-0.6-4.9-0.9
			c-6.8-1.5-14.8,0.5-19.1,4.8"/>
		<g>
			<path d="M245.4,29.2c4-3.6,5.7-9,9.6-12.7c4.4-4.2,10.5-5.7,16.4-5.7c-0.5-0.7-1-1.4-1.6-2.1c-0.6,0.9-1.1,1.7-1.7,2.6
				c-0.7,0.8-0.5,2.3,0.7,2.5c2.8,0.6,10.3,3,10.4,6.9c0.1,3.9-8.7,0.9-11.2,0.9c-5.6-0.1-11.8,1.7-15.7,5.9
				c-1.4,1.5,0.6,3.3,2.1,2.1c5.1-4,11.2-5.6,17.6-4.4c3.1,0.6,7.4,2.2,9.9-0.7c5.3-6.2-8.3-12.8-12.3-13.6c0.2,0.8,0.4,1.7,0.7,2.5
				c1.1-1.1,1.9-2,2.5-3.5c0.5-1.1-0.1-2.4-1.4-2.5c-13.1-0.1-23.6,8.2-27.3,20.9C243.9,29.2,244.9,29.7,245.4,29.2L245.4,29.2z"/>
		</g>
	</g>
	<g>
		<path class="st19" d="M189.8,70.9c-1.3-9.2-5.4-15.2-9.1-18.9c-7-7.2-14.4-8.1-18-16.1c-1.7-3.8-1.6-8.1-4.3-11.5
			c-3.9-5-13.3-6.6-20.2-4.2c-7,2.4-11.6,7.9-13,13.6c-0.9,3.4-0.8,7-1.8,10.4c-2.1,6.9-8.4,12.6-15.6,17s-15.2,8-22.4,12.4
			c-7.2,4.4-13.6,10-15.9,16.8c-2.3,6.8,0.7,15,8.6,18.6c3.5,1.5,7.6,2.1,11,3.7c2.6,1.2,4.6,2.8,7.1,4.2c5.8,3.2,13.3,4.2,20.4,3.9
			c8.6-0.4,15.3-1.7,20.9-3.4c26.5-7.9,39.7-11.9,47.3-22.5C187.3,91.5,192,83.6,189.8,70.9z"/>
		<g>
			<path d="M190.9,70.9c-1-11.4-7.4-20-16.7-26.2c-2.8-1.9-5.7-3.6-7.8-6.2c-2.5-3.1-2.9-6.8-4.1-10.4c-1.6-4.7-4.9-7.9-9.6-9.5
				c-10.3-3.5-22.5,0.9-27.5,10.8c-3.1,6.1-1.9,13.4-5.7,19.2c-4.4,6.7-11.9,11-18.8,14.7C89.2,69.5,74,75.5,68.5,88.2
				c-3.9,8.9,0.4,18.7,9.1,22.5c3.5,1.5,7.3,2.1,10.8,3.7c3.4,1.5,6.2,3.9,9.7,5.3c5.8,2.4,12.3,3,18.5,2.8
				c13.6-0.5,26.4-4.8,39.3-8.9c9.7-3.2,20.4-6.7,27.7-14.3c7.5-7.9,9.6-18.3,8-28.9c-0.4-2.3-3.8-1.3-3.5,1
				c1.4,9.2-0.5,18.5-7,25.4c-5.5,5.8-13.3,9-20.7,11.6c-10.1,3.6-20.6,7.2-31.1,9.2c-5.7,1.1-11.7,1.7-17.6,1.4
				c-7.1-0.3-12.7-2.6-18.7-6.2c-4.8-2.9-10.4-3.3-15.2-5.9c-5.3-2.9-8.3-8.8-6.9-14.8c3-12.9,19.6-19.3,29.9-24.8
				c9-4.8,19.6-10.8,23.6-20.8c2-5,1.3-10.6,3.6-15.4c2.9-6,9.2-9.8,15.8-10.2c3.3-0.2,7,0.3,10,1.9c3.8,2,4.9,5.3,5.9,9.2
				c1.3,4.8,3.3,8.7,7.2,11.8c4.7,3.8,10,6.3,14,10.9c4.2,4.8,6.3,10.5,7.8,16.5C189,72.4,191,72.2,190.9,70.9z"/>
		</g>
	</g>
	<g>
		<path class="st15" d="M146.7,18.8c3.4-5.9,10.1-10.7,18-13c-4-1.5-8.4-2.2-12.8-2.1c-0.5,0-1,0-1.5-0.1c-1-0.4-1.1-1.7-2.1-2
			c-0.3-0.1-0.7-0.1-1,0c-3.1,0.2-7,1-7.4,3.4c-0.2,1.5,1.2,2.8,1.5,4.2c0.5,2-1.1,3.9-1.7,5.9s0.4,4.7,3,4.8"/>
		<g>
			<path d="M147.4,19.6c5.1-5.7,10.3-9.9,17.7-12.3c1.5-0.5,1.4-2.5,0-2.9c-3-1-6-1.7-9.1-2c-1.7-0.1-3.4,0.1-4.9-0.6
				c-0.7-0.3-1-0.9-1.7-1.3c-2.8-1.3-8.3-0.2-10.2,2.4c-0.9,1.2-0.6,2.1-0.6,3.5c0,3.5,2.5-2.2,0.5,6.4c-0.2,1-0.9,1.8-0.9,2.9
				c-0.3,2.9,1.8,6,4.9,4.9c0.5-0.2,0.8-0.9,0.3-1.3c-4.1-3.8,0.2-6.1-0.4-10.2c-0.1-0.8-0.8-1.6-0.9-2.3c-0.3-2.4,2.7-4.5,5.2-3.8
				c2.1,0.6,2.2,2,4.6,2.2c4.3,0.4,8.3,0.6,12.4,2c0-1,0-2,0-2.9c-7.5,2.2-15.6,6.5-18.6,14.2C145.2,19.5,146.7,20.3,147.4,19.6
				L147.4,19.6z"/>
		</g>
	</g>
	<g>
		<path class="st19" d="M218.3,32.2c-3-4.3-6.4-6.7-8.6-7.9c-0.2-0.1,0,0-7-3.3c-1.6-0.8-3.2-1.5-5-2c-1.6-0.4-3.4-0.6-5.1-0.8
			c-6.3-0.7-13-1.3-19,0.4c-7.6,2.1-10.8,8.6-12.8,12.3c-22.4,42.7-29.2,45.7-24.4,54.4c9.3,17,42.5,19.9,44.3,20
			c37.1,2.9,81.5-19.8,78.3-42.5C256.4,44.1,222,33.4,218.3,32.2z"/>
		<g>
			<path d="M218.8,31.9C212,21.8,200,17.6,188.2,16.5c-7.5-0.6-15.8-0.7-21.9,4.4c-5.7,4.8-8.6,12.7-12.1,19
				c-5.9,10.7-12.6,21-18.2,31.8c-2.2,4.2-3.8,8.5-1.9,13.1c4.1,9.7,15.1,14.9,24.5,18c8.5,2.8,17.5,4.4,26.4,4.7
				c15.8,0.4,32-3.3,46.3-9.9c11-5.1,23.4-12.9,28-24.7c9.4-23.8-23.9-36.6-40.9-41.7c-1.3-0.4-1.9,1.6-0.6,2
				c6.9,2.1,13.9,5.7,20.2,9.2c8.3,4.6,19.1,12.1,19.1,22.8c0,11.4-11.5,20.1-20.3,25.3c-12.5,7.3-26.9,11.6-41.2,12.9
				c-8.6,0.8-17.1,0.3-25.6-1.4c-9.9-2-21-5.2-28.5-12.5c-3.8-3.7-6.2-7.7-4.2-12.9c2.6-7,7.3-13.4,10.9-19.8
				c4.1-7.1,8.1-14.4,11.9-21.7c4.3-8.2,8.2-15,18.4-16c13.6-1.4,30.3,2.4,39.2,13.5C218.3,33.2,219.2,32.5,218.8,31.9z"/>
		</g>
	</g>
	<g>
		<path class="st15" d="M195.3,18.1c0.3-0.2,0.1,0.5-0.2,0.3c-0.3-0.2-0.1-0.6,0.2-0.8c2.6-2.7,5.6-5.2,9-7.3
			c1.3-0.8,2.7-1.9,2.2-3.1c-2.8,0.9-5.6,1.9-8.4,2.8c-0.9,0.3-1.8,0.6-2.8,0.5c-1.5-0.1-2.7-1-3.9-1.7c-1.2-0.7-3-1.2-4.2-0.5
			c-1.3,0.8-0.7,2.4-0.1,3.5c1,1.9,2,3.7,3,5.6"/>
		<g>
			<path d="M194.7,19.1c0.1,0,0.1,0.1,0.2,0.1c-0.1-0.5-0.3-1.1-0.4-1.6c0.2-0.1,0.4-0.3,0.6-0.4c0.4,0.4,0.8,0.8,1.3,1.3
				c-0.1-1.1,6.8-5.6,8.1-6.5c1.7-1.2,3.6-2.4,3.3-4.7c-0.1-0.8-0.8-1.6-1.7-1.3c-3.9,1.4-9.2,4.1-13.1,2.3c-2-0.9-4-2.4-6.2-1.1
				c-4,2.3,0.7,9,2.8,11.1c0.7,0.7,1.8,0,1.6-1c-0.4-1.9-2.3-3.7-2.5-5.5c-0.5-3.9,3.9-0.5,5.2-0.1c4,1.1,9.2-1.9,13-3.1
				c-0.6-0.4-1.1-0.9-1.7-1.3c0,1.4-4.1,3.4-5,4.1c-1.4,1.1-2.8,2.2-4.1,3.4c-1.2,1.2-3,2.5-2,4.3c0.3,0.5,0.9,0.7,1.4,0.6
				c0.1,0,0.2-0.1,0.3-0.1c0.4-0.1,0.8-0.4,0.8-0.8c0-0.1,0-0.2,0-0.2c0.2-0.8-0.3-1.4-1.1-1.5c-0.1,0-0.1,0-0.2,0
				C194.2,16.9,193.8,18.6,194.7,19.1L194.7,19.1z"/>
		</g>
	</g>
	<g>
		<path class="st19" d="M84.9,72.1c-11.1-3.2-19-2.4-23.2-1.5c-3.2,0.6-7.3,1.9-14.9,5.3c-4.8,2.2-9.6,4.3-14.5,6.5
			c-4,1.8-8,3.6-11,6.2c-4.5,3.8-6.3,9-7.9,14c-0.3,1-0.6,2-0.2,2.9c0.4,1.1,1.6,1.9,2.8,2.5c8.9,5.2,19.8,8.3,31,8.9
			c1.9,0.1,3.8,0.1,5.6,0.6c5.2,1.4,8,6.1,13.2,7.4c5,1.2,10.3-1.1,15.4-0.7c9,0.7,13.9,8.7,22.2,11.5c6.2,2,13.7,0.8,18.8-2.6
			c5.9-3.8,7.6-9.1,8.6-13.6c0.8-3.3,4.6-19.7-10.4-33.5C107.2,73.7,88.6,72.3,84.9,72.1z"/>
		<g>
			<path d="M85.2,71c-8.6-3.2-18.3-3.7-27.2-1.2c-4.7,1.4-9.3,3.4-13.8,5.4c-6.8,3-14.2,5.6-20.6,9.6c-4.5,2.8-7.6,6.6-9.7,11.4
				c-1.4,3.3-4,8.2-1.3,11.4c3.1,3.5,9.2,5.3,13.5,6.9c6.8,2.4,13.7,3.5,20.9,4.1c3.7,0.3,6.5,0.7,9.6,2.9c2.3,1.6,4.3,3.4,6.9,4.5
				c5.9,2.4,11.7-0.5,17.7,0c5.6,0.5,9.8,4.4,14.2,7.5c4.7,3.2,9.7,5.3,15.5,5c18.4-0.9,25.5-19.6,21.7-35.5
				c-5.1-21-27.9-31.3-47.7-32.6c-2.3-0.2-2.3,3.5,0,3.6c16,1,34.1,8.1,41.8,23c6.8,13.2,4.1,34.7-13.2,37.7
				c-11.4,2-16.9-6.7-26.2-10.6c-3.7-1.6-7.4-1.7-11.3-1.2c-3.2,0.4-6.6,1.3-9.8,0.5c-2.6-0.6-4.7-2.4-6.8-3.9
				c-3.4-2.5-6.5-3.7-10.6-4c-6.3-0.5-12.5-1.1-18.6-3c-3.9-1.2-15-3.9-15.2-9.3c-0.1-4.8,5-11.4,8.5-14.1
				c4.9-3.8,11.2-5.9,16.8-8.4c5.6-2.5,11.1-5.2,17-7.2c9.1-3,18-2,27.2-0.2C86,73.4,86.6,71.5,85.2,71z"/>
		</g>
	</g>
	<g>
		<path class="st15" d="M18.5,89.7c-0.5-4-6.3-7-11.3-5.9C6,85.1,6.3,87,7.5,88.3c1.2,1.3,3,2.3,4.8,3.1c-2.9,0.2-5.7,1-8.1,2.3
			c-1.2,0.6-2.3,1.5-2.5,2.6c-0.5,2.2,3.2,3.8,5.9,3.2s4.6-2.5,6.3-4.3"/>
		<g>
			<path d="M19.5,89.7c-0.3-5.3-7-8.5-11.8-7.6c-2.4,0.5-3.1,2.9-2.4,5.1c0.9,2.8,3.9,4.2,6.3,5.4c0.2-0.8,0.5-1.7,0.7-2.5
				C8.9,90.3-3,92.8,0.7,98.6c3.6,5.5,11.2,1.2,14.2-2.4c1.1-1.4-0.6-3.2-2-2c-1.7,1.6-5.6,5.7-8.3,3.6c-3.7-2.8,6-4.8,7.8-5
				c1.2-0.2,2-1.9,0.7-2.5c-1.3-0.6-2.8-1.3-3.9-2.3c-1-0.7-1.3-1.6-0.9-2.8c0.6-0.1,1.3-0.1,1.9,0c3.1,0.2,6.3,1.8,7.4,4.8
				C17.9,90.9,19.6,90.9,19.5,89.7L19.5,89.7z"/>
		</g>
	</g>
</g>
</svg>
