<?xml version="1.0" encoding="utf-8"?>
<!-- Generator: Adobe Illustrator 24.1.3, SVG Export Plug-In . SVG Version: 6.00 Build 0)  -->
<svg version="1.1" id="Ebene_1" xmlns="http://www.w3.org/2000/svg" xmlns:xlink="http://www.w3.org/1999/xlink" x="0px" y="0px"
	 viewBox="0 0 530.9 273.1" style="enable-background:new 0 0 530.9 273.1;" xml:space="preserve">
<style type="text/css">
	.st0{fill:#00B7D9;}
	.st1{fill:none;stroke:#000000;stroke-width:2;stroke-miterlimit:10;}
	.st2{stroke:#000000;stroke-width:6;stroke-miterlimit:10;}
	.st3{fill:#232323;}
	.st4{opacity:0.65;}
	.st5{fill:#6D6D6D;}
	.st6{fill:#00B7D9;stroke:#000000;stroke-width:7;stroke-miterlimit:10;}
	.st7{stroke:#000000;stroke-width:2;stroke-miterlimit:10;}
	.st8{fill:none;stroke:#000000;stroke-miterlimit:10;}
	.st9{fill:#C1C1C1;stroke:#000000;stroke-width:10;stroke-miterlimit:10;}
	.st10{fill:none;stroke:#000000;stroke-width:5;stroke-linecap:round;stroke-miterlimit:10;}
	.st11{fill:#686868;stroke:#000000;stroke-width:5;stroke-miterlimit:10;}
	.st12{fill:#565656;stroke:#000000;stroke-width:8;stroke-miterlimit:10;}
	.st13{fill:#919191;stroke:#000000;stroke-width:3;stroke-miterlimit:10;}
	.st14{fill:#494949;}
	.st15{fill:#242424;}
	.st16{fill:#919191;}
	.st17{fill:url(#SVGID_1_);}
	.st18{fill:#FFFFFF;}
	.st19{fill:#2E2E2E;}
	.st20{fill:#313131;}
	.st21{fill:#00B7D9;stroke:#333333;stroke-width:5;stroke-miterlimit:10;}
	.st22{fill:#00B7D9;stroke:#333333;stroke-width:3;stroke-miterlimit:10;}
	.st23{fill:#262626;}
	.st24{fill:#212121;}
	.st25{fill:#00B7D9;stroke:#000000;stroke-width:3;stroke-miterlimit:10;}
	.st26{fill:#3D3D3D;stroke:#000000;stroke-width:6;stroke-miterlimit:10;}
	.st27{fill:#00B7D9;stroke:#000000;stroke-width:2;stroke-miterlimit:10;}
	.st28{fill:#FFFFFF;stroke:#000000;stroke-miterlimit:10;}
	.st29{fill:#464943;stroke:#000000;stroke-miterlimit:10;}
	.st30{stroke:#000000;stroke-width:3;stroke-miterlimit:10;}
	.st31{fill:#BFBFBF;stroke:#000000;stroke-width:2;stroke-miterlimit:10;}
	.st32{fill:#242423;stroke:#000000;stroke-width:2;stroke-miterlimit:10;}
	.st33{fill:#A1C0FF;}
	.st34{fill:#646363;}
	.st35{fill:#00B7D9;stroke:#000000;stroke-width:6;stroke-miterlimit:10;}
	.st36{fill:#757575;}
</style>
<g>
	<g>
		<path class="st11" d="M468.2,217.9c20-0.4,40.1-0.7,60.1-1.1c-0.3-6.8-0.9-16.6-2.1-28.5c-2-19.4-3.7-35.7-10-54.9
			c-6.3-19.4-9.7-29.7-19.5-34.3c-11.6-5.4-31.1-2.1-31.1-2.1c0,0,0,0,0,0c0,0,0,0,0,0L468.2,217.9z"/>
		<path class="st11" d="M161.2,103.5c-1.5-2.7-5.8-9.3-14.2-13.2c-8.9-4.1-19.7-4.1-26.9,0c-7.5,4.2-12.8,13.8-14.2,46.9
			c-0.8,19.1-0.3,46.2,5.8,79.1c7.5,3.3,34.9,14.5,53.3,2.6C188.1,203.9,194,153.7,161.2,103.5z"/>
		<path class="st12" d="M496.1,206.9c-18.5-52.5-23.9-95-25.3-124.5c-1.1-23.8,0.4-37.4-10-50.1c-13.1-16-29.6-11.5-103.9-20
			C296,5.3,287.8,0,269.3,8c-15.4,6.7-26.3,17.4-46.9,16.9c-13.7-0.4-19.7-5.4-31.6-2.6c-16.9,3.9-26.8,19-29.5,23.2
			c-18.1,27.6-4,53.8-5.8,102.3c-0.6,17.1-3.4,41.9-13.7,71.7c33.7,13.9,247.2,99.4,338.1,7.9C485.7,221.5,491.2,214.7,496.1,206.9z
			"/>
	</g>
	<g>
		<path class="st13" d="M424.7,47.2c-6.6-3-16.1-6.5-28.1-7.9c-8.8-1.1-16.5-0.7-22.5,0c2.9,6.6,7.2,18.5,7.1,34
			c0,15.7-4.5,27.8-7.5,34.4c8.6-3.3,18.5-6.4,29.7-9.1c12.2-2.9,23.4-4.6,33.2-5.5C432.6,77.8,428.6,62.5,424.7,47.2z"/>
		<g>
			<g>
				<path d="M411.6,36.2c0.1,0,0.1-0.1,0-0.1C411.5,36.1,411.5,36.2,411.6,36.2L411.6,36.2z"/>
			</g>
		</g>
		<g>
			<g>
				<path d="M417,37.1c-2,0.2-2.9,2.8-3.6,4.5c-0.9,2.4-1.6,5.2-1.2,7.8c0.2,1.2,1.7,0.9,2.1,0c0.9-2.3,1.2-4.7,2-7
					c0.6-1.6,1.8-3.4,1.1-5C417.4,37.2,417.2,37.1,417,37.1L417,37.1z"/>
			</g>
		</g>
		<g>
			<g>
				<path d="M392,35.3c-0.1,1.6,0,3.3-0.1,4.9c0,1.5-0.3,3.1-0.1,4.5c0.2,1.1,1.7,1.1,2.2,0.3c0.8-1.4,0.9-3.3,1-4.8
					c0.1-1.7-0.2-3.6-0.8-5.2C393.7,33.8,392,34,392,35.3L392,35.3z"/>
			</g>
		</g>
		<g>
			<g>
				<path d="M383,54.8c-2.4-2.1-6.7-3.2-9.4-0.8c-0.7,0.6-0.1,1.8,0.7,1.7c1.2-0.1,2.3-0.4,3.6-0.3c1.4,0.1,2.6,0.4,3.8,1.1
					C382.8,57,384,55.6,383,54.8L383,54.8z"/>
			</g>
		</g>
		<g>
			<g>
				<path d="M382.7,80.9c-1.3-1.1-2.7-1.9-4.5-1.9c-1.6-0.1-3.5,0.3-4.5,1.6c-0.6,0.8,0.2,1.9,1.1,1.9c1.1,0,2.1-0.6,3.2-0.6
					c1.1,0,2.4,0.1,3.4,0.6C382.4,83,383.6,81.7,382.7,80.9L382.7,80.9z"/>
			</g>
		</g>
		<g>
			<g>
				<path d="M388.7,97.2c1,1-0.3,3.9-0.7,5.1c-0.7,2.1-1.9,3.9-2.7,5.9c-0.5,1.3,1.4,2.2,2.2,1.3c2.5-2.4,4-6.9,4.1-10.3
					c0-1.4-1.1-4.6-2.9-2.8C388.5,96.5,388.5,96.9,388.7,97.2L388.7,97.2z"/>
			</g>
		</g>
		<g>
			<g>
				<path d="M424.6,61.6c0.1,0,0.2,0,0.4,0.1c-0.1,0.7-0.2,1.4-0.3,2c2.3-1.1,4.4-2.6,6.8-3.5c2.2-0.8,4.6-1.3,6.8-2
					c1.2-0.4,0.9-1.9-0.3-2c-5-0.6-11.5,1.9-15,5.5c-0.8,0.8-0.2,2.2,0.9,2.2c1,0,1.8-0.5,1.8-1.6C425.8,61.6,425.2,61.3,424.6,61.6
					L424.6,61.6z"/>
			</g>
		</g>
		<g>
			<g>
				<path d="M424.5,76.6c3.6,1.5,7.8,2.1,11.5,0.6c1-0.4,0.8-1.7-0.2-1.8c-3.5-0.3-6.9-0.2-10.4-0.7
					C424.3,74.5,423.3,76.1,424.5,76.6L424.5,76.6z"/>
			</g>
		</g>
		<g>
			<g>
				<path d="M417.2,92.6c0.3,0.9,0.5,1.8,0.6,2.7c0.1,0.9-0.1,1.9,0.4,2.7c0.4,0.6,1.3,0.7,1.8,0.2c1.5-1.5,0.6-5-0.5-6.6
					C418.7,90.5,416.8,91.2,417.2,92.6L417.2,92.6z"/>
			</g>
		</g>
		<g>
			<g>
				<path d="M252.2,17.6c-7.1,3.9-10.4,12.5-12.8,19.8c-3.3,10.1-5.9,20.7-8.2,31.1c-0.5,2.1,2.7,3,3.2,0.9
					c1.9-7.6,4.5-14.8,5.8-22.5c1.2-7.2,1.7-14.5,1.6-21.8c0-2.1-3.3-2.1-3.3,0c0.3,14-1,30.1-7.2,43c1,0.4,2,0.9,3.1,1.3
					c2.6-9.3,4.7-18.8,7.5-28c2.6-8.5,6.4-15.3,11.4-22.5C253.8,18,252.8,17.2,252.2,17.6L252.2,17.6z"/>
			</g>
		</g>
		<g>
			<g>
				<path d="M244.3,21.1c-1.5,1-1.9,2.9-2.6,4.5c-0.6,1.5-1.6,3.5-0.7,5c0.2,0.3,0.6,0.5,1,0.4c1.6-0.5,2.1-2.4,2.6-3.9
					c0.6-1.7,1.5-3.6,1-5.4C245.5,21.1,244.8,20.8,244.3,21.1L244.3,21.1z"/>
			</g>
		</g>
		<g>
			<path class="st14" d="M135.5,88.7c-0.8,1.9-1.6,4.4-2.1,7.5s-0.4,5.7-0.2,7.8c-1.8-1.2-4.1-1.4-6.2-1c-2.1,0.4-4.1,1.5-6,2.5
				c-2.4,1.3-5,3-5.3,5.7c-1.2-0.6-2.9-1.6-3.9-3.5c-2.5-4.7,1.4-11,3.8-13.7C122.4,86.4,134.3,88.5,135.5,88.7z"/>
			<g>
				<path d="M134.8,88.3c-3.1,4.6-3.9,10.2-3.6,15.7c1-0.5,1.9-1.1,2.9-1.6c-3.7-2-7.4-1.7-11.1,0.2c-3.7,1.9-7.7,4.1-8.9,8.2
					c0.8-0.3,1.6-0.6,2.4-1c-9.5-5.4,0.9-16.7,7.4-18.8c3.8-1.2,7.8-0.9,11.7-1.1c1.5,0,1.6-1.9,0.3-2.4c-6-2.5-14.6-0.7-19.6,3.4
					c-6.6,5.4-10.7,16.9-1.4,21.6c0.9,0.5,2.1,0.1,2.4-1c1.3-5.2,10.5-8.4,15-6c1.2,0.6,3-0.1,2.9-1.6c-0.4-5.1,0.4-10.1,1.2-15.1
					C136.3,88.1,135.3,87.6,134.8,88.3z"/>
			</g>
		</g>
		<g>
			<g>
				<path d="M126,94.8c3.9,0.7,7.9,1,11.8,0.9c1,0,1.4-1.7,0.3-1.9c-3.8-0.8-7.8-1.2-11.7-1.3C125.1,92.5,124.7,94.5,126,94.8
					L126,94.8z"/>
			</g>
		</g>
		<g>
			<g>
				<path d="M125.6,98.7c0.4,1.9,1.3,3.6,2,5.4c0.7,1.6,1.2,3.3,2.1,4.8c0.3,0.6,1.4,0.4,1.4-0.4c-0.3-3.5-2.1-7.8-4.4-10.4
					C126.2,97.6,125.4,98.1,125.6,98.7L125.6,98.7z"/>
			</g>
		</g>
		<g>
			<g>
				<path d="M117.1,101.1c0.9,4,1.7,7.9,2.7,11.9c0.2,0.8,1.3,0.6,1.3-0.2c0.3-4.4-0.7-8.4-2.8-12.2
					C117.9,99.9,116.9,100.4,117.1,101.1L117.1,101.1z"/>
			</g>
		</g>
		<g>
			<path class="st15" d="M509.3,123.3c-2,0.9-5.1,2.2-9.1,2.7c-2.1,0.3-5.5,0.4-9.5-0.5c5.3,9.3,7.6,20.3,6.7,31
				c3.7-3.5,8.3-6.1,13.3-7.4c0.9-0.2,1.7-0.4,2.6-0.3c4.1,0.4,5.7,1.9,6.7,1.3c1.6-1-0.8-7.6-4.3-17.7c-1.6-4.5-2.8-8.2-3.6-10.3
				C511.4,122.3,510.5,122.8,509.3,123.3z"/>
			<g>
				<path d="M509.3,122.7c-2.4,0.2-4.6,1.2-7,1.7c-3.8,0.7-7.5,0.6-11.3-0.1c-1-0.2-1.9,0.8-1.4,1.8c5.2,9.5,7.5,19.6,6.7,30.4
					c-0.1,1,1.2,1.3,1.8,0.7c2.9-2.7,6.2-4.8,9.9-6.2c3.5-1.3,6.4-0.8,9.9-0.1c1.9,0.4,3,0.3,3.5-1.6c0.9-3-1.6-7.9-2.5-10.7
					c-1.9-5.6-3.7-11.3-5.9-16.8c-0.2-0.5-0.9-1-1.4-0.6c-0.8,0.6-1.7,1.1-2.6,1.6c-0.6,0.4-0.2,1.5,0.5,1.2c2.8-1,2.2,0,3,2.6
					c1,2.9,2,5.7,3,8.6c0.9,2.4,1.7,4.9,2.5,7.3c0.3,0.9,2,5,1.4,5.9c-0.8,1.2-4.7-0.6-6-0.7c-1.6-0.1-3.1,0.3-4.6,0.8
					c-4.6,1.5-8.7,4-12.3,7.3c0.6,0.2,1.2,0.5,1.8,0.7c0.8-11-1.5-21.9-6.7-31.6c-0.5,0.6-0.9,1.2-1.4,1.8c6,1.2,14.4,1.4,19.4-2.9
					C510.1,123.4,509.8,122.7,509.3,122.7z"/>
			</g>
		</g>
		<g>
			<g>
				<path d="M504.4,127.4c0.7-1,0.6-2.5,0.6-3.7c0-1.4-0.2-2.5-0.8-3.7c-0.3-0.5-1.1-0.4-1.3,0.2c-0.3,1.3-0.2,2.5-0.1,3.8
					c0.1,1.2-0.1,2.4,0.4,3.5C503.4,128,504.1,127.8,504.4,127.4L504.4,127.4z"/>
			</g>
		</g>
		<g>
			<g>
				<path d="M497.4,130.9c0.6-3.4,0.7-6.7-1.8-9.3c-0.4-0.4-0.9,0-0.8,0.5c0.5,2.7,1.4,5.6,1,8.4
					C495.6,131.4,497.2,131.9,497.4,130.9L497.4,130.9z"/>
			</g>
		</g>
		<g>
			<g>
				<path d="M498.5,139.2c-2.9-0.6-6.8-1.4-9.6-0.4c-0.9,0.3-1,1.7,0,1.9c1.5,0.3,3,0.1,4.5,0.1c1.6,0,3.3,0.1,4.9,0.2
					C499.3,141.2,499.6,139.4,498.5,139.2L498.5,139.2z"/>
			</g>
		</g>
		<g>
			<g>
				<path d="M500.2,144.2c-3-0.1-6.1,0.4-8.4,2.5c-0.6,0.5,0,1.4,0.7,1.2c2.6-0.6,5.1-1.5,7.7-1.7
					C501.6,146.2,501.6,144.2,500.2,144.2L500.2,144.2z"/>
			</g>
		</g>
		<g>
			<g>
				<path d="M504.7,146.3c-0.4,1.2-0.8,2.5-1.1,3.7c-0.3,1.1-0.8,2.3-0.8,3.6c0,0.7,1,1.3,1.6,0.6c1.6-2,1.7-5.3,1.8-7.7
					C506.2,145.6,505,145.5,504.7,146.3L504.7,146.3z"/>
			</g>
		</g>
		<g>
			<g>
				<path d="M510.8,147.4c-0.6,2-1,4.1-0.8,6.2c0.1,0.9,1.2,1,1.6,0.2c0.8-2,1.1-4,1.1-6.1C512.8,146.6,511.1,146.4,510.8,147.4
					L510.8,147.4z"/>
			</g>
		</g>
		<g>
			<g>
				<path d="M274.2,67.6c-2.3,2.5-6.5,5.5-7.2,9.2c-0.6,3.2,3,6,4.8,8.2c-0.1-0.5-0.1-1.1-0.2-1.6c-1.8,3.5-5.8,6.3-6.4,10.4
					c-0.3,1.6,0.2,2.9,0.7,4.4c1.2,3.6,1.5,6.2,0.2,9.8c-1.6,4.4-3.5,8.7-3.1,13.5c0.7,7.3,4.5,13.9,0.6,20.8
					c-0.4,0.7,0.6,1.2,1,0.6c2.4-3.3,2.5-7.6,1.9-11.4c-0.5-3.4-1.8-6.8-2-10.2c-0.1-4.2,1.5-7.2,3-11c1.6-3.9,2.5-7.3,1-11.4
					c-1.3-3.7-1.3-5.9,1.4-9c1.5-1.7,2.9-3.1,4-5.1c0.3-0.6,0.2-1.1-0.2-1.6c-0.8-1-1.8-2-2.5-3.1c-1.4-2.3-1.3-3-0.1-5.2
					c1.2-2.2,2.3-4.5,4-6.3C275.6,67.9,274.7,67.1,274.2,67.6L274.2,67.6z"/>
			</g>
		</g>
		<g>
			<g>
				<path d="M262.2,149.6c0,0.9-0.2,1.8,0.3,2.6c0.2,0.3,0.6,0.3,0.8,0c0.4-0.8,0.3-1.7,0.3-2.6
					C263.5,148.8,262.2,148.8,262.2,149.6L262.2,149.6z"/>
			</g>
		</g>
		<g>
			<g>
				<path d="M262.4,156.6c0.2,0.4,0.3,0.8,0.7,1.1c0.2,0.1,0.4,0.1,0.5-0.1c0.1-0.5,0-0.9-0.1-1.4c-0.1-0.3-0.5-0.5-0.8-0.4
					C262.4,155.9,262.3,156.3,262.4,156.6L262.4,156.6z"/>
			</g>
		</g>
		<g>
			<g>
				<path d="M276.8,67.8c-1.9,1.8-2.6,4.2-2.4,6.8c0.3,3,4.1,6.9,3.3,9.4c-1,3.1-6.1,4.6-7.4,7.6c-1.1,2.6,1.6,4.5,2.2,6.8
					c1.7,5.9-3.3,7.4-5.6,11.5c-1.6,2.9-1.4,5.9-1.4,9.2c0,9.3-3.9,18-1.4,27.3c0.1,0.5,0.9,0.3,0.8-0.2c-1.6-7,0.5-14,1.6-20.9
					c0.4-2.8,0.3-5.6,0.4-8.4c0.2-5.1,2.2-7.9,6.3-10.6c2.9-2,3-3.4,1.5-6.4c-1.3-2.6-4.3-5.1-2.5-8.3c1.5-2.8,5.8-5.5,8.1-7.7
					c0.3-0.2,0.4-0.8,0.1-1.1c-3.3-4.3-6-9.2-2.9-14.5C277.6,67.9,277.1,67.5,276.8,67.8L276.8,67.8z"/>
			</g>
		</g>
		<g>
			<g>
				<path d="M279,72.5c-0.7,0.3-1.4,0.5-2,0.9c-0.3,0.2-0.1,0.7,0.3,0.6c0.7-0.2,1.3-0.5,2-0.7C279.7,73.1,279.5,72.3,279,72.5
					L279,72.5z"/>
			</g>
		</g>
		<g>
			<g>
				<path d="M278.9,73.5c-7.1,1.5-14.9,4.8-20.5,9.5c-0.5,0.4,0,1.4,0.7,1.2c6.8-2.8,13.7-6.5,20.1-10.1
					C279.5,73.9,279.2,73.4,278.9,73.5L278.9,73.5z"/>
			</g>
		</g>
		<g>
			<g>
				<path d="M281.5,89.9c-8.3,1.1-16.8,3-24.2,7.1c-0.7,0.4-0.2,1.6,0.6,1.3c7.9-2.5,15.6-5.5,23.8-7.5
					C282.1,90.7,282,89.8,281.5,89.9L281.5,89.9z"/>
			</g>
		</g>
		<g>
			<g>
				<path d="M277.1,108.3c-6.7,1.4-13.7,2.7-20.1,5.2c-0.8,0.3-0.5,1.5,0.4,1.3c6.8-1.1,13.4-3.5,19.9-5.6
					C277.9,109,277.7,108.2,277.1,108.3L277.1,108.3z"/>
			</g>
		</g>
		<g>
			<g>
				<path d="M270.4,125.7c-3.1,1.5-6.5,2.7-9.2,4.9c-0.4,0.4,0,1,0.5,0.9c3.3-0.9,6.3-3,9.3-4.7
					C271.8,126.4,271.2,125.4,270.4,125.7L270.4,125.7z"/>
			</g>
		</g>
		<g>
			<g>
				<path d="M271.9,136.8c-4.5,0.4-9.5,2.5-12.4,6c-0.4,0.5,0.1,1.3,0.8,1c1.8-1,3.6-2.1,5.5-3c2.1-1,4.2-1.5,6.4-2.2
					C273.2,138.4,273.1,136.7,271.9,136.8L271.9,136.8z"/>
			</g>
		</g>
		<g>
			<path class="st16" d="M198.4,25.1c-1.4,2.3-3.1,5.6-4.3,9.9s-1.4,8.1-1.3,10.7c-5.6-1.1-11.6,0.4-16,4c-2.3,1.9-4.5,4.4-7.4,4.5
				c-1.1-0.5-7.4-3.3-8-8.2c-0.4-3.3,2.3-5.9,7.7-10.8c7.6-7,13.8-12.7,22.2-12.1C194.4,23.3,196.9,24.3,198.4,25.1z"/>
			<g>
				<path d="M197.9,24.8c-4.2,6.4-6.3,13.3-6.3,21c0.5-0.4,1-0.7,1.5-1.1c-5.6-0.9-11.1,0-15.8,3.4c-2.4,1.8-5.1,5.6-8.3,5
					c-2.5-0.5-5.9-3.8-6.4-6.2c-1-3.9,2.8-6.8,5.2-9.1c2.7-2.6,5.6-5.1,8.4-7.7c7-6.4,13.4-7.5,22.1-4.5c0.5,0.2,0.8-0.6,0.4-0.9
					c-6.3-4-13.7-1.8-19.6,1.7c-4.5,2.7-8.2,5.9-12.1,9.5c-2.3,2.2-5.4,4.6-6.4,7.8c-1.4,4.8,3.3,9.8,7.7,11.2
					c2.1,0.7,3.9-0.2,5.7-1.4c2.9-2,5-4.3,8.4-5.5c3.3-1.2,6.6-1.4,10-0.9c0.7,0.1,1.5-0.3,1.5-1.1c0-7.1,1.6-14.1,5-20.4
					C199.3,24.7,198.3,24.1,197.9,24.8z"/>
			</g>
		</g>
		<g>
			<g>
				<path d="M190.7,32.7c3,1.5,7.2,2.1,10.5,2c0.7,0,0.8-1,0.2-1.2c-3.1-1.2-7.3-1.8-10.5-1.4C190.5,32.1,190.4,32.6,190.7,32.7
					L190.7,32.7z"/>
			</g>
		</g>
		<g>
			<g>
				<path d="M187.7,40.1c1.1,0,2.2,0,3.2,0.2c1,0.2,1.9,0.5,2.9,0.8c0.6,0.2,1-0.6,0.6-1c-1.7-1.8-5-2.1-7-0.9
					C187,39.4,187.1,40.1,187.7,40.1L187.7,40.1z"/>
			</g>
		</g>
		<g>
			<g>
				<path d="M181.1,43c0.3,2,1.4,3.7,1.6,5.7c0.1,0.9,1.3,0.9,1.4,0c0.2-2.2,0-4.9-1.8-6.4C181.7,41.8,180.9,42.3,181.1,43L181.1,43
					z"/>
			</g>
		</g>
		<g>
			<g>
				<path d="M175.6,46.6c-0.5,2.6-0.5,5.6,0.9,8c0.3,0.5,1.2,0.3,1.2-0.3c0-2.5-0.6-5-0.8-7.5C176.8,46.1,175.8,45.9,175.6,46.6
					L175.6,46.6z"/>
			</g>
		</g>
		<g>
			<g>
				<path d="M167.9,47.5c-0.7,0.6-1.5,1.2-2.2,1.9c-0.6,0.6-1.4,1.4-1.6,2.3c-0.1,0.5,0.4,1,0.9,0.7c0.7-0.4,1.3-1.3,1.9-1.9
					c0.6-0.7,1.2-1.5,1.9-2.1C169.4,47.9,168.5,47,167.9,47.5L167.9,47.5z"/>
			</g>
		</g>
		<g>
			<g>
				<path d="M371.5,16.3c1.5,3.5,4.1,6.6,5.9,9.9c1,1.8,3.8,0.6,3.3-1.4c-0.6-2.1,7.9-3.7,9.1-5.3c0.4-0.5,0.4-1.3-0.2-1.7
					c-2.7-1.5-6.1,0.6-8.6,2c-2.4,1.3-4.6,3-3.8,5.9c1.2-0.3,2.3-0.6,3.5-1c-1.5-3.8-4-8.2-8.1-9.7C372,14.9,371.2,15.6,371.5,16.3
					L371.5,16.3z"/>
			</g>
		</g>
		<g>
			<g>
				<path d="M383,17.5c-1.8,0.4-4.1,1.1-5.6,2.2c0.6,0.7,1.1,1.4,1.7,2.2c0.8-0.8,1.5-1.5,2-2.5c0.4-0.7,0.1-1.7-0.8-1.9
					c-1.2-0.3-2.5-0.2-3.8-0.5c-0.1,1-0.3,2-0.4,3c1,0.1,2-0.1,2.8-0.7c0.6-0.4,0.9-1,0.7-1.8c-0.4-2-2.8-0.7-3.9-0.5
					c-1.5,0.2-1.4,2.6,0,2.9c1.5,0.3,3.1,0.6,4.6,0.1c-0.5-0.5-1.1-1.1-1.6-1.6c-0.1,0.5-0.4,1-1,1.2c-1.7,0.5-1,3.1,0.7,2.7
					c1.8-0.5,3.8-1.7,5.4-2.8C384.7,18.8,384.2,17.2,383,17.5L383,17.5z"/>
			</g>
		</g>
	</g>
</g>
<g>
	<g>
		<g>
			<path d="M81.7,211.6c4.1-9.6,3.8-19.7,4.9-30c0.3-2.6,2.6-8.4,0.6-10.8c-2.1-2.6-8.3-1.7-11.1-1.7c-3,0-9.1-1.5-11.7,0.4
				c-2.4,1.7-2.2,7.8-2.3,10.3c-0.2,5.8,0.5,11.6,1,17.4c0.5,5.9,0.8,12,2,17.8c0.2,0.8,1.3,0.6,1.3-0.2c0.3-8.3-1.1-16.8-1.6-25.1
				c-0.2-4.2-0.4-8.4,0.1-12.6c-0.1-1.6,0.3-3,1.1-4.3c0.2-1.3,1.1-1.7,2.5-1.1c2-0.5,4.6-0.1,6.7-0.2c2.1,0,4.3-0.2,6.4-0.1
				c3.4,0.2,3.7,1.3,3.4,4.6c-0.3,3.3-1,6.7-1.3,10c-0.7,8.4-0.8,16.9-3,25.1C80.4,211.8,81.4,212.3,81.7,211.6L81.7,211.6z"/>
		</g>
	</g>
	<g>
		<g>
			<path d="M80.6,170.6c0.2-2.4,0.6-4.7,0.8-7.1c0.1-2,0.6-4.5,0.2-6.5c-0.5-2.7-3.9-2.3-6.1-2.3c-2.3,0-4.4-0.2-4.6,2.5
				c-0.1,2.1,0.5,4.3,0.5,6.4c0.1,2.1-0.6,4.4,0,6.5c0.1,0.4,0.7,0.7,1.1,0.3c1.4-1.7,1.3-4,1.3-6.2c0-1.4-0.1-2.8-0.2-4.3
				c0-0.6-0.3-1.6-0.2-2.1c0.3-1-1.1-0.2,0.7-0.6c1-0.2,2.9-0.2,3.9,0.1c1.2,0.4,0.8,0.2,1,1.3c0.1,0.7,0,1.5,0,2.2
				c0,3.3,0.3,6.5,0.5,9.8C79.5,171.3,80.6,171.3,80.6,170.6L80.6,170.6z"/>
		</g>
	</g>
	<g>
		<g>
			<path d="M85.3,181.9c-3-0.7-6.1-0.3-9.1-0.6c-4-0.3-7.7-1.4-11.7-2c-0.5-0.1-0.9,0.6-0.4,0.9c5.5,3.2,15.4,5.1,21.3,2.1
				C85.6,182.3,85.5,181.9,85.3,181.9L85.3,181.9z"/>
		</g>
	</g>
	<g>
		<g>
			<path d="M83.4,194.9c-4.6,1.8-9.5,0.6-14-0.9c-0.5-0.2-1,0.6-0.6,1c2.5,2.1,5.7,3,8.9,2.9c2.1-0.1,5.4-0.2,6.2-2.5
				C84,195.1,83.7,194.8,83.4,194.9L83.4,194.9z"/>
		</g>
	</g>
	<g>
		<g>
			<path d="M60.6,193.5c-6.6-2-13.3-3.2-20.2-4.1c-3.1-0.4-6.3-0.6-9.5-0.8c-0.2,0.3-0.5,0.5-0.7,0.8c0-0.2-0.1-0.3-0.2-0.4
				c-0.1,0-0.4-0.3-0.6-0.3c-1.6-0.5-2.2,2.2-0.7,2.4c10.5,1.5,21.1,2.3,31.6,3.5C61.1,194.8,61.2,193.7,60.6,193.5L60.6,193.5z"/>
		</g>
	</g>
	<g>
		<g>
			<path d="M29.6,190.5c0.6,0,0.6-1,0-1C29,189.5,29,190.5,29.6,190.5L29.6,190.5z"/>
		</g>
	</g>
	<g>
		<g>
			<path d="M29,189c-3.4,2.2-4.8,6.2-6.3,9.8c-0.9,2.2-2.1,4.5-2.7,6.8c-0.6,2.3,0.5,3.3,0.6,5.7c0,0.5,0.6,0.6,0.9,0.2
				c0.6-1,0.9-1.8,1-2.9c0.2-2.2,0.5-3.6,1.4-5.8c1.9-4.5,3.8-8.4,6.5-12.5C31,189.6,29.8,188.5,29,189L29,189z"/>
		</g>
	</g>
	<g>
		<g>
			<path d="M25.9,196c-5.6-3-11.4-4.9-17.3-6.9c-1-0.3-1.4,1-0.7,1.6c1.5,1.1-5.4,7-2.6,9.7c1.2,1.2,4.3,1.3,5.8,1.6
				c3.3,0.7,6.6,1.4,9.9,2c1.5,0.3,2.2-2,0.6-2.3c-2.9-0.5-5.7-1-8.6-1.5c-1.3-0.2-3.1-0.2-4.3-0.7c-1.4,0.2-2.1-0.4-2.1-1.9
				c0.2-0.5,0.5-1.1,0.7-1.6c1.2-2.1,4.4-4.7,1.2-6.7c-0.1,0.5-0.3,1.1-0.4,1.6c2.9,0.2,5.7,2.3,8.4,3.3c2.8,1.1,5.7,2.3,8.6,3.1
				C26.1,197.5,26.5,196.4,25.9,196L25.9,196z"/>
		</g>
	</g>
	<g>
		<g>
			<path d="M80,157.2c-1.3-0.1-2.6,0.4-4,0.5c-1.4,0-2-0.3-3.1-1c-0.6-0.3-1.4-0.1-1.5,0.6c-0.4,2,1.8,2.8,3.4,2.8
				c2,0.1,4.5-0.4,5.8-2C80.8,157.7,80.4,157.3,80,157.2L80,157.2z"/>
		</g>
	</g>
	<g>
		<g>
			<path d="M7.8,190.9c0.1,0,0.1,0,0.2-0.1c0.2-0.1,0.3-0.2,0.3-0.5c0.1-1.2-1.3-1.3-2.1-1c-1.8,0.7-2.8,3.1-3.1,4.9
				c-0.2,1.1-0.6,2-0.9,3.1c-0.2,0.7-0.1,1.2,0.3,1.8c0.9,1.2,2.7,1.4,3.9,0.8c0.7-0.3,0.3-1.2-0.3-1.2c-0.8-0.1-1,0-1.8-0.4
				c-1.1-0.6-0.6-1.2,0-2.1c0.5-0.6,0.9-1.1,1.2-1.9c0.4-1,0.7-1.8,1.5-2.6c0.3-0.3,1.1-1.3,1.1-1.3c-0.3,0-0.5,0-0.8,0
				c0-0.1,0-0.1,0-0.2C7.3,190.7,7.5,191,7.8,190.9L7.8,190.9z"/>
		</g>
	</g>
	<g>
		<g>
			<path d="M40.8,193.1c0.2,3,0.5,5.4-0.6,8.3c-1.1,2.8-3.1,4.9-4.5,7.5c-0.5,1.1,0.7,2,1.6,1.3c4.2-3.7,9.2-12.4,4.8-17.7
				C41.8,192,40.8,192.5,40.8,193.1L40.8,193.1z"/>
		</g>
	</g>
	<g>
		<g>
			<path d="M56.5,193.9c-0.3,2.7,0.4,5.2-0.1,8c-0.5,2.7-1.9,5-3.5,7.2c-0.4,0.6,0.4,1.4,1,1c4.4-3.2,8.1-12,3.8-16.6
				C57.2,192.9,56.6,193.3,56.5,193.9L56.5,193.9z"/>
		</g>
	</g>
</g>
</svg>
