<?xml version="1.0" encoding="utf-8"?>
<!-- Generator: Adobe Illustrator 24.1.3, SVG Export Plug-In . SVG Version: 6.00 Build 0)  -->
<svg version="1.1" id="Ebene_1" xmlns="http://www.w3.org/2000/svg" xmlns:xlink="http://www.w3.org/1999/xlink" x="0px" y="0px"
	 viewBox="0 0 491.1 780.4" style="enable-background:new 0 0 491.1 780.4;" xml:space="preserve">
<style type="text/css">
	.st0{fill:#00B7D9;}
	.st1{fill:none;stroke:#000000;stroke-width:2;stroke-miterlimit:10;}
	.st2{stroke:#000000;stroke-width:6;stroke-miterlimit:10;}
	.st3{fill:#232323;}
	.st4{opacity:0.65;}
	.st5{fill:#6D6D6D;}
	.st6{fill:#00B7D9;stroke:#000000;stroke-width:7;stroke-miterlimit:10;}
	.st7{stroke:#000000;stroke-width:2;stroke-miterlimit:10;}
	.st8{fill:none;stroke:#000000;stroke-miterlimit:10;}
	.st9{fill:#C1C1C1;stroke:#000000;stroke-width:10;stroke-miterlimit:10;}
	.st10{fill:none;stroke:#000000;stroke-width:5;stroke-linecap:round;stroke-miterlimit:10;}
	.st11{fill:#686868;stroke:#000000;stroke-width:5;stroke-miterlimit:10;}
	.st12{fill:#565656;stroke:#000000;stroke-width:8;stroke-miterlimit:10;}
	.st13{fill:#919191;stroke:#000000;stroke-width:3;stroke-miterlimit:10;}
	.st14{fill:#494949;}
	.st15{fill:#242424;}
	.st16{fill:#919191;}
	.st17{fill:url(#SVGID_1_);}
	.st18{fill:#FFFFFF;}
	.st19{fill:#2E2E2E;}
	.st20{fill:#313131;}
	.st21{fill:#00B7D9;stroke:#333333;stroke-width:5;stroke-miterlimit:10;}
	.st22{fill:#00B7D9;stroke:#333333;stroke-width:3;stroke-miterlimit:10;}
	.st23{fill:#262626;}
	.st24{fill:#212121;}
	.st25{fill:#00B7D9;stroke:#000000;stroke-width:3;stroke-miterlimit:10;}
	.st26{fill:#3D3D3D;stroke:#000000;stroke-width:6;stroke-miterlimit:10;}
	.st27{fill:#00B7D9;stroke:#000000;stroke-width:2;stroke-miterlimit:10;}
	.st28{fill:#FFFFFF;stroke:#000000;stroke-miterlimit:10;}
	.st29{fill:#464943;stroke:#000000;stroke-miterlimit:10;}
	.st30{stroke:#000000;stroke-width:3;stroke-miterlimit:10;}
	.st31{fill:#BFBFBF;stroke:#000000;stroke-width:2;stroke-miterlimit:10;}
	.st32{fill:#242423;stroke:#000000;stroke-width:2;stroke-miterlimit:10;}
	.st33{fill:#A1C0FF;}
	.st34{fill:#646363;}
	.st35{fill:#00B7D9;stroke:#000000;stroke-width:6;stroke-miterlimit:10;}
	.st36{fill:#757575;}
</style>
<path class="st26" d="M78.1,767.3c5-79.9,10-159.8,15-239.7c22.8,0,51.5,0,82.3,0c99.3-0.1,131.7-0.3,177.2,1.8
	c20.4,0.9,51.6,2.7,90.2,6.3c3.2,51.9,4.8,106.8,4,164.6c-0.3,19.4-0.8,38.4-1.6,57c-10.8,0.9-21.6,1.8-32.4,2.7
	c1.3-43.1,2.6-86.2,4-129.4c-1.1-18.7-2.1-37.4-3.2-56.1c-34.2,0.6-68.7,0.9-103.6,0.9c-65.3,0-129.4-0.9-192.3-2.7
	c-2.2,22.8-3.8,47-4.7,72.4c-1.5,43-0.7,83,1.6,119.4C102.4,765.5,90.2,766.4,78.1,767.3z"/>
<g>
	<path class="st27" d="M379,430.5c6.7-1.3,15.7-2.3,26.4-1.6c11.4,0.8,20.8,3.4,27.4,5.8c-1.6,31-3.2,61.9-5,92.8
		c-0.3,4.5-0.5,9.3-0.8,13.7c-8.7-3-20.6-5.8-34.5-5.3c-3.9,0.1-7.5,0.5-10.8,1.1C380.8,501.6,379.9,466.1,379,430.5z"/>
	<circle class="st28" cx="422.9" cy="439.8" r="3.2"/>
	<path class="st29" d="M386,449.9c3.9-0.7,8.5-1.3,13.5-1.5c10.4-0.3,19.3,1.3,25.8,3.2c-0.2,1.4-0.4,2.7-0.5,4.1
		c-5.3-1.8-12.7-3.6-21.8-3.8c-6.8-0.2-12.6,0.6-17.1,1.6C385.9,452.3,386,451.1,386,449.9z"/>
	<path class="st29" d="M386,457.7c3.9-0.7,8.5-1.3,13.5-1.5c10.4-0.3,19.3,1.3,25.8,3.2c-0.2,1.4-0.4,2.7-0.5,4.1
		c-5.3-1.8-12.7-3.6-21.8-3.8c-6.8-0.2-12.6,0.6-17.1,1.6C385.9,460.1,386,458.9,386,457.7z"/>
</g>
<g>
	<path class="st25" d="M190.5,400.6c26.9,3.4,56.6,5.8,88.6,6.3c21.2,0.4,41.3-0.1,60.1-1.2c2.1,9.3,3.8,19.7,4.7,31.3
		c2,25.3-0.8,47.1-4.4,63.7c-17.4-2.1-35.8-3.4-55-3.6c-2.9,0-5.8,0-8.7,0c0.3,7.6,0.5,15.3,0.8,22.9c1.9,1.2,4.5,2.5,7.6,3.4
		c5.3,1.6,9.9,1.6,12.9,1.3c-0.1,2.9-0.2,5.8-0.3,8.7c-15.7-0.4-31.8-0.5-48.3-0.3c-8.3,0.1-16.5,0.3-24.5,0.5
		c0.7-3.5,1.4-7,2.1-10.5c8.2,0.3,16.4,0.5,24.5,0.8c1.3-0.7,2.4-1.5,3.2-2.4c7.3-7.6,2.1-22.1,1.6-23.5c-9-0.3-18.7-0.2-29,0.3
		c-12.8,0.6-24.7,1.9-35.6,3.4c-3.6-10.5-7.1-24.6-8.2-41.4C181.2,434.9,186.1,413.9,190.5,400.6z"/>
	<path class="st30" d="M198.4,409.3c18.8,2.5,39.7,4.4,62.5,5c25.2,0.6,48.3-0.4,68.8-2.4c2.3,11.3,4.3,24.9,4.7,40.4
		c0.5,15.2-0.6,28.6-2.1,39.8c-15.4-2.4-32.4-4.2-50.6-5c-31.5-1.4-59.6,0.5-83.6,3.7c-3-9.3-6.3-23.1-6.3-40.1
		C191.7,433.1,195.3,418.8,198.4,409.3z"/>
</g>
<path class="st31" d="M112.9,453.1c-0.4-0.5,0.1-1.2,0.7-1c4.7,1.7,11.5,3.5,19.7,3.4c6.2,0,11.5-1.1,15.4-2.3
	c0.5-0.2,1,0.4,0.7,0.9c-2.2,3.6-5.3,10-5.4,18.4c-0.3,15.8,10.1,26.1,12.2,28c0,0,0.1,0.1,0.1,0.2c1.5,2.7,4.5,9.3,3.5,17.7
	c-1.5,13.7-12.2,21.2-14.2,22.5c-0.1,0-0.1,0.1-0.2,0.1c-4.2,1-9.7,2-16.1,2c-8.4,0-15.2-1.6-20.1-3.1c-0.1,0-0.2-0.1-0.2-0.1
	c-2.7-2.3-10.1-9.5-11.8-20.9c-1.9-13.1,4.6-26.5,16.5-34.8c0,0,0.1-0.1,0.1-0.1c1.6-2,4.5-6.4,5.1-12.6
	C119.8,462.7,115.5,456.2,112.9,453.1z"/>
<path class="st32" d="M257.7,478.3c-13-1.5-26.7-2.6-41.1-3.3c-24.2-1.1-46.7-0.6-67.3,0.8c1.3,47.1,2.6,94.3,4,141.4
	c-2.4,42.5-4.7,85.1-7.1,127.6c9-0.3,17.9-0.5,26.9-0.8c0.1-13.3,0.3-26.8,0.8-40.6c0.7-20.7,1.8-40.7,3.2-60.1
	c7.7,3,21,6.9,37.2,4.9c6.5-0.8,12-2.4,16.6-4.1c1.6,29.8,3.2,59.6,4.7,89.4c7.1,1.1,14.2,2.2,21.4,3.3
	c-1.6-39.3-3.2-78.6-4.7-117.8C254,572,255.9,525.1,257.7,478.3z M175.2,605.6c-4.7-39.3-9.5-78.6-14.2-117.8
	c6.4-0.2,12.8-0.4,19.3-0.5c2,40.2,4,80.4,6.1,120.5C182.5,607,178.9,606.3,175.2,605.6z M208.4,611.5c-3.2-1.4-6.3-2.7-9.5-4.1
	c-4.2-36.7-8.4-73.3-12.7-110c7.9,0.5,15.8,1.1,23.7,1.6C209.4,536.6,208.9,574.1,208.4,611.5z M226.9,611.3
	c-2.9-1.6-5.8-3.3-8.7-4.9c0-40.1,0-80.2,0-120.3c6.9,1.4,13.7,2.9,20.6,4.3C234.8,530.7,230.8,571,226.9,611.3z"/>
<g>
	<g>
		<path d="M140,531.3c0.1-18.3-3-36.6-8.1-54.2c-4.9-17-9.1-35-16.7-51.1c-0.1-0.3-0.5-0.2-0.6,0.1c-6.2,17.4-28.1,26.4-29,46.1
			c0,0.4,0.5,0.4,0.6,0c1.1-14.4,13.1-23,21.7-33.3c1.6-1.9,3.1-3.9,4.3-6c0.9-1.5,1.7-4.8,3.2-5c1.5-0.2,6.4,17.6,7,19.8
			c4.1,13.5,8.6,27,11.8,40.7c3.3,14.1,4.8,28.4,5.4,42.8C139.6,531.6,140,531.6,140,531.3L140,531.3z"/>
	</g>
</g>
<g>
	<g>
		<path d="M85.9,472.1c2.8,3.2,3.4,8,0.3,11.4c-1.4,1.5-2.9,2-4.6,2.9c-2.1,1.2-4.3,3.8-6.4,4.6c-2.3,0.8-4.3,0.7-1.7-1.2
			c0.9-0.6,1.9-1.1,2.9-1.8c1.3-0.9,2.3-1.8,3.1-3.1c0.2-0.3-0.2-0.7-0.5-0.4c-1.2,1.2-6.2,2.5-8.4,2c-2.2,0.7-2.5,0.3-1.1-1.1
			c0.5-0.1,0.9-0.3,1.4-0.5c1.1-0.7,1.8-0.7,2.6-2c0.2-0.3-0.1-0.6-0.4-0.5c-1.7,0.4-3.5,0.7-5.3,0.9c-2.1,0.6-2.4,0.3-0.9-0.9
			c0.9-1.2,2.1-1.4,3.2-2.3c0.3-0.2,0.1-0.7-0.3-0.6c-2.3,1-4.1,0.6-5.4-1.2c-1.7-0.7-1.8-1.4-0.4-2.2c1.2-1.8,4.2-2.1,5.9-2.8
			c1.8-0.1,3.2-0.9,4.5-2.3c1.3-2,2.9-2.6,4.7-1.8c1.6,0,5.6,1.2,5.8,3c0.1,0.4,0.7,0.3,0.7-0.1c-0.2-1.5-0.9-2-2.4-2.6
			c-2.6-1.1-7.4-2.4-10.3-1.3c-2.3,0.9-4.2,5.1-0.5,4.8c0.5,0,0.5-0.7,0-0.7c-4.5,0-8.1,1.8-10.9,5.3c-0.1,0.1-0.2,0.4,0,0.5
			c0.5,0.4,6.9,3.6,6.9,2.3c0,0-3,0.9-3.4,1.2c-1.2,0.9-1,0.8-1.5,2.1c-0.1,0.2,0.1,0.4,0.3,0.4c1.7,0,3.9-0.6,5.6-0.4
			c0.6-0.1,1.2-0.2,1.8-0.3c-0.6,0.7-1.3,1.1-2.2,1.2c-1.3,0.6-2.2,0.8-2.9,2.2c-0.1,0.2,0,0.5,0.3,0.5c3-0.2,6.2-0.1,9.1-0.6
			c0.5-0.1,1-0.2,1.5-0.3c0.8-0.2,1.2-1,0.8-0.4c-1.7,2.8-6.2,3.1-7.8,6.4c-0.1,0.2,0,0.5,0.3,0.5c2.8,0,4.6-1.1,6.8-2.7
			c2.7-2,6.3-3.5,8.8-5.8c3.9-3.6,3.5-9,0.1-12.7C86,471.4,85.6,471.8,85.9,472.1L85.9,472.1z"/>
	</g>
</g>
<g>
	<g>
		<path d="M83.4,475.3c0.3,0.2,0.2,1.3,0.2,1.7c-0.2,1.3-0.9,2.3-1.9,3c-0.8,0.6-1.8,1.4-2.8,1.7c-0.3,0.3-0.6,0.3-1,0.1
			c-0.6-0.1-0.6-0.2,0-0.5c0,0,0.7-0.5,0.8-0.6c0.9-0.7,1.7-1.5,2.5-2.4c0.2-0.2-0.1-0.5-0.3-0.3c-0.8,0.8-3.5,2.3-4.6,1.7
			c-0.5-0.3-0.4-0.2,0.2-0.8c0.7-0.7,1.5-1.2,2.4-1.7c0.3-0.1,0.1-0.5-0.1-0.5c-1.1-0.1-2.2,0.1-3.3,0.2c-0.4,0-1.8,0.3-2-0.2
			c-0.1-0.2,0.9-1.4,1-1.6c1.1-1.2,2.5-2.2,4.2-2.1c0.7,0,3.2,0.7,3.7,1.1c0.2,0.2,0.5-0.1,0.3-0.3c-1.1-1.3-3.8-1.7-5.4-1.3
			c-2.3,0.6-3.8,2.4-4.6,4.5c-0.1,0.1,0.1,0.3,0.2,0.3c2,0.3,3.9-0.2,5.9-0.2c0-0.2-0.1-0.3-0.1-0.5c-1.4,0.8-2.6,1.8-3.5,3.1
			c-0.1,0.2,0.1,0.4,0.3,0.3c0.9-0.2,1.9,0.2,2.8-0.1c0.3-0.1,2.5-1.5,2.6-1.4c-0.4-0.5-3.8,2.5-4.4,3.4c-0.1,0.1,0,0.4,0.2,0.4
			c2.3,0.5,5.2-1.2,6.7-2.8c0.9-0.9,2-4.1,0.5-5C83.3,474.7,83.1,475.1,83.4,475.3L83.4,475.3z"/>
	</g>
</g>
<g>
	<g>
		<path d="M86.2,472c2.7-0.2,5.4,1.5,7.1,3.4c1.2,1.3,2,2.9,1.6,4.7c-0.1,0.3-0.8,1.8-0.9,1.8c-0.1-0.1,0.1-0.4,0.1-0.5
			c-0.5-1.2-0.9-2.6-2.1-3.4c-1.9-1.3-3.1-3-4.5-4.8c-0.1-0.2-0.4,0-0.3,0.2c0.8,1.5,1.9,2.9,3,4c1.2,1.2,4.3,2.6,3.2,4.7
			c-0.1,0.1,0,0.3,0.2,0.3c2.8-0.2,2-4.8,1-6.3c-1.6-2.3-5.4-5.4-8.4-4.4C85.9,471.7,86,472,86.2,472L86.2,472z"/>
	</g>
</g>
<g>
	<g>
		<path d="M103.7,444.9c-1.6,3.1-2.5,5.8-2,9.3c0.4,3,1.2,5.8,1.2,8.8c-0.1,2.5-1.2,9.8-4.2,10.6c-1.2,0.3-0.1,0.2,0.2-0.9
			c0.2-0.8,0.5-1.4,0.7-2.2c0.3-1.4,0.1-2.6,0-4.1c-0.3-2.7-0.8-5.2-0.6-7.9c0.3-4.5,2.1-7.5,4.2-11.3c0.1-0.2-0.2-0.4-0.3-0.2
			c-1.5,2.2-3.6,4.8-4.3,7.3c-0.4,1.5-0.1,2.5-0.1,4.1c0.1,5.6,1.6,11.7-1.5,16.7c-0.1,0.2,0.1,0.5,0.4,0.4
			c3.6-2.5,5.6-6.2,6.1-10.7c0.3-2.4,0-4.8-0.3-7.2c-0.4-2.8-1.3-5.3-0.6-8.2c0.4-1.5,1-2.9,1.6-4.3
			C104.1,444.8,103.8,444.7,103.7,444.9L103.7,444.9z"/>
	</g>
</g>
<g>
	<g>
		<path d="M80.5,510.6c-0.9,2.6,0.5,5.4,2.6,7.1c1.1,0.8,2.3,1.4,3.6,1.8c0.8,0.3,1.7,0.6,2.6,0.6c0.5,0,0.9-0.2,1.4-0.2
			c0.2,0,0.3-0.3,0.2-0.4c-1.2-1.1-2.6-2.2-3.6-3.5c-0.9-1.1-1.3-2.3-2.5-3.1c-0.7-0.5-1.5-0.7-2.3-1.1c-0.8-0.3-1.4-1-2.2-1.1
			c-0.2,0-0.2,0.2-0.1,0.3c0.4,0.2,0.6,0.7,1.1,1c1.2,0.6,2.5,0.6,3.6,1.6c0.9,0.8,1.2,1.9,2,2.8c0.8,1,2,1.8,2.9,2.8
			c0.1,0.1,0.5,0.4,0.5,0.4c-0.1,0.4-1.3,0.1-1.8,0c-1.3-0.2-2.7-0.7-3.9-1.4c-2.7-1.6-4.1-4.3-3.8-7.4
			C80.8,510.5,80.6,510.5,80.5,510.6L80.5,510.6z"/>
	</g>
</g>
<g>
	<g>
		<path d="M149.3,522.2c-7.9,3.3-16.3,5.6-24.7,7.4c-3.2,0.7-21.7,4.2-22.4-1c-0.5-3.1,18.8-3.9,21.6-4.3c8.6-1.2,17.3-2.7,25.8-5.1
			c0.3-0.1,0.2-0.5-0.1-0.5c-9.2,2-18.2,4-27.6,5.2c-6.7,0.9-14.6,0.2-20.8,3.3c-0.1,0.1-0.2,0.3-0.1,0.4c0.1,0.7,0.2,1.4,0.3,2.1
			c-0.1,0.2,0.1,0.4,0.2,0.4c7.7,2.3,15.5,1.6,23.2,0c8.3-1.8,17-3.9,24.7-7.7C149.5,522.4,149.4,522.1,149.3,522.2L149.3,522.2z"/>
	</g>
</g>
<g>
	<g>
		<path d="M121.9,521.2c-0.9,1.7-1.6,3.6-3.3,4.6c-2.2,1.2-5.9,0.4-6.6-2.3c-0.4-1.4,0.3-1.1,1.5-1.1c0.9,0,1.9-0.1,2.8-0.2
			c1.7-0.2,3.5-0.4,5.2-0.9c0.3-0.1,0.2-0.5-0.1-0.5c-2.1,0.4-4.1,0.8-6.2,0.9c-0.8,0-3-0.5-3.7,0c-1.1,0.8,0.3,2.7,1,3.4
			c1.5,1.6,3.8,2.1,5.9,1.3c2.2-0.9,3.4-3.1,4-5.2C122.2,521.1,122,521,121.9,521.2L121.9,521.2z"/>
	</g>
</g>
<g>
	<g>
		<path d="M127.7,540.6c0.9-1,3.5-1.2,4.7-1.6c0.8-0.2,1.6-0.5,2.4-0.7c0.5-0.1,1.1-0.3,1.6-0.4c1-0.5,1.2-0.2,0.4,1
			c-0.5,1.6-1,1.4-2.4,1.9c-0.7,0.2-1.4,0.5-2.2,0.7c-0.8,0.2-1.6,0.5-2.4,0.5c-0.9,0.2-1.6,0-2.3-0.7c0-1,0.1-0.8,0.3,0.7
			c-0.3,0.2,0,0.7,0.3,0.5c0.9-0.6,1-3.1-0.6-2.9c-1.1,0.2-0.9,2.1-0.2,2.7c0.5,0.5,2,0.2,2.6,0.2c1.7-0.2,3.4-0.9,5-1.4
			c2.3-0.8,4.8-1.3,3.2-4.2c-0.1-0.1-0.2-0.2-0.3-0.1c-2.3,0.6-4.6,1.2-6.9,1.9c-1.1,0.4-2.9,0.5-3.6,1.6
			C127.5,540.6,127.6,540.7,127.7,540.6L127.7,540.6z"/>
	</g>
</g>
<g>
	<g>
		<path d="M135.4,538.2c0,0.4,0.4,0.6,0.6,1c0.2,0.5,0.1,0.9,0,1.4c-0.1,0.3,0.3,0.5,0.5,0.2c0.3-0.5,0.3-1.2,0-1.8
			C136.3,538.7,135.9,538,135.4,538.2C135.4,538.2,135.4,538.2,135.4,538.2L135.4,538.2z"/>
	</g>
</g>
<g>
	<g>
		<path d="M145.2,540c-0.3,0.1-2.7-1.2-3.2-1.4c-1.6-0.5-2.9-1.1-4.3-2c-1.1-0.7-2.6-2.2-4-1.4c-0.6,0.3-1.3,1.5-0.5,2
			c0.9,0.6,2-0.8,2.4-1.4c0.2-0.3-0.3-0.5-0.5-0.3c-0.2,0.3,8.9,5.1,10,4.8c0,0,0.1-0.1,0.1-0.1C145.2,540.1,145.2,540,145.2,540
			C145.2,540,145.2,540,145.2,540L145.2,540z"/>
	</g>
</g>
<g>
	<g>
		<path d="M133.6,537.4c0.2,0.1,0.4,0.3,0.5,0.5c0.2,0.1,0.3,0.3,0.5,0.4c0.2,0.2,0.5-0.2,0.3-0.4c-0.2-0.1-0.4-0.3-0.6-0.4
			c-0.2-0.1-0.4-0.2-0.6-0.3C133.6,537.1,133.4,537.3,133.6,537.4L133.6,537.4z"/>
	</g>
</g>
<g>
	<g>
		<path d="M138.1,539.9c0.5,0.4,0.9,0.7,1.5,1c0.4,0.2,0.9,0.5,1.3,0.4c0.1,0,0.2-0.1,0.1-0.2c-0.3-0.4-0.8-0.5-1.2-0.7
			c-0.5-0.2-1.1-0.4-1.6-0.7C138.1,539.6,138,539.8,138.1,539.9L138.1,539.9z"/>
	</g>
</g>
<g>
	<g>
		<path d="M142.1,538.9c-0.2,0.5-0.6,1-1,1.4c-0.4,0.4-0.9,0.5-1.3,0.8c-0.2,0.1,0,0.4,0.2,0.4c0.6,0,1.2-0.4,1.6-0.8
			c0.5-0.5,0.7-1,0.8-1.6C142.4,538.8,142.2,538.7,142.1,538.9L142.1,538.9z"/>
	</g>
</g>
<g>
	<path class="st33" d="M327.3,552.1c0.9-2.7,0.7-5.8-0.6-8.3s-3.5-4.6-6.2-5.6c-1.1-0.4-2.4-0.6-3.6-0.4c-1.2,0.2-2.3,0.8-3.2,1.6
		c-2.3,1.9-3.7,4.7-5,7.3c-0.8,1.6-1.5,3.5-0.6,5c2.3-0.2,4.6-0.4,6.9,0c0.6,0.1,1.3,0.3,1.9,0.5c2,0.5,4.1,1,6.2,1
		c0.6,0,1.1,0,1.6-0.1c1.1-0.2,2.3-0.6,3.2-1.4"/>
	<g>
		<path d="M327.5,552.2c1.9-6.3-1.9-14.7-9.3-14.9c-3.2-0.1-5.7,2.2-7.4,4.7c-1.8,2.6-4.4,6.6-3.1,9.8c0.1,0.2,0.2,0.3,0.4,0.3
			c4.5-0.4,8.1,0.7,12.5,1.3c2.9,0.4,5.1,0.4,7.6-1.2c0.4-0.3,0-1-0.4-0.7c-3.6,2.4-7.7,1-11.6,0.1c-1.3-0.3-2.5-0.5-3.8-0.5
			c-0.6,0-2.3,0.4-2.8,0.1c-1.9-1-0.7-3.7-0.1-4.9c2.3-4.9,6.4-10.2,12.4-7.1c4.7,2.4,6.4,7.9,5.3,12.8
			C326.9,552.4,327.4,552.5,327.5,552.2L327.5,552.2z"/>
	</g>
</g>
<g>
	<g>
		<path d="M319.8,537.7c-0.3,0.5-0.3,1.1-0.4,1.7c-0.1,0.3-0.1,0.7-0.1,1c-0.1,0.6,0,0.8-0.6,1.1c-0.3,0.4-0.5,0.4-0.6-0.1
			c0-0.2,0-0.3,0-0.5c0-0.3,0-0.6,0-0.9c0-0.3,0.1-2.2,0.4-2.1c0.3,0.1,0.5-0.3,0.2-0.5c-1-0.7-1.2,0.8-1.3,1.5
			c-0.1,0.9-0.5,2.6,0.3,3.4c0.7,0.7,1.6,0.2,1.9-0.5c0.2-0.5,0.2-1.1,0.3-1.6c0.1-0.8,0.3-1.6,0.1-2.4
			C320.1,537.6,319.9,537.6,319.8,537.7L319.8,537.7z"/>
	</g>
</g>
<g>
	<g>
		<path d="M327.1,547.6c-6-1.6-12.3-2.3-18.5-2.5c-0.4,0-0.4,0.5,0,0.6c6.2,0.4,12.3,1.3,18.4,2.3
			C327.2,547.9,327.3,547.6,327.1,547.6L327.1,547.6z"/>
	</g>
</g>
<g>
	<g>
		<path d="M317.9,541.8c-0.1,0.7-0.1,1.4-0.2,2c-0.1,0.6-0.4,1.2-0.4,1.8c0,0.2,0.2,0.3,0.4,0.2c0.7-0.9,0.9-2.9,0.5-4
			C318.2,541.7,318,541.7,317.9,541.8L317.9,541.8z"/>
	</g>
</g>
<g>
	<g>
		<path d="M318.5,537.7c4.3-9.1-16-9.6-20.2-9.6c-0.5,0-0.5,0.8,0,0.8c4.5,0.1,22.3-0.1,19.8,8.6
			C318.1,537.8,318.4,537.9,318.5,537.7L318.5,537.7z"/>
	</g>
</g>
<g>
	<g>
		<path d="M328.4,495.2c-0.8-0.6-1.8,0.6-1.2,1.3c0.6,0.7,2,0.1,1.8-0.9c-0.3-1.2-1.9-1.2-2.2,0c-0.1,0.5,0.2,1.2,0.8,1.3
			c0.5,0.2,1.1-0.1,1.4-0.5c0.7-1-0.5-2.3-1.6-1.9c-0.6,0.2-0.8,0.8-0.7,1.3c0.1,0.5,0.6,0.9,1.1,1c0.6,0.1,1.1-0.1,1.4-0.6
			c0.1-0.2,0.3-0.5,0.2-0.7c-0.1-0.2-0.3-0.5-0.5-0.6c-0.8-0.6-2.1-0.2-2.1,0.9c0,0.5,0.3,1,0.8,1.2c0.5,0.2,1.1-0.1,1.3-0.6
			c0.6-1.2-1.2-2.1-1.9-1c-0.2,0.3,0.1,0.6,0.4,0.6c0.5,0,0.7-0.3,0.7-0.8c0-0.3-0.5-0.3-0.7-0.1c0,0,0,0,0,0
			c0.1,0.2,0.2,0.4,0.4,0.6c0.1-0.2,0.5-0.1,0.4,0.1c-0.1,0.3-0.3,0.3-0.5,0.1c-0.1-0.2-0.1-0.5,0.2-0.5c0.3-0.1,0.6,0.1,0.7,0.4
			c0-0.1,0-0.2,0-0.3c-0.1,0.3-0.3,0.5-0.7,0.5c-0.3,0-0.6-0.4-0.4-0.6c0.2-0.3,0.7,0,0.8,0.2c0.1,0.3-0.1,0.6-0.4,0.6
			c-0.4,0-0.4-0.6-0.1-0.7c0.2-0.1,0.5,0.2,0.4,0.4c-0.1,0.1-0.4,0.2-0.5,0c-0.2-0.2,0.2-0.5,0.4-0.4
			C328.4,495.8,328.7,495.4,328.4,495.2L328.4,495.2z"/>
	</g>
</g>
<g>
	<g>
		<path d="M324,494.9c-1.3-0.3-3-0.6-4.3-0.4c-0.5,0.1-0.7,0.8-0.1,0.9c1.3,0.3,3.1,0.2,4.4,0C324.2,495.4,324.2,495,324,494.9
			L324,494.9z"/>
	</g>
</g>
<g>
	<g>
		<path d="M315.6,494.5c-0.2-0.8-1.5-0.8-2.1-0.9c-0.8-0.1-2.1-0.5-2.6,0.3c-0.1,0.1-0.1,0.2,0,0.3c0.3,0.4,0.5,0.4,0.9,0.4
			c0.7,0,1.3,0.1,2,0.1C313.9,494.8,315.8,495.2,315.6,494.5L315.6,494.5z"/>
	</g>
</g>
<g>
	<g>
		<path d="M308.2,493.4c-0.8-0.3-1.8-0.3-2.7-0.6c-0.5-0.2-1.3-0.8-1.8-0.2c-0.2,0.2-0.2,0.4-0.1,0.7c0,0,0,0.1,0,0.1
			c0.2,0.4,0.7,0.3,0.9,0c0,0,0,0,0.1,0c-0.1,0.1-0.3,0.1-0.4,0.2c0.2,0,0.6,0.2,0.8,0.3c0.4,0.2,0.8,0.3,1.3,0.3
			c0.7,0.1,1.4,0.2,2-0.2C308.5,493.9,308.4,493.5,308.2,493.4L308.2,493.4z"/>
	</g>
</g>
<g>
	<g>
		<g>
			<path d="M423.3,399.7c-2.3,8.4-4.6,16.7-7.5,25c-0.4,1.2-0.8,2.3-1.3,3.5c-0.6,1-1.2,1-1.9,0.2c-0.4,0-0.9-0.3-1.4-0.3
				c-4.1-0.7-11.1,3.2-11.9-3.6c-0.4-3.6,1.3-9.1,2.1-12.6c1.1-4.5,2.8-8.7,4.7-12.9c2-4.2,3.6-8.9,9.1-8.7c1,0.2,2,0.4,3,0.5
				c5.3,1.2,5.3,4,0.2,8.2c-2.7,0.3-8.5-3.7-9-5.5c-0.2-0.7-1.3-0.4-1.1,0.3c1.1,4,5.4,5,9,6c2.5,0.7,6.2,1.7,7.5-1.3
				c3-6.7-9-11.3-13.6-9.2c-3.6,1.6-5.3,7.4-6.8,10.6c-2.5,5.5-4.2,11.1-5.2,17.1c-0.5,2.9-2.8,9-0.2,11.3c1.1,0.9,3.5,0.9,4.9,1
				c3.2,0.3,7.3-0.9,10.1,1c0.3,0.2,0.6,0,0.7-0.3c3.6-9.9,6.9-20,9.1-30.3C424,399.5,423.4,399.3,423.3,399.7L423.3,399.7z"/>
		</g>
	</g>
	<g>
		<g>
			<path d="M415.8,392.2c-1-0.7-3.2-1-4.2-0.2c-1.1,0.9-0.2,2.5,0.8,3c1.2,0.7,3.1,0.8,4-0.4c1.1-1.4-0.5-2.5-1.7-3.1
				c-0.3-0.2-0.6,0.2-0.4,0.5c0.5,0.5,2.2,1.3,1.3,2.1c-0.7,0.7-1.8,0.6-2.6,0.1c-0.3-0.2-1-0.6-1-1.1c-0.1-0.7,0.5-0.9,1.1-0.9
				c0.9-0.1,1.7-0.1,2.5,0.2C415.9,392.7,416,392.4,415.8,392.2L415.8,392.2z"/>
		</g>
	</g>
	<g>
		<g>
			<path d="M418.5,393.5c0.8-0.9,1.7-1.7,2.7-2.3c0.4-0.3,1.4-0.8,1.9-0.8c2.7-0.1,1.4,2.3,0.8,2.9c-1.5,1.6-4.7,1.7-6.6,0.9
				c-0.3-0.1-0.5,0.3-0.3,0.5c1.4,1.3,3.6,0.8,5.2,0.3c1.6-0.5,2.9-1.6,3.3-3.3c0.3-1.4-0.8-2.2-2.1-2.1c-2.1,0.2-4.2,2.1-5.4,3.7
				C417.9,393.5,418.3,393.7,418.5,393.5L418.5,393.5z"/>
		</g>
	</g>
	<g>
		<g>
			<path d="M420.2,409.6c-3.9,1.9-13.4,0-15.8-3.8c-0.2-0.3-0.7-0.1-0.6,0.2c1,2.8,4.5,3.6,7.1,4.2c3.1,0.8,6.7,1.6,9.6-0.2
				C420.8,409.8,420.5,409.4,420.2,409.6L420.2,409.6z"/>
		</g>
	</g>
	<g>
		<g>
			<path d="M400.7,415.2c2.9,3.1,10.1,8.1,14.4,5.4c0.4-0.3,0.1-0.9-0.4-0.7c-4.4,2-10.5-2.5-13.7-5.1
				C400.8,414.7,400.4,415,400.7,415.2L400.7,415.2z"/>
		</g>
	</g>
</g>
<g>
	<g>
		<g>
			<path d="M360,368.4c-0.5,2.2-1.9,3.7-4.2,4.6c0.4,0.3,0.9,0.7,1.3,1c-0.2-5.8-0.1-11.7,0.8-17.4c0.3-1.5-1.5-2.8-2.7-1.5
				c-5.6,5.6-11,11.2-17.1,16.3c0.8,0.8,1.6,1.6,2.4,2.4c7.6-6.8,18.8-7.1,27-1.4c0.3-1.1,0.6-2.2,0.9-3.3
				c-10.9-0.8-19.1-10.7-30.5-9c-1.4,0.2-1.4,2.2-0.4,2.8c7.3,4.4,12.1,10.5,17.1,17.2c1,1.4,3,0.2,2.3-1.3
				c-3.6-8-10.6-13.9-17.9-18.5c-0.3,1-0.5,1.9-0.8,2.9c11-0.5,19.3,8.6,30,9.4c1.9,0.1,2.2-2.4,0.9-3.3c-9.6-6.7-22.5-5.7-31.3,1.9
				c-1.7,1.5,0.7,3.8,2.4,2.4c6.1-4.8,12.1-10.3,16.9-16.5c-0.9-0.4-1.8-0.7-2.7-1.1c-0.6,6.2-0.7,12,0.2,18.1c0.1,0.7,1,1,1.6,0.6
				c2.4-1.5,4-3.4,4.9-6.1C361.8,367.8,360.3,367.4,360,368.4L360,368.4z"/>
		</g>
	</g>
	<g>
		<g>
			<path d="M38.3,397.3c-4.7-5.5-10-9.5-15.2-14.3c-0.5-0.5-1.3-0.3-1.6,0.4c-3.3,10.3-5.2,21.1-7.3,31.6c-0.4,1.8,1.9,2.7,2.9,1.2
				c8.8-12.4,18.5-24.1,28.8-35.3c0.8-0.9,0.3-2.7-1.1-2.6c-12,1.1-23.9,2.2-35.9,3.2c-1.7,0.1-2,2.4-0.4,2.9
				c14.4,4.9,26.4,13.9,38.5,22.8c1.6,1.1,3-1.4,1.5-2.6c-12.1-9.1-24.7-18-39.2-23c-0.1,1-0.3,1.9-0.4,2.9
				c12-1.1,23.9-2.1,35.9-3.2c-0.4-0.9-0.7-1.7-1.1-2.6c-10.6,11.4-20.3,23.3-29.5,35.8c1,0.4,2,0.8,2.9,1.2
				c2.3-10.6,4.9-21.4,6.1-32.2c-0.5,0.3-0.9,0.5-1.4,0.8c5.7,3.3,11.1,8.9,15.4,13.8C37.9,398.9,38.9,398,38.3,397.3L38.3,397.3z"
				/>
		</g>
	</g>
	<g>
		<g>
			<g>
				<path d="M470.5,115c-5.4-23-3.2-46.6,6.8-68c-0.9-0.4-1.9-0.8-2.8-1.2c-3.9,12.5-14.9,20.7-24.9,28.3
					c-11,8.4-22.2,16.4-35.1,21.6c0.5,0.8,1,1.7,1.5,2.5c15-13.8,35.9-19,55.4-22.7c1.5-0.3,1.6-2.4,0.4-3.1
					c-11.3-6.9-20.6-15.4-29.6-24.9c-0.4-0.4-1-0.6-1.5-0.4c-3.2,1.1-3.2,4.3-2,7.1c2.6,6.3,7.4,12.1,10.6,18.1
					c7.1,13.3,11.7,27.4,17.9,41.1c0.8,1.7,3.3,0.5,3-1.2c-2.4-10.8-7.6-21.4-12.5-31.2c-2.5-5.1-5.2-10.1-8-15
					c-0.8-1.4-9.8-15.2-8.1-15.8c-0.6-0.2-1.2-0.5-1.8-0.7c8.1,10.6,18.9,19.2,30.3,25.9c0.1-1,0.3-2.1,0.4-3.1
					c-20.2,4.9-40.8,9.3-56.6,23.9c-1.1,1,0,3,1.5,2.5c14.4-4.9,26.7-14.2,38.7-23.4c10-7.7,19.7-16.1,23.5-28.6
					c0.5-1.6-2-2.8-2.8-1.2c-10.6,21.6-13.1,47-6.3,70.2C468.7,117,470.9,116.4,470.5,115L470.5,115z"/>
			</g>
		</g>
		<g>
			<g>
				<path d="M94.1,173.8c-9-10-16.5-20.9-22.4-32.9c-0.7-1.4-2.9-1-3.2,0.4c-5,19.6-10.1,39-16.4,58.3c-0.8,2.4,2.8,3.3,3.7,1
					C63,181.3,78,165.8,97,157.8c2.1-0.9,1.4-4-1-3.5c-11,2.7-22.2,3.7-33.4,2.9c-3.7-0.3-19.9-4.1-18.3,4.2
					c0.5,2.6,2.9,3.7,5.1,4.7c5.2,2.4,10.5,4.6,15.6,7.3c9.4,4.9,18.2,10.7,27.2,16.3c1.1,0.7,2.3-0.9,1.4-1.8
					c-12.1-10.5-26.8-18-41.4-24.2c-0.9-0.4-1.8-0.7-2.6-1.1c-0.2-2.4,0.7-3.2,2.7-2.6c1.9-0.5,4.8,0.4,6.7,0.6
					c4.3,0.4,8.6,0.7,13,0.7c8.5-0.1,16.9-1.3,25.2-3.3c-0.3-1.2-0.6-2.3-1-3.5c-20.2,8.5-36,24.8-44,45.2c1.2,0.3,2.4,0.7,3.7,1
					c6.3-19.1,12-38.6,16.1-58.3c-1.1,0.1-2.1,0.3-3.2,0.4c6.1,12.2,13.9,23.4,23.4,33.2C93.3,177.2,95.3,175.2,94.1,173.8
					L94.1,173.8z"/>
			</g>
		</g>
		<g>
			<g>
				<path d="M469.6,303.2c-1.6-9.3-0.3-17.9,3.3-26.6c0.4-1-0.8-2.2-1.8-1.8c-10.8,4.1-18.1,14.7-29.8,16.5c0.6,0.8,1.2,1.5,1.7,2.3
					c2.5-3.6,12.6,2.1,15.6,3c5.3,1.6,10.7,2.7,16.2,3.3c1.1,0.1,1.8-1.1,1.6-2.1c-1.3-4.7-3.7-8.9-7.5-12.1
					c-1.7-1.5-3.7-2.7-5.7-3.6c-2.2-1-8-1.8-7.7-5.1c0.1-1.2-1.7-1.6-2.3-0.6c-2.8,5,1.2,11.3,3,16c2.7,7.1,5,14.5,8.7,21.1
					c0.7,1.2,2.5,0.4,2.2-0.9c-1.5-6-4.2-11.7-6.5-17.4c-1.7-4.2-7.4-13.3-5.3-17.6c-0.8-0.2-1.5-0.4-2.3-0.6
					c-0.4,3.9,3.4,5.1,6.5,6.3c7,2.7,11.9,8.2,13.7,15.5c0.7-0.7,1.3-1.3,2-2c-8.4-1.2-16.2-3.3-24.2-6.2c-3.8-1.4-8.2-2.3-10.8,1.5
					c-0.6,0.9,0.2,2.4,1.3,2.3c12.2-0.9,19.4-12.2,30.2-16.6c-0.6-0.6-1.2-1.2-1.8-1.8c-3.4,8.9-3.7,18.6-1.9,27.8
					C468.3,304.6,469.8,304.2,469.6,303.2L469.6,303.2z"/>
			</g>
		</g>
		<g>
			<g>
				<path d="M186.6,77.2c-8.3,14.3-13.6,30.1-15.5,46.6c-1.4,12.4-2.2,30.5,13.1,34.5c13.5,3.5,24.7-10.6,31.1-20.4
					c8-12.3,12.2-26.6,11.5-41.3c0-1.1-1.4-1.8-2.2-0.9c-9.3,9.9-5.8,24.2-3.6,36.3c3.2,17.6,7.6,35.9,3.9,53.8
					c-3.2,15.2-13.2,29.5-30.1,29.5c-19.4,0-24.9-23.1-11.8-35.4c6.1-5.7,14.5-8.4,22.8-8.1c8.4,0.3,15.8,4.4,23.7,6.9
					c12.4,3.9,28.9,5.3,38.5-5.4c6.7-7.5,3.7-18.6-5.6-22.2c-8.9-3.5-21.3,3.2-19.8,13.6c1.8,12.4,19.1,17.1,28.6,10.6
					c9.3-6.5,2.7-19.5-7.6-19c-2.3,0.1-2.3,3.6,0,3.6c7.4-0.2,12,8.7,4.7,13c-5.9,3.4-14.5,2.1-19.2-2.7c-5.9-5.9-2.9-14.6,5.2-16.6
					c6.8-1.7,15,3.8,14.4,11.3c-0.5,7-8.5,11-14.4,12.4c-8,2-16.3,0.5-24-1.9c-12.1-3.8-22.2-9.2-35.2-5.9
					c-10.5,2.7-19.8,10.2-22.3,21c-2.2,9.1,0.8,19.7,9.1,24.8c8.1,5,19.3,4,27.5-0.3c9.4-5,15-14.7,17.6-24.7
					c3.9-14.8,2.1-30.2-0.6-45.1c-1.5-8.3-3.4-16.5-4.6-24.8c-1.2-8.1-1.3-16.5,4.6-22.8c-0.7-0.3-1.5-0.6-2.2-0.9
					c0.6,12.3-2.3,24.4-8.2,35.2c-5.5,9.9-17.5,27.7-31.1,23.7c-15.3-4.4-11.9-25.6-9.9-37.4c2.3-13.9,7.2-27.1,13.6-39.6
					C189.4,77.1,187.4,75.9,186.6,77.2L186.6,77.2z"/>
			</g>
		</g>
		<g>
			<g>
				<path d="M278.2,151.5c1.4,8.1,3.2,26.9,16.5,21.8c4.4-1.7,7.4-6.6,8.7-11c1-3.5,0.5-9.2-4.3-8.7c-1.2,0.1-1.5,1.4-0.6,2.1
					c3.2,2.3,0.6,7.4-1,10c-1.9,3-5,5.6-8.8,4.3c-6.5-2.3-6.9-13.7-8.1-19.1C280.3,149.1,277.9,149.8,278.2,151.5L278.2,151.5z"/>
			</g>
		</g>
		<g>
			<g>
				<path d="M256.1,193.9c-6.9-1.1-15,1.5-18.7,7.8c-4.2,7.3,1.2,12.4,7.8,14.7c6.7,2.4,16.3,2.4,20.8-4.1c4.8-6.9-1.7-15.1-7.4-19
					c-1.6-1.1-3,1.2-1.9,2.5c3.1,3.7,9.8,8.7,6.5,14.2c-3,5-10.7,4.8-15.5,3.4c-2.2-0.6-5.3-1.6-6.9-3.3c-2.9-3-0.7-7.1,1.6-9.3
					c3.6-3.5,8.6-4.4,13.3-3.9C257.3,196.9,257.7,194.2,256.1,193.9L256.1,193.9z"/>
			</g>
		</g>
		<g>
			<g>
				<path d="M273.5,197.2c0.6,5.7,2,11.2,4.1,16.6c0.6,1.5,3.1,1.5,3-0.4c-0.2-3.9-0.6-8.1,1.5-11.5c2.5-4,7.1-5.2,11.4-3.6
					c8.5,3.2,7.1,11.5,7.7,18.8c0.1,1.7,2.7,2.3,3.1,0.4c2.5-9.7-1.3-21.5-12.4-23.2c-4.4-0.7-8.8,1-11.6,4.5
					c-3.4,4.2-3.2,9.5-2.8,14.6c1-0.1,2-0.3,3-0.4c-2.1-5.2-3.9-10.6-5.4-16C274.8,196.2,273.4,196.3,273.5,197.2L273.5,197.2z"/>
			</g>
		</g>
		<g>
			<g>
				<path d="M316.9,184.9c-4.3,12.8-1.6,31.2,11.5,38.1c0.9,0.5,2.2-0.5,1.5-1.5c-3.6-5.5-7.8-10.2-9.9-16.5
					c-2.1-6.3-2.3-12.9-0.2-19.3C320.4,183.9,317.6,183.1,316.9,184.9L316.9,184.9z"/>
			</g>
		</g>
		<g>
			<g>
				<path d="M333.5,195.6c-4.3,8,0.2,21,10.1,21.9c10.1,0.9,15.1-8.9,11.4-17.4c-0.8-1.9-3.5-0.8-3.6,1c-0.2,6.6-0.5,13.3-1,19.9
					c-0.5,6.4-0.4,13.8-2.4,19.8c-4.8,14.4-23.5,9.9-34.5,10.1c-2,0-2.2,2.6-0.4,3.3c11,4.1,29.2,2.8,36.5-7.6
					c3.8-5.3,3.7-12.7,4.2-19c0.8-8.8,1.3-17.7,1.5-26.5c-1.2,0.3-2.4,0.6-3.6,1c3,6.8-3.5,14.6-10.8,10.8
					c-5.9-3.2-6.6-10.5-5.2-16.3C336.1,195.2,334.2,194.3,333.5,195.6L333.5,195.6z"/>
			</g>
		</g>
		<g>
			<g>
				<path d="M209.6,228.3c-4.7,14.9-0.4,30.3-2.7,45.5c-1.2,7.9-4.9,17.5-12.7,21.1c-4.6,2.1-10.1,1.2-13.5-2.7
					c-4.4-5-1.6-11.3,2.4-15.5c-0.7,0.1-1.3,0.2-2,0.3c11.6,7,23.3,15,37.2,16.1c10,0.8,22.9-1.9,27.7-11.8c0.5-1.1-0.9-2.5-1.8-1.4
					c-6.8,8.2-18.7,10.3-28.9,8.7c-11.9-1.9-22.4-8.4-32.6-14.5c-0.6-0.4-1.5-0.3-2,0.3c-6,6.4-8.3,16.1-0.6,22.2
					c7.3,5.8,16.9,2.8,22.5-3.8c15.1-17.7,4.4-43.2,9.3-63.8C212.4,227.4,210,226.7,209.6,228.3L209.6,228.3z"/>
			</g>
		</g>
		<g>
			<g>
				<path d="M236.2,259.7c0.2,4.4,1.5,8.7,2.4,12.9c0.9,4.3,1.7,8.6,3.8,12.6c0.5,1,2.1,0.5,2.1-0.6c0.1-4.5-1.3-8.7-2.4-12.9
					c-1.1-4.2-2-8.6-3.8-12.6C237.8,258.1,236.2,258.6,236.2,259.7L236.2,259.7z"/>
			</g>
		</g>
		<g>
			<g>
				<path d="M240.6,245c0-0.2,0-0.3,0-0.5c0-0.1,0-0.1,0-0.2c0-0.4-0.1-0.6-0.2-0.9c-0.2-0.5-0.8-0.8-1.3-0.8
					c-0.5,0-1.1,0.3-1.3,0.8c-0.1,0.3-0.2,0.5-0.2,0.8c0,0.1,0,0.2,0,0.2c0,0.2,0,0.3,0,0.5c0,0.8,0.7,1.6,1.6,1.6
					c0.4,0,0.8-0.2,1.1-0.5C240.5,245.9,240.7,245.5,240.6,245L240.6,245z"/>
			</g>
		</g>
		<g>
			<g>
				<path d="M244.5,260.5c3.3,5.2,6.5,10.5,9.8,15.7c1.6,2.4,3.3,6.6,6.7,7c3.6,0.4,5.2-3,6.5-5.7c2.5-5.2,6-11,6.9-16.7
					c0.2-1.4-1.5-2.9-2.6-1.5c-2.2,2.6-3.4,5.8-4.8,8.9c-1,2.2-3.1,10.6-6.3,10c-0.8-0.2-2.8-4.2-3.3-4.9c-1.1-1.6-2.2-3.2-3.3-4.8
					c-2.2-3.2-4.5-6.4-6.8-9.6C246.1,257.2,243.4,258.7,244.5,260.5L244.5,260.5z"/>
			</g>
		</g>
		<g>
			<g>
				<path d="M280.7,268.9c8.7,3.6,17.9,3.2,26.6,0c1-0.4,1.8-1.6,1.1-2.7c-7.4-10.5-27.3-10-30.6,4c-4,16.8,22.2,21.8,33.4,20.9
					c1.6-0.1,2.1-2.5,0.4-2.9c-9.6-2.1-24-1.3-29.3-11.7c-2.9-5.8,1.8-11.7,7.3-13.4c5.5-1.7,12.3,0.1,15.7,4.9
					c0.2-0.8,0.4-1.7,0.7-2.5c-7.7,3.5-16.5,3.3-24.4,0.4C279.6,265.3,278.9,268.2,280.7,268.9L280.7,268.9z"/>
			</g>
		</g>
		<g>
			<g>
				<path d="M270.9,297.1c-6.6,2.3-14.7,5.9-17.1,13.1c-2,6,0.9,12.7,6.9,15c4.1,1.5,8.6,0.9,12.6-0.3c3-0.8,8.4-1.9,9.8-5.3
					c1.3-3.2-1.6-7-3.3-9.5c-2.9-4.4-6.4-8.4-10.4-11.9c-0.8-0.7-1.9-0.7-2.6,0c-1.6,1.5-2.2,2.6-2.1,4.8c0,1.1,1.6,1.6,2.1,0.6
					c0.8-0.8,1.5-1.6,2.3-2.4c-0.8-0.1-1.5-0.2-2.3-0.3c4,3.8,7.7,7.9,10.7,12.6c1.4,2.2,2,2.3,0.5,4.7c-1.4,2.1-2.2,2.2-4.6,3
					c-3.2,1-6.6,1.8-9.9,1c-6-1.3-8.9-7.5-5.8-13c2.8-5.1,8.9-7.8,14-9.7C273,298.9,272.4,296.6,270.9,297.1L270.9,297.1z"/>
			</g>
		</g>
		<g>
			<g>
				<path d="M291.6,322.4c-3.2-1.9-6.7-5.1-6.5-9.3c0.4-5.9,7.2-8.5,12.1-7.1c9.7,2.8,8.2,11.9,10.2,19.5c0.4,1.6,2.9,1.7,3.3,0
					c2.7-11.4-6.5-26.3-19.6-23.1c-4.7,1.2-8.8,5-9.1,10c-0.4,5.5,3.7,9.8,8.3,12.1C291.8,325.3,293,323.3,291.6,322.4L291.6,322.4z
					"/>
			</g>
		</g>
		<g>
			<g>
				<path d="M336,305.1c-5.4-9.3-20.9,1.1-22.4,8.7c-2,10.5,11.7,18.5,20.3,12.9c1.2-0.8,0.8-2.8-0.8-2.8
					c-5.8,0.2-13.9,0.5-15.8-6.6c-1.1-4.2,1.7-7.4,4.8-9.7c3-2.2,8.8-5.5,11.7-1.3C334.8,307.6,336.8,306.4,336,305.1L336,305.1z"/>
			</g>
		</g>
		<g>
			<g>
				<path d="M339.7,316.7c6.7,1,13.4,1.2,20.2,0.6c4-0.4,12.5-0.1,15-3.9c4.4-6.8-14.6-11-18.6-10.6c-9,1-13.2,10.5-7.3,17.7
					c7,8.6,23.8,11.1,33.9,8.8c1.4-0.3,1.5-2.7,0-3c-7.6-1.4-15.3-1.2-22.6-3.8c-3.7-1.3-8.1-3.4-9.6-7.3c-1.8-4.7,1.9-8.1,6.4-8.5
					c4.2-0.4,8,1.3,11.6,3.3c0.4,0.3,0.9,0.5,1.3,0.8c1.8,0.6,1.8,1,0.1,1.2c-1.1,0.8-4,0.9-5.3,1.1c-8.2,1.5-16.4,1.6-24.7,1
					C338.6,314,338.2,316.5,339.7,316.7L339.7,316.7z"/>
			</g>
		</g>
	</g>
</g>
</svg>
