<?xml version="1.0" encoding="utf-8"?>
<!-- Generator: Adobe Illustrator 24.1.3, SVG Export Plug-In . SVG Version: 6.00 Build 0)  -->
<svg version="1.1" id="Ebene_1" xmlns="http://www.w3.org/2000/svg" xmlns:xlink="http://www.w3.org/1999/xlink" x="0px" y="0px"
	 viewBox="0 0 174.3 300.1" style="enable-background:new 0 0 174.3 300.1;" xml:space="preserve">
<style type="text/css">
	.st0{fill:#00B7D9;}
	.st1{fill:none;stroke:#000000;stroke-width:2;stroke-miterlimit:10;}
	.st2{stroke:#000000;stroke-width:6;stroke-miterlimit:10;}
	.st3{fill:#232323;}
	.st4{opacity:0.65;}
	.st5{fill:#6D6D6D;}
	.st6{fill:#00B7D9;stroke:#000000;stroke-width:7;stroke-miterlimit:10;}
	.st7{stroke:#000000;stroke-width:2;stroke-miterlimit:10;}
	.st8{fill:none;stroke:#000000;stroke-miterlimit:10;}
	.st9{fill:#C1C1C1;stroke:#000000;stroke-width:10;stroke-miterlimit:10;}
	.st10{fill:none;stroke:#000000;stroke-width:5;stroke-linecap:round;stroke-miterlimit:10;}
	.st11{fill:#686868;stroke:#000000;stroke-width:5;stroke-miterlimit:10;}
	.st12{fill:#565656;stroke:#000000;stroke-width:8;stroke-miterlimit:10;}
	.st13{fill:#919191;stroke:#000000;stroke-width:3;stroke-miterlimit:10;}
	.st14{fill:#494949;}
	.st15{fill:#242424;}
	.st16{fill:#919191;}
	.st17{fill:url(#SVGID_1_);}
	.st18{fill:#FFFFFF;}
	.st19{fill:#2E2E2E;}
	.st20{fill:#313131;}
	.st21{fill:#00B7D9;stroke:#333333;stroke-width:5;stroke-miterlimit:10;}
	.st22{fill:#00B7D9;stroke:#333333;stroke-width:3;stroke-miterlimit:10;}
	.st23{fill:#262626;}
	.st24{fill:#212121;}
	.st25{fill:#00B7D9;stroke:#000000;stroke-width:3;stroke-miterlimit:10;}
	.st26{fill:#3D3D3D;stroke:#000000;stroke-width:6;stroke-miterlimit:10;}
	.st27{fill:#00B7D9;stroke:#000000;stroke-width:2;stroke-miterlimit:10;}
	.st28{fill:#FFFFFF;stroke:#000000;stroke-miterlimit:10;}
	.st29{fill:#464943;stroke:#000000;stroke-miterlimit:10;}
	.st30{stroke:#000000;stroke-width:3;stroke-miterlimit:10;}
	.st31{fill:#BFBFBF;stroke:#000000;stroke-width:2;stroke-miterlimit:10;}
	.st32{fill:#242423;stroke:#000000;stroke-width:2;stroke-miterlimit:10;}
	.st33{fill:#A1C0FF;}
	.st34{fill:#646363;}
	.st35{fill:#00B7D9;stroke:#000000;stroke-width:6;stroke-miterlimit:10;}
	.st36{fill:#757575;}
</style>
<g class="st4">
	<g>
		<g>
			<path class="st5" d="M74.1,100.6c2.4-1.6,4.4-3.7,6.4-5.9c1.4-1.5,3.5-3.2,4.3-5.1c1.5-3.6-1.5-7.8-3.3-10.8
				c-3.3-5.4-7.4-10.8-6-17.5c1.3-6.6,6-12.4,11.6-15.8c0.5-0.3,0.7-1.1,0.2-1.5C82.4,39.3,76.2,30,78,23c1.2-4.6,5.3-8.2,3.2-13.2
				c-0.4-1.1-2.1-0.7-1.8,0.5c1.7,6.5-5.3,11.7-3.7,18.6c1.5,6.5,6.1,11.5,10.2,16.4c0.1-0.5,0.1-1,0.2-1.5
				c-7.5,4.6-14.5,14.4-12.6,23.5c1,4.9,4.2,8.9,6.7,13.1c0.7,1.1,1.7,2.6,2.1,3.9c1.2,4-1,5.5-3,7.9c-2.1,2.5-4.3,4.9-5.8,7.8
				C73.3,100.3,73.7,100.8,74.1,100.6L74.1,100.6z"/>
		</g>
	</g>
	<g>
		<g>
			<path class="st5" d="M80.2,92.9c1,3.1,5.1,5.1,7.7,6.6c4.1,2.4,7.9,4.8,11.7,7.7c0.7,0.5,1.9-0.1,1.3-1c-2.2-3.4-5.8-5.4-9.3-7.3
				c-2-1.1-4.1-2.2-6-3.5c-1.6-1.1-3-2.5-4.8-3.1C80.5,92.2,80.1,92.5,80.2,92.9L80.2,92.9z"/>
		</g>
	</g>
	<g>
		<g>
			<path class="st5" d="M68.8,103c-2.7-0.6-5.4,1.1-6.9,3.3c-0.7,1-0.9,1.9-1.1,3c-0.3,2.4,0.8,2.4-1.3,4.6c-1.9,2-1.3,1.1-3,2
				c-4.3,2.3-7.4,6.2-10.9,9.6c-4.1,4.2-9.2,8.2-12.3,13.2c-0.2,0.4,0.2,0.9,0.6,0.6c3.9-2.6,7-6.5,10.3-9.9
				c3.5-3.5,8.1-10.3,12.9-11.9c2.7-0.9,5.1,0.1,6.2-3.1c0.4-1.3,0-2.5,0-3.8c0-3.9,1.5-5.7,5.4-6.2C69.6,104.3,69.5,103.1,68.8,103
				L68.8,103z"/>
		</g>
	</g>
	<g>
		<g>
			<path class="st5" d="M48.5,121.3c-3-0.2-6.6,1.3-9,3c-0.5,0.3-0.2,1.1,0.4,0.9c1.6-0.4,3.1-1,4.7-1.5c1.4-0.5,2.9-0.8,4.2-1.6
				C49.1,121.8,48.9,121.3,48.5,121.3L48.5,121.3z"/>
		</g>
	</g>
	<g>
		<g>
			<path class="st5" d="M77.6,16.3c0.6-1.7-6.2-3.7-6.8-4.6c-0.8-1.1-1-3.2-1.4-4.5c-0.5-1.6-0.9-3.2-1.9-4.6C67,2,66,2.1,66,3
				c0,1.9,0.8,3.6,1.4,5.3c0.6,1.5,0.9,3.4,1.8,4.8c0.6,1,1.4,1.2,2.4,1.7c2,0.9,3.7,2.1,5.5,3.3c0.6,0.4,1.4-0.1,1.4-0.8
				c0-0.6-0.1-0.7-0.6-1.1C77.8,16.1,77.7,16.2,77.6,16.3L77.6,16.3z"/>
		</g>
	</g>
	<g>
		<g>
			<path class="st5" d="M94.5,104c-1.2,3.2-4.9,10.9-0.8,13.5c2.4,1.5,6.4,0.7,9.1,1.3c5.5,1.3,10,4.6,12.1,10
				c0.1,0.2,0.4,0.1,0.3-0.1c-1.4-5-4.8-8.5-9.6-10.5c-2.2-0.9-4.5-0.8-6.6-1.5c-2.7,0.2-4.5-1.3-5.5-4.7c0.1-0.5,0.2-1.1,0.3-1.6
				c0.2-2,1.2-4.3,1.9-6.2C96.1,103.5,94.8,103.2,94.5,104L94.5,104z"/>
		</g>
	</g>
	<g>
		<g>
			<path class="st5" d="M115.1,129.3c3.8,3.2,7.9,6.7,12.7,8.2c0.5,0.2,0.8-0.6,0.4-0.8c-4.1-2.8-8.7-4.8-12.8-7.7
				C115.2,128.8,114.9,129.1,115.1,129.3L115.1,129.3z"/>
		</g>
	</g>
</g>
<g id="Uhr">
	<polyline class="st8" points="65.3,145.5 72.2,100.7 82.7,145 	"/>
	<circle cx="72.1" cy="101.1" r="3.1"/>
	<path class="st9" d="M80.1,146.1c22.6-3.2,34.1-4.7,43.8,0c10.7,5.2,16.4,15.8,28,36.9c13,24,19.6,36,16.9,46.4
		c-3.1,12-12.1,11.5-39.6,36.9c-19.4,18-18.3,21.4-27.4,25.3c-26.8,11.4-57.8-8.8-61.2-11.1c-4-2.7-32-22.2-35.3-58.5
		c-0.2-2.2-3.4-43,23.7-63.3C38,152,52,150,80.1,146.1z"/>
	<polyline class="st10" points="78.5,174.5 83.4,223.6 115.3,222.4 	"/>
	<circle cx="77.8" cy="156.1" r="3.5"/>
	<circle cx="156" cy="213.4" r="2.9"/>
	<circle cx="15.4" cy="219.3" r="3"/>
	<circle cx="87.1" cy="282.5" r="3.7"/>
</g>
</svg>
